#N canvas 0 23 950 683 12;
#X obj 316 258 cputime;
#X obj 316 174 loadbang;
#X obj 316 216 metro 1000;
#X obj 316 237 t b b;
#X obj 316 300 * 0.1;
#X obj 316 279 int;
#X obj 316 321 s \$0-cpu;
#X msg 316 195 1;
#X obj 288 141 nbx 3 16 -1e+37 1e+37 0 0 empty \$0-cpu CPU(%) 0 -6
0 12 -1 -262144 -1 13 256;
#X connect 0 0 5 0;
#X connect 1 0 7 0;
#X connect 2 0 3 0;
#X connect 3 0 0 0;
#X connect 3 1 0 1;
#X connect 4 0 6 0;
#X connect 5 0 4 0;
#X connect 7 0 2 0;
