#N canvas 128 -747 1334 672 12;
#X obj 134 264 loadbang, f 3;
#X obj 134 313 i 1;
#X obj 18 404 tabwrite groove, f 16;
#X obj 18 430 tabwrite groove, f 16;
#X obj 39 -21 inlet;
#X obj 32 274 unpack f f;
#X obj 659 -12 inlet;
#X obj 39 9 s \$0-step1-v-ut;
#X obj 9 232 r \$0-step1-v-ut;
#X obj 373 265 loadbang, f 3;
#X obj 281 361 tabwrite groove, f 16;
#X obj 281 387 tabwrite groove, f 16;
#X obj 281 313 unpack f f;
#X obj 609 264 loadbang, f 3;
#X obj 517 360 tabwrite groove, f 16;
#X obj 517 386 tabwrite groove, f 16;
#X obj 517 312 unpack f f;
#X obj 856 258 loadbang, f 3;
#X obj 764 354 tabwrite groove, f 16;
#X obj 764 380 tabwrite groove, f 16;
#X obj 764 306 unpack f f;
#X obj 284 237 r \$0-step2-v-ut;
#X obj 373 315 i 2;
#X obj 609 313 i 3;
#X obj 520 236 r \$0-step3-v-ut;
#X obj 767 230 r \$0-step4-v-ut;
#X obj 857 307 i 4;
#X obj 169 -21 inlet;
#X obj 294 -19 inlet;
#X obj 418 -21 inlet;
#X obj 169 9 s \$0-step2-v-ut;
#X obj 294 11 s \$0-step3-v-ut;
#X obj 418 9 s \$0-step4-v-ut;
#X obj 665 21 s \$0-beat_index;
#X obj 176 308 r \$0-beat_index;
#X obj 414 309 r \$0-beat_index;
#X obj 650 308 r \$0-beat_index;
#X obj 897 302 r \$0-beat_index;
#X obj 42 336 plot_trigger;
#X obj 281 337 plot_trigger;
#X obj 517 337 plot_trigger;
#X obj 764 330 plot_trigger;
#X obj 16 462 tabwrite onset_tracker;
#X obj 279 417 tabwrite onset_tracker;
#X obj 517 418 tabwrite onset_tracker;
#X obj 762 413 tabwrite onset_tracker;
#X text 704 -3 beat index in [0 \, 1 \, 2 \, ... \, 7];
#X obj 40 167 r test_ut_v1;
#X obj 182 253 bng 15 250 50 0 empty empty empty 17 7 0 10 -262144
-1 -1;
#X floatatom 115 544 5 0 0 0 - - -;
#X obj 8 582 tabread onset_histogram;
#X obj 9 611 + 1;
#X obj 11 641 tabwrite onset_histogram;
#X floatatom 251 599 5 0 0 0 - - -;
#X floatatom 236 647 5 0 0 0 - - -;
#X floatatom 451 544 5 0 0 0 - - -;
#X obj 344 582 tabread onset_histogram;
#X obj 345 611 + 1;
#X obj 347 641 tabwrite onset_histogram;
#X floatatom 587 599 5 0 0 0 - - -;
#X floatatom 572 647 5 0 0 0 - - -;
#X floatatom 779 549 5 0 0 0 - - -;
#X obj 672 587 tabread onset_histogram;
#X obj 673 616 + 1;
#X obj 675 646 tabwrite onset_histogram;
#X floatatom 915 604 5 0 0 0 - - -;
#X floatatom 900 652 5 0 0 0 - - -;
#X floatatom 1105 551 5 0 0 0 - - -;
#X obj 998 589 tabread onset_histogram;
#X obj 999 618 + 1;
#X obj 1001 648 tabwrite onset_histogram;
#X floatatom 1241 606 5 0 0 0 - - -;
#X floatatom 1226 654 5 0 0 0 - - -;
#X connect 0 0 1 0;
#X connect 1 0 38 2;
#X connect 4 0 7 0;
#X connect 5 0 38 0;
#X connect 5 1 38 1;
#X connect 6 0 33 0;
#X connect 8 0 5 0;
#X connect 9 0 22 0;
#X connect 12 0 39 0;
#X connect 12 1 39 1;
#X connect 13 0 23 0;
#X connect 16 0 40 0;
#X connect 16 1 40 1;
#X connect 17 0 26 0;
#X connect 20 0 41 0;
#X connect 20 1 41 1;
#X connect 21 0 12 0;
#X connect 22 0 39 2;
#X connect 23 0 40 2;
#X connect 24 0 16 0;
#X connect 25 0 20 0;
#X connect 26 0 41 2;
#X connect 27 0 30 0;
#X connect 28 0 31 0;
#X connect 29 0 32 0;
#X connect 34 0 38 3;
#X connect 35 0 39 3;
#X connect 36 0 40 3;
#X connect 37 0 41 3;
#X connect 38 0 2 0;
#X connect 38 0 42 0;
#X connect 38 1 2 1;
#X connect 38 1 42 1;
#X connect 38 2 3 0;
#X connect 38 3 3 1;
#X connect 38 4 49 0;
#X connect 39 0 10 0;
#X connect 39 0 43 0;
#X connect 39 1 10 1;
#X connect 39 1 43 1;
#X connect 39 2 11 0;
#X connect 39 3 11 1;
#X connect 39 4 55 0;
#X connect 40 0 14 0;
#X connect 40 0 44 0;
#X connect 40 1 14 1;
#X connect 40 1 44 1;
#X connect 40 2 15 0;
#X connect 40 3 15 1;
#X connect 40 4 61 0;
#X connect 41 0 18 0;
#X connect 41 0 45 0;
#X connect 41 1 18 1;
#X connect 41 1 45 1;
#X connect 41 2 19 0;
#X connect 41 3 19 1;
#X connect 41 4 67 0;
#X connect 48 0 1 0;
#X connect 49 0 50 0;
#X connect 49 0 52 1;
#X connect 50 0 51 0;
#X connect 50 0 53 0;
#X connect 51 0 52 0;
#X connect 51 0 54 0;
#X connect 55 0 56 0;
#X connect 55 0 58 1;
#X connect 56 0 57 0;
#X connect 56 0 59 0;
#X connect 57 0 58 0;
#X connect 57 0 60 0;
#X connect 61 0 62 0;
#X connect 61 0 64 1;
#X connect 62 0 63 0;
#X connect 62 0 65 0;
#X connect 63 0 64 0;
#X connect 63 0 66 0;
#X connect 67 0 68 0;
#X connect 67 0 70 1;
#X connect 68 0 69 0;
#X connect 68 0 71 0;
#X connect 69 0 70 0;
#X connect 69 0 72 0;
