#N canvas 192 72 1248 776 12;
#X obj 406 71 tgl 15 0 empty empty empty 17 7 0 10 -262144 -1 -1 0
1;
#X floatatom 389 172 5 0 0 0 - - -;
#X floatatom 561 171 5 0 0 0 - - -;
#X text 406 145 controller #;
#X text 561 192 channel/port;
#X floatatom 306 256 5 0 0 0 - - -;
#N canvas 0 23 672 429 get_cc_value 0;
#X obj 120 52 inlet;
#X obj 233 49 inlet;
#X text 113 24 controller #;
#X text 205 24 channel/port;
#X floatatom 31 187 5 0 0 0 - - -;
#X floatatom 124 190 5 0 0 0 - - -;
#X floatatom 219 191 5 0 0 0 - - -;
#X text 65 170 value;
#X text 141 170 controller #;
#X obj 122 260 ==;
#X obj 222 264 ==;
#X obj 51 390 outlet;
#X obj 58 299 spigot;
#X obj 81 335 spigot;
#X floatatom 81 359 5 0 0 0 - - -;
#X obj 156 277 tgl 15 0 empty empty empty 17 7 0 10 -262144 -1 -1 0
1;
#X obj 266 218 t b f;
#X obj 152 218 t b f;
#X obj 32 152 notein, f 27;
#X connect 0 0 17 0;
#X connect 1 0 16 0;
#X connect 4 0 12 0;
#X connect 5 0 9 0;
#X connect 6 0 10 0;
#X connect 9 0 12 1;
#X connect 10 0 13 1;
#X connect 12 0 13 0;
#X connect 13 0 14 0;
#X connect 14 0 11 0;
#X connect 16 0 6 0;
#X connect 16 1 10 1;
#X connect 17 0 5 0;
#X connect 17 1 9 1;
#X connect 18 0 4 0;
#X connect 18 1 5 0;
#X connect 18 2 6 0;
#X restore 305 221 pd get_cc_value;
#X f 33;
#X obj 404 24 inlet;
#X obj 306 279 outlet;
#X text 357 281 cc value;
#X obj 479 282 outlet;
#X text 484 257 Learnt CC number;
#X obj 638 281 outlet;
#X text 643 256 Learnt channel/port;
#X obj 827 278 outlet;
#X text 886 265 reset learner toggle;
#X obj 576 50 inlet;
#X obj 706 51 inlet;
#X text 567 29 force cc num;
#X text 697 30 force channel/port;
#X obj 406 104 midi_learn_cc_number_note_as_button;
#X connect 0 0 20 0;
#X connect 1 0 6 0;
#X connect 1 0 10 0;
#X connect 2 0 6 1;
#X connect 2 0 12 0;
#X connect 5 0 8 0;
#X connect 6 0 5 0;
#X connect 7 0 0 0;
#X connect 16 0 20 2;
#X connect 17 0 20 3;
#X connect 20 0 1 0;
#X connect 20 1 2 0;
#X connect 20 2 14 0;
