#N canvas 379 162 1440 806 12;
#X floatatom 46 107 10 0 0 2 - - -;
#X floatatom 155 240 5 0 0 0 - - -;
#X obj 150 105 loadbang;
#X obj 46 125 ctlin 71, f 14;
#X floatatom 365 71 10 0 0 2 - - -;
#X floatatom 474 204 5 0 0 0 - - -;
#X obj 469 69 loadbang;
#X floatatom 658 69 10 0 0 2 - - -;
#X floatatom 767 202 5 0 0 0 - - -;
#X obj 762 67 loadbang;
#X floatatom 39 310 10 0 0 2 - - -;
#X floatatom 148 443 5 0 0 0 - - -;
#X obj 143 308 loadbang;
#X floatatom 346 303 10 0 0 2 - - -;
#X floatatom 455 417 5 0 0 0 - - -;
#X obj 450 301 loadbang;
#X floatatom 660 303 10 0 0 2 - - -;
#X floatatom 770 430 5 0 0 0 - - -;
#X obj 764 301 loadbang;
#X floatatom 44 525 10 0 0 2 - - -;
#X floatatom 153 674 5 0 0 0 - - -;
#X obj 148 523 loadbang;
#X floatatom 278 526 10 0 0 2 - - -;
#X floatatom 387 675 5 0 0 0 - - -;
#X obj 382 524 loadbang;
#X floatatom 599 531 10 0 0 2 - - -;
#X floatatom 708 680 5 0 0 0 - - -;
#X obj 703 529 loadbang;
#X obj 365 89 ctlin 72, f 14;
#X obj 658 87 ctlin 73, f 14;
#X obj 39 328 ctlin 74, f 14;
#X obj 346 321 ctlin 75, f 14;
#X obj 660 321 ctlin 76, f 14;
#X obj 44 543 ctlin 77, f 14;
#X obj 278 544 ctlin 78, f 14;
#X obj 599 549 ctlin 79, f 14;
#X obj 46 88 r max_count_0_init;
#X obj 155 257 s max_count_0_in;
#X obj 365 51 r max_count_1_init;
#X obj 474 221 s max_count_1_in;
#X obj 658 50 r max_count_2_init;
#X obj 767 219 s max_count_2_in;
#X obj 148 460 s max_count_3_in;
#X obj 39 291 r max_count_3_init;
#X obj 278 506 r max_count_7_init;
#X obj 387 692 s max_count_7_in;
#X obj 770 447 s max_count_5_in;
#X obj 44 507 r max_count_6_init;
#X obj 659 284 r max_count_5_init;
#X obj 345 284 r max_count_4_init;
#X obj 599 512 r max_count_8_init;
#X obj 708 697 s max_count_8_in;
#X obj 455 434 s max_count_4_in;
#X msg 212 124 0 32;
#X msg 531 88 0 32;
#X msg 824 86 0 32;
#X msg 205 327 0 32;
#X msg 444 543 0 32;
#X msg 210 542 0 32;
#X msg 826 320 0 32;
#X msg 512 320 0 32;
#X msg 765 548 0 32;
#X obj 153 691 s max_count_6_in;
#X msg 150 123 0.1;
#X msg 469 87 0.1;
#X msg 762 85 0.1;
#X msg 143 325 0.1;
#X msg 382 542 0.1;
#X msg 148 541 0.1;
#X msg 764 319 0.1;
#X msg 450 319 0.1;
#X msg 703 547 0.1;
#X obj 47 165 spigot;
#X obj 98 146 r max_count_page_enabled;
#X obj 375 128 spigot;
#X obj 426 109 r max_count_page_enabled;
#X obj 665 130 spigot;
#X obj 716 111 r max_count_page_enabled;
#X obj 50 370 spigot;
#X obj 101 351 r max_count_page_enabled;
#X obj 356 351 spigot;
#X obj 407 332 r max_count_page_enabled;
#X obj 682 363 spigot;
#X obj 733 344 r max_count_page_enabled;
#X obj 57 601 spigot;
#X obj 108 582 r max_count_page_enabled;
#X obj 303 593 spigot;
#X obj 354 574 r max_count_page_enabled;
#X obj 616 598 spigot;
#X obj 667 579 r max_count_page_enabled;
#X text 441 -7 Max Counts;
#X obj 46 207 rotary_encoder_to_value, f 26;
#X obj 365 171 rotary_encoder_to_value, f 26;
#X obj 658 169 rotary_encoder_to_value, f 26;
#X obj 661 397 rotary_encoder_to_value, f 26;
#X obj 346 384 rotary_encoder_to_value, f 26;
#X obj 39 410 rotary_encoder_to_value, f 26;
#X obj 44 641 rotary_encoder_to_value, f 26;
#X obj 278 642 rotary_encoder_to_value, f 26;
#X obj 599 646 rotary_encoder_to_value, f 26;
#X connect 0 0 91 1;
#X connect 1 0 37 0;
#X connect 2 0 63 0;
#X connect 2 0 53 0;
#X connect 3 0 72 0;
#X connect 4 0 92 1;
#X connect 5 0 39 0;
#X connect 6 0 64 0;
#X connect 6 0 54 0;
#X connect 7 0 93 1;
#X connect 8 0 41 0;
#X connect 9 0 65 0;
#X connect 9 0 55 0;
#X connect 10 0 96 1;
#X connect 11 0 42 0;
#X connect 12 0 66 0;
#X connect 12 0 56 0;
#X connect 13 0 95 1;
#X connect 14 0 52 0;
#X connect 15 0 70 0;
#X connect 15 0 60 0;
#X connect 16 0 94 1;
#X connect 17 0 46 0;
#X connect 18 0 69 0;
#X connect 18 0 59 0;
#X connect 19 0 97 1;
#X connect 20 0 62 0;
#X connect 21 0 68 0;
#X connect 21 0 58 0;
#X connect 22 0 98 1;
#X connect 23 0 45 0;
#X connect 24 0 67 0;
#X connect 24 0 57 0;
#X connect 25 0 99 1;
#X connect 26 0 51 0;
#X connect 27 0 71 0;
#X connect 27 0 61 0;
#X connect 28 0 74 0;
#X connect 29 0 76 0;
#X connect 30 0 78 0;
#X connect 31 0 80 0;
#X connect 32 0 82 0;
#X connect 33 0 84 0;
#X connect 34 0 86 0;
#X connect 35 0 88 0;
#X connect 36 0 0 0;
#X connect 38 0 4 0;
#X connect 40 0 7 0;
#X connect 43 0 10 0;
#X connect 44 0 22 0;
#X connect 47 0 19 0;
#X connect 48 0 16 0;
#X connect 49 0 13 0;
#X connect 50 0 25 0;
#X connect 53 0 91 3;
#X connect 54 0 92 3;
#X connect 55 0 93 3;
#X connect 56 0 96 3;
#X connect 57 0 98 3;
#X connect 58 0 97 3;
#X connect 59 0 94 3;
#X connect 60 0 95 3;
#X connect 61 0 99 3;
#X connect 63 0 91 2;
#X connect 64 0 92 2;
#X connect 65 0 93 2;
#X connect 66 0 96 2;
#X connect 67 0 98 2;
#X connect 68 0 97 2;
#X connect 69 0 94 2;
#X connect 70 0 95 2;
#X connect 71 0 99 2;
#X connect 72 0 91 0;
#X connect 73 0 72 1;
#X connect 74 0 92 0;
#X connect 75 0 74 1;
#X connect 76 0 93 0;
#X connect 77 0 76 1;
#X connect 78 0 96 0;
#X connect 79 0 78 1;
#X connect 80 0 95 0;
#X connect 81 0 80 1;
#X connect 82 0 94 0;
#X connect 83 0 82 1;
#X connect 84 0 97 0;
#X connect 85 0 84 1;
#X connect 86 0 98 0;
#X connect 87 0 86 1;
#X connect 88 0 99 0;
#X connect 89 0 88 1;
#X connect 91 1 1 0;
#X connect 92 1 5 0;
#X connect 93 1 8 0;
#X connect 94 1 17 0;
#X connect 95 1 14 0;
#X connect 96 1 11 0;
#X connect 97 1 20 0;
#X connect 98 1 23 0;
#X connect 99 1 26 0;
