#N canvas 144 279 1440 776 12;
#X obj 27 5 r current_pos;
#X floatatom 31 148 5 0 0 0 - - - 0;
#X obj 28 40 tabread KICK;
#X obj 37 67 * 127;
#X obj 37 219 pack f f;
#X msg 32 194 36;
#X obj 30 169 t f f;
#X obj 278 -3 r current_pos;
#X floatatom 282 106 5 0 0 0 - - - 0;
#X obj 288 59 * 127;
#X obj 288 211 pack f f;
#X obj 281 161 t f f;
#X obj 279 32 tabread SNARE;
#X msg 283 186 38;
#X obj 513 -1 r current_pos;
#X floatatom 517 142 5 0 0 0 - - - 0;
#X obj 523 213 pack f f;
#X obj 516 163 t f f;
#X obj 752 19 r current_pos;
#X floatatom 756 162 5 0 0 0 - - - 0;
#X obj 762 233 pack f f;
#X obj 755 183 t f f;
#X obj 753 54 tabread HH_OPEN;
#X obj 514 34 tabread HH_CLOSED;
#X obj 30 88 moses 10;
#X obj 281 80 moses 10;
#X obj 516 83 moses 10;
#X obj 755 102 moses 10;
#X obj 22 286 makenote 0 100;
#X obj 42 346 noteout;
#X obj 284 294 makenote 0 100;
#X obj 303 346 noteout;
#X obj 521 303 makenote 0 100;
#X obj 528 346 noteout;
#X msg 757 208 46;
#X obj 753 299 makenote 0 100;
#X obj 761 344 noteout;
#X obj 54 409 r current_pos;
#X floatatom 58 518 5 0 0 0 - - - 0;
#X obj 64 471 * 127;
#X obj 64 649 pack f f;
#X obj 57 599 t f f;
#X obj 271 393 r current_pos;
#X floatatom 275 502 5 0 0 0 - - - 0;
#X obj 281 455 * 127;
#X obj 281 633 pack f f;
#X obj 274 588 t f f;
#X obj 57 492 moses 10;
#X obj 274 476 moses 10;
#X obj 60 732 makenote 0 100;
#X obj 77 787 noteout;
#X obj 279 723 makenote 0 100;
#X obj 286 789 noteout;
#X msg 59 624 43;
#X msg 278 610 47;
#X obj 530 418 r current_pos;
#X floatatom 534 527 5 0 0 0 - - - 0;
#X obj 540 480 * 127;
#X obj 540 658 pack f f;
#X obj 533 608 t f f;
#X obj 813 408 r current_pos;
#X floatatom 817 517 5 0 0 0 - - - 0;
#X obj 823 470 * 127;
#X obj 823 648 pack f f;
#X obj 816 598 t f f;
#X obj 533 501 moses 10;
#X obj 816 491 moses 10;
#X obj 536 741 makenote 0 100;
#X obj 540 782 noteout;
#X obj 821 738 makenote 0 100;
#X obj 839 806 noteout;
#X msg 535 633 48;
#X obj 814 443 tabread CRASH;
#X msg 818 622 49;
#X obj 1060 405 r current_pos;
#X floatatom 1064 514 5 0 0 0 - - - 0;
#X obj 1070 467 * 127;
#X obj 1070 645 pack f f;
#X obj 1063 595 t f f;
#X obj 1063 488 moses 10;
#X obj 1068 735 makenote 0 100;
#X obj 1082 794 noteout;
#X obj 1061 440 tabread RIDE;
#X msg 1065 619 51;
#X obj 272 428 tabread TOM_2_MID;
#X obj 530 453 tabread TOM_1_HI;
#X obj 55 444 tabread TOM_3_LO;
#X obj 524 61 * 127;
#X obj 762 81 * 127;
#X obj 100 320 r drum_out_channel;
#X obj 358 324 r drum_out_channel;
#X obj 603 321 r drum_out_channel;
#X obj 844 322 r drum_out_channel;
#X obj 1154 761 r drum_out_channel;
#X obj 905 777 r drum_out_channel;
#X obj 656 739 r drum_out_channel;
#X obj 350 760 r drum_out_channel;
#X obj 138 768 r drum_out_channel;
#X obj 39 257 s drumNote;
#X obj 290 249 s drumNote;
#X obj 525 251 s drumNote;
#X obj 764 271 s drumNote;
#X obj 66 687 s drumNote;
#X obj 283 671 s drumNote;
#X obj 542 696 s drumNote;
#X obj 825 686 s drumNote;
#X obj 1072 683 s drumNote;
#X msg 518 188 42;
#X obj 43 117 clip 0 127;
#X obj 309 130 clip 0 127;
#X obj 562 113 clip 0 127;
#X obj 805 132 clip 0 127;
#X obj 66 558 clip 0 127;
#X obj 305 541 clip 0 127;
#X obj 550 572 clip 0 127;
#X obj 834 560 clip 0 127;
#X obj 1085 547 clip 0 127;
#X connect 0 0 2 0;
#X connect 1 0 6 0;
#X connect 2 0 3 0;
#X connect 3 0 24 0;
#X connect 4 0 98 0;
#X connect 5 0 4 0;
#X connect 5 0 28 0;
#X connect 6 0 5 0;
#X connect 6 1 4 1;
#X connect 6 1 28 1;
#X connect 7 0 12 0;
#X connect 8 0 109 0;
#X connect 9 0 25 0;
#X connect 10 0 99 0;
#X connect 11 0 13 0;
#X connect 11 1 10 1;
#X connect 11 1 30 1;
#X connect 12 0 9 0;
#X connect 13 0 10 0;
#X connect 13 0 30 0;
#X connect 14 0 23 0;
#X connect 15 0 17 0;
#X connect 16 0 100 0;
#X connect 17 0 107 0;
#X connect 17 1 16 1;
#X connect 17 1 32 1;
#X connect 18 0 22 0;
#X connect 19 0 21 0;
#X connect 20 0 101 0;
#X connect 21 0 34 0;
#X connect 21 1 20 1;
#X connect 21 1 35 1;
#X connect 22 0 88 0;
#X connect 23 0 87 0;
#X connect 24 1 108 0;
#X connect 25 1 8 0;
#X connect 26 1 110 0;
#X connect 27 1 111 0;
#X connect 28 0 29 0;
#X connect 28 1 29 1;
#X connect 30 0 31 0;
#X connect 30 1 31 1;
#X connect 32 0 33 0;
#X connect 32 1 33 1;
#X connect 34 0 20 0;
#X connect 34 0 35 0;
#X connect 35 0 36 0;
#X connect 35 1 36 1;
#X connect 37 0 86 0;
#X connect 38 0 112 0;
#X connect 39 0 47 0;
#X connect 40 0 102 0;
#X connect 41 0 53 0;
#X connect 41 1 40 1;
#X connect 41 1 49 1;
#X connect 42 0 84 0;
#X connect 43 0 113 0;
#X connect 44 0 48 0;
#X connect 45 0 103 0;
#X connect 46 0 54 0;
#X connect 46 1 45 1;
#X connect 46 1 51 1;
#X connect 47 1 38 0;
#X connect 48 1 43 0;
#X connect 49 0 50 0;
#X connect 49 1 50 1;
#X connect 51 0 52 0;
#X connect 51 1 52 1;
#X connect 53 0 40 0;
#X connect 53 0 49 0;
#X connect 54 0 45 0;
#X connect 54 0 51 0;
#X connect 55 0 85 0;
#X connect 56 0 114 0;
#X connect 57 0 65 0;
#X connect 58 0 104 0;
#X connect 59 0 71 0;
#X connect 59 1 58 1;
#X connect 59 1 67 1;
#X connect 60 0 72 0;
#X connect 61 0 115 0;
#X connect 62 0 66 0;
#X connect 63 0 105 0;
#X connect 64 0 73 0;
#X connect 64 1 63 1;
#X connect 64 1 69 1;
#X connect 65 1 56 0;
#X connect 66 1 61 0;
#X connect 67 0 68 0;
#X connect 67 1 68 1;
#X connect 69 0 70 0;
#X connect 69 1 70 1;
#X connect 71 0 58 0;
#X connect 71 0 67 0;
#X connect 72 0 62 0;
#X connect 73 0 63 0;
#X connect 73 0 69 0;
#X connect 74 0 82 0;
#X connect 75 0 116 0;
#X connect 76 0 79 0;
#X connect 77 0 106 0;
#X connect 78 0 83 0;
#X connect 78 1 77 1;
#X connect 78 1 80 1;
#X connect 79 1 75 0;
#X connect 80 0 81 0;
#X connect 80 1 81 1;
#X connect 82 0 76 0;
#X connect 83 0 77 0;
#X connect 83 0 80 0;
#X connect 84 0 44 0;
#X connect 85 0 57 0;
#X connect 86 0 39 0;
#X connect 87 0 26 0;
#X connect 88 0 27 0;
#X connect 89 0 29 2;
#X connect 90 0 31 2;
#X connect 91 0 33 2;
#X connect 92 0 36 2;
#X connect 93 0 81 2;
#X connect 94 0 70 2;
#X connect 95 0 68 2;
#X connect 96 0 52 2;
#X connect 97 0 50 2;
#X connect 107 0 16 0;
#X connect 107 0 32 0;
#X connect 108 0 1 0;
#X connect 109 0 11 0;
#X connect 110 0 15 0;
#X connect 111 0 19 0;
#X connect 112 0 41 0;
#X connect 113 0 46 0;
#X connect 114 0 59 0;
#X connect 115 0 64 0;
#X connect 116 0 78 0;
