#N canvas 0 23 1248 776 12;
#X floatatom 290 146 5 0 0 0 - - -;
#X floatatom 383 149 5 0 0 0 - - -;
#X floatatom 478 150 5 0 0 0 - - -;
#X text 324 129 value;
#X text 400 129 controller #;
#X text 526 149 channel/port;
#X obj 379 206 pack f f;
#X obj 447 219 tgl 15 0 empty empty empty 17 7 0 10 -262144 -1 -1 0
1;
#X obj 391 245 spigot;
#X obj 391 271 t l b;
#X msg 428 299 0;
#X obj 339 341 f;
#X obj 484 341 f;
#X obj 347 304 unpack f f;
#X floatatom 339 365 5 0 0 0 - - -;
#X floatatom 484 365 5 0 0 0 - - -;
#X text 368 428 controller #;
#X text 513 429 channel/port;
#X obj 535 29 inlet;
#X text 585 25 #nable Learn;
#X obj 299 455 outlet;
#X obj 483 454 outlet;
#X obj 764 27 inlet;
#X text 817 33 get current cc# and channel/port;
#X obj 685 447 outlet;
#X text 746 448 feedback to inlet toggle for enabling;
#X obj 908 123 inlet;
#X obj 1038 124 inlet;
#X text 899 102 force cc num;
#X text 1029 103 force channel/port;
#X obj 291 111 notein, f 27;
#X connect 1 0 6 0;
#X connect 2 0 6 1;
#X connect 6 0 8 0;
#X connect 7 0 8 1;
#X connect 7 0 24 0;
#X connect 8 0 9 0;
#X connect 9 0 13 0;
#X connect 9 1 10 0;
#X connect 10 0 7 0;
#X connect 11 0 14 0;
#X connect 12 0 15 0;
#X connect 13 0 11 0;
#X connect 13 1 12 0;
#X connect 14 0 20 0;
#X connect 15 0 21 0;
#X connect 18 0 7 0;
#X connect 22 0 12 0;
#X connect 22 0 11 0;
#X connect 26 0 14 0;
#X connect 27 0 15 0;
#X connect 30 0 0 0;
#X connect 30 1 1 0;
#X connect 30 2 2 0;
