#N canvas 0 23 1009 823 12;
#X floatatom 312 194 5 0 0 0 - - -;
#X text 185 837 current Tick Position;
#X text 350 117 PPQ;
#X obj 266 295 /;
#X obj 266 235 loadbang;
#X obj 312 269 t b f;
#X obj 267 336 metro;
#X msg 266 256 60000;
#X text 329 169 BPM*PPQ;
#X obj 266 467 f;
#X obj 368 429 + 1;
#X obj 367 484 sel 0;
#X obj 258 808 outlet;
#X obj 280 416 i 0;
#X text 305 407 reset counter before starting again;
#X obj 314 118 * 384;
#X text 429 453 8 quarter notes each with 384 ppq resolution;
#X obj 367 453 mod 3072;
#X obj 156 785 mod 3072;
#X text 57 498 0 on graph is -48 of step 0;
#X obj 175 740 + 48;
#X obj 393 272 r force_counter_value;
#X floatatom 456 386 5 0 0 0 - - -;
#X obj 277 22 inlet;
#X text 324 20 qpm;
#X text 123 34 Run;
#X obj 472 34 inlet;
#X text 518 33 starting tick position;
#X obj 123 59 inlet;
#X obj 351 51 r ppq;
#X obj 426 425 r total_ticks;
#X obj 212 755 r total_ticks;
#X floatatom 409 863 5 0 0 0 - - -;
#X obj 253 373 t f b;
#X obj 284 93 f;
#X obj 323 75 t b f;
#X obj 441 538 r half_step_ticks;
#X obj 524 568 r starting_tick_pos;
#X obj 359 573 r force_start_here;
#X obj 249 688 expr if($f2==1 \, $f3 \, $f4);
#X obj 355 605 t b f;
#X obj 402 630 t b f;
#X obj 526 602 t b f;
#X connect 0 0 5 0;
#X connect 3 0 6 1;
#X connect 4 0 7 0;
#X connect 5 0 3 0;
#X connect 5 1 3 1;
#X connect 6 0 9 0;
#X connect 7 0 3 0;
#X connect 9 0 10 0;
#X connect 9 0 20 0;
#X connect 10 0 17 0;
#X connect 11 0 9 0;
#X connect 13 0 9 1;
#X connect 13 0 20 0;
#X connect 15 0 0 0;
#X connect 17 0 9 1;
#X connect 17 0 11 0;
#X connect 18 0 12 0;
#X connect 18 0 32 0;
#X connect 20 0 18 0;
#X connect 21 0 22 0;
#X connect 21 0 10 0;
#X connect 23 0 34 0;
#X connect 26 0 10 0;
#X connect 28 0 33 0;
#X connect 29 0 35 0;
#X connect 30 0 17 1;
#X connect 31 0 18 1;
#X connect 33 0 6 0;
#X connect 33 1 13 0;
#X connect 34 0 15 0;
#X connect 35 0 34 0;
#X connect 35 1 15 1;
#X connect 36 0 41 0;
#X connect 37 0 42 0;
#X connect 38 0 40 0;
#X connect 39 0 20 1;
#X connect 40 0 39 0;
#X connect 40 1 39 1;
#X connect 41 0 39 0;
#X connect 41 1 39 2;
#X connect 42 0 39 0;
#X connect 42 1 39 3;
