#N canvas 207 342 1440 806 12;
#X floatatom 283 131 5 0 0 0 - - -;
#X obj 283 160 moses 50;
#X msg 283 194 1;
#X msg 327 193 -1;
#X floatatom 312 223 5 0 0 0 - - -;
#X obj 283 105 inlet;
#X text 352 20 Push encoders generate hi (127) when moved left and
low (1) when moved right. THis patch increases the output when rotary
is moved to the right and decreases vice versa;
#X obj 520 513 outlet;
#X obj 431 100 inlet;
#X text 475 127 initial offset;
#X obj 642 101 inlet;
#X floatatom 645 315 5 0 0 0 - - -;
#X obj 733 126 loadbang;
#X floatatom 523 460 5 0 0 0 - - -;
#X text 917 364 $f2: current value;
#X text 917 384 $f3: +1 or -1 depending on right or left rotation;
#X text 917 404 $f4: amount of increase/decrease per step;
#X text 917 424 $f5: minimum allowed value;
#X text 917 443 $f6: maximum allowed value;
#X obj 314 260 t b f;
#X text 503 544 the adjusted value;
#X obj 502 400 expr min(max($f2+$f3*$f4 \, $f5) \, $f6);
#X obj 663 280 unpack f f f;
#X text 634 70 (increment/decrement amount ratio \, min value \, max
value);
#X floatatom 702 315 5 0 0 0 - - -;
#X floatatom 757 315 5 0 0 0 - - -;
#X msg 734 155 1 \, 0 \, 127;
#X connect 0 0 1 0;
#X connect 1 0 2 0;
#X connect 1 1 3 0;
#X connect 2 0 4 0;
#X connect 3 0 4 0;
#X connect 4 0 19 0;
#X connect 5 0 0 0;
#X connect 8 0 21 1;
#X connect 10 0 22 0;
#X connect 11 0 21 3;
#X connect 12 0 26 0;
#X connect 13 0 7 0;
#X connect 19 0 21 0;
#X connect 19 1 21 2;
#X connect 21 0 13 0;
#X connect 22 0 11 0;
#X connect 22 1 24 0;
#X connect 22 2 25 0;
#X connect 24 0 21 4;
#X connect 25 0 21 5;
#X connect 26 0 22 0;
