#N canvas 401 -1035 1326 825 12;
#X floatatom 816 415 5 0 0 0 - - -;
#X msg 514 96 read;
#X msg 626 351 dump;
#X obj 504 35 inlet;
#X obj 305 36 inlet;
#X msg 307 128 write;
#X obj 326 80 t b b;
#X msg 798 297 1000;
#X msg 682 116 clear;
#X obj 596 394 cyclone/coll;
#X f 17;
#C restore;
#X text 350 36 Save midi mapping;
#X text 552 37 load midi mapping;
#X obj 713 33 inlet;
#X text 761 35 forget mapping;
#X obj 898 615 s thres0_cc_type_r;
#X obj 939 -2 r thres0_cc_type;
#X obj 951 19 r thres0_ccNum_channelPort;
#X obj 915 660 s thres0_ccNum_channelPort_r;
#X obj 952 42 unpack f f;
#X obj 914 637 pack f f;
#X obj 982 107 unpack f f;
#X obj 969 63 r thres1_cc_type;
#X obj 981 84 r thres1_ccNum_channelPort;
#X obj 1026 170 unpack f f;
#X obj 1013 126 r thres2_cc_type;
#X obj 1025 147 r thres2_ccNum_channelPort;
#X obj 1060 237 unpack f f;
#X obj 1047 193 r thres3_cc_type;
#X obj 1059 214 r thres3_ccNum_channelPort;
#X obj 966 702 pack f f;
#X obj 950 680 s thres1_cc_type_r;
#X obj 967 725 s thres1_ccNum_channelPort_r;
#X obj 1021 769 pack f f;
#X obj 1005 747 s thres2_cc_type_r;
#X obj 1022 792 s thres2_ccNum_channelPort_r;
#X obj 1063 845 pack f f;
#X obj 1047 823 s thres3_cc_type_r;
#X obj 1064 868 s thres3_ccNum_channelPort_r;
#X obj 1403 44 unpack f f;
#X obj 1433 109 unpack f f;
#X obj 1484 172 unpack f f;
#X obj 1511 239 unpack f f;
#X obj 1390 0 r thres4_cc_type;
#X obj 1402 21 r thres4_ccNum_channelPort;
#X obj 1420 65 r thres5_cc_type;
#X obj 1432 86 r thres5_ccNum_channelPort;
#X obj 1464 128 r thres6_cc_type;
#X obj 1483 149 r thres6_ccNum_channelPort;
#X obj 1498 195 r thres7_cc_type;
#X obj 1510 216 r thres7_ccNum_channelPort;
#X obj 1582 309 unpack f f;
#X obj 1570 265 r thres8_cc_type;
#X obj 1581 286 r thres8_ccNum_channelPort;
#X obj 1424 639 pack f f;
#X obj 1476 704 pack f f;
#X obj 1531 771 pack f f;
#X obj 1573 847 pack f f;
#X obj 1711 927 pack f f;
#X obj 1408 617 s thres4_cc_type_r;
#X obj 1425 662 s thres4_ccNum_channelPort_r;
#X obj 1460 682 s thres5_cc_type_r;
#X obj 1477 727 s thres5_ccNum_channelPort_r;
#X obj 1515 749 s thres6_cc_type_r;
#X obj 1532 794 s thres6_ccNum_channelPort_r;
#X obj 1557 825 s thres7_cc_type_r;
#X obj 1574 870 s thres7_ccNum_channelPort_r;
#X obj 1695 905 s thres8_cc_type_r;
#X obj 1712 950 s thres8_ccNum_channelPort_r;
#X obj 2015 83 unpack f f;
#X obj 2045 148 unpack f f;
#X obj 2089 211 unpack f f;
#X obj 2123 278 unpack f f;
#X obj 2466 72 unpack f f;
#X obj 2496 137 unpack f f;
#X obj 2547 200 unpack f f;
#X obj 2577 265 unpack f f;
#X obj 2645 337 unpack f f;
#X obj 2046 629 pack f f;
#X obj 2098 694 pack f f;
#X obj 2153 761 pack f f;
#X obj 2195 837 pack f f;
#X obj 2556 631 pack f f;
#X obj 2608 696 pack f f;
#X obj 2663 763 pack f f;
#X obj 2705 839 pack f f;
#X obj 2843 919 pack f f;
#X obj 2002 39 r max_count_0_cc_type;
#X obj 2014 60 r max_count_0_ccNum_channelPort;
#X obj 2032 104 r max_count_1_cc_type;
#X obj 2044 125 r max_count_1_ccNum_channelPort;
#X obj 2076 167 r max_count_2_cc_type;
#X obj 2088 188 r max_count_2_ccNum_channelPort;
#X obj 2110 234 r max_count_3_cc_type;
#X obj 2122 255 r max_count_3_ccNum_channelPort;
#X obj 2030 607 s max_count_0_cc_type_r;
#X obj 2047 652 s max_count_0_ccNum_channelPort_r;
#X obj 2082 672 s max_count_1_cc_type_r;
#X obj 2099 717 s max_count_1_ccNum_channelPort_r;
#X obj 2137 739 s max_count_2_cc_type_r;
#X obj 2154 784 s max_count_2_ccNum_channelPort_r;
#X obj 2179 815 s max_count_3_cc_type_r;
#X obj 2196 860 s max_count_3_ccNum_channelPort_r;
#X obj 2453 29 r max_count_4_cc_type;
#X obj 2465 49 r max_count_4_ccNum_channelPort;
#X obj 2483 93 r max_count_5_cc_type;
#X obj 2495 114 r max_count_5_ccNum_channelPort;
#X obj 2527 156 r max_count_6_cc_type;
#X obj 2546 177 r max_count_6_ccNum_channelPort;
#X obj 2561 223 r max_count_7_cc_type;
#X obj 2573 244 r max_count_7_ccNum_channelPort;
#X obj 2633 293 r max_count_8_cc_type;
#X obj 2644 314 r max_count_8_ccNum_channelPort;
#X obj 2540 608 s max_count_4_cc_type_r;
#X obj 2557 654 s max_count_4_ccNum_channelPort_r;
#X obj 2592 673 s max_count_5_cc_type_r;
#X obj 2609 718 s max_count_5_ccNum_channelPort_r;
#X obj 2647 741 s max_count_6_cc_type_r;
#X obj 2664 786 s max_count_6_ccNum_channelPort_r;
#X obj 2689 817 s max_count_7_cc_type_r;
#X obj 2706 862 s max_count_7_ccNum_channelPort_r;
#X obj 2827 897 s max_count_8_cc_type_r;
#X obj 2844 942 s max_count_8_ccNum_channelPort_r;
#X obj 3757 251 unpack f f;
#X obj 3745 207 r groove_vel_scale_cc_type;
#X obj 3756 228 r groove_vel_scale_ccNum_channelPort;
#X obj 3783 686 pack f f;
#X obj 3767 664 s groove_vel_scale_cc_type_r;
#X obj 3784 709 s groove_vel_scale_ccNum_channelPort_r;
#X obj 899 368 pack f f f f f f f f f f f f f f f f f f f f f f f f
f f f f f f f f f f f f f f f f f f f f f f f f f f f f f f f f f f
f f f f f f f f f f f f f f f f f f f f f f f f f f f, f 412;
#X obj 902 525 unpack f f f f f f f f f f f f f f f f f f f f f f f
f f f f f f f f f f f f f f f f f f f f f f f f f f f f f f f f f f
f f f f f f f f f f f f f f f f f f f f f f f f f f f, f 411;
#X obj 2800 76 unpack f f;
#X obj 2830 141 unpack f f;
#X obj 2885 204 unpack f f;
#X obj 2908 271 unpack f f;
#X obj 2787 32 r vel_scale_0_cc_type;
#X obj 2799 53 r vel_scale_0_ccNum_channelPort;
#X obj 2817 97 r vel_scale_1_cc_type;
#X obj 2829 118 r vel_scale_1_ccNum_channelPort;
#X obj 2872 160 r vel_scale_2_cc_type;
#X obj 2884 181 r vel_scale_2_ccNum_channelPort;
#X obj 2895 227 r vel_scale_3_cc_type;
#X obj 2907 248 r vel_scale_3_ccNum_channelPort;
#X obj 3326 69 unpack f f;
#X obj 3356 134 unpack f f;
#X obj 3411 197 unpack f f;
#X obj 3434 264 unpack f f;
#X obj 3464 332 unpack f f;
#X obj 3313 25 r vel_scale_4_cc_type;
#X obj 3326 46 r vel_scale_4_ccNum_channelPort;
#X obj 3343 90 r vel_scale_5_cc_type;
#X obj 3355 111 r vel_scale_5_ccNum_channelPort;
#X obj 3398 153 r vel_scale_6_cc_type;
#X obj 3410 174 r vel_scale_6_ccNum_channelPort;
#X obj 3422 220 r vel_scale_7_cc_type;
#X obj 3433 240 r vel_scale_7_ccNum_channelPort;
#X obj 3451 288 r vel_scale_8_cc_type;
#X obj 3463 309 r vel_scale_8_ccNum_channelPort;
#X obj 2877 615 pack f f;
#X obj 2929 680 pack f f;
#X obj 2984 747 pack f f;
#X obj 3026 823 pack f f;
#X obj 2861 593 s vel_scale_0_cc_type_r;
#X obj 2877 638 s vel_scale_0_ccNum_channelPort_r;
#X obj 2913 658 s vel_scale_1_cc_type_r;
#X obj 2930 703 s vel_scale_1_ccNum_channelPort_r;
#X obj 2968 725 s vel_scale_2_cc_type_r;
#X obj 2985 770 s vel_scale_2_ccNum_channelPort_r;
#X obj 3010 801 s vel_scale_3_cc_type_r;
#X obj 3027 846 s vel_scale_3_ccNum_channelPort_r;
#X obj 3168 608 pack f f;
#X obj 3220 673 pack f f;
#X obj 3275 740 pack f f;
#X obj 3317 816 pack f f;
#X obj 3340 896 pack f f;
#X obj 3152 586 s vel_scale_4_cc_type_r;
#X obj 3168 630 s vel_scale_4_ccNum_channelPort_r;
#X obj 3204 651 s vel_scale_5_cc_type_r;
#X obj 3221 696 s vel_scale_5_ccNum_channelPort_r;
#X obj 3259 718 s vel_scale_6_cc_type_r;
#X obj 3276 763 s vel_scale_6_ccNum_channelPort_r;
#X obj 3301 793 s vel_scale_7_cc_type_r;
#X obj 3318 839 s vel_scale_7_ccNum_channelPort_r;
#X obj 3324 874 s vel_scale_8_cc_type_r;
#X obj 3341 919 s vel_scale_8_ccNum_channelPort_r;
#X connect 1 0 9 0;
#X connect 2 0 9 0;
#X connect 3 0 1 0;
#X connect 4 0 6 0;
#X connect 5 0 9 0;
#X connect 6 0 5 0;
#X connect 6 1 7 0;
#X connect 7 0 128 0;
#X connect 8 0 9 0;
#X connect 9 0 129 0;
#X connect 9 1 0 0;
#X connect 9 2 2 0;
#X connect 12 0 8 0;
#X connect 15 0 128 1;
#X connect 16 0 18 0;
#X connect 18 0 128 2;
#X connect 18 1 128 3;
#X connect 19 0 17 0;
#X connect 20 0 128 5;
#X connect 20 1 128 6;
#X connect 21 0 128 4;
#X connect 22 0 20 0;
#X connect 23 0 128 8;
#X connect 23 1 128 9;
#X connect 24 0 128 7;
#X connect 25 0 23 0;
#X connect 26 0 128 11;
#X connect 26 1 128 12;
#X connect 27 0 128 10;
#X connect 28 0 26 0;
#X connect 29 0 31 0;
#X connect 32 0 34 0;
#X connect 35 0 37 0;
#X connect 38 0 128 14;
#X connect 38 1 128 15;
#X connect 39 0 128 17;
#X connect 39 1 128 18;
#X connect 40 0 128 20;
#X connect 40 1 128 21;
#X connect 41 0 128 23;
#X connect 41 1 128 24;
#X connect 42 0 128 13;
#X connect 43 0 38 0;
#X connect 44 0 128 16;
#X connect 45 0 39 0;
#X connect 46 0 128 19;
#X connect 47 0 40 0;
#X connect 48 0 128 22;
#X connect 49 0 41 0;
#X connect 50 0 128 26;
#X connect 50 1 128 27;
#X connect 51 0 128 25;
#X connect 52 0 50 0;
#X connect 53 0 59 0;
#X connect 54 0 61 0;
#X connect 55 0 63 0;
#X connect 56 0 65 0;
#X connect 57 0 67 0;
#X connect 68 0 128 29;
#X connect 68 1 128 30;
#X connect 69 0 128 32;
#X connect 69 1 128 33;
#X connect 70 0 128 35;
#X connect 70 1 128 36;
#X connect 71 0 128 38;
#X connect 71 1 128 39;
#X connect 72 0 128 41;
#X connect 72 1 128 42;
#X connect 73 0 128 44;
#X connect 73 1 128 45;
#X connect 74 0 128 47;
#X connect 74 1 128 48;
#X connect 75 0 128 50;
#X connect 75 1 128 51;
#X connect 76 0 128 53;
#X connect 76 1 128 54;
#X connect 77 0 95 0;
#X connect 78 0 97 0;
#X connect 79 0 99 0;
#X connect 80 0 101 0;
#X connect 81 0 113 0;
#X connect 82 0 115 0;
#X connect 83 0 117 0;
#X connect 84 0 119 0;
#X connect 85 0 121 0;
#X connect 86 0 128 28;
#X connect 87 0 68 0;
#X connect 88 0 128 31;
#X connect 89 0 69 0;
#X connect 90 0 128 34;
#X connect 91 0 70 0;
#X connect 92 0 128 37;
#X connect 93 0 71 0;
#X connect 102 0 128 40;
#X connect 103 0 72 0;
#X connect 104 0 128 43;
#X connect 105 0 73 0;
#X connect 106 0 128 46;
#X connect 107 0 74 0;
#X connect 108 0 128 49;
#X connect 109 0 75 0;
#X connect 110 0 128 52;
#X connect 111 0 76 0;
#X connect 122 0 128 83;
#X connect 122 1 128 84;
#X connect 123 0 128 82;
#X connect 124 0 122 0;
#X connect 125 0 127 0;
#X connect 128 0 9 0;
#X connect 129 0 14 0;
#X connect 129 1 19 0;
#X connect 129 2 19 1;
#X connect 129 3 30 0;
#X connect 129 4 29 0;
#X connect 129 5 29 1;
#X connect 129 6 33 0;
#X connect 129 7 32 0;
#X connect 129 8 32 1;
#X connect 129 9 36 0;
#X connect 129 10 35 0;
#X connect 129 11 35 1;
#X connect 129 12 58 0;
#X connect 129 13 53 0;
#X connect 129 14 53 1;
#X connect 129 15 60 0;
#X connect 129 16 54 0;
#X connect 129 17 54 1;
#X connect 129 18 62 0;
#X connect 129 19 55 0;
#X connect 129 20 55 1;
#X connect 129 21 64 0;
#X connect 129 22 56 0;
#X connect 129 23 56 1;
#X connect 129 24 66 0;
#X connect 129 25 57 0;
#X connect 129 26 57 1;
#X connect 129 27 94 0;
#X connect 129 28 77 0;
#X connect 129 29 77 1;
#X connect 129 30 96 0;
#X connect 129 31 78 0;
#X connect 129 32 78 1;
#X connect 129 33 98 0;
#X connect 129 34 79 0;
#X connect 129 35 79 1;
#X connect 129 36 100 0;
#X connect 129 37 80 0;
#X connect 129 38 80 1;
#X connect 129 39 112 0;
#X connect 129 40 81 0;
#X connect 129 41 81 1;
#X connect 129 42 114 0;
#X connect 129 43 82 0;
#X connect 129 44 82 1;
#X connect 129 45 116 0;
#X connect 129 46 83 0;
#X connect 129 47 83 1;
#X connect 129 48 118 0;
#X connect 129 49 84 0;
#X connect 129 50 84 1;
#X connect 129 51 120 0;
#X connect 129 52 85 0;
#X connect 129 53 85 1;
#X connect 129 54 161 0;
#X connect 129 55 157 0;
#X connect 129 56 157 1;
#X connect 129 57 163 0;
#X connect 129 58 158 0;
#X connect 129 59 158 1;
#X connect 129 60 165 0;
#X connect 129 61 159 0;
#X connect 129 62 159 1;
#X connect 129 63 167 0;
#X connect 129 64 160 0;
#X connect 129 65 160 1;
#X connect 129 66 174 0;
#X connect 129 67 169 0;
#X connect 129 68 169 1;
#X connect 129 69 176 0;
#X connect 129 70 170 0;
#X connect 129 71 170 1;
#X connect 129 72 178 0;
#X connect 129 73 171 0;
#X connect 129 74 171 1;
#X connect 129 75 180 0;
#X connect 129 76 172 0;
#X connect 129 77 172 1;
#X connect 129 78 182 0;
#X connect 129 79 173 0;
#X connect 129 80 173 1;
#X connect 129 81 126 0;
#X connect 129 82 125 0;
#X connect 129 83 125 1;
#X connect 130 0 128 56;
#X connect 130 1 128 57;
#X connect 131 0 128 59;
#X connect 131 1 128 60;
#X connect 132 0 128 62;
#X connect 132 1 128 63;
#X connect 133 0 128 65;
#X connect 133 1 128 66;
#X connect 134 0 128 55;
#X connect 135 0 130 0;
#X connect 136 0 128 58;
#X connect 137 0 131 0;
#X connect 138 0 128 61;
#X connect 139 0 132 0;
#X connect 140 0 128 64;
#X connect 141 0 133 0;
#X connect 142 0 128 68;
#X connect 142 1 128 69;
#X connect 143 0 128 71;
#X connect 143 1 128 72;
#X connect 144 0 128 74;
#X connect 144 1 128 75;
#X connect 145 0 128 77;
#X connect 145 1 128 78;
#X connect 146 0 128 80;
#X connect 146 1 128 81;
#X connect 147 0 128 67;
#X connect 148 0 142 0;
#X connect 149 0 128 70;
#X connect 150 0 143 0;
#X connect 151 0 128 73;
#X connect 152 0 144 0;
#X connect 153 0 128 76;
#X connect 154 0 145 0;
#X connect 155 0 128 79;
#X connect 156 0 146 0;
#X connect 157 0 162 0;
#X connect 158 0 164 0;
#X connect 159 0 166 0;
#X connect 160 0 168 0;
#X connect 169 0 175 0;
#X connect 170 0 177 0;
#X connect 171 0 179 0;
#X connect 172 0 181 0;
#X connect 173 0 183 0;
