#N canvas 0 42 1440 806 12;
#X obj 786 229 r bpm;
#X obj 867 275 r ppq_selection;
#X obj 1030 103 r max_count_0;
#X obj 1040 124 r max_count_1;
#X obj 1060 146 r max_count_2;
#X obj 1066 171 r max_count_3;
#X obj 1076 192 r max_count_4;
#X obj 1096 214 r max_count_5;
#X obj 1104 237 r max_count_6;
#X obj 1114 258 r max_count_7;
#X obj 1134 280 r max_count_8;
#X obj 1163 96 r vel_scale_0;
#X obj 1173 117 r vel_scale_1;
#X obj 1193 139 r vel_scale_2;
#X obj 1199 162 r vel_scale_3;
#X obj 1209 183 r vel_scale_4;
#X obj 1229 205 r vel_scale_5;
#X obj 1231 227 r vel_scale_6;
#X obj 1239 247 r vel_scale_7;
#X obj 1247 270 r vel_scale_8;
#X msg 682 116 clear;
#X obj 1352 147 r v1;
#X obj 1352 168 r v2;
#X obj 1352 189 r v3;
#X obj 1351 212 r v4;
#X obj 1351 233 r v5;
#X obj 1351 254 r v6;
#X obj 1352 275 r v7;
#X obj 1353 312 r v9;
#X obj 1352 336 r v10;
#X obj 1355 294 r v8;
#X obj 1466 141 r v11;
#X obj 1466 162 r v12;
#X obj 1466 183 r v13;
#X obj 1465 206 r v14;
#X obj 1465 227 r v15;
#X obj 1465 248 r v16;
#X obj 1466 269 r v17;
#X obj 1469 288 r v18;
#X obj 1467 306 r v19;
#X obj 1466 330 r v20;
#X obj 1582 138 r v21;
#X obj 1582 159 r v22;
#X obj 1582 180 r v23;
#X obj 1581 203 r v24;
#X obj 1581 224 r v25;
#X obj 1581 245 r v26;
#X obj 1582 266 r v27;
#X obj 1585 285 r v28;
#X obj 1583 303 r v29;
#X obj 1582 327 r v30;
#X obj 1640 141 r v31;
#X obj 1641 162 r v32;
#X obj 1747 138 r ut1;
#X obj 1747 159 r ut2;
#X obj 1747 181 r ut3;
#X obj 1746 203 r ut4;
#X obj 1746 224 r ut5;
#X obj 1746 245 r ut6;
#X obj 1747 266 r ut7;
#X obj 1750 285 r ut8;
#X obj 1748 303 r ut9;
#X obj 1747 327 r ut10;
#X obj 1861 132 r ut11;
#X obj 1861 153 r ut12;
#X obj 1861 174 r ut13;
#X obj 1860 197 r ut14;
#X obj 1860 218 r ut15;
#X obj 1860 239 r ut16;
#X obj 1860 260 r ut17;
#X obj 1864 277 r ut18;
#X obj 1862 297 r ut19;
#X obj 1861 321 r ut20;
#X obj 1977 129 r ut21;
#X obj 1977 150 r ut22;
#X obj 1977 171 r ut23;
#X obj 1976 194 r ut24;
#X obj 1976 215 r ut25;
#X obj 1976 236 r ut26;
#X obj 1977 257 r ut27;
#X obj 1980 275 r ut28;
#X obj 1978 294 r ut29;
#X obj 1977 318 r ut30;
#X obj 2035 132 r ut31;
#X obj 2041 165 r ut32;
#X msg 105 191 read;
#X obj 904 90 r thres0;
#X obj 914 111 r thres1;
#X obj 934 133 r thres2;
#X obj 943 156 r thres3;
#X obj 954 177 r thres4;
#X obj 974 199 r thres5;
#X obj 982 228 r thres6;
#X obj 991 249 r thres7;
#X obj 1010 272 r thres8;
#X obj 349 213 t b f;
#X msg 471 251 \$1;
#X obj 1307 685 s v1r;
#X obj 1308 707 s v2r;
#X obj 1308 726 s v3r;
#X obj 1307 751 s v4r;
#X obj 1310 777 s v5r;
#X obj 1310 806 s v6r;
#X obj 1311 827 s v7r;
#X obj 1314 846 s v8r;
#X obj 1311 864 s v9r;
#X obj 1311 888 s v10r;
#X obj 1506 735 s v11r;
#X obj 1506 757 s v12r;
#X obj 1506 778 s v13r;
#X obj 1505 801 s v14r;
#X obj 1505 821 s v15r;
#X obj 1505 843 s v16r;
#X obj 1506 864 s v17r;
#X obj 1509 883 s v18r;
#X obj 1507 901 s v19r;
#X obj 1505 925 s v20r;
#X obj 1622 733 s v21r;
#X obj 1620 756 s v22r;
#X obj 1622 775 s v23r;
#X obj 1621 798 s v24r;
#X obj 1621 818 s v25r;
#X obj 1621 840 s v26r;
#X obj 1622 861 s v27r;
#X obj 1625 880 s v28r;
#X obj 1629 898 s v29r;
#X obj 1628 922 s v30r;
#X obj 1679 744 s v31r;
#X obj 1682 767 s v32r;
#X obj 822 662 s thres_0_in;
#X obj 832 683 s thres_1_in;
#X obj 852 705 s thres_2_in;
#X obj 862 728 s thres_3_in;
#X obj 872 749 s thres_4_in;
#X obj 891 771 s thres_5_in;
#X obj 900 800 s thres_6_in;
#X obj 910 821 s thres_7_in;
#X obj 928 844 s thres_8_in;
#X obj 948 675 s max_count_0_in;
#X obj 958 696 s max_count_1_in;
#X obj 978 718 s max_count_2_in;
#X obj 984 743 s max_count_3_in;
#X obj 994 764 s max_count_4_in;
#X obj 1014 786 s max_count_5_in;
#X obj 1022 809 s max_count_6_in;
#X obj 1032 831 s max_count_7_in;
#X obj 1052 852 s max_count_8_in;
#X obj 1081 668 s vel_scale_0_in;
#X obj 1091 689 s vel_scale_1_in;
#X obj 1111 711 s vel_scale_2_in;
#X obj 1117 734 s vel_scale_3_in;
#X obj 1127 756 s vel_scale_4_in;
#X obj 1147 777 s vel_scale_5_in;
#X obj 1149 799 s vel_scale_6_in;
#X obj 1157 819 s vel_scale_7_in;
#X obj 1165 842 s vel_scale_8_in;
#X obj 1788 733 s ut1r;
#X obj 1787 754 s ut2r;
#X obj 1787 776 s ut3r;
#X obj 1786 798 s ut4r;
#X obj 1786 819 s ut5r;
#X obj 1786 840 s ut6r;
#X obj 1787 861 s ut7r;
#X obj 1790 880 s ut8r;
#X obj 1788 898 s ut9r;
#X obj 1787 922 s ut10r;
#X obj 1901 727 s ut11r;
#X obj 1901 748 s ut12r;
#X obj 1901 769 s ut13r;
#X obj 1900 792 s ut14r;
#X obj 1900 813 s ut15r;
#X obj 1900 834 s ut16r;
#X obj 1900 855 s ut17r;
#X obj 1904 872 s ut18r;
#X obj 1902 892 s ut19r;
#X obj 1901 916 s ut20r;
#X obj 2017 724 s ut21r;
#X obj 2017 745 s ut22r;
#X obj 2017 766 s ut23r;
#X obj 2016 789 s ut24r;
#X obj 2016 810 s ut25r;
#X obj 2016 831 s ut26r;
#X obj 2017 852 s ut27r;
#X obj 2020 870 s ut28r;
#X obj 2018 889 s ut29r;
#X obj 2017 913 s ut30r;
#X obj 2075 727 s ut31r;
#X obj 2081 760 s ut32r;
#X obj 681 762 s ppq_selection;
#X obj 707 671 s bpm_init;
#X floatatom 584 139 5 0 0 0 - - -;
#X obj 476 26 inlet;
#X obj 36 31 inlet;
#X text 86 40 load session;
#X obj 634 26 inlet;
#X text 687 33 clear;
#X text 456 52 coll index for tmp history;
#X obj 215 36 inlet;
#X msg 217 95 write;
#X text 260 36 write session;
#X obj 2264 48 r py2pd_port;
#X obj 2287 70 r pd2py_port;
#X obj 2315 90 r drum_out_channel;
#X obj 2284 796 s py2pd_port_init;
#X obj 2307 818 s pd2py_port_init;
#X obj 2336 840 s drum_out_channel_init;
#X obj 2329 116 r groove_volume;
#X obj 2355 880 s groove_volume_init;
#X obj 2380 908 s metronome_volume_init;
#X obj 2340 143 r metronome_volume;
#X obj 2396 943 s meter_numerator_preset;
#X obj 2378 967 s meter_denominator_preset;
#X obj 2346 168 r meter_numerator;
#X obj 2355 201 r meter_denominator;
#X obj 2236 13 r groove_vel_scale;
#X obj 2263 766 s groove_vel_scale_init;
#X obj 780 28 inlet;
#X text 835 30 load index;
#X msg 772 128 \$1;
#X floatatom 774 68 5 0 0 0 - - -;
#X obj 898 368 pack f f f f f f f f f f f f f f f f f f f f f f f f
f f f f f f f f f f f f f f f f f f f f f f f f f f f f f f f f f f
f f f f f f f f f f f f f f f f f f f f f f f f f f f f f f f f f f
f f f f f f f f f f f f f f, f 231;
#X obj 898 590 unpack f f f f f f f f f f f f f f f f f f f f f f f
f f f f f f f f f f f f f f f f f f f f f f f f f f f f f f f f f f
f f f f f f f f f f f f f f f f f f f f f f f f f f f f f f f f f f
f f f f f f f f f f f f f f, f 226;
#X msg 365 285 write pd_patch/tmp/snapshot;
#X obj 348 611 t b f f;
#X obj 415 690 s snapshot_init_from_load_session;
#X obj 162 157 s reset;
#X obj 86 106 t b b;
#X obj 56 133 del 100;
#X msg 579 341 dump;
#X floatatom 528 434 5 0 0 0 - - -;
#X msg 386 388 length;
#X obj 384 521 route float list, f 45;
#X obj 625 434 t b b, f 23;
#X obj 2284 620 change;
#X obj 2294 668 change;
#X obj 2307 716 change;
#X obj 2434 232 r model_version;
#X obj 2446 643 s model_version_r;
#X obj 506 394 cyclone/coll;
#X f 17;
#C restore;
#X connect 0 0 220 1;
#X connect 1 0 220 2;
#X connect 2 0 220 12;
#X connect 3 0 220 13;
#X connect 4 0 220 14;
#X connect 5 0 220 15;
#X connect 6 0 220 16;
#X connect 7 0 220 17;
#X connect 8 0 220 18;
#X connect 9 0 220 19;
#X connect 10 0 220 20;
#X connect 11 0 220 21;
#X connect 12 0 220 22;
#X connect 13 0 220 23;
#X connect 14 0 220 24;
#X connect 15 0 220 25;
#X connect 16 0 220 26;
#X connect 17 0 220 27;
#X connect 18 0 220 28;
#X connect 19 0 220 29;
#X connect 20 0 238 0;
#X connect 21 0 220 30;
#X connect 22 0 220 31;
#X connect 23 0 220 32;
#X connect 24 0 220 33;
#X connect 25 0 220 34;
#X connect 26 0 220 35;
#X connect 27 0 220 36;
#X connect 28 0 220 38;
#X connect 29 0 220 39;
#X connect 30 0 220 37;
#X connect 31 0 220 40;
#X connect 32 0 220 41;
#X connect 33 0 220 42;
#X connect 34 0 220 43;
#X connect 35 0 220 44;
#X connect 36 0 220 45;
#X connect 37 0 220 46;
#X connect 38 0 220 47;
#X connect 39 0 220 48;
#X connect 40 0 220 49;
#X connect 41 0 220 50;
#X connect 42 0 220 51;
#X connect 43 0 220 52;
#X connect 44 0 220 53;
#X connect 45 0 220 54;
#X connect 46 0 220 55;
#X connect 47 0 220 56;
#X connect 48 0 220 57;
#X connect 49 0 220 58;
#X connect 50 0 220 59;
#X connect 51 0 220 60;
#X connect 52 0 220 61;
#X connect 53 0 220 62;
#X connect 54 0 220 63;
#X connect 55 0 220 64;
#X connect 56 0 220 65;
#X connect 57 0 220 66;
#X connect 58 0 220 67;
#X connect 59 0 220 68;
#X connect 60 0 220 69;
#X connect 61 0 220 70;
#X connect 62 0 220 71;
#X connect 63 0 220 72;
#X connect 64 0 220 73;
#X connect 65 0 220 74;
#X connect 66 0 220 75;
#X connect 67 0 220 76;
#X connect 68 0 220 77;
#X connect 69 0 220 78;
#X connect 70 0 220 79;
#X connect 71 0 220 80;
#X connect 72 0 220 81;
#X connect 73 0 220 82;
#X connect 74 0 220 83;
#X connect 75 0 220 84;
#X connect 76 0 220 85;
#X connect 77 0 220 86;
#X connect 78 0 220 87;
#X connect 79 0 220 88;
#X connect 80 0 220 89;
#X connect 81 0 220 90;
#X connect 82 0 220 91;
#X connect 83 0 220 92;
#X connect 84 0 220 93;
#X connect 85 0 238 0;
#X connect 86 0 220 3;
#X connect 87 0 220 4;
#X connect 88 0 220 5;
#X connect 89 0 220 6;
#X connect 90 0 220 7;
#X connect 91 0 220 8;
#X connect 92 0 220 9;
#X connect 93 0 220 10;
#X connect 94 0 220 11;
#X connect 95 0 222 0;
#X connect 95 1 96 0;
#X connect 96 0 220 0;
#X connect 190 0 95 0;
#X connect 191 0 190 0;
#X connect 192 0 226 0;
#X connect 194 0 20 0;
#X connect 197 0 198 0;
#X connect 198 0 238 0;
#X connect 200 0 220 95;
#X connect 201 0 220 96;
#X connect 202 0 220 97;
#X connect 206 0 220 98;
#X connect 209 0 220 99;
#X connect 212 0 220 100;
#X connect 213 0 220 101;
#X connect 214 0 220 94;
#X connect 216 0 219 0;
#X connect 218 0 238 0;
#X connect 219 0 218 0;
#X connect 220 0 238 0;
#X connect 221 0 189 0;
#X connect 221 1 188 0;
#X connect 221 2 129 0;
#X connect 221 3 130 0;
#X connect 221 4 131 0;
#X connect 221 5 132 0;
#X connect 221 6 133 0;
#X connect 221 7 134 0;
#X connect 221 8 135 0;
#X connect 221 9 136 0;
#X connect 221 10 137 0;
#X connect 221 11 138 0;
#X connect 221 12 139 0;
#X connect 221 13 140 0;
#X connect 221 14 141 0;
#X connect 221 15 142 0;
#X connect 221 16 143 0;
#X connect 221 17 144 0;
#X connect 221 18 145 0;
#X connect 221 19 146 0;
#X connect 221 20 147 0;
#X connect 221 21 148 0;
#X connect 221 22 149 0;
#X connect 221 23 150 0;
#X connect 221 24 151 0;
#X connect 221 25 152 0;
#X connect 221 26 153 0;
#X connect 221 27 154 0;
#X connect 221 28 155 0;
#X connect 221 29 97 0;
#X connect 221 30 98 0;
#X connect 221 31 99 0;
#X connect 221 32 100 0;
#X connect 221 33 101 0;
#X connect 221 34 102 0;
#X connect 221 35 103 0;
#X connect 221 36 104 0;
#X connect 221 37 105 0;
#X connect 221 38 106 0;
#X connect 221 39 107 0;
#X connect 221 40 108 0;
#X connect 221 41 109 0;
#X connect 221 42 110 0;
#X connect 221 43 111 0;
#X connect 221 44 112 0;
#X connect 221 45 113 0;
#X connect 221 46 114 0;
#X connect 221 47 115 0;
#X connect 221 48 116 0;
#X connect 221 49 117 0;
#X connect 221 50 118 0;
#X connect 221 51 119 0;
#X connect 221 52 120 0;
#X connect 221 53 121 0;
#X connect 221 54 122 0;
#X connect 221 55 123 0;
#X connect 221 56 124 0;
#X connect 221 57 125 0;
#X connect 221 58 126 0;
#X connect 221 59 127 0;
#X connect 221 60 128 0;
#X connect 221 61 156 0;
#X connect 221 62 157 0;
#X connect 221 63 158 0;
#X connect 221 64 159 0;
#X connect 221 65 160 0;
#X connect 221 66 161 0;
#X connect 221 67 162 0;
#X connect 221 68 163 0;
#X connect 221 69 164 0;
#X connect 221 70 165 0;
#X connect 221 71 166 0;
#X connect 221 72 167 0;
#X connect 221 73 168 0;
#X connect 221 74 169 0;
#X connect 221 75 170 0;
#X connect 221 76 171 0;
#X connect 221 77 172 0;
#X connect 221 78 173 0;
#X connect 221 79 174 0;
#X connect 221 80 175 0;
#X connect 221 81 176 0;
#X connect 221 82 177 0;
#X connect 221 83 178 0;
#X connect 221 84 179 0;
#X connect 221 85 180 0;
#X connect 221 86 181 0;
#X connect 221 87 182 0;
#X connect 221 88 183 0;
#X connect 221 89 184 0;
#X connect 221 90 185 0;
#X connect 221 91 186 0;
#X connect 221 92 187 0;
#X connect 221 93 233 0;
#X connect 221 94 234 0;
#X connect 221 95 235 0;
#X connect 221 96 205 0;
#X connect 221 99 210 0;
#X connect 221 100 211 0;
#X connect 221 101 237 0;
#X connect 222 0 238 0;
#X connect 223 2 224 0;
#X connect 226 0 227 0;
#X connect 226 1 225 0;
#X connect 227 0 85 0;
#X connect 228 0 238 0;
#X connect 230 0 238 0;
#X connect 231 0 223 0;
#X connect 231 1 221 0;
#X connect 232 0 230 0;
#X connect 232 1 228 0;
#X connect 233 0 215 0;
#X connect 234 0 203 0;
#X connect 235 0 204 0;
#X connect 236 0 220 102;
#X connect 238 0 229 0;
#X connect 238 0 231 0;
#X connect 238 2 232 0;
