#N canvas 406 118 1514 1027 12;
#X obj 45 -3 r realtime_velocity;
#X obj 105 40 r run;
#X obj 47 96 spigot;
#X obj 129 111 r record;
#X obj 61 177 spigot;
#X obj 248 199 r current_pos;
#X obj 156 416 t f f;
#X obj 201 518 - 49;
#X floatatom 209 574 5 0 0 0 - - -;
#X text 250 578 utiming;
#X floatatom 64 570 5 0 0 0 - - -;
#X text 72 548 grid index;
#X obj 209 606 s utime_to_set;
#X floatatom 198 154 5 0 0 0 - - -;
#X floatatom 150 79 5 0 0 0 - - -;
#X obj 110 452 div 96;
#X obj 195 454 mod 96;
#X floatatom 11 92 5 0 0 0 - - -;
#X obj -88 70 s vel_to_set;
#X obj 62 321 pack f f f, f 30;
#X obj 176 388 s vel_to_set;
#X obj 64 351 unpack f f f;
#X obj 88 270 t b f;
#X obj 210 550 / 98;
#X obj 1612 199 s step_ticks;
#X obj 300 380 r step_ticks;
#X obj 297 477 r step_ticks;
#X obj 272 526 t b f;
#X obj 298 502 + 2;
#X obj 391 414 r half_step_ticks;
#X floatatom 408 499 5 0 0 0 - - -;
#X floatatom 465 555 5 0 0 0 - - -;
#X floatatom 299 242 5 0 0 0 - - -;
#X floatatom 253 368 5 0 0 0 - - -;
#X floatatom 38 425 5 0 0 0 - - -;
#X floatatom 229 487 5 0 0 0 - - -;
#X floatatom 242 418 5 0 0 0 - - -;
#X obj 397 446 expr $f1+1;
#X obj 146 848 r utime_to_set;
#X obj 119 802 f;
#X obj 119 875 f;
#X obj 86 769 t b b;
#X obj 137 778 r vel_to_set;
#X symbolatom 234 906 10 0 0 0 - - -;
#X msg 237 883 symbol ut\$1r;
#X obj 115 952 send;
#X symbolatom 256 798 10 0 0 0 - - -;
#X msg 259 775 symbol v\$1r;
#X floatatom 260 749 5 0 0 0 - - -;
#X obj 261 721 + 1;
#X obj 123 830 send;
#X obj 165 704 t b f;
#X connect 0 0 2 0;
#X connect 0 0 17 0;
#X connect 0 0 18 0;
#X connect 1 0 2 1;
#X connect 1 0 14 0;
#X connect 2 0 4 0;
#X connect 3 0 4 1;
#X connect 3 0 13 0;
#X connect 4 0 22 0;
#X connect 5 0 19 1;
#X connect 5 0 32 0;
#X connect 6 0 15 0;
#X connect 6 1 16 0;
#X connect 7 0 23 0;
#X connect 8 0 12 0;
#X connect 10 0 51 0;
#X connect 15 0 10 0;
#X connect 16 0 7 0;
#X connect 16 0 35 0;
#X connect 19 0 21 0;
#X connect 21 1 6 0;
#X connect 21 1 34 0;
#X connect 21 2 20 0;
#X connect 21 2 33 0;
#X connect 22 0 19 0;
#X connect 22 1 19 2;
#X connect 23 0 8 0;
#X connect 25 0 36 0;
#X connect 26 0 28 0;
#X connect 27 1 23 1;
#X connect 27 1 31 0;
#X connect 28 0 27 0;
#X connect 29 0 37 0;
#X connect 36 0 16 1;
#X connect 36 0 15 1;
#X connect 37 0 7 1;
#X connect 37 0 30 0;
#X connect 38 0 40 1;
#X connect 39 0 50 0;
#X connect 40 0 45 0;
#X connect 41 0 40 0;
#X connect 41 1 39 0;
#X connect 42 0 39 1;
#X connect 43 0 45 1;
#X connect 44 0 43 0;
#X connect 46 0 50 1;
#X connect 47 0 46 0;
#X connect 48 0 47 0;
#X connect 48 0 44 0;
#X connect 49 0 48 0;
#X connect 51 0 41 0;
#X connect 51 1 49 0;
