#N canvas 173 49 1267 797 10;
#X obj 138 232 pack f f f;
#X obj 138 295 clip~ -1 1;
#X obj 138 316 hip~ 3;
#X obj 138 253 clone -s 1 santur 24;
#X obj 138 212 poly 24 1;
#X obj 138 274 *~ 0.5;
#X obj 143 49 inlet;
#X obj 140 146 unpack f f;
#X obj 138 445 outlet~;
#X obj 297 73 inlet;
#X text 348 71 enable;
#X obj 298 97 tgl 15 0 empty empty empty 17 7 0 10 #fcfcfc #000000
#000000 0 1;
#X obj 150 118 spigot;
#X text 187 52 santur note;
#X connect 0 0 3 0;
#X connect 1 0 2 0;
#X connect 2 0 8 0;
#X connect 3 0 5 0;
#X connect 4 0 0 0;
#X connect 4 1 0 1;
#X connect 4 2 0 2;
#X connect 5 0 1 0;
#X connect 6 0 12 0;
#X connect 7 0 4 0;
#X connect 7 1 4 1;
#X connect 9 0 11 0;
#X connect 11 0 12 1;
#X connect 12 0 7 0;
