#N canvas 218 74 658 289 12;
#N canvas 0 23 1680 951 quantize 0;
#N canvas 199 119 1404 855 quantizer 0;
#X text 68 25 Note;
#X obj 539 52 inlet;
#X text 536 26 packed scale pitchs;
#X obj 539 156 tgl 15 0 empty empty empty 17 7 0 10 -262144 -1 -1 0
1;
#X obj 582 140 tgl 15 0 empty empty empty 17 7 0 10 -66577 -262144
-1 0 1;
#X obj 626 160 tgl 15 0 empty empty empty 17 7 0 10 -262144 -1 -1 0
1;
#X obj 714 160 tgl 15 0 empty empty empty 17 7 0 10 -262144 -1 -1 0
1;
#X obj 758 160 tgl 15 0 empty empty empty 17 7 0 10 -262144 -1 -1 0
1;
#X obj 844 160 tgl 15 0 empty empty empty 17 7 0 10 -262144 -1 -1 0
1;
#X obj 931 160 tgl 15 0 empty empty empty 17 7 0 10 -262144 -1 -1 0
1;
#X obj 1019 160 tgl 15 0 empty empty empty 17 7 0 10 -262144 -1 -1
0 1;
#X obj 670 141 tgl 15 0 empty empty empty 17 7 0 10 -66577 -262144
-1 0 1;
#X obj 801 143 tgl 15 0 empty empty empty 17 7 0 10 -66577 -262144
-1 0 1;
#X obj 888 142 tgl 15 0 empty empty empty 17 7 0 10 -66577 -262144
-1 0 1;
#X obj 976 142 tgl 15 0 empty empty empty 17 7 0 10 -66577 -262144
-1 0 1;
#X obj 539 88 unpack f f f f f f f f f f f f, f 69;
#X obj 539 182 sel 0, f 2;
#X msg 540 254 0;
#X floatatom 540 281 5 0 0 0 - - -;
#X msg 540 231 100;
#X obj 582 184 sel 0, f 2;
#X floatatom 583 283 5 0 0 0 - - -;
#X msg 583 233 100;
#X obj 627 183 sel 0, f 2;
#X floatatom 628 282 5 0 0 0 - - -;
#X msg 628 232 100;
#X obj 668 184 sel 0, f 2;
#X floatatom 669 283 5 0 0 0 - - -;
#X msg 669 233 100;
#X obj 713 184 sel 0, f 2;
#X floatatom 714 283 5 0 0 0 - - -;
#X msg 714 233 100;
#X obj 754 185 sel 0, f 2;
#X floatatom 755 284 5 0 0 0 - - -;
#X msg 755 234 100;
#X obj 803 182 sel 0, f 2;
#X floatatom 803 282 5 0 0 0 - - -;
#X msg 804 231 100;
#X obj 844 183 sel 0, f 2;
#X floatatom 845 282 5 0 0 0 - - -;
#X msg 845 232 100;
#X obj 890 182 sel 0, f 2;
#X floatatom 891 281 5 0 0 0 - - -;
#X msg 891 231 100;
#X obj 931 183 sel 0, f 2;
#X floatatom 932 282 5 0 0 0 - - -;
#X msg 932 232 100;
#X obj 976 183 sel 0, f 2;
#X floatatom 977 282 5 0 0 0 - - -;
#X msg 977 232 100;
#X obj 1017 184 sel 0, f 2;
#X floatatom 1020 283 5 0 0 0 - - -;
#X msg 1018 233 100;
#X obj 111 362 / 12;
#X floatatom 111 389 5 0 0 0 - - -;
#X obj 111 413 t b f;
#X floatatom 117 474 5 0 0 0 - - -;
#X obj 117 503 * 12;
#X floatatom 117 530 5 0 0 0 - - -;
#X obj 102 1005 outlet;
#X obj 118 927 +;
#X obj 69 116 % 12;
#X obj 69 49 inlet;
#X msg 583 256 1;
#X msg 628 255 2;
#X msg 669 256 3;
#X msg 714 256 4;
#X msg 755 257 5;
#X msg 804 254 6;
#X msg 845 255 7;
#X msg 891 254 8;
#X msg 932 255 9;
#X msg 977 255 10;
#X msg 1018 256 11;
#X floatatom 102 166 5 0 0 0 - - -;
#X obj 540 310 t b f, f 3;
#X obj 149 206 s midiNum;
#X obj 543 379 r midiNum, f 2;
#X obj 541 472 -;
#X floatatom 541 497 5 0 0 0 - - -;
#X obj 583 311 t b f, f 3;
#X obj 587 376 r midiNum, f 2;
#X obj 585 469 -;
#X floatatom 585 497 5 0 0 0 - - -;
#X obj 628 311 t b f, f 3;
#X obj 631 380 r midiNum, f 2;
#X obj 629 473 -;
#X floatatom 629 498 5 0 0 0 - - -;
#X obj 671 312 t b f, f 3;
#X obj 675 377 r midiNum, f 2;
#X obj 673 470 -;
#X floatatom 673 498 5 0 0 0 - - -;
#X obj 714 312 t b f, f 3;
#X obj 717 381 r midiNum, f 2;
#X obj 715 474 -;
#X floatatom 715 499 5 0 0 0 - - -;
#X obj 757 313 t b f, f 3;
#X obj 761 378 r midiNum, f 2;
#X obj 759 471 -;
#X floatatom 759 499 5 0 0 0 - - -;
#X obj 802 313 t b f, f 3;
#X obj 805 382 r midiNum, f 2;
#X obj 803 475 -;
#X floatatom 805 501 5 0 0 0 - - -;
#X obj 845 314 t b f, f 3;
#X obj 849 379 r midiNum, f 2;
#X obj 847 472 -;
#X floatatom 847 500 5 0 0 0 - - -;
#X obj 893 313 t b f, f 3;
#X obj 896 382 r midiNum, f 2;
#X obj 894 475 -;
#X floatatom 894 500 5 0 0 0 - - -;
#X obj 936 314 t b f, f 3;
#X obj 940 379 r midiNum, f 2;
#X obj 938 472 -;
#X floatatom 938 500 5 0 0 0 - - -;
#X obj 981 314 t b f, f 3;
#X obj 984 383 r midiNum, f 2;
#X obj 982 476 -;
#X floatatom 982 501 5 0 0 0 - - -;
#X obj 1024 315 t b f, f 3;
#X obj 1028 380 r midiNum, f 2;
#X obj 1026 473 -;
#X floatatom 1026 501 5 0 0 0 - - -;
#X obj 541 525 abs;
#X obj 585 526 abs;
#X obj 629 526 abs;
#X obj 673 527 abs;
#X obj 717 527 abs;
#X obj 761 528 abs;
#X obj 806 527 abs;
#X obj 850 528 abs;
#X obj 894 528 abs;
#X obj 938 529 abs;
#X obj 982 529 abs;
#X obj 1026 530 abs;
#X floatatom 542 555 5 0 0 0 - - -;
#X floatatom 586 553 5 0 0 0 - - -;
#X floatatom 629 556 5 0 0 0 - - -;
#X floatatom 673 556 5 0 0 0 - - -;
#X floatatom 715 557 5 0 0 0 - - -;
#X floatatom 759 557 5 0 0 0 - - -;
#X floatatom 805 559 5 0 0 0 - - -;
#X floatatom 847 558 5 0 0 0 - - -;
#X floatatom 894 558 5 0 0 0 - - -;
#X floatatom 938 558 5 0 0 0 - - -;
#X floatatom 982 559 5 0 0 0 - - -;
#X floatatom 1026 559 5 0 0 0 - - -;
#X obj 586 637 t b f;
#X obj 630 638 t b f;
#X obj 674 638 t b f;
#X obj 718 639 t b f;
#X obj 763 639 t b f;
#X obj 807 640 t b f;
#X obj 851 640 t b f;
#X obj 895 641 t b f;
#X obj 940 641 t b f;
#X obj 984 641 t b f;
#X obj 1029 641 t b f;
#X obj 586 670 min, f 5;
#X obj 630 689 min, f 5;
#X obj 674 708 min, f 5;
#X obj 718 727 min, f 5;
#X obj 764 666 min, f 5;
#X obj 808 685 min, f 5;
#X obj 852 704 min, f 5;
#X obj 896 723 min, f 5;
#X obj 942 670 min, f 5;
#X obj 986 689 min, f 5;
#X obj 1030 708 min, f 5;
#X floatatom 1030 733 5 0 0 0 - - -;
#X obj 1030 757 s minDistance;
#X msg 543 947 0;
#X msg 586 947 1;
#X msg 624 946 2;
#X floatatom 573 984 5 0 0 0 - - -;
#X msg 663 946 3;
#X msg 706 946 4;
#X msg 744 946 5;
#X msg 786 946 6;
#X msg 829 946 7;
#X msg 867 945 8;
#X msg 906 945 9;
#X msg 949 945 10;
#X msg 987 944 11;
#X obj 546 802 t b b b b b b b b b b b b f, f 66;
#X obj 542 862 ==;
#X obj 585 863 ==;
#X obj 624 865 ==;
#X obj 662 861 ==;
#X obj 705 861 ==;
#X obj 743 860 ==;
#X obj 785 861 ==;
#X obj 828 861 ==;
#X obj 866 860 ==;
#X obj 905 860 ==;
#X obj 948 860 ==;
#X obj 986 859 ==;
#X obj 545 901 sel 1;
#X obj 585 915 sel 1;
#X obj 626 898 sel 1;
#X obj 663 921 sel 1;
#X obj 704 904 sel 1;
#X obj 747 916 sel 1;
#X obj 788 899 sel 1;
#X obj 825 922 sel 1;
#X obj 866 905 sel 1;
#X obj 906 919 sel 1;
#X obj 947 902 sel 1;
#X obj 990 915 sel 1;
#X floatatom 198 967 5 0 0 0 - - -;
#X obj 150 690 t b f;
#X obj 577 1015 outlet;
#X text 76 1030 Quantized Note;
#X text 631 1015 Pitch Class;
#X obj 14 830 inlet;
#X text 21 810 sync;
#X obj 68 969 f;
#X obj 117 444 i;
#X connect 1 0 15 0;
#X connect 3 0 16 0;
#X connect 4 0 20 0;
#X connect 5 0 23 0;
#X connect 6 0 29 0;
#X connect 7 0 32 0;
#X connect 8 0 38 0;
#X connect 9 0 44 0;
#X connect 10 0 50 0;
#X connect 11 0 26 0;
#X connect 12 0 35 0;
#X connect 13 0 41 0;
#X connect 14 0 47 0;
#X connect 15 0 3 0;
#X connect 15 1 4 0;
#X connect 15 2 5 0;
#X connect 15 3 11 0;
#X connect 15 4 6 0;
#X connect 15 5 7 0;
#X connect 15 6 12 0;
#X connect 15 7 8 0;
#X connect 15 8 13 0;
#X connect 15 9 9 0;
#X connect 15 10 14 0;
#X connect 15 11 10 0;
#X connect 16 0 19 0;
#X connect 16 1 17 0;
#X connect 17 0 18 0;
#X connect 18 0 75 0;
#X connect 19 0 18 0;
#X connect 20 0 22 0;
#X connect 20 1 63 0;
#X connect 21 0 80 0;
#X connect 22 0 21 0;
#X connect 23 0 25 0;
#X connect 23 1 64 0;
#X connect 24 0 84 0;
#X connect 25 0 24 0;
#X connect 26 0 28 0;
#X connect 26 1 65 0;
#X connect 27 0 88 0;
#X connect 28 0 27 0;
#X connect 29 0 31 0;
#X connect 29 1 66 0;
#X connect 30 0 92 0;
#X connect 31 0 30 0;
#X connect 32 0 34 0;
#X connect 32 1 67 0;
#X connect 33 0 96 0;
#X connect 34 0 33 0;
#X connect 35 0 37 0;
#X connect 35 1 68 0;
#X connect 36 0 100 0;
#X connect 37 0 36 0;
#X connect 38 0 40 0;
#X connect 38 1 69 0;
#X connect 39 0 104 0;
#X connect 40 0 39 0;
#X connect 41 0 43 0;
#X connect 41 1 70 0;
#X connect 42 0 108 0;
#X connect 43 0 42 0;
#X connect 44 0 46 0;
#X connect 44 1 71 0;
#X connect 45 0 112 0;
#X connect 46 0 45 0;
#X connect 47 0 49 0;
#X connect 47 1 72 0;
#X connect 48 0 116 0;
#X connect 49 0 48 0;
#X connect 50 0 52 0;
#X connect 50 1 73 0;
#X connect 51 0 120 0;
#X connect 52 0 51 0;
#X connect 53 0 54 0;
#X connect 54 0 55 0;
#X connect 55 0 218 0;
#X connect 55 1 218 1;
#X connect 56 0 57 0;
#X connect 57 0 58 0;
#X connect 58 0 211 0;
#X connect 60 0 210 0;
#X connect 60 0 217 1;
#X connect 61 0 74 0;
#X connect 62 0 61 0;
#X connect 62 0 53 0;
#X connect 63 0 21 0;
#X connect 64 0 24 0;
#X connect 65 0 27 0;
#X connect 66 0 30 0;
#X connect 67 0 33 0;
#X connect 68 0 36 0;
#X connect 69 0 39 0;
#X connect 70 0 42 0;
#X connect 71 0 45 0;
#X connect 72 0 48 0;
#X connect 73 0 51 0;
#X connect 74 0 76 0;
#X connect 75 0 78 0;
#X connect 75 1 78 1;
#X connect 77 0 78 0;
#X connect 78 0 79 0;
#X connect 79 0 124 0;
#X connect 80 0 82 0;
#X connect 80 1 82 1;
#X connect 81 0 82 0;
#X connect 82 0 83 0;
#X connect 83 0 125 0;
#X connect 84 0 86 0;
#X connect 84 1 86 1;
#X connect 85 0 86 0;
#X connect 86 0 87 0;
#X connect 87 0 126 0;
#X connect 88 0 90 0;
#X connect 88 1 90 1;
#X connect 89 0 90 0;
#X connect 90 0 91 0;
#X connect 91 0 127 0;
#X connect 92 0 94 0;
#X connect 92 1 94 1;
#X connect 93 0 94 0;
#X connect 94 0 95 0;
#X connect 95 0 128 0;
#X connect 96 0 98 0;
#X connect 96 1 98 1;
#X connect 97 0 98 0;
#X connect 98 0 99 0;
#X connect 99 0 129 0;
#X connect 100 0 102 0;
#X connect 100 1 102 1;
#X connect 101 0 102 0;
#X connect 102 0 103 0;
#X connect 103 0 130 0;
#X connect 104 0 106 0;
#X connect 104 1 106 1;
#X connect 105 0 106 0;
#X connect 106 0 107 0;
#X connect 107 0 131 0;
#X connect 108 0 110 0;
#X connect 108 1 110 1;
#X connect 109 0 110 0;
#X connect 110 0 111 0;
#X connect 111 0 132 0;
#X connect 112 0 114 0;
#X connect 112 1 114 1;
#X connect 113 0 114 0;
#X connect 114 0 115 0;
#X connect 115 0 133 0;
#X connect 116 0 118 0;
#X connect 116 1 118 1;
#X connect 117 0 118 0;
#X connect 118 0 119 0;
#X connect 119 0 134 0;
#X connect 120 0 122 0;
#X connect 120 1 122 1;
#X connect 121 0 122 0;
#X connect 122 0 123 0;
#X connect 123 0 135 0;
#X connect 124 0 136 0;
#X connect 125 0 137 0;
#X connect 126 0 138 0;
#X connect 127 0 139 0;
#X connect 128 0 140 0;
#X connect 129 0 141 0;
#X connect 130 0 142 0;
#X connect 131 0 143 0;
#X connect 132 0 144 0;
#X connect 133 0 145 0;
#X connect 134 0 146 0;
#X connect 135 0 147 0;
#X connect 136 0 159 0;
#X connect 136 0 186 0;
#X connect 137 0 148 0;
#X connect 137 0 187 0;
#X connect 138 0 149 0;
#X connect 138 0 188 0;
#X connect 139 0 150 0;
#X connect 139 0 189 0;
#X connect 140 0 151 0;
#X connect 140 0 190 0;
#X connect 141 0 152 0;
#X connect 141 0 191 0;
#X connect 142 0 153 0;
#X connect 142 0 192 0;
#X connect 143 0 154 0;
#X connect 143 0 193 0;
#X connect 144 0 155 0;
#X connect 144 0 194 0;
#X connect 145 0 156 0;
#X connect 145 0 195 0;
#X connect 146 0 157 0;
#X connect 146 0 196 0;
#X connect 147 0 158 0;
#X connect 147 0 197 0;
#X connect 148 0 159 0;
#X connect 148 1 159 1;
#X connect 149 0 160 0;
#X connect 149 1 160 1;
#X connect 150 0 161 0;
#X connect 150 1 161 1;
#X connect 151 0 162 0;
#X connect 151 1 162 1;
#X connect 152 0 163 0;
#X connect 152 1 163 1;
#X connect 153 0 164 0;
#X connect 153 1 164 1;
#X connect 154 0 165 0;
#X connect 154 1 165 1;
#X connect 155 0 166 0;
#X connect 155 1 166 1;
#X connect 156 0 167 0;
#X connect 156 1 167 1;
#X connect 157 0 168 0;
#X connect 157 1 168 1;
#X connect 158 0 169 0;
#X connect 158 1 169 1;
#X connect 159 0 160 0;
#X connect 160 0 161 0;
#X connect 161 0 162 0;
#X connect 162 0 163 0;
#X connect 163 0 164 0;
#X connect 164 0 165 0;
#X connect 165 0 166 0;
#X connect 166 0 167 0;
#X connect 167 0 168 0;
#X connect 168 0 169 0;
#X connect 169 0 170 0;
#X connect 170 0 171 0;
#X connect 170 0 185 0;
#X connect 172 0 175 0;
#X connect 173 0 175 0;
#X connect 174 0 175 0;
#X connect 175 0 60 0;
#X connect 175 0 212 0;
#X connect 176 0 175 0;
#X connect 177 0 175 0;
#X connect 178 0 175 0;
#X connect 179 0 175 0;
#X connect 180 0 175 0;
#X connect 181 0 175 0;
#X connect 182 0 175 0;
#X connect 183 0 175 0;
#X connect 184 0 175 0;
#X connect 185 1 187 0;
#X connect 185 2 188 0;
#X connect 185 3 189 0;
#X connect 185 4 190 0;
#X connect 185 5 191 0;
#X connect 185 6 192 0;
#X connect 185 7 193 0;
#X connect 185 8 194 0;
#X connect 185 9 195 0;
#X connect 185 10 196 0;
#X connect 185 11 197 0;
#X connect 185 12 186 1;
#X connect 185 12 187 1;
#X connect 185 12 188 1;
#X connect 185 12 189 1;
#X connect 185 12 190 1;
#X connect 185 12 191 1;
#X connect 185 12 192 1;
#X connect 185 12 193 1;
#X connect 185 12 194 1;
#X connect 185 12 195 1;
#X connect 185 12 196 1;
#X connect 185 12 197 1;
#X connect 186 0 198 0;
#X connect 187 0 199 0;
#X connect 188 0 200 0;
#X connect 189 0 201 0;
#X connect 190 0 202 0;
#X connect 191 0 203 0;
#X connect 192 0 204 0;
#X connect 193 0 205 0;
#X connect 194 0 206 0;
#X connect 195 0 207 0;
#X connect 196 0 208 0;
#X connect 197 0 209 0;
#X connect 198 0 172 0;
#X connect 199 0 173 0;
#X connect 200 0 174 0;
#X connect 201 0 176 0;
#X connect 202 0 177 0;
#X connect 203 0 178 0;
#X connect 204 0 179 0;
#X connect 205 0 180 0;
#X connect 206 0 181 0;
#X connect 207 0 182 0;
#X connect 208 0 183 0;
#X connect 209 0 184 0;
#X connect 211 0 60 0;
#X connect 211 1 60 1;
#X connect 215 0 217 0;
#X connect 217 0 59 0;
#X connect 218 0 56 0;
#X restore 473 240 pd quantizer;
#X obj 606 186 tgl 15 0 empty \$0-quantizer-C-s empty 17 7 0 10 -262144
-1 -1 0 1;
#X obj 620 165 tgl 15 0 empty \$0-quantizer-Csharp-s empty 17 7 0 10
-66577 -262144 -1 0 1;
#X obj 623 186 tgl 15 0 empty \$0-quantizer-D-s empty 17 7 0 10 -262144
-1 -1 0 1;
#X obj 640 186 tgl 15 0 empty \$0-quantizer-E-s empty 17 7 0 10 -262144
-1 -1 0 1;
#X obj 657 186 tgl 15 0 empty \$0-quantizer-F-s empty 17 7 0 10 -262144
-1 -1 0 1;
#X obj 674 186 tgl 15 0 empty \$0-quantizer-G-s empty 17 7 0 10 -262144
-1 -1 0 1;
#X obj 692 186 tgl 15 0 empty \$0-quantizer-A-s empty 17 7 0 10 -262144
-1 -1 0 1;
#X obj 710 186 tgl 15 0 empty \$0-quantizer-B-s empty 17 7 0 10 -262144
-1 -1 0 1;
#X obj 638 165 tgl 15 0 empty \$0-quantizer-Dsharp-s empty 17 7 0 10
-66577 -262144 -1 0 1;
#X obj 669 165 tgl 15 0 empty \$0-quantizer-Fsharp-s empty 17 7 0 10
-66577 -262144 -1 0 1;
#X obj 687 165 tgl 15 0 empty \$0-quantizer-Gsharp-s empty 17 7 0 10
-66577 -262144 -1 0 1;
#X obj 705 165 tgl 15 0 empty \$0-quantizer-Asharp-s empty 17 7 0 10
-66577 -262144 -1 0 1;
#N canvas 488 349 1099 502 packScale 0;
#X obj 85 67 inlet;
#X text 95 46 C;
#X text 149 48 C#;
#X text 199 48 D;
#X text 248 50 D#;
#X text 294 47 E;
#X text 347 46 F;
#X text 393 48 F#, f 3;
#X text 442 45 G;
#X text 486 47 G#, f 3;
#X text 541 44 A;
#X text 586 46 A#, f 3;
#X text 644 45 B;
#X obj 85 99 t b f;
#X obj 83 195 pack f f f f f f f f f f f f, f 96;
#X obj 143 68 inlet;
#X obj 143 100 t b f;
#X obj 189 69 inlet;
#X obj 189 101 t b f;
#X obj 240 69 inlet;
#X obj 240 101 t b f;
#X obj 284 69 inlet;
#X obj 284 101 t b f;
#X obj 342 70 inlet;
#X obj 342 102 t b f;
#X obj 388 71 inlet;
#X obj 388 103 t b f;
#X obj 439 71 inlet;
#X obj 439 103 t b f;
#X obj 484 71 inlet;
#X obj 484 103 t b f;
#X obj 534 71 inlet;
#X obj 534 103 t b f;
#X obj 580 72 inlet;
#X obj 580 104 t b f;
#X obj 631 72 inlet;
#X obj 631 104 t b f;
#X obj 96 270 outlet;
#X connect 0 0 13 0;
#X connect 13 0 14 0;
#X connect 13 1 14 0;
#X connect 14 0 37 0;
#X connect 15 0 16 0;
#X connect 16 0 14 0;
#X connect 16 1 14 1;
#X connect 17 0 18 0;
#X connect 18 0 14 0;
#X connect 18 1 14 2;
#X connect 19 0 20 0;
#X connect 20 0 14 0;
#X connect 20 1 14 3;
#X connect 21 0 22 0;
#X connect 22 0 14 0;
#X connect 22 1 14 4;
#X connect 23 0 24 0;
#X connect 24 0 14 0;
#X connect 24 1 14 5;
#X connect 25 0 26 0;
#X connect 26 0 14 0;
#X connect 26 1 14 6;
#X connect 27 0 28 0;
#X connect 28 0 14 0;
#X connect 28 1 14 7;
#X connect 29 0 30 0;
#X connect 30 0 14 0;
#X connect 30 1 14 8;
#X connect 31 0 32 0;
#X connect 32 0 14 0;
#X connect 32 1 14 9;
#X connect 33 0 34 0;
#X connect 34 0 14 0;
#X connect 34 1 14 10;
#X connect 35 0 36 0;
#X connect 36 0 14 0;
#X connect 36 1 14 11;
#X restore 554 215 pd packScale;
#X f 35;
#X floatatom 453 274 5 0 0 0 - - -;
#X floatatom 490 180 5 0 0 0 - - -;
#X obj 656 254 sel 0 1 2 3 4 5 6 7 8 9 10 11;
#X obj 657 313 s \$0-pitch0, f 1;
#X obj 656 292 bng 15 250 50 0 empty empty empty 17 7 0 10 -262144
-1 -1;
#X obj 673 292 bng 15 250 50 0 empty empty empty 17 7 0 10 -262144
-1 -1;
#X obj 690 292 bng 15 250 50 0 empty empty empty 17 7 0 10 -262144
-1 -1;
#X obj 707 292 bng 15 250 50 0 empty empty empty 17 7 0 10 -262144
-1 -1;
#X obj 724 292 bng 15 250 50 0 empty empty empty 17 7 0 10 -262144
-1 -1;
#X obj 741 292 bng 15 250 50 0 empty empty empty 17 7 0 10 -262144
-1 -1;
#X obj 758 292 bng 15 250 50 0 empty empty empty 17 7 0 10 -262144
-1 -1;
#X obj 775 292 bng 15 250 50 0 empty empty empty 17 7 0 10 -262144
-1 -1;
#X obj 792 292 bng 15 250 50 0 empty empty empty 17 7 0 10 -262144
-1 -1;
#X obj 809 292 bng 15 250 50 0 empty empty empty 17 7 0 10 -262144
-1 -1;
#X obj 826 292 bng 15 250 50 0 empty empty empty 17 7 0 10 -262144
-1 -1;
#X obj 843 292 bng 15 250 50 0 empty empty empty 17 7 0 10 -262144
-1 -1;
#X obj 674 313 s \$0-pitch1, f 1;
#X obj 691 313 s \$0-pitch2, f 1;
#X obj 708 313 s \$0-pitch3, f 1;
#X obj 725 313 s \$0-pitch4, f 1;
#X obj 742 313 s \$0-pitch5, f 1;
#X obj 759 313 s \$0-pitch6, f 1;
#X obj 776 313 s \$0-pitch7, f 1;
#X obj 793 313 s \$0-pitch8, f 1;
#X obj 810 313 s \$0-pitch9, f 1;
#X obj 827 313 s \$0-pitch10, f 1;
#X obj 844 313 s \$0-pitch11, f 1;
#X floatatom 542 324 5 0 0 0 - - -;
#X obj 592 298 i;
#X obj 478 206 t b b f;
#X obj 491 100 inlet;
#X text 539 98 input pitch;
#X obj 473 477 outlet;
#X text 543 478 quantized pitch;
#X obj 203 196 bng 15 250 50 0 empty \$0-pitch1 empty 17 7 0 10 -66577
-258113 -1;
#X obj 221 196 bng 15 250 50 0 empty \$0-pitch3 empty 17 7 0 10 -66577
-258113 -1;
#X obj 193 214 bng 15 250 50 0 empty \$0-pitch0 empty 17 7 0 10 -262144
-258113 -1;
#X obj 212 214 bng 15 250 50 0 empty \$0-pitch2 empty 17 7 0 10 -262144
-258113 -1;
#X obj 230 214 bng 15 250 50 0 empty \$0-pitch4 empty 17 7 0 10 -262144
-258113 -1;
#X obj 257 196 bng 15 250 50 0 empty \$0-pitch6 empty 17 7 0 10 -66577
-258113 -1;
#X obj 275 196 bng 15 250 50 0 empty \$0-pitch8 empty 17 7 0 10 -66577
-258113 -1;
#X obj 247 214 bng 15 250 50 0 empty \$0-pitch5 empty 17 7 0 10 -262144
-258113 -1;
#X obj 266 214 bng 15 250 50 0 empty \$0-pitch7 empty 17 7 0 10 -262144
-258113 -1;
#X obj 284 214 bng 15 250 50 0 empty \$0-pitch9 empty 17 7 0 10 -262144
-258113 -1;
#X text 196 230 C;
#X text 214 230 D;
#X text 232 231 E;
#X text 251 231 F;
#X text 268 231 G;
#X text 286 231 A;
#X text 306 232 B;
#X obj 301 214 bng 15 250 50 0 empty \$0-pitch11 empty 17 7 0 10 -262144
-258113 -1;
#X obj 292 196 bng 15 250 50 0 empty \$0-pitch10 empty 17 7 0 10 -66577
-258113 -1;
#X obj 194 147 tgl 15 0 \$0-quantizer-C-s \$0-quantizer-C-r empty 17
7 0 10 -262144 -1 -1 0 1;
#X obj 205 128 tgl 15 0 \$0-quantizer-Csharp-s \$0-quantizer-Csharp-r
empty 17 7 0 10 -66577 -262144 -1 0 1;
#X text 194 164 C;
#X text 212 164 D;
#X text 230 165 E;
#X text 249 165 F;
#X text 266 165 G;
#X text 284 165 A;
#X text 304 166 B;
#X text 222 106 QUANTIZER;
#X obj 211 147 tgl 15 0 \$0-quantizer-D-s \$0-quantizer-D-r empty 17
7 0 10 -262144 -1 -1 0 1;
#X obj 228 147 tgl 15 0 \$0-quantizer-E-s \$0-quantizer-E-r empty 17
7 0 10 -262144 -1 -1 0 1;
#X obj 245 147 tgl 15 0 \$0-quantizer-F-s \$0-quantizer-F-r empty 17
7 0 10 -262144 -1 -1 0 1;
#X obj 262 147 tgl 15 0 \$0-quantizer-G-s \$0-quantizer-G-r empty 17
7 0 10 -262144 -1 -1 0 1;
#X obj 280 147 tgl 15 0 \$0-quantizer-A-s \$0-quantizer-A-r empty 17
7 0 10 -262144 -1 -1 0 1;
#X obj 298 147 tgl 15 0 \$0-quantizer-B-s \$0-quantizer-B-r empty 17
7 0 10 -262144 -1 -1 0 1;
#X obj 223 128 tgl 15 0 \$0-quantizer-Dsharp-s \$0-quantizer-Dsharp-r
empty 17 7 0 10 -66577 -262144 -1 0 1;
#X obj 254 128 tgl 15 0 \$0-quantizer-Fsharp-s \$0-quantizer-Fsharp-r
empty 17 7 0 10 -66577 -262144 -1 0 1;
#X obj 272 128 tgl 15 0 \$0-quantizer-Gsharp-s \$0-quantizer-Gsharp-r
empty 17 7 0 10 -66577 -262144 -1 0 1;
#X obj 290 128 tgl 15 0 \$0-quantizer-Asharp-s \$0-quantizer-Asharp-r
empty 17 7 0 10 -66577 -262144 -1 0 1;
#X connect 0 0 14 0;
#X connect 0 1 41 0;
#X connect 0 1 42 1;
#X connect 1 0 13 0;
#X connect 2 0 13 1;
#X connect 3 0 13 2;
#X connect 4 0 13 4;
#X connect 5 0 13 5;
#X connect 6 0 13 7;
#X connect 7 0 13 9;
#X connect 8 0 13 11;
#X connect 9 0 13 3;
#X connect 10 0 13 6;
#X connect 11 0 13 8;
#X connect 12 0 13 10;
#X connect 13 0 0 2;
#X connect 14 0 46 0;
#X connect 15 0 43 0;
#X connect 16 0 18 0;
#X connect 16 1 19 0;
#X connect 16 2 20 0;
#X connect 16 3 21 0;
#X connect 16 4 22 0;
#X connect 16 5 23 0;
#X connect 16 6 24 0;
#X connect 16 7 25 0;
#X connect 16 8 26 0;
#X connect 16 9 27 0;
#X connect 16 10 28 0;
#X connect 16 11 29 0;
#X connect 18 0 17 0;
#X connect 19 0 30 0;
#X connect 20 0 31 0;
#X connect 21 0 32 0;
#X connect 22 0 33 0;
#X connect 23 0 34 0;
#X connect 24 0 35 0;
#X connect 25 0 36 0;
#X connect 26 0 37 0;
#X connect 27 0 38 0;
#X connect 28 0 39 0;
#X connect 29 0 40 0;
#X connect 42 0 16 0;
#X connect 43 0 42 0;
#X connect 43 1 0 0;
#X connect 43 2 0 1;
#X connect 44 0 15 0;
#X coords 0 -1 1 1 300 160 1 100 100;
#X restore 21 41 pd quantize;
#X obj 21 23 r pitch_unquantized;
#X obj 21 202 s pitch_quantized;
#N canvas 140 23 1300 808 main 1;
#X obj 406 284 oscparse;
#X obj 406 313 list trim;
#X text 12 385 route is the regular Pd object \, and should match the
OSC address without a backslash, f 43;
#X obj 406 174 netreceive -u -b 5000;
#X obj 439 224 spigot 0;
#X text 158 322 reconstructed OSC message (address followed by one
or more floats or strings., f 28;
#X obj 457 366 print OSC;
#X floatatom 323 453 5 0 0 0 - - -;
#X floatatom 391 453 5 0 0 0 - - -;
#X floatatom 462 453 5 0 0 0 - - -;
#X text 277 451 pitch;
#X text 498 453 dur;
#X text 428 453 vel;
#X obj 381 576 makenote;
#X obj 324 398 route pitch velocity duration;
#X obj 457 342 spigot 0;
#X obj 583 187 cnv 15 200 60 empty empty Enable_to_Print 100 12 2 14
-261682 -66577 0;
#X obj 625 210 tgl 15 0 empty empty empty 17 7 0 10 -262144 -1 -1 0
1;
#X obj 439 256 print serial_data;
#X obj 324 371 route note;
#X obj 63 603 cnv 15 300 60 empty empty Send_to_Midi_Out 20 12 2 14
-261682 -66577 0;
#X obj 288 633 noteout;
#X text 72 628 Make sure the correct;
#X text 65 644 midi output is selected;
#X obj 380 542 r pitch_quantized;
#X obj 323 481 s pitch_unquantized;
#X obj 335 98 r port;
#N canvas 469 126 901 619 gamelan_synth 0;
#X obj 92 418 hip~ 3;
#X obj 92 440 clip~ -1 1;
#X obj 92 484 dac~ 1 2;
#X obj 92 461 *~ 1;
#X obj 92 396 *~ 0.9;
#N canvas 351 87 432 373 spectrolog 0;
#N canvas 556 61 872 789 FFT_Analyse 0;
#X obj 101 102 inlet~;
#X obj 101 332 *~;
#X obj 132 331 *~;
#X obj 101 356 +~;
#X obj 102 377 powtodb~;
#N canvas 0 22 346 535 init_input_window 0;
#X obj 73 217 / 10;
#X obj 55 278 line 0 0.1;
#X msg 119 246 0;
#X obj 54 176 t f f b;
#X obj 54 239 pack;
#X obj 55 301 t f f;
#X obj 54 152 - 1;
#X obj 74 114 t f f;
#X obj 55 359 * 3.14159;
#X obj 55 381 sin;
#X msg 55 401 \$1 \$1;
#X obj 55 423 *;
#X text 119 334 0...0.99;
#X text 128 359 0...pi;
#X text 79 423 hanning;
#X msg 55 88 4096;
#X obj 100 88 f 4096;
#X obj 99 60 bng 15 250 50 0 empty empty empty 0 -6 0 8 -262144 -1
-1;
#X obj 99 39 loadbang;
#X obj 74 333 / 4096;
#X obj 55 448 tabwrite \$0-window;
#X text 86 381 half-sine;
#X connect 0 0 4 1;
#X connect 1 0 5 0;
#X connect 2 0 1 0;
#X connect 3 0 4 0;
#X connect 3 1 0 0;
#X connect 3 2 2 0;
#X connect 4 0 1 0;
#X connect 5 0 19 0;
#X connect 5 1 20 1;
#X connect 6 0 3 0;
#X connect 7 0 6 0;
#X connect 7 1 19 1;
#X connect 8 0 9 0;
#X connect 9 0 10 0;
#X connect 10 0 11 0;
#X connect 11 0 20 0;
#X connect 15 0 7 0;
#X connect 16 0 7 0;
#X connect 17 0 16 0;
#X connect 18 0 17 0;
#X connect 19 0 8 0;
#X restore 161 276 pd init_input_window;
#N canvas 0 22 450 300 (subpatch) 0;
#X array \$0-lin_scope 2048 float 0;
#X coords 0 100 2047 0 200 140 1;
#X restore 110 621 graph;
#N canvas 0 22 822 328 init_norm 0;
#X obj 43 230 outlet;
#X obj 43 187 - 100;
#X floatatom 43 208 9 0 0 0 - - -;
#X text 108 169 leistung - techn. dB;
#X msg 43 69 4096;
#X obj 80 68 f 4096;
#X obj 80 47 bng 15 250 50 0 empty empty empty 0 -6 0 8 -262144 -1
-1;
#X obj 80 26 loadbang;
#X obj 43 167 rmstodb;
#X obj 43 110 / 4;
#X text 74 103 faktor 2 wegen hanning;
#X text 74 114 weiterer faktor 2 \, weil wir nur die;
#X text 73 124 erste haelfte des konjungiert komplexen spektrum sehen
;
#X text 108 135 bzw. bearbeiten \, somit nur die haelfte der spektralen
energie;
#X connect 1 0 2 0;
#X connect 2 0 0 0;
#X connect 4 0 9 0;
#X connect 5 0 9 0;
#X connect 6 0 5 0;
#X connect 7 0 6 0;
#X connect 8 0 1 0;
#X connect 9 0 8 0;
#X restore 153 421 pd init_norm;
#X obj 100 231 *~;
#X obj 102 443 -~ 60.206;
#X obj 113 517 *~ 0.98;
#X obj 100 539 +~;
#X obj 101 471 *~ 0.02;
#X msg 314 481 1 \$1;
#X obj 314 502 -;
#X obj 314 458 clip 0 1;
#X obj 314 437 / 100;
#X floatatom 314 413 5 0.5 100 0 - - -;
#X obj 333 366 loadbang;
#X obj 100 277 fft~;
#X obj 463 557 line 0 0.1;
#X obj 463 602 / 2;
#X obj 463 622 mtof;
#X msg 463 536 6 \, 273 26.7;
#X obj 463 580 t f f;
#X obj 494 602 - 6;
#X obj 463 642 / 44100;
#X obj 463 663 * 4096;
#X msg 656 633 6;
#X obj 656 653 / 2;
#X obj 656 673 mtof;
#X floatatom 656 693 9 0 0 0 - - -;
#X text 723 694 Hz;
#X obj 754 654 / 2;
#X obj 754 673 mtof;
#X floatatom 754 693 9 0 0 0 - - -;
#X text 822 693 Hz;
#X msg 754 634 273;
#X obj 656 612 t b b;
#X obj 463 498 tgl 15 0 empty empty empty 0 -6 0 8 -262144 -1 -1 1
1;
#X obj 463 458 loadbang;
#X msg 463 478 1;
#X obj 656 592 loadbang;
#X obj 468 245 loadbang;
#X obj 703 102 inlet;
#X obj 130 253 table \$0-window 4096;
#X obj 137 214 tabreceive~ \$0-window;
#X text 353 403 temporal lowpass;
#X text 355 415 parameter between 0 .. 100 %;
#X text 23 23 spectrum~;
#X text 120 23 draws the power of a spectrum in a logarithmic scale
;
#X text 118 36 (by Thomas Musil);
#X obj 113 496 tabreceive~ \$0-lin_scope;
#X obj 100 564 tabsend~ \$0-lin_scope;
#X obj 463 685 tabread4 \$0-lin_scope;
#X obj 468 267 f \$0;
#X text 553 536 transformation to log scale;
#X msg 333 385 100;
#X obj 314 341 max 0.5;
#X obj 314 319 min 100;
#X obj 440 107 inlet;
#X text 96 81 audio sig;
#X text 700 81 ON/OFF;
#X text 427 86 (0 .. 100);
#X text 408 72 temporal lowpass;
#X obj 533 244 bng 15 250 50 0 empty empty empty 0 -6 0 8 -262144 -1
-1;
#X obj 463 735 tabwrite \$0-s;
#X msg 468 296 \; \$1-s xticks 0 12 2;
#X msg 491 330 \; \$1-s yticks 0 5 2;
#X obj 462 516 metro 100;
#X obj 704 166 switch~ 4096 2;
#X obj 463 711 clip 0 100;
#X obj 773 101 loadbang;
#X msg 773 123 1;
#X connect 0 0 8 0;
#X connect 1 0 3 0;
#X connect 2 0 3 1;
#X connect 3 0 4 0;
#X connect 4 0 9 0;
#X connect 7 0 9 1;
#X connect 8 0 19 0;
#X connect 9 0 12 0;
#X connect 10 0 11 1;
#X connect 11 0 53 0;
#X connect 12 0 11 0;
#X connect 13 0 14 0;
#X connect 14 0 10 1;
#X connect 15 0 13 0;
#X connect 15 0 12 1;
#X connect 16 0 15 0;
#X connect 17 0 16 0;
#X connect 18 0 57 0;
#X connect 19 0 1 0;
#X connect 19 0 1 1;
#X connect 19 1 2 0;
#X connect 19 1 2 1;
#X connect 20 0 24 0;
#X connect 21 0 22 0;
#X connect 22 0 26 0;
#X connect 23 0 20 0;
#X connect 24 0 21 0;
#X connect 24 1 25 0;
#X connect 25 0 66 1;
#X connect 26 0 27 0;
#X connect 27 0 54 0;
#X connect 28 0 29 0;
#X connect 29 0 30 0;
#X connect 30 0 31 0;
#X connect 33 0 34 0;
#X connect 34 0 35 0;
#X connect 37 0 33 0;
#X connect 38 0 28 0;
#X connect 38 1 37 0;
#X connect 39 0 69 0;
#X connect 40 0 41 0;
#X connect 41 0 39 0;
#X connect 42 0 38 0;
#X connect 43 0 55 0;
#X connect 44 0 70 0;
#X connect 46 0 8 1;
#X connect 52 0 10 0;
#X connect 54 0 71 0;
#X connect 55 0 67 0;
#X connect 55 0 68 0;
#X connect 57 0 17 0;
#X connect 58 0 17 0;
#X connect 59 0 58 0;
#X connect 60 0 59 0;
#X connect 65 0 55 0;
#X connect 69 0 23 0;
#X connect 71 0 66 0;
#X connect 72 0 73 0;
#X connect 73 0 70 0;
#X restore 17 320 pd FFT_Analyse;
#X obj 63 299 inlet;
#X obj 17 299 inlet~;
#X obj 110 299 inlet;
#N canvas 0 22 450 300 (subpatch) 0;
#X array \$0-s 268 float 0;
#X coords 0 100 267 0 267 140 1;
#X restore 23 27 graph;
#X obj 297 42 cnv 15 1 1 empty empty -10 0 0 0 10 -262144 -1 0;
#X obj 297 154 cnv 15 1 1 empty empty -90 0 0 0 10 -262144 -1 0;
#X obj 297 98 cnv 15 1 1 empty empty -50 0 0 0 10 -262144 -1 0;
#X obj 297 70 cnv 15 1 1 empty empty -30 0 0 0 10 -262144 -1 0;
#X obj 297 126 cnv 15 1 1 empty empty -70 0 0 0 10 -262144 -1 0;
#X obj 18 171 cnv 15 1 1 empty empty 10 0 5 0 10 -262144 -1 0;
#X obj 66 171 cnv 15 1 1 empty empty 40 0 5 0 10 -262144 -1 0;
#X obj 115 171 cnv 15 1 1 empty empty 160 0 5 0 10 -262144 -1 0;
#X obj 162 171 cnv 15 1 1 empty empty 640 0 5 0 10 -262144 -1 0;
#X obj 210 171 cnv 15 1 1 empty empty 2k56 0 5 0 10 -262144 -1 0;
#X obj 258 171 cnv 15 1 1 empty empty 10k2 0 5 0 10 -262144 -1 0;
#X obj 138 184 cnv 15 1 1 empty empty 320 0 5 0 10 -262144 -1 0;
#X obj 282 184 cnv 15 1 1 empty empty 20k5 0 5 0 10 -262144 -1 0;
#X obj 42 181 cnv 15 1 1 empty empty 20 0 9 0 10 -262144 -1 0;
#X obj 90 184 cnv 15 1 1 empty empty 80 0 5 0 10 -262144 -1 0;
#X obj 186 184 cnv 15 1 1 empty empty 1k28 0 5 0 10 -262144 -1 0;
#X obj 234 184 cnv 15 1 1 empty empty 5k12 0 5 0 10 -262144 -1 0;
#X obj 46 168 cnv 15 1 1 empty empty | 0 7 0 10 -262144 -1 0;
#X obj 94 168 cnv 15 1 1 empty empty | 0 7 0 10 -262144 -1 0;
#X obj 142 168 cnv 15 1 1 empty empty | 0 7 0 10 -262144 -1 0;
#X obj 190 168 cnv 15 1 1 empty empty | 0 7 0 10 -262144 -1 0;
#X obj 238 168 cnv 15 1 1 empty empty | 0 7 0 10 -262144 -1 0;
#X obj 286 168 cnv 15 1 1 empty empty | 0 7 0 10 -262144 -1 0;
#X connect 1 0 0 1;
#X connect 2 0 0 0;
#X connect 3 0 0 2;
#X coords 0 -1 1 1 330 210 1 0 0;
#X restore 252 394 pd spectrolog;
#X obj 92 331 /~ 6;
#X obj 180 31 noise~;
#X obj 180 52 hip~ 8000;
#X obj 180 73 hip~ 8000;
#X text 467 183 GAMELAN;
#X text 464 204 A synthesized gamelan model using additive synthesis.
;
#X obj 17 35 inlet;
#X text 13 -10 Inlet must be a packed note vel;
#X obj 92 120 pack f f f;
#X obj 277 128 r \$0-poly;
#X obj 92 99 poly 6 1;
#X obj 93 69 unpack;
#X obj 92 297 clone -s 1 gamelan~ 6;
#X text 460 232 Gamelan synth from https://github.com/MikeMorenoDSP/pd-mkmr
;
#X connect 0 0 1 0;
#X connect 1 0 3 0;
#X connect 3 0 2 0;
#X connect 3 0 2 1;
#X connect 4 0 0 0;
#X connect 6 0 4 0;
#X connect 6 0 5 0;
#X connect 7 0 8 0;
#X connect 8 0 9 0;
#X connect 9 0 18 1;
#X connect 12 0 17 0;
#X connect 14 0 18 0;
#X connect 16 0 14 0;
#X connect 16 1 14 1;
#X connect 16 2 14 2;
#X connect 17 0 16 0;
#X connect 17 1 16 1;
#X connect 18 0 6 0;
#X restore 452 667 pd gamelan_synth;
#X obj 451 636 pack f f;
#X obj 1031 429 oscparse;
#X obj 1031 458 list trim;
#X obj 1031 405 netreceive -u -b 5000;
#X floatatom 1030 565 5 0 0 0 - - -;
#X floatatom 1098 565 5 0 0 0 - - -;
#X floatatom 1169 565 5 0 0 0 - - -;
#X text 984 563 pitch;
#X text 1205 565 dur;
#X text 1135 565 vel;
#X obj 1031 510 route pitch velocity duration;
#X obj 1031 483 route note;
#X msg 1031 377 listen 1123;
#X obj 1031 350 loadbang;
#X obj 1030 618 makenote;
#X connect 0 0 1 0;
#X connect 1 0 15 0;
#X connect 1 0 19 0;
#X connect 3 0 0 0;
#X connect 3 0 4 0;
#X connect 4 0 18 0;
#X connect 7 0 25 0;
#X connect 8 0 13 1;
#X connect 9 0 13 2;
#X connect 13 0 21 0;
#X connect 13 0 28 0;
#X connect 13 1 21 1;
#X connect 13 1 28 1;
#X connect 14 0 7 0;
#X connect 14 1 8 0;
#X connect 14 2 9 0;
#X connect 15 0 6 0;
#X connect 17 0 15 1;
#X connect 17 0 4 1;
#X connect 19 0 14 0;
#X connect 24 0 13 0;
#X connect 26 0 3 0;
#X connect 28 0 27 0;
#X connect 29 0 30 0;
#X connect 30 0 39 0;
#X connect 31 0 29 0;
#X connect 32 0 42 0;
#X connect 33 0 42 1;
#X connect 34 0 42 2;
#X connect 38 0 32 0;
#X connect 38 1 33 0;
#X connect 38 2 34 0;
#X connect 39 0 38 0;
#X connect 40 0 31 0;
#X connect 41 0 40 0;
#X restore 544 195 pd main;
#X msg 332 133 listen 1123;
#X msg 424 134 listen 0;
#X obj 332 109 loadbang;
#X obj 332 179 s port;
#X connect 0 0 2 0;
#X connect 1 0 0 0;
#X connect 4 0 7 0;
#X connect 5 0 7 0;
#X connect 6 0 4 0;
#X coords 0 -1 1 1 500 250 1 0 0;
