#N canvas 960 24 960 987 12;
#X obj 57 56 vsl 15 128 0 127 0 0 empty empty empty 0 -9 0 10 -262144
-1 -1 8800 1;
#X floatatom 57 489 5 0 0 0 - - -;
#X obj 57 238 list prepend send, f 10;
#X obj 57 305 list trim;
#X msg 560 155 disconnect;
#X msg 549 130 connect 127.0.0.1 1415;
#X obj 549 189 s ip_port;
#X obj 549 106 loadbang;
#X obj 183 55 vsl 15 128 0 127 0 0 empty empty empty 0 -9 0 10 -262144
-1 -1 5300 1;
#X obj 183 237 list prepend send, f 10;
#X obj 183 304 list trim;
#X obj 314 54 vsl 15 128 0 127 0 0 empty empty empty 0 -9 0 10 -262144
-1 -1 7900 1;
#X obj 314 236 list prepend send, f 10;
#X obj 314 303 list trim;
#X text 38 32 slider 0;
#X text 164 30 slider 4;
#X text 295 29 slider 9;
#X obj 56 199 oscformat /slider/0, f 10;
#X obj 183 198 oscformat /slider/4, f 10;
#X obj 314 197 oscformat /slider/9, f 10;
#X obj 58 563 list prepend send, f 10;
#X obj 58 630 list trim;
#X text 53 458 num box 0;
#X floatatom 177 489 5 0 0 0 - - -;
#X obj 178 563 list prepend send, f 10;
#X obj 178 630 list trim;
#X floatatom 309 486 5 0 0 0 - - -;
#X obj 310 560 list prepend send, f 10;
#X obj 310 627 list trim;
#X text 173 458 num box 4;
#X text 305 454 num box 9;
#X obj 57 524 oscformat /nbox/0, f 10;
#X obj 177 524 oscformat /nbox/4, f 10;
#X obj 309 521 oscformat /nbox/9, f 10;
#X obj 57 334 s to_netsend;
#X obj 550 286 netsend -u -b;
#X obj 569 253 r ip_port;
#X obj 550 220 r to_netsend;
#X obj 183 334 s to_netsend;
#X obj 313 332 s to_netsend;
#X obj 59 658 s to_netsend;
#X obj 179 657 s to_netsend;
#X obj 311 654 s to_netsend;
#X floatatom 504 482 5 0 0 0 - - -;
#X obj 505 556 list prepend send, f 10;
#X obj 505 623 list trim;
#X obj 506 650 s to_netsend;
#X text 500 403 Some other control without implemented handlers in
pd;
#X obj 672 555 list prepend send, f 10;
#X obj 672 622 list trim;
#X obj 673 649 s to_netsend;
#X obj 671 516 oscformat /quit/, f 18;
#X obj 671 425 bng 15 250 50 0 empty empty empty 17 7 0 10 -262144
-1 -1;
#X msg 708 480 1;
#X obj 504 517 oscformat /bpm/track0;
#X connect 0 0 17 0;
#X connect 1 0 31 0;
#X connect 2 0 3 0;
#X connect 3 0 34 0;
#X connect 4 0 6 0;
#X connect 5 0 6 0;
#X connect 7 0 5 0;
#X connect 8 0 18 0;
#X connect 9 0 10 0;
#X connect 10 0 38 0;
#X connect 11 0 19 0;
#X connect 12 0 13 0;
#X connect 13 0 39 0;
#X connect 17 0 2 0;
#X connect 18 0 9 0;
#X connect 19 0 12 0;
#X connect 20 0 21 0;
#X connect 21 0 40 0;
#X connect 23 0 32 0;
#X connect 24 0 25 0;
#X connect 25 0 41 0;
#X connect 26 0 33 0;
#X connect 27 0 28 0;
#X connect 28 0 42 0;
#X connect 31 0 20 0;
#X connect 32 0 24 0;
#X connect 33 0 27 0;
#X connect 36 0 35 0;
#X connect 37 0 35 0;
#X connect 43 0 54 0;
#X connect 44 0 45 0;
#X connect 45 0 46 0;
#X connect 48 0 49 0;
#X connect 49 0 50 0;
#X connect 51 0 48 0;
#X connect 52 0 53 0;
#X connect 53 0 51 0;
#X connect 54 0 44 0;
