#N canvas 173 49 1267 797 10;
#X obj 138 232 pack f f f;
#X obj 138 295 clip~ -1 1;
#X obj 138 316 hip~ 3;
#X obj 138 253 clone -s 1 santur 24;
#X obj 138 212 poly 24 1;
#X obj 138 274 *~ 0.5;
#X obj 143 49 inlet;
#X obj 140 146 unpack f f;
#X obj 138 445 outlet~;
#X obj 139 383 vfreeverb~, f 14;
#X obj 536 75 inlet;
#X msg 597 162 wet \$1;
#X obj 685 128 expr 1-$f1;
#X msg 685 152 dry \$1;
#X msg 286 290 room \$1;
#X msg 373 289 damp \$1;
#X obj 623 70 inlet;
#X obj 691 73 inlet;
#X obj 297 73 inlet;
#X text 348 71 enable;
#X obj 298 97 tgl 15 0 empty empty empty 17 7 0 10 -262144 -1 -1 0
1;
#X obj 150 118 spigot;
#X text 187 52 santur note;
#X connect 0 0 3 0;
#X connect 1 0 2 0;
#X connect 2 0 9 0;
#X connect 3 0 5 0;
#X connect 4 0 0 0;
#X connect 4 1 0 1;
#X connect 4 2 0 2;
#X connect 5 0 1 0;
#X connect 6 0 21 0;
#X connect 7 0 4 0;
#X connect 7 1 4 1;
#X connect 9 0 8 0;
#X connect 10 0 11 0;
#X connect 10 0 12 0;
#X connect 11 0 9 2;
#X connect 12 0 13 0;
#X connect 13 0 9 2;
#X connect 14 0 9 2;
#X connect 15 0 9 2;
#X connect 16 0 14 0;
#X connect 17 0 15 0;
#X connect 18 0 20 0;
#X connect 20 0 21 1;
#X connect 21 0 7 0;
