#N canvas 0 23 1920 1125 12;
#X obj 385 85 inlet;
#X text 434 87 enable;
#X obj 385 125 s \$0-enable_drum_sample_player;
#X obj 385 107 tgl 15 0 empty empty empty 17 7 0 10 -262144 -1 -1 0
1;
#X obj 488 1066 dac~;
#X obj 473 285 tgl 15 0 empty \$0-enable_drum_sample_player empty 17
7 0 10 -262144 -1 -1 0 1;
#X obj 434 304 spigot;
#X floatatom 434 232 5 0 0 0 - - -;
#X obj 434 368 throw~ drum_sound;
#X obj 433 176 r drumNote;
#N canvas 180 250 1145 506 play_hats 0;
#X floatatom 174 84 5 0 0 0 - - -;
#X floatatom 174 269 5 0 0 0 - - -;
#X obj 175 53 inlet;
#X msg 142 408 1;
#X obj 175 293 i;
#X obj 176 133 moses 0;
#X obj 174 316 expr min($f1 \, $f2);
#X floatatom 173 339 5 0 0 0 - - -;
#X obj 175 245 expr $f1/(127.0/$f2)+1;
#X text 401 176 n samples;
#X obj 361 143 loadbang;
#X obj 174 383 t b f b;
#X obj 168 482 outlet~;
#X msg 359 177 37;
#X floatatom 490 82 5 0 0 0 - - -;
#X floatatom 490 267 5 0 0 0 - - -;
#X obj 491 51 inlet;
#X msg 458 406 1;
#X obj 491 291 i;
#X obj 492 131 moses 0;
#X obj 490 314 expr min($f1 \, $f2);
#X floatatom 489 337 5 0 0 0 - - -;
#X obj 491 243 expr $f1/(127.0/$f2)+1;
#X text 717 174 n samples;
#X obj 677 141 loadbang;
#X obj 490 381 t b f b;
#X text 223 53 closed hat velocity;
#X text 539 51 open hat velocity;
#X obj 174 449 readsf~ 4;
#X msg 675 175 38;
#X msg 174 408 open closed-hihat/44khz_chh\$1.wav;
#X msg 490 406 open open-hihat/44khz_hohh\$1.wav;
#X connect 0 0 5 0;
#X connect 1 0 4 0;
#X connect 2 0 0 0;
#X connect 3 0 28 0;
#X connect 4 0 6 0;
#X connect 5 1 8 0;
#X connect 6 0 7 0;
#X connect 7 0 11 0;
#X connect 8 0 1 0;
#X connect 10 0 13 0;
#X connect 11 0 3 0;
#X connect 11 1 30 0;
#X connect 13 0 6 1;
#X connect 13 0 8 1;
#X connect 14 0 19 0;
#X connect 15 0 18 0;
#X connect 16 0 14 0;
#X connect 17 0 28 0;
#X connect 18 0 20 0;
#X connect 19 1 22 0;
#X connect 20 0 21 0;
#X connect 21 0 25 0;
#X connect 22 0 15 0;
#X connect 24 0 29 0;
#X connect 25 0 17 0;
#X connect 25 1 31 0;
#X connect 28 0 12 0;
#X connect 29 0 22 1;
#X connect 29 0 20 1;
#X connect 30 0 28 0;
#X connect 31 0 28 0;
#X restore 434 327 pd play_hats;
#X obj 556 282 tgl 15 0 empty \$0-enable_drum_sample_player empty 17
7 0 10 -262144 -1 -1 0 1;
#X obj 517 301 spigot;
#X floatatom 517 229 5 0 0 0 - - -;
#X obj 516 173 r drumNote;
#X obj 450 202 route 42;
#X obj 533 199 route 46;
#X obj 161 525 tgl 15 0 empty \$0-enable_drum_sample_player empty 17
7 0 10 -262144 -1 -1 0 1;
#X obj 122 544 spigot;
#X floatatom 122 472 5 0 0 0 - - -;
#X obj 122 608 throw~ drum_sound;
#X obj 121 416 r drumNote;
#X obj 164 788 tgl 15 0 empty \$0-enable_drum_sample_player empty 17
7 0 10 -262144 -1 -1 0 1;
#X obj 125 807 spigot;
#X floatatom 125 735 5 0 0 0 - - -;
#X obj 125 871 throw~ drum_sound;
#X obj 124 679 r drumNote;
#X obj 308 528 tgl 15 0 empty \$0-enable_drum_sample_player empty 17
7 0 10 -262144 -1 -1 0 1;
#X obj 269 547 spigot;
#X floatatom 269 475 5 0 0 0 - - -;
#X obj 269 611 throw~ drum_sound;
#X obj 268 419 r drumNote;
#X obj 391 525 tgl 15 0 empty \$0-enable_drum_sample_player empty 17
7 0 10 -262144 -1 -1 0 1;
#X obj 352 544 spigot;
#X floatatom 352 472 5 0 0 0 - - -;
#X obj 351 416 r drumNote;
#N canvas 682 236 720 506 play_lo_tom 0;
#X obj 174 449 readsf~;
#X floatatom 174 84 5 0 0 0 - - -;
#X floatatom 174 269 5 0 0 0 - - -;
#X obj 175 53 inlet;
#X text 223 53 velocity;
#X msg 142 408 1;
#X obj 175 293 i;
#X obj 176 133 moses 0;
#X obj 174 316 expr min($f1 \, $f2);
#X floatatom 173 339 5 0 0 0 - - -;
#X obj 175 245 expr $f1/(127.0/$f2)+1;
#X text 401 176 n samples;
#X obj 361 143 loadbang;
#X obj 174 383 t b f b;
#X obj 168 482 outlet~;
#X msg 359 177 38;
#X msg 174 409 open lo-tom/44khz_large-tom\$1.wav;
#X connect 0 0 14 0;
#X connect 1 0 7 0;
#X connect 2 0 6 0;
#X connect 3 0 1 0;
#X connect 5 0 0 0;
#X connect 6 0 8 0;
#X connect 7 1 10 0;
#X connect 8 0 9 0;
#X connect 9 0 13 0;
#X connect 10 0 2 0;
#X connect 12 0 15 0;
#X connect 13 0 5 0;
#X connect 13 1 16 0;
#X connect 15 0 10 1;
#X connect 15 0 8 1;
#X connect 16 0 0 0;
#X restore 122 567 pd play_lo_tom;
#X obj 138 442 route 43;
#N canvas 685 159 1022 759 play_mid_hi_toms 0;
#X floatatom 174 84 5 0 0 0 - - -;
#X floatatom 174 269 5 0 0 0 - - -;
#X obj 175 53 inlet;
#X msg 142 408 1;
#X obj 175 293 i;
#X obj 176 133 moses 0;
#X obj 174 316 expr min($f1 \, $f2);
#X floatatom 173 339 5 0 0 0 - - -;
#X obj 175 245 expr $f1/(127.0/$f2)+1;
#X text 401 176 n samples;
#X obj 361 143 loadbang;
#X obj 174 383 t b f b;
#X obj 168 482 outlet~;
#X floatatom 490 82 5 0 0 0 - - -;
#X floatatom 490 267 5 0 0 0 - - -;
#X obj 491 51 inlet;
#X msg 458 406 1;
#X obj 491 291 i;
#X obj 492 131 moses 0;
#X obj 490 314 expr min($f1 \, $f2);
#X floatatom 489 337 5 0 0 0 - - -;
#X obj 491 243 expr $f1/(127.0/$f2)+1;
#X text 717 174 n samples;
#X obj 677 141 loadbang;
#X obj 490 381 t b f b;
#X text 223 53 closed hat velocity;
#X text 539 51 open hat velocity;
#X obj 174 449 readsf~ 4;
#X msg 359 177 35;
#X msg 675 175 36;
#X msg 175 408 open mid-tom/44khz_medium-tom\$1.wav;
#X msg 490 406 open hi-tom/44khz_small-tom\$1.wav;
#X connect 0 0 5 0;
#X connect 1 0 4 0;
#X connect 2 0 0 0;
#X connect 3 0 27 0;
#X connect 4 0 6 0;
#X connect 5 1 8 0;
#X connect 6 0 7 0;
#X connect 7 0 11 0;
#X connect 8 0 1 0;
#X connect 10 0 28 0;
#X connect 11 0 3 0;
#X connect 11 1 30 0;
#X connect 13 0 18 0;
#X connect 14 0 17 0;
#X connect 15 0 13 0;
#X connect 16 0 27 0;
#X connect 17 0 19 0;
#X connect 18 1 21 0;
#X connect 19 0 20 0;
#X connect 20 0 24 0;
#X connect 21 0 14 0;
#X connect 23 0 29 0;
#X connect 24 0 16 0;
#X connect 24 1 31 0;
#X connect 27 0 12 0;
#X connect 28 0 8 1;
#X connect 28 0 6 1;
#X connect 29 0 21 1;
#X connect 29 0 19 1;
#X connect 30 0 27 0;
#X connect 31 0 27 0;
#X restore 269 570 pd play_mid_hi_toms;
#X obj 285 445 route 47;
#X obj 368 442 route 48;
#N canvas 720 446 720 402 play_crash 0;
#X obj 174 449 readsf~;
#X floatatom 174 84 5 0 0 0 - - -;
#X floatatom 174 269 5 0 0 0 - - -;
#X obj 175 53 inlet;
#X text 223 53 velocity;
#X msg 142 408 1;
#X obj 175 293 i;
#X obj 176 133 moses 0;
#X obj 174 316 expr min($f1 \, $f2);
#X floatatom 173 339 5 0 0 0 - - -;
#X obj 175 245 expr $f1/(127.0/$f2)+1;
#X text 401 176 n samples;
#X obj 361 143 loadbang;
#X obj 174 383 t b f b;
#X obj 168 482 outlet~;
#X msg 359 177 25;
#X msg 174 408 open crash/44khz_crash\$1.wav;
#X connect 0 0 14 0;
#X connect 1 0 7 0;
#X connect 2 0 6 0;
#X connect 3 0 1 0;
#X connect 5 0 0 0;
#X connect 6 0 8 0;
#X connect 7 1 10 0;
#X connect 8 0 9 0;
#X connect 9 0 13 0;
#X connect 10 0 2 0;
#X connect 12 0 15 0;
#X connect 13 0 5 0;
#X connect 13 1 16 0;
#X connect 15 0 10 1;
#X connect 15 0 8 1;
#X connect 16 0 0 0;
#X restore 125 830 pd play_crash;
#X obj 141 705 route 49;
#X obj 373 788 tgl 15 0 empty \$0-enable_drum_sample_player empty 17
7 0 10 -262144 -1 -1 0 1;
#X obj 334 807 spigot;
#X floatatom 334 735 5 0 0 0 - - -;
#X obj 334 871 throw~ drum_sound;
#X obj 333 679 r drumNote;
#N canvas 720 446 720 402 play_ride 0;
#X obj 174 449 readsf~;
#X floatatom 174 84 5 0 0 0 - - -;
#X floatatom 174 269 5 0 0 0 - - -;
#X obj 175 53 inlet;
#X text 223 53 velocity;
#X msg 142 408 1;
#X obj 175 293 i;
#X obj 176 133 moses 0;
#X obj 174 316 expr min($f1 \, $f2);
#X floatatom 173 339 5 0 0 0 - - -;
#X obj 175 245 expr $f1/(127.0/$f2)+1;
#X text 401 176 n samples;
#X obj 361 143 loadbang;
#X obj 174 383 t b f b;
#X obj 168 482 outlet~;
#X msg 359 176 17;
#X msg 174 408 open ride/44khz_ride-mid-in\$1.wav;
#X connect 0 0 14 0;
#X connect 1 0 7 0;
#X connect 2 0 6 0;
#X connect 3 0 1 0;
#X connect 5 0 0 0;
#X connect 6 0 8 0;
#X connect 7 1 10 0;
#X connect 8 0 9 0;
#X connect 9 0 13 0;
#X connect 10 0 2 0;
#X connect 12 0 15 0;
#X connect 13 0 5 0;
#X connect 13 1 16 0;
#X connect 15 0 10 1;
#X connect 15 0 8 1;
#X connect 16 0 0 0;
#X restore 334 830 pd play_ride;
#X obj 350 705 route 51;
#X obj 481 980 catch~ drum_sound;
#X connect 0 0 3 0;
#X connect 3 0 2 0;
#X connect 5 0 6 1;
#X connect 6 0 10 0;
#X connect 7 0 6 0;
#X connect 9 0 15 0;
#X connect 10 0 8 0;
#X connect 11 0 12 1;
#X connect 12 0 10 1;
#X connect 13 0 12 0;
#X connect 14 0 16 0;
#X connect 15 0 7 0;
#X connect 16 0 13 0;
#X connect 17 0 18 1;
#X connect 18 0 36 0;
#X connect 19 0 18 0;
#X connect 21 0 37 0;
#X connect 22 0 23 1;
#X connect 23 0 41 0;
#X connect 24 0 23 0;
#X connect 26 0 42 0;
#X connect 27 0 28 1;
#X connect 28 0 38 0;
#X connect 29 0 28 0;
#X connect 31 0 39 0;
#X connect 32 0 33 1;
#X connect 33 0 38 1;
#X connect 34 0 33 0;
#X connect 35 0 40 0;
#X connect 36 0 20 0;
#X connect 37 0 19 0;
#X connect 38 0 30 0;
#X connect 39 0 29 0;
#X connect 40 0 34 0;
#X connect 41 0 25 0;
#X connect 42 0 24 0;
#X connect 43 0 44 1;
#X connect 44 0 48 0;
#X connect 45 0 44 0;
#X connect 47 0 49 0;
#X connect 48 0 46 0;
#X connect 49 0 45 0;
#X connect 50 0 4 0;
#X connect 50 0 4 1;
