#N canvas 1 25 960 1115 12;
#X obj 385 85 inlet;
#X text 434 87 enable;
#X obj 385 125 s \$0-enable_drum_sample_player;
#X obj 385 107 tgl 15 0 empty empty empty 17 7 0 10 #fcfcfc #000000
#000000 0 1;
#N canvas 1075 260 689 665 hihat 0;
#X obj 430 31 inlet;
#X obj 371 627 outlet~;
#X obj 386 113 loadbang;
#X obj 386 155 /;
#N canvas 1164 679 371 206 allpass100ms 0;
#X obj 12 31 inlet~;
#X obj 12 92 +~;
#X obj 27 70 *~;
#X obj 232 53 inlet;
#X obj 232 75 * -1;
#X obj 187 109 *~;
#X obj 172 131 +~;
#X obj 172 153 outlet~;
#X text 12 173 0 - 100 mSec allpass;
#X text 232 33 gain;
#X text 102 11 time;
#X text 12 11 sound;
#X obj 12 153 delwrite~ \$0-short-4 100;
#X obj 248 118 inlet;
#X msg 248 139 clear;
#X obj 102 31 inlet;
#X obj 102 53 delread~ \$0-short-4;
#X connect 0 0 1 0;
#X connect 1 0 5 0;
#X connect 1 0 12 0;
#X connect 2 0 1 1;
#X connect 3 0 2 1;
#X connect 3 0 4 0;
#X connect 4 0 5 1;
#X connect 5 0 6 1;
#X connect 6 0 7 0;
#X connect 13 0 14 0;
#X connect 14 0 12 0;
#X connect 15 0 16 0;
#X connect 16 0 2 0;
#X connect 16 0 6 0;
#X restore 371 304 pd allpass100ms;
#X obj 128 164 vline~;
#X obj 457 136 s \$0-hht-trg;
#X obj 128 59 r \$0-hht-trg;
#X obj 214 135 r \$0-hht-trg;
#X msg 214 156 seed 1234;
#X obj 214 178 noise~;
#X obj 128 206 *~;
#X obj 458 283 r \$0-hht-trg;
#X msg 471 545 clear;
#X obj 400 218 loadbang;
#X msg 400 261 1000 \$1;
#X obj 400 282 /;
#X obj 471 523 r \$0-hht-trg;
#N canvas 1164 679 371 206 allpass100ms 0;
#X obj 12 31 inlet~;
#X obj 12 92 +~;
#X obj 27 70 *~;
#X obj 232 53 inlet;
#X obj 232 75 * -1;
#X obj 187 109 *~;
#X obj 172 131 +~;
#X obj 172 153 outlet~;
#X text 12 173 0 - 100 mSec allpass;
#X text 232 33 gain;
#X text 102 11 time;
#X text 12 11 sound;
#X obj 248 118 inlet;
#X msg 248 139 clear;
#X obj 102 31 inlet;
#X obj 12 153 delwrite~ \$0-short-3 100;
#X obj 102 53 delread~ \$0-short-3;
#X connect 0 0 1 0;
#X connect 1 0 5 0;
#X connect 1 0 15 0;
#X connect 2 0 1 1;
#X connect 3 0 2 1;
#X connect 3 0 4 0;
#X connect 4 0 5 1;
#X connect 5 0 6 1;
#X connect 6 0 7 0;
#X connect 12 0 13 0;
#X connect 13 0 15 0;
#X connect 14 0 16 0;
#X connect 16 0 2 0;
#X connect 16 0 6 0;
#X restore 371 411 pd allpass100ms;
#X obj 400 325 loadbang;
#X msg 400 368 1000 \$1;
#X obj 400 389 /;
#N canvas 1164 679 371 206 allpass100ms 0;
#X obj 12 31 inlet~;
#X obj 12 92 +~;
#X obj 27 70 *~;
#X obj 232 53 inlet;
#X obj 232 75 * -1;
#X obj 187 109 *~;
#X obj 172 131 +~;
#X obj 172 153 outlet~;
#X text 12 173 0 - 100 mSec allpass;
#X text 232 33 gain;
#X text 102 11 time;
#X text 12 11 sound;
#X obj 248 118 inlet;
#X msg 248 139 clear;
#X obj 102 31 inlet;
#X obj 12 153 delwrite~ \$0-short-2 100;
#X obj 102 53 delread~ \$0-short-2;
#X connect 0 0 1 0;
#X connect 1 0 5 0;
#X connect 1 0 15 0;
#X connect 2 0 1 1;
#X connect 3 0 2 1;
#X connect 3 0 4 0;
#X connect 4 0 5 1;
#X connect 5 0 6 1;
#X connect 6 0 7 0;
#X connect 12 0 13 0;
#X connect 13 0 15 0;
#X connect 14 0 16 0;
#X connect 16 0 2 0;
#X connect 16 0 6 0;
#X restore 371 518 pd allpass100ms;
#X obj 400 432 loadbang;
#X msg 400 475 1000 \$1;
#X obj 400 496 /;
#X msg 386 134 1000 1142;
#X obj 12 144 vline~;
#X obj 12 206 *~;
#X msg 400 346 647;
#X obj 371 283 +~;
#X msg 400 453 806;
#X obj 457 94 t b f;
#X obj 484 115 s \$0-hht-vel;
#X obj 300 108 r \$0-hht-vel;
#X obj 12 269 *~;
#X obj 300 129 - 1;
#X obj 300 150 / 126;
#X msg 300 171 1 \$1;
#X obj 300 192 -;
#X obj 300 234 + 100;
#X obj 300 255 dbtorms;
#X obj 567 94 t b f;
#X obj 594 115 s \$0-hht-vel;
#X obj 567 136 s \$0-ohh-trg;
#X obj 386 197 *~ 0.5;
#X obj 498 162 r \$0-ohh-trg;
#X obj 12 80 r \$0-ohh-trg;
#X msg 429 453 -0.5;
#X msg 429 346 0.55;
#X msg 498 183 0.9;
#X msg 578 183 0.7;
#X msg 12 101 1 10 \, 0 2500 10;
#X obj 557 503 env~;
#X obj 557 524 change;
#X obj 557 545 sel 0;
#X msg 557 566 0;
#X msg 491 568 1;
#X obj 557 587 switch~ 1 1 1;
#X obj 578 162 r \$0-hht-trg;
#X obj 458 263 r \$0-ohh-trg;
#X obj 471 503 r \$0-ohh-trg;
#X msg 128 101 0.95 4 \, 0 50 4;
#X obj 386 176 delread~ \$0-hih-1;
#X obj 471 615 delwrite~ \$0-hih-1;
#X obj 128 185 pow~ 6;
#X msg 400 239 1531;
#X msg 71 159 clear;
#X msg 12 123 1 10 \, 0 150 10;
#X msg 224 72 2 \$1;
#X obj 224 93 pow;
#X msg 128 143 1 1 \, 0 \$2 1;
#X obj 128 80 pack f f;
#X obj 224 51 * 2;
#X obj 224 114 * 20;
#X msg 429 239 0.5;
#X obj 12 227 hip~ 11025;
#X obj 128 227 hip~ 8820;
#X obj 72 192 pow~ 60;
#X obj 13 248 hip~ 4410;
#X obj 371 559 lop~ 6500;
#X obj 371 580 hip~ 200;
#X obj 371 601 hip~ 100;
#X obj 300 213 * -18;
#X obj 430 52 clip 0 127;
#X obj 430 73 sel 0;
#X obj 540 31 inlet;
#X obj 540 52 clip 0 127;
#X obj 540 73 sel 0;
#X text 430 11 Closed Hihat;
#X text 540 11 Open Hihat;
#X obj 12 186 lop~ 10;
#X obj 12 165 pow~ 4;
#X connect 0 0 84 0;
#X connect 2 0 26 0;
#X connect 3 0 63 0;
#X connect 4 0 18 0;
#X connect 5 0 65 0;
#X connect 7 0 68 0;
#X connect 7 0 67 0;
#X connect 7 0 72 0;
#X connect 8 0 9 0;
#X connect 9 0 10 0;
#X connect 10 0 11 1;
#X connect 10 0 78 0;
#X connect 11 0 77 0;
#X connect 12 0 4 3;
#X connect 12 0 18 3;
#X connect 12 0 22 3;
#X connect 13 0 57 0;
#X connect 13 0 64 0;
#X connect 13 0 80 0;
#X connect 13 0 81 0;
#X connect 13 0 82 0;
#X connect 14 0 66 0;
#X connect 14 0 75 0;
#X connect 15 0 16 0;
#X connect 16 0 4 1;
#X connect 17 0 13 0;
#X connect 18 0 22 0;
#X connect 19 0 29 0;
#X connect 19 0 49 0;
#X connect 20 0 21 0;
#X connect 21 0 18 1;
#X connect 22 0 80 0;
#X connect 23 0 31 0;
#X connect 23 0 48 0;
#X connect 24 0 25 0;
#X connect 25 0 22 1;
#X connect 26 0 3 0;
#X connect 27 0 92 0;
#X connect 28 0 76 0;
#X connect 29 0 20 0;
#X connect 30 0 4 0;
#X connect 31 0 24 0;
#X connect 32 0 6 0;
#X connect 32 1 33 0;
#X connect 34 0 36 0;
#X connect 35 0 30 0;
#X connect 36 0 37 0;
#X connect 37 0 38 0;
#X connect 37 0 73 0;
#X connect 38 0 39 0;
#X connect 39 0 83 0;
#X connect 40 0 41 0;
#X connect 41 0 35 1;
#X connect 42 0 44 0;
#X connect 42 1 43 0;
#X connect 45 0 30 1;
#X connect 46 0 50 0;
#X connect 47 0 52 0;
#X connect 47 0 62 0;
#X connect 47 0 67 0;
#X connect 48 0 22 2;
#X connect 49 0 18 2;
#X connect 50 0 45 1;
#X connect 51 0 45 1;
#X connect 52 0 27 0;
#X connect 53 0 54 0;
#X connect 54 0 55 0;
#X connect 55 0 56 0;
#X connect 56 0 58 0;
#X connect 57 0 58 0;
#X connect 59 0 51 0;
#X connect 60 0 4 3;
#X connect 60 0 22 3;
#X connect 60 0 18 3;
#X connect 61 0 13 0;
#X connect 62 0 5 0;
#X connect 63 0 45 0;
#X connect 65 0 11 0;
#X connect 66 0 15 0;
#X connect 67 0 91 0;
#X connect 68 0 27 0;
#X connect 69 0 70 0;
#X connect 70 0 74 0;
#X connect 71 0 5 0;
#X connect 72 0 71 0;
#X connect 73 0 69 0;
#X connect 74 0 72 1;
#X connect 75 0 4 2;
#X connect 76 0 79 0;
#X connect 77 0 79 0;
#X connect 78 0 28 1;
#X connect 79 0 35 0;
#X connect 80 0 81 0;
#X connect 81 0 82 0;
#X connect 82 0 53 0;
#X connect 82 0 64 0;
#X connect 82 0 1 0;
#X connect 83 0 40 0;
#X connect 84 0 85 0;
#X connect 85 1 32 0;
#X connect 86 0 87 0;
#X connect 87 0 88 0;
#X connect 88 1 42 0;
#X connect 91 0 28 0;
#X connect 92 0 91 0;
#X restore 940 754 pd hihat;
#X obj 940 801 clip~ -1 1;
#X obj 940 822 hip~ 3;
#X obj 940 843 *~ 0.7;
#X obj 940 780 *~ 0.7;
#X obj 940 707 bng 16 250 50 0 empty empty CLOSED 0 -9 0 10 #f8fc00
#000000 #000000;
#X obj 985 707 bng 16 250 50 0 empty empty OPEN 0 -9 0 10 #fcc008 #000000
#000000;
#X obj 940 728 i;
#X obj 985 728 i;
#X obj 1023 579 vsl 16 127 1 127 0 1 empty empty CLOSED 0 -9 0 10 #f8fc00
#000000 #000000 3376 1;
#X obj 1023 714 nbx 3 16 1 127 0 1 empty empty empty 0 -8 0 10 #f8fc00
#000000 #000000 34.7607 256;
#X obj 1073 579 vsl 16 127 1 127 0 1 empty empty OPEN 0 -9 0 10 #fcc008
#000000 #000000 2557 1;
#X obj 1073 714 nbx 3 16 1 127 0 1 empty empty empty 0 -8 0 10 #fcc008
#000000 #000000 26.5729 256;
#X text 1029 786 Email: mianmogra94@gmail.com;
#X text 1029 801 GitHub: github.com/MikeMorenoAudio;
#X text 1029 826 Facebook: fb.com/MikeMorenoAudio;
#X text 1029 856 WordPress: mikemorenoaudio.wordpress.com;
#X text 1029 871 PatchStorage: patchstorage.com/author/mianmogra;
#X text 1029 771 Miguel Moreno 2019;
#X text 1029 751 [hihat~] version 1;
#X text 1029 841 Youtube: youtube.com/c/mikemorenoaudio;
#X floatatom 971 529 5 0 0 0 - - - 0;
#X floatatom 1054 526 5 0 0 0 - - - 0;
#X obj 987 499 route 42;
#X obj 1070 496 route 46;
#X obj -518 607 hsl 128 15 70 500 1 1 empty empty FREQUENCY -2 -8 0
10 #fcfcfc #000000 #000000 3200 1;
#X obj -500 677 hsl 128 15 0 1 0 1 empty empty DAMPING -2 -8 0 10 #fcfcfc
#000000 #000000 6200 1;
#X obj -491 712 hsl 128 15 -1 1 0 1 empty empty APF-GAIN -2 -8 0 10
#fcfcfc #000000 #000000 12700 1;
#X obj -482 747 hsl 128 15 70 500 1 1 empty empty APF-FREQUENCY -2
-8 0 10 #fcfcfc #000000 #000000 12700 1;
#X obj -509 642 hsl 128 15 0.5 1 1 1 empty empty FEEDBACK -2 -8 0 10
#fcfcfc #000000 #000000 6300 1;
#X obj -467 807 tgl 15 1 empty empty RESET 17 7 0 10 #fcfcfc #000000
#000000 1 1;
#X obj -473 782 hsl 128 15 0.001 1 1 1 empty empty NOISE-LEVEL -2 -8
0 10 #fcfcfc #000000 #000000 2200 1;
#N canvas 4 25 162 227 hv.tanh 0;
#X obj 12 12 inlet~;
#X obj 12 38 clip~ -3 3;
#X obj 27 64 *~;
#X obj 12 192 outlet~;
#X obj 27 140 /~;
#X obj 12 166 *~;
#X obj 67 90 *~ 9;
#X obj 27 90 +~ 27;
#X obj 67 116 +~ 27;
#X connect 0 0 1 0;
#X connect 1 0 2 0;
#X connect 1 0 2 1;
#X connect 1 0 5 0;
#X connect 2 0 7 0;
#X connect 2 0 6 0;
#X connect 4 0 5 1;
#X connect 5 0 3 0;
#X connect 6 0 8 0;
#X connect 7 0 4 0;
#X connect 8 0 4 1;
#X restore -530 941 pd hv.tanh;
#X floatatom -388 607 5 0 0 1 Hz - - 0;
#X floatatom -370 677 5 0 0 0 - - - 0;
#X floatatom -352 747 5 0 0 1 Hz - - 0;
#X floatatom -379 642 5 0 0 1 - - - 0;
#X floatatom -361 712 5 0 0 0 - - - 0;
#X floatatom -343 782 5 0 0 0 - - - 0;
#X obj -530 828 mymembrane~;
#X obj -530 551 bng 15 250 50 0 empty empty empty 17 7 0 10 #fcfcfc
#000000 #000000;
#X obj -485 422 vsl 15 127 1 127 0 1 empty empty VELOCITY 0 -9 0 10
#fcfcfc #000000 #000000 8436 1;
#X obj -530 571 i;
#X floatatom -485 558 5 0 0 0 - - - 0;
#X obj -530 406 t b f;
#X obj -530 380 sel 0;
#X obj -530 359 route 36;
#N canvas 0 22 450 278 (subpatch) 0;
#X array \$0-mem1 1764 float 0;
#X coords 0 0.7 1763 -0.7 101 101 1 0 0;
#X restore -427 435 graph;
#X obj -530 849 throw~ \$0-M;
#X obj -530 900 catch~ \$0-M;
#X obj -218 607 hsl 128 15 70 500 1 1 empty empty FREQUENCY -2 -8 0
10 #fcfcfc #000000 #000000 6200 1;
#X obj -200 677 hsl 128 15 0 1 0 1 empty empty DAMPING -2 -8 0 10 #fcfcfc
#000000 #000000 7700 1;
#X obj -191 712 hsl 128 15 -1 1 0 1 empty empty APF-GAIN -2 -8 0 10
#fcfcfc #000000 #000000 10000 1;
#X obj -182 747 hsl 128 15 70 500 1 1 empty empty APF-FREQUENCY -2
-8 0 10 #fcfcfc #000000 #000000 5900 1;
#X obj -209 642 hsl 128 15 0.5 1 1 1 empty empty FEEDBACK -2 -8 0 10
#fcfcfc #000000 #000000 4600 1;
#X obj -167 807 tgl 15 1 empty empty RESET 17 7 0 10 #fcfcfc #000000
#000000 1 1;
#X obj -173 782 hsl 128 15 0.001 1 1 1 empty empty NOISE-LEVEL -2 -8
0 10 #fcfcfc #000000 #000000 8000 1;
#X floatatom -88 607 5 0 0 1 Hz - - 0;
#X floatatom -70 677 5 0 0 0 - - - 0;
#X floatatom -52 747 5 0 0 1 Hz - - 0;
#X floatatom -79 642 5 0 0 1 - - - 0;
#X floatatom -61 712 5 0 0 0 - - - 0;
#X floatatom -43 782 5 0 0 0 - - - 0;
#X obj -230 828 mymembrane~;
#X obj -230 551 bng 15 250 50 0 empty empty empty 17 7 0 10 #fcfcfc
#000000 #000000;
#X obj -185 422 vsl 15 127 1 127 0 1 empty empty VELOCITY 0 -9 0 10
#fcfcfc #000000 #000000 12528 1;
#X obj -230 571 i;
#X floatatom -185 558 5 0 0 0 - - - 0;
#X obj -230 406 t b f;
#X obj -230 380 sel 0;
#N canvas 0 22 450 278 (subpatch) 0;
#X array \$0-mem2 1764 float 0;
#X coords 0 0.7 1763 -0.7 101 101 1 0 0;
#X restore -127 435 graph;
#X obj -230 849 throw~ \$0-M;
#X obj 82 607 hsl 128 15 70 500 1 1 empty empty FREQUENCY -2 -8 0 10
#fcfcfc #000000 #000000 7700 1;
#X obj 100 677 hsl 128 15 0 1 0 1 empty empty DAMPING -2 -8 0 10 #fcfcfc
#000000 #000000 3000 1;
#X obj 109 712 hsl 128 15 -1 1 0 1 empty empty APF-GAIN -2 -8 0 10
#fcfcfc #000000 #000000 2800 1;
#X obj 118 747 hsl 128 15 70 500 1 1 empty empty APF-FREQUENCY -2 -8
0 10 #fcfcfc #000000 #000000 8400 1;
#X obj 91 642 hsl 128 15 0.5 1 1 1 empty empty FEEDBACK -2 -8 0 10
#fcfcfc #000000 #000000 11200 1;
#X obj 133 807 tgl 15 1 empty empty RESET 17 7 0 10 #fcfcfc #000000
#000000 1 1;
#X obj 127 782 hsl 128 15 0.001 1 1 1 empty empty NOISE-LEVEL -2 -8
0 10 #fcfcfc #000000 #000000 4500 1;
#X floatatom 212 607 5 0 0 1 Hz - - 0;
#X floatatom 230 677 5 0 0 0 - - - 0;
#X floatatom 248 747 5 0 0 1 Hz - - 0;
#X floatatom 221 642 5 0 0 1 - - - 0;
#X floatatom 239 712 5 0 0 0 - - - 0;
#X floatatom 257 782 5 0 0 0 - - - 0;
#X obj 70 828 mymembrane~;
#X obj 70 551 bng 15 250 50 0 empty empty empty 17 7 0 10 #fcfcfc #000000
#000000;
#X obj 115 422 vsl 15 127 1 127 0 1 empty empty VELOCITY 0 -9 0 10
#fcfcfc #000000 #000000 5055 1;
#X obj 70 571 i;
#X floatatom 115 558 5 0 0 0 - - - 0;
#X obj 70 406 t b f;
#X obj 70 380 sel 0;
#N canvas 0 22 450 278 (subpatch) 0;
#X array \$0-mem3 1764 float 0;
#X coords 0 0.7 1763 -0.7 101 101 1 0 0;
#X restore 173 435 graph;
#X obj 70 849 throw~ \$0-M;
#X obj 382 607 hsl 128 15 70 500 1 1 empty empty FREQUENCY -2 -8 0
10 #fcfcfc #000000 #000000 4400 1;
#X obj 400 677 hsl 128 15 0 1 0 1 empty empty DAMPING -2 -8 0 10 #fcfcfc
#000000 #000000 9500 1;
#X obj 409 712 hsl 128 15 -1 1 0 1 empty empty APF-GAIN -2 -8 0 10
#fcfcfc #000000 #000000 8700 1;
#X obj 418 747 hsl 128 15 70 500 1 1 empty empty APF-FREQUENCY -2 -8
0 10 #fcfcfc #000000 #000000 9600 1;
#X obj 391 642 hsl 128 15 0.5 1 1 1 empty empty FEEDBACK -2 -8 0 10
#fcfcfc #000000 #000000 12400 1;
#X obj 433 807 tgl 15 1 empty empty RESET 17 7 0 10 #fcfcfc #000000
#000000 1 1;
#X obj 427 782 hsl 128 15 0.001 1 1 1 empty empty NOISE-LEVEL -2 -8
0 10 #fcfcfc #000000 #000000 0 1;
#X floatatom 512 607 5 0 0 1 Hz - - 0;
#X floatatom 530 677 5 0 0 0 - - - 0;
#X floatatom 548 747 5 0 0 1 Hz - - 0;
#X floatatom 521 642 5 0 0 1 - - - 0;
#X floatatom 539 712 5 0 0 0 - - - 0;
#X floatatom 557 782 5 0 0 0 - - - 0;
#X obj 370 828 mymembrane~;
#X obj 370 551 bng 15 250 50 0 empty empty empty 17 7 0 10 #fcfcfc
#000000 #000000;
#X obj 415 422 vsl 15 127 1 127 0 1 empty empty VELOCITY 0 -9 0 10
#fcfcfc #000000 #000000 5163 1;
#X obj 370 571 i;
#X floatatom 415 558 5 0 0 0 - - - 0;
#X obj 370 406 t b f;
#X obj 370 380 sel 0;
#N canvas 0 22 450 278 (subpatch) 0;
#X array \$0-mem4 1764 float 0;
#X coords 0 0.7 1763 -0.7 101 101 1 0 0;
#X restore 473 435 graph;
#X obj 370 849 throw~ \$0-M;
#X text -121 257 ░░░░░░░░░░░░░┌┐░░░░░░░░░░░
\; ┌──┬┬┬──┬─┬──┤└┬┬┬─┐┌─┬┬─┐
\; │││││││││┴┤│││┼│┌┤┼└┤│││┴┤
\; └┴┴┼┐├┴┴┴─┴┴┴┴─┴┘└──┴┴─┴─┘
\; ░░░└─┘░░░░░░░░░░░░░░░░░░░░
\;;
#X obj -425 396 cnv 15 20 20 empty empty Kick 20 12 1 20 #fcc008 #000000
0;
#X obj -125 396 cnv 15 20 20 empty empty Snare 20 12 1 20 #fcc008 #000000
0;
#X obj -212 228 cnv 15 1 1 empty empty ACOUSTIC  DRUM  SYNTH 20
12 1 24 #fcc008 #4c3c04 0;
#X obj 175 396 cnv 15 20 20 empty empty Tom-1 20 12 1 20 #fcc008 #000000
0;
#X obj 475 396 cnv 15 20 20 empty empty Tom-2 20 12 1 20 #fcc008 #000000
0;
#X obj -530 920 *~ 2;
#X obj -230 359 route 38;
#X obj 626 626 hsl 128 15 70 500 1 1 empty empty FREQUENCY -2 -8 0
10 #fcfcfc #000000 #000000 2000 1;
#X obj 644 696 hsl 128 15 0 1 0 1 empty empty DAMPING -2 -8 0 10 #fcfcfc
#000000 #000000 9500 1;
#X obj 653 731 hsl 128 15 -1 1 0 1 empty empty APF-GAIN -2 -8 0 10
#fcfcfc #000000 #000000 8700 1;
#X obj 662 766 hsl 128 15 70 500 1 1 empty empty APF-FREQUENCY -2 -8
0 10 #fcfcfc #000000 #000000 9600 1;
#X obj 635 661 hsl 128 15 0.5 1 1 1 empty empty FEEDBACK -2 -8 0 10
#fcfcfc #000000 #000000 12400 1;
#X obj 677 826 tgl 15 1 empty empty RESET 17 7 0 10 #fcfcfc #000000
#000000 1 1;
#X obj 671 801 hsl 128 15 0.001 1 1 1 empty empty NOISE-LEVEL -2 -8
0 10 #fcfcfc #000000 #000000 0 1;
#X floatatom 756 626 5 0 0 1 Hz - - 0;
#X floatatom 774 696 5 0 0 0 - - - 0;
#X floatatom 792 766 5 0 0 1 Hz - - 0;
#X floatatom 765 661 5 0 0 1 - - - 0;
#X floatatom 783 731 5 0 0 0 - - - 0;
#X floatatom 801 801 5 0 0 0 - - - 0;
#X obj 614 847 mymembrane~;
#X obj 614 570 bng 15 250 50 0 empty empty empty 17 7 0 10 #fcfcfc
#000000 #000000;
#X obj 659 441 vsl 15 127 1 127 0 1 empty empty VELOCITY 0 -9 0 10
#fcfcfc #000000 #000000 8063 1;
#X obj 614 590 i;
#X floatatom 659 577 5 0 0 0 - - - 0;
#X obj 614 425 t b f;
#X obj 614 399 sel 0;
#X obj 614 868 throw~ \$0-M;
#X obj 719 415 cnv 15 20 20 empty empty Tom-LOW 20 12 1 20 #fcc008
#000000 0;
#X obj 614 378 route 43;
#X obj 370 359 route 47;
#X text 489 367 Mid Tom;
#X text 186 364 Hi Tom;
#X obj 70 359 route 48;
#X obj -530 967 outlet~;
#X obj 244 128 r drumNote;
#X obj 324 201 spigot;
#X obj 325 238 s drumNoteToSynthesize;
#X obj -530 338 r drumNoteToSynthesize;
#X obj -230 338 r drumNoteToSynthesize;
#X obj 70 338 r drumNoteToSynthesize;
#X obj 370 338 r drumNoteToSynthesize;
#X obj 614 357 r drumNoteToSynthesize;
#X obj 970 473 r drumNoteToSynthesize;
#X obj 1067 414 r drumNoteToSynthesize;
#X obj 940 864 throw~ \$0-M;
#X connect 0 0 3 0;
#X connect 3 0 2 0;
#X connect 3 0 157 1;
#X connect 4 0 8 0;
#X connect 5 0 6 0;
#X connect 6 0 7 0;
#X connect 7 0 166 0;
#X connect 8 0 5 0;
#X connect 9 0 11 0;
#X connect 10 0 12 0;
#X connect 11 0 4 0;
#X connect 12 0 4 1;
#X connect 13 0 14 0;
#X connect 14 0 11 1;
#X connect 15 0 16 0;
#X connect 16 0 12 1;
#X connect 25 0 13 0;
#X connect 25 0 9 0;
#X connect 26 0 15 0;
#X connect 26 0 10 0;
#X connect 27 0 25 0;
#X connect 28 0 26 0;
#X connect 29 0 37 0;
#X connect 29 0 43 1;
#X connect 30 0 38 0;
#X connect 30 0 43 3;
#X connect 31 0 41 0;
#X connect 31 0 43 4;
#X connect 32 0 39 0;
#X connect 32 0 43 5;
#X connect 33 0 40 0;
#X connect 33 0 43 2;
#X connect 34 0 43 7;
#X connect 35 0 42 0;
#X connect 35 0 43 6;
#X connect 36 0 155 0;
#X connect 43 0 52 0;
#X connect 44 0 46 0;
#X connect 45 0 47 0;
#X connect 46 0 43 0;
#X connect 47 0 46 1;
#X connect 48 0 44 0;
#X connect 48 1 45 0;
#X connect 49 1 48 0;
#X connect 50 0 49 0;
#X connect 53 0 126 0;
#X connect 54 0 61 0;
#X connect 54 0 67 1;
#X connect 55 0 62 0;
#X connect 55 0 67 3;
#X connect 56 0 65 0;
#X connect 56 0 67 4;
#X connect 57 0 63 0;
#X connect 57 0 67 5;
#X connect 58 0 64 0;
#X connect 58 0 67 2;
#X connect 59 0 67 7;
#X connect 60 0 66 0;
#X connect 60 0 67 6;
#X connect 67 0 75 0;
#X connect 68 0 70 0;
#X connect 69 0 71 0;
#X connect 70 0 67 0;
#X connect 71 0 70 1;
#X connect 72 0 68 0;
#X connect 72 1 69 0;
#X connect 73 1 72 0;
#X connect 76 0 83 0;
#X connect 76 0 89 1;
#X connect 77 0 84 0;
#X connect 77 0 89 3;
#X connect 78 0 87 0;
#X connect 78 0 89 4;
#X connect 79 0 85 0;
#X connect 79 0 89 5;
#X connect 80 0 86 0;
#X connect 80 0 89 2;
#X connect 81 0 89 7;
#X connect 82 0 88 0;
#X connect 82 0 89 6;
#X connect 89 0 97 0;
#X connect 90 0 92 0;
#X connect 91 0 93 0;
#X connect 92 0 89 0;
#X connect 93 0 92 1;
#X connect 94 0 90 0;
#X connect 94 1 91 0;
#X connect 95 1 94 0;
#X connect 98 0 105 0;
#X connect 98 0 111 1;
#X connect 99 0 106 0;
#X connect 99 0 111 3;
#X connect 100 0 109 0;
#X connect 100 0 111 4;
#X connect 101 0 107 0;
#X connect 101 0 111 5;
#X connect 102 0 108 0;
#X connect 102 0 111 2;
#X connect 103 0 111 7;
#X connect 104 0 110 0;
#X connect 104 0 111 6;
#X connect 111 0 119 0;
#X connect 112 0 114 0;
#X connect 113 0 115 0;
#X connect 114 0 111 0;
#X connect 115 0 114 1;
#X connect 116 0 112 0;
#X connect 116 1 113 0;
#X connect 117 1 116 0;
#X connect 126 0 36 0;
#X connect 127 0 73 0;
#X connect 128 0 135 0;
#X connect 128 0 141 1;
#X connect 129 0 136 0;
#X connect 129 0 141 3;
#X connect 130 0 139 0;
#X connect 130 0 141 4;
#X connect 131 0 137 0;
#X connect 131 0 141 5;
#X connect 132 0 138 0;
#X connect 132 0 141 2;
#X connect 133 0 141 7;
#X connect 134 0 140 0;
#X connect 134 0 141 6;
#X connect 141 0 148 0;
#X connect 142 0 144 0;
#X connect 143 0 145 0;
#X connect 144 0 141 0;
#X connect 145 0 144 1;
#X connect 146 0 142 0;
#X connect 146 1 143 0;
#X connect 147 1 146 0;
#X connect 150 0 147 0;
#X connect 151 0 117 0;
#X connect 154 0 95 0;
#X connect 156 0 157 0;
#X connect 157 0 158 0;
#X connect 159 0 50 0;
#X connect 160 0 127 0;
#X connect 161 0 154 0;
#X connect 162 0 151 0;
#X connect 163 0 150 0;
#X connect 164 0 27 0;
#X connect 165 0 28 0;
