#N canvas 44 62 1396 768 12;
#X obj 88 189 vsl 15 128 0 127 0 0 empty vel_init_val empty 0 -9 0
10 -262144 -1 -1 4900 1;
#X text 15 245 velocity;
#X text 19 318 uTiming;
#N canvas 0 22 450 278 (subpatch) 0;
#X array groove 192 float 1;
#A 0 49 0 0 0 0 0 0 0 0 0 0 0 0 0 0 0 0 0 0 0 0 0 0 0 0 0 0 0 0 0 0
0 0 0 0 0 0 0 0 0 0 0 0 0 0 0 0 0 0 0 0 0 0 0 0 0 19 0 0 0 0 0 0 0
0 0 0 0 0 0 0 0 0 0 0 0 0 0 0 0 0 0 0 0 0 0 0 0 0 0 0 0 0 0 0 0 45
0 0 0 0 0 0 0 0 0 0 0 0 0 0 0 0 0 0 0 0 0 0 0 0 0 0 0 0 0 0 0 0 0 0
0 0 0 0 0 0 0 0 0 0 0 0 0 0 0 0 0 9.07143 0 0 0 0 0 -10.8856 -9.07134
0 0 0 0 0 17 0 0 0 0 0 0 0 0 0 0 0 0 0 0 0 0 0 0 0 0 0 0 0 0 0 0 0
0 0 0;
#X coords 0 127 192 0 317 140 1 0 0;
#X restore 75 371 graph;
#X obj 80 321 hsl 32 15 0 23 0 0 empty utiming_init_val empty -2 -8
0 4 -262144 -1 -1 0 1;
#X obj 126 189 vsl 15 128 0 127 0 0 empty vel_init_val empty 0 -9 0
10 -262144 -1 -1 0 1;
#X obj 118 321 hsl 32 15 0 23 0 0 empty utiming_init_val empty -2 -8
0 4 -262144 -1 -1 0 1;
#N canvas 669 246 450 300 s2 0;
#X obj 56 32 inlet;
#X msg 278 67 bang;
#X obj 278 125 until;
#X text 323 66 start;
#X obj 278 153 f;
#X obj 316 153 + 1;
#X obj 361 152 sel 0;
#X obj 316 179 mod 24;
#X obj 240 276 tabwrite groove;
#X obj 254 223 t b f;
#X text 270 44 reset table first;
#X obj 42 231 tabwrite groove;
#X obj 149 32 inlet;
#X obj 148 101 t b f b;
#X obj 47 171 f;
#X obj 54 130 t b f b;
#X obj 232 249 i 0;
#X obj 278 191 + 24;
#X obj 130 190 + 0;
#X msg 239 10 24;
#X obj 238 -15 r initialize_bang;
#X connect 0 0 15 0;
#X connect 1 0 2 0;
#X connect 2 0 4 0;
#X connect 4 0 5 0;
#X connect 4 0 17 0;
#X connect 5 0 7 0;
#X connect 6 0 2 1;
#X connect 7 0 4 1;
#X connect 7 0 6 0;
#X connect 9 0 16 0;
#X connect 9 1 8 1;
#X connect 12 0 13 0;
#X connect 13 0 14 0;
#X connect 13 1 18 0;
#X connect 13 2 1 0;
#X connect 14 0 11 0;
#X connect 15 0 14 0;
#X connect 15 1 14 1;
#X connect 15 2 1 0;
#X connect 16 0 8 0;
#X connect 17 0 9 0;
#X connect 18 0 11 1;
#X connect 19 0 17 1;
#X connect 19 0 18 1;
#X connect 20 0 19 0;
#X restore 114 337 pd s2;
#N canvas 669 246 450 300 s1 0;
#X obj 68 30 inlet;
#X msg 278 67 bang;
#X obj 278 125 until;
#X text 323 66 start;
#X obj 278 153 f;
#X obj 316 153 + 1;
#X obj 361 152 sel 0;
#X obj 278 191 + 0;
#X obj 316 179 mod 24;
#X obj 240 276 tabwrite groove;
#X obj 254 223 t b f;
#X text 270 29 reset table first;
#X obj 49 167 tabwrite groove;
#X obj 153 7 inlet;
#X obj 155 37 t b f b;
#X obj 54 107 f;
#X obj 61 66 t b f b;
#X obj 232 249 i 0;
#X connect 0 0 16 0;
#X connect 1 0 2 0;
#X connect 2 0 4 0;
#X connect 4 0 5 0;
#X connect 4 0 7 0;
#X connect 5 0 8 0;
#X connect 6 0 2 1;
#X connect 7 0 10 0;
#X connect 8 0 4 1;
#X connect 8 0 6 0;
#X connect 10 0 17 0;
#X connect 10 1 9 1;
#X connect 13 0 14 0;
#X connect 14 0 15 0;
#X connect 14 1 12 1;
#X connect 14 2 1 0;
#X connect 15 0 12 0;
#X connect 16 0 15 0;
#X connect 16 1 15 1;
#X connect 16 2 1 0;
#X connect 17 0 9 0;
#X restore 75 337 pd s1;
#X obj 166 189 vsl 15 128 0 127 0 0 empty vel_init_val empty 0 -9 0
10 -262144 -1 -1 1900 1;
#X obj 158 321 hsl 32 15 0 23 0 0 empty utiming_init_val empty -2 -8
0 4 -262144 -1 -1 1100 1;
#X obj 206 189 vsl 15 128 0 127 0 0 empty vel_init_val empty 0 -9 0
10 -262144 -1 -1 0 1;
#X obj 198 321 hsl 32 15 0 23 0 0 empty utiming_init_val empty -2 -8
0 4 -262144 -1 -1 0 1;
#X obj 246 189 vsl 15 128 0 127 0 0 empty vel_init_val empty 0 -9 0
10 -262144 -1 -1 4500 1;
#X obj 238 321 hsl 32 15 0 23 0 0 empty utiming_init_val empty -2 -8
0 4 -262144 -1 -1 0 1;
#X obj 286 189 vsl 15 128 0 127 0 0 empty vel_init_val empty 0 -9 0
10 -262144 -1 -1 0 1;
#X obj 278 321 hsl 32 15 0 23 0 0 empty utiming_init_val empty -2 -8
0 4 -262144 -1 -1 0 1;
#X obj 326 189 vsl 15 128 0 127 0 0 empty vel_init_val empty 0 -9 0
10 -262144 -1 -1 1700 1;
#X obj 318 321 hsl 32 15 0 23 0 0 empty utiming_init_val empty -2 -8
0 4 -262144 -1 -1 2300 1;
#N canvas 669 246 450 300 s3 0;
#X obj 56 32 inlet;
#X msg 278 67 bang;
#X obj 278 125 until;
#X text 323 66 start;
#X obj 278 153 f;
#X obj 316 153 + 1;
#X obj 361 152 sel 0;
#X obj 316 179 mod 24;
#X obj 240 276 tabwrite groove;
#X obj 254 223 t b f;
#X text 270 44 reset table first;
#X obj 42 231 tabwrite groove;
#X obj 149 32 inlet;
#X obj 148 101 t b f b;
#X obj 47 171 f;
#X obj 54 130 t b f b;
#X obj 232 249 i 0;
#X obj 278 191 + 24;
#X obj 130 190 + 0;
#X msg 239 10 48;
#X obj 238 -15 r initialize_bang;
#X connect 0 0 15 0;
#X connect 1 0 2 0;
#X connect 2 0 4 0;
#X connect 4 0 5 0;
#X connect 4 0 17 0;
#X connect 5 0 7 0;
#X connect 6 0 2 1;
#X connect 7 0 4 1;
#X connect 7 0 6 0;
#X connect 9 0 16 0;
#X connect 9 1 8 1;
#X connect 12 0 13 0;
#X connect 13 0 14 0;
#X connect 13 1 18 0;
#X connect 13 2 1 0;
#X connect 14 0 11 0;
#X connect 15 0 14 0;
#X connect 15 1 14 1;
#X connect 15 2 1 0;
#X connect 16 0 8 0;
#X connect 17 0 9 0;
#X connect 18 0 11 1;
#X connect 19 0 17 1;
#X connect 19 0 18 1;
#X connect 20 0 19 0;
#X restore 154 337 pd s3;
#N canvas 669 246 450 300 s4 0;
#X obj 56 32 inlet;
#X msg 278 67 bang;
#X obj 278 125 until;
#X text 323 66 start;
#X obj 278 153 f;
#X obj 316 153 + 1;
#X obj 361 152 sel 0;
#X obj 316 179 mod 24;
#X obj 240 276 tabwrite groove;
#X obj 254 223 t b f;
#X text 270 44 reset table first;
#X obj 42 231 tabwrite groove;
#X obj 149 32 inlet;
#X obj 148 101 t b f b;
#X obj 47 171 f;
#X obj 54 130 t b f b;
#X obj 232 249 i 0;
#X obj 278 191 + 24;
#X obj 130 190 + 0;
#X msg 239 10 72;
#X obj 238 -15 r initialize_bang;
#X connect 0 0 15 0;
#X connect 1 0 2 0;
#X connect 2 0 4 0;
#X connect 4 0 5 0;
#X connect 4 0 17 0;
#X connect 5 0 7 0;
#X connect 6 0 2 1;
#X connect 7 0 4 1;
#X connect 7 0 6 0;
#X connect 9 0 16 0;
#X connect 9 1 8 1;
#X connect 12 0 13 0;
#X connect 13 0 14 0;
#X connect 13 1 18 0;
#X connect 13 2 1 0;
#X connect 14 0 11 0;
#X connect 15 0 14 0;
#X connect 15 1 14 1;
#X connect 15 2 1 0;
#X connect 16 0 8 0;
#X connect 17 0 9 0;
#X connect 18 0 11 1;
#X connect 19 0 17 1;
#X connect 19 0 18 1;
#X connect 20 0 19 0;
#X restore 194 337 pd s4;
#N canvas 669 246 450 300 s5 0;
#X obj 56 32 inlet;
#X msg 278 67 bang;
#X obj 278 125 until;
#X text 323 66 start;
#X obj 278 153 f;
#X obj 316 153 + 1;
#X obj 361 152 sel 0;
#X obj 316 179 mod 24;
#X obj 240 276 tabwrite groove;
#X obj 254 223 t b f;
#X text 270 44 reset table first;
#X obj 42 231 tabwrite groove;
#X obj 149 32 inlet;
#X obj 148 101 t b f b;
#X obj 47 171 f;
#X obj 54 130 t b f b;
#X obj 232 249 i 0;
#X obj 278 191 + 24;
#X obj 130 190 + 0;
#X msg 239 10 96;
#X obj 238 -15 r initialize_bang;
#X connect 0 0 15 0;
#X connect 1 0 2 0;
#X connect 2 0 4 0;
#X connect 4 0 5 0;
#X connect 4 0 17 0;
#X connect 5 0 7 0;
#X connect 6 0 2 1;
#X connect 7 0 4 1;
#X connect 7 0 6 0;
#X connect 9 0 16 0;
#X connect 9 1 8 1;
#X connect 12 0 13 0;
#X connect 13 0 14 0;
#X connect 13 1 18 0;
#X connect 13 2 1 0;
#X connect 14 0 11 0;
#X connect 15 0 14 0;
#X connect 15 1 14 1;
#X connect 15 2 1 0;
#X connect 16 0 8 0;
#X connect 17 0 9 0;
#X connect 18 0 11 1;
#X connect 19 0 17 1;
#X connect 19 0 18 1;
#X connect 20 0 19 0;
#X restore 234 337 pd s5;
#N canvas 669 246 450 300 s6 0;
#X obj 56 32 inlet;
#X msg 278 67 bang;
#X obj 278 125 until;
#X text 323 66 start;
#X obj 278 153 f;
#X obj 316 153 + 1;
#X obj 361 152 sel 0;
#X obj 316 179 mod 24;
#X obj 240 276 tabwrite groove;
#X obj 254 223 t b f;
#X text 270 44 reset table first;
#X obj 42 231 tabwrite groove;
#X obj 149 32 inlet;
#X obj 148 101 t b f b;
#X obj 47 171 f;
#X obj 54 130 t b f b;
#X obj 232 249 i 0;
#X obj 278 191 + 24;
#X obj 130 190 + 0;
#X msg 239 10 120;
#X obj 238 -15 r initialize_bang;
#X connect 0 0 15 0;
#X connect 1 0 2 0;
#X connect 2 0 4 0;
#X connect 4 0 5 0;
#X connect 4 0 17 0;
#X connect 5 0 7 0;
#X connect 6 0 2 1;
#X connect 7 0 4 1;
#X connect 7 0 6 0;
#X connect 9 0 16 0;
#X connect 9 1 8 1;
#X connect 12 0 13 0;
#X connect 13 0 14 0;
#X connect 13 1 18 0;
#X connect 13 2 1 0;
#X connect 14 0 11 0;
#X connect 15 0 14 0;
#X connect 15 1 14 1;
#X connect 15 2 1 0;
#X connect 16 0 8 0;
#X connect 17 0 9 0;
#X connect 18 0 11 1;
#X connect 19 0 17 1;
#X connect 19 0 18 1;
#X connect 20 0 19 0;
#X restore 274 337 pd s6;
#N canvas 669 246 450 300 s7 0;
#X obj 56 32 inlet;
#X msg 278 67 bang;
#X obj 278 125 until;
#X text 323 66 start;
#X obj 278 153 f;
#X obj 316 153 + 1;
#X obj 361 152 sel 0;
#X obj 316 179 mod 24;
#X obj 240 276 tabwrite groove;
#X obj 254 223 t b f;
#X text 270 44 reset table first;
#X obj 42 231 tabwrite groove;
#X obj 149 32 inlet;
#X obj 148 101 t b f b;
#X obj 47 171 f;
#X obj 54 130 t b f b;
#X obj 232 249 i 0;
#X obj 278 191 + 24;
#X obj 130 190 + 0;
#X msg 239 10 144;
#X obj 238 -15 r initialize_bang;
#X connect 0 0 15 0;
#X connect 1 0 2 0;
#X connect 2 0 4 0;
#X connect 4 0 5 0;
#X connect 4 0 17 0;
#X connect 5 0 7 0;
#X connect 6 0 2 1;
#X connect 7 0 4 1;
#X connect 7 0 6 0;
#X connect 9 0 16 0;
#X connect 9 1 8 1;
#X connect 12 0 13 0;
#X connect 13 0 14 0;
#X connect 13 1 18 0;
#X connect 13 2 1 0;
#X connect 14 0 11 0;
#X connect 15 0 14 0;
#X connect 15 1 14 1;
#X connect 15 2 1 0;
#X connect 16 0 8 0;
#X connect 17 0 9 0;
#X connect 18 0 11 1;
#X connect 19 0 17 1;
#X connect 19 0 18 1;
#X connect 20 0 19 0;
#X restore 314 337 pd s7;
#X obj 365 189 vsl 15 128 0 127 0 0 empty vel_init_val empty 0 -9 0
10 -262144 -1 -1 0 1;
#X obj 357 321 hsl 32 15 0 23 0 0 empty utiming_init_val empty -2 -8
0 4 -262144 -1 -1 0 1;
#N canvas 669 246 450 300 s8 0;
#X obj 56 32 inlet;
#X msg 278 67 bang;
#X obj 278 125 until;
#X text 323 66 start;
#X obj 278 153 f;
#X obj 316 153 + 1;
#X obj 361 152 sel 0;
#X obj 316 179 mod 24;
#X obj 240 276 tabwrite groove;
#X obj 254 223 t b f;
#X text 270 44 reset table first;
#X obj 42 231 tabwrite groove;
#X obj 149 32 inlet;
#X obj 148 101 t b f b;
#X obj 47 171 f;
#X obj 54 130 t b f b;
#X obj 232 249 i 0;
#X obj 278 191 + 24;
#X obj 130 190 + 0;
#X msg 239 10 168;
#X obj 238 -15 r initialize_bang;
#X connect 0 0 15 0;
#X connect 1 0 2 0;
#X connect 2 0 4 0;
#X connect 4 0 5 0;
#X connect 4 0 17 0;
#X connect 5 0 7 0;
#X connect 6 0 2 1;
#X connect 7 0 4 1;
#X connect 7 0 6 0;
#X connect 9 0 16 0;
#X connect 9 1 8 1;
#X connect 12 0 13 0;
#X connect 13 0 14 0;
#X connect 13 1 18 0;
#X connect 13 2 1 0;
#X connect 14 0 11 0;
#X connect 15 0 14 0;
#X connect 15 1 14 1;
#X connect 15 2 1 0;
#X connect 16 0 8 0;
#X connect 17 0 9 0;
#X connect 18 0 11 1;
#X connect 19 0 17 1;
#X connect 19 0 18 1;
#X connect 20 0 19 0;
#X restore 353 337 pd s8;
#X obj 77 534 hsl 314 15 0 192 0 0 empty playback_pos empty -2 -8 0
10 -228856 -1 -1 15650 1;
#X obj 74 549 tabread groove;
#X floatatom 74 586 5 0 0 0 - - -;
#X obj 74 567 moses 1;
#X obj 75 605 cnv 15 314 160 empty empty Send_to_Python_Via_OSC 120
12 0 14 -261682 -4160 0;
#X obj 74 638 list prepend send, f 10;
#X obj 74 686 list trim;
#X obj 74 604 oscformat /velocity, f 10;
#X msg 196 679 disconnect, f 22;
#X msg 196 653 connect 127.0.0.1 1415;
#X obj 196 629 loadbang;
#X obj 158 705 netsend -u -b;
#X obj 82 45 cnv 15 300 120 empty empty TEMPO_(QPM) 20 12 0 14 -228856
-4160 0;
#X obj 247 64 tgl 30 0 empty empty empty 17 7 0 30 -262144 -1 -1 1
1;
#X floatatom 159 119 5 0 0 0 - - -;
#X text 281 69 Run;
#X floatatom 159 77 5 0 0 0 - bpm_init -;
#N canvas 298 23 1195 807 clock 0;
#X obj 581 87 tgl 15 0 empty empty empty 17 7 0 10 -262144 -1 -1 1
1;
#X floatatom 465 96 5 0 0 0 - - -;
#X floatatom 458 215 5 0 0 0 - - -;
#X obj 465 49 inlet;
#X obj 581 47 inlet;
#X text 588 26 Run, f 7;
#X text 527 723 current Tick Position;
#X text 468 26 qpm;
#X obj 465 138 * 96;
#X text 501 137 PPQ;
#X obj 470 467 /;
#X obj 470 407 loadbang;
#X obj 516 441 t b f;
#X obj 471 508 metro;
#X msg 470 428 60000;
#X text 480 189 BPM*PPQ;
#X obj 470 639 f;
#X obj 508 639 + 1;
#X obj 553 638 sel 0;
#X obj 470 677 + 0;
#X obj 476 723 outlet;
#X obj 521 680 mod 196;
#X text 584 680 2 quarter notes each with 96 ppq resolution;
#X obj 602 482 i 0;
#X obj 581 450 t i b;
#X text 633 484 reset counter before starting again;
#X connect 0 0 24 0;
#X connect 1 0 8 0;
#X connect 2 0 12 0;
#X connect 3 0 1 0;
#X connect 4 0 0 0;
#X connect 8 0 2 0;
#X connect 10 0 13 1;
#X connect 11 0 14 0;
#X connect 12 0 10 0;
#X connect 12 1 10 1;
#X connect 13 0 16 0;
#X connect 14 0 10 0;
#X connect 16 0 17 0;
#X connect 16 0 19 0;
#X connect 17 0 21 0;
#X connect 18 0 16 0;
#X connect 19 0 20 0;
#X connect 21 0 16 1;
#X connect 21 0 18 0;
#X connect 23 0 16 1;
#X connect 24 0 13 0;
#X connect 24 1 23 0;
#X restore 159 97 pd clock;
#X f 13;
#X obj 159 140 s playback_pos;
#X text 18 8 2 quarter notes - ppq resolution 96 16th note grid;
#N canvas 449 181 991 650 init 0;
#X obj 41 44 bng 15 250 50 0 empty empty empty 17 7 0 10 -262144 -1
-1;
#X obj 41 19 loadbang;
#X msg 41 62 \; groove bounds 0 127 192 0 \; groove xlabel 0 24 48
72 96 120 144 168 \; groove ylabel 0 10 20 30 40 50 60 70 80 90 100
110 120 \; initialize_bang 1 \; bpm_init 120 \; utiming_init_val 0
\; vel_init_val 0 \; enable_init 1 \; pd dsp 1 \;;
#X connect 0 0 2 0;
#X connect 1 0 0 0;
#X restore 464 12 pd init;
#N canvas 511 155 901 619 gamelan_synth 0;
#X obj -61 126 hip~ 3;
#X obj -61 148 clip~ -1 1;
#X obj -61 169 *~ 1;
#X obj -61 104 *~ 0.9;
#X obj -61 39 /~ 6;
#X obj 27 -261 noise~;
#X obj 27 -240 hip~ 8000;
#X obj 27 -219 hip~ 8000;
#X text 314 -109 GAMELAN;
#X text 311 -88 A synthesized gamelan model using additive synthesis.
;
#X obj -136 -257 inlet;
#X text -305 -281 Inlet must be a packed note vel;
#X obj -104 -35 pack f f f;
#X obj 124 -164 r \$0-poly;
#X obj -104 -56 poly 6 1;
#X obj -109 -194 unpack;
#X obj -61 5 clone -s 1 gamelan~ 6;
#X text 307 -60 Gamelan synth from https://github.com/MikeMorenoDSP/pd-mkmr
;
#X obj -49 -258 inlet;
#X text -49 -278 Enable Toggle;
#X obj -79 -223 spigot;
#X obj -61 230 throw~ generate_sound;
#N canvas 0 23 1680 951 quantize 0;
#N canvas 199 119 1404 855 quantizer 0;
#X text 68 25 Note;
#X obj 539 52 inlet;
#X text 536 26 packed scale pitchs;
#X obj 539 156 tgl 15 0 empty empty empty 17 7 0 10 -262144 -1 -1 1
1;
#X obj 582 140 tgl 15 0 empty empty empty 17 7 0 10 -66577 -262144
-1 0 1;
#X obj 626 160 tgl 15 0 empty empty empty 17 7 0 10 -262144 -1 -1 0
1;
#X obj 714 160 tgl 15 0 empty empty empty 17 7 0 10 -262144 -1 -1 0
1;
#X obj 758 160 tgl 15 0 empty empty empty 17 7 0 10 -262144 -1 -1 0
1;
#X obj 844 160 tgl 15 0 empty empty empty 17 7 0 10 -262144 -1 -1 0
1;
#X obj 931 160 tgl 15 0 empty empty empty 17 7 0 10 -262144 -1 -1 1
1;
#X obj 1019 160 tgl 15 0 empty empty empty 17 7 0 10 -262144 -1 -1
0 1;
#X obj 670 141 tgl 15 0 empty empty empty 17 7 0 10 -66577 -262144
-1 0 1;
#X obj 801 143 tgl 15 0 empty empty empty 17 7 0 10 -66577 -262144
-1 0 1;
#X obj 888 142 tgl 15 0 empty empty empty 17 7 0 10 -66577 -262144
-1 1 1;
#X obj 976 142 tgl 15 0 empty empty empty 17 7 0 10 -66577 -262144
-1 0 1;
#X obj 539 88 unpack f f f f f f f f f f f f, f 69;
#X obj 539 182 sel 0, f 2;
#X msg 540 254 0;
#X floatatom 540 281 5 0 0 0 - - -;
#X msg 540 231 100;
#X obj 582 184 sel 0, f 2;
#X floatatom 583 283 5 0 0 0 - - -;
#X msg 583 233 100;
#X obj 627 183 sel 0, f 2;
#X floatatom 628 282 5 0 0 0 - - -;
#X msg 628 232 100;
#X obj 668 184 sel 0, f 2;
#X floatatom 669 283 5 0 0 0 - - -;
#X msg 669 233 100;
#X obj 713 184 sel 0, f 2;
#X floatatom 714 283 5 0 0 0 - - -;
#X msg 714 233 100;
#X obj 754 185 sel 0, f 2;
#X floatatom 755 284 5 0 0 0 - - -;
#X msg 755 234 100;
#X obj 803 182 sel 0, f 2;
#X floatatom 803 282 5 0 0 0 - - -;
#X msg 804 231 100;
#X obj 844 183 sel 0, f 2;
#X floatatom 845 282 5 0 0 0 - - -;
#X msg 845 232 100;
#X obj 890 182 sel 0, f 2;
#X floatatom 891 281 5 0 0 0 - - -;
#X msg 891 231 100;
#X obj 931 183 sel 0, f 2;
#X floatatom 932 282 5 0 0 0 - - -;
#X msg 932 232 100;
#X obj 976 183 sel 0, f 2;
#X floatatom 977 282 5 0 0 0 - - -;
#X msg 977 232 100;
#X obj 1017 184 sel 0, f 2;
#X floatatom 1020 283 5 0 0 0 - - -;
#X msg 1018 233 100;
#X obj 111 362 / 12;
#X floatatom 111 389 5 0 0 0 - - -;
#X obj 111 413 t b f;
#X floatatom 117 474 5 0 0 0 - - -;
#X obj 117 503 * 12;
#X floatatom 117 530 5 0 0 0 - - -;
#X obj 102 1005 outlet;
#X obj 118 927 +;
#X obj 69 116 % 12;
#X obj 69 49 inlet;
#X msg 583 256 1;
#X msg 628 255 2;
#X msg 669 256 3;
#X msg 714 256 4;
#X msg 755 257 5;
#X msg 804 254 6;
#X msg 845 255 7;
#X msg 891 254 8;
#X msg 932 255 9;
#X msg 977 255 10;
#X msg 1018 256 11;
#X floatatom 102 166 5 0 0 0 - - -;
#X obj 540 310 t b f, f 3;
#X obj 149 206 s midiNum;
#X obj 543 379 r midiNum, f 2;
#X obj 541 472 -;
#X floatatom 541 497 5 0 0 0 - - -;
#X obj 583 311 t b f, f 3;
#X obj 587 376 r midiNum, f 2;
#X obj 585 469 -;
#X floatatom 585 497 5 0 0 0 - - -;
#X obj 628 311 t b f, f 3;
#X obj 631 380 r midiNum, f 2;
#X obj 629 473 -;
#X floatatom 629 498 5 0 0 0 - - -;
#X obj 671 312 t b f, f 3;
#X obj 675 377 r midiNum, f 2;
#X obj 673 470 -;
#X floatatom 673 498 5 0 0 0 - - -;
#X obj 714 312 t b f, f 3;
#X obj 717 381 r midiNum, f 2;
#X obj 715 474 -;
#X floatatom 715 499 5 0 0 0 - - -;
#X obj 757 313 t b f, f 3;
#X obj 761 378 r midiNum, f 2;
#X obj 759 471 -;
#X floatatom 759 499 5 0 0 0 - - -;
#X obj 802 313 t b f, f 3;
#X obj 805 382 r midiNum, f 2;
#X obj 803 475 -;
#X floatatom 805 501 5 0 0 0 - - -;
#X obj 845 314 t b f, f 3;
#X obj 849 379 r midiNum, f 2;
#X obj 847 472 -;
#X floatatom 847 500 5 0 0 0 - - -;
#X obj 893 313 t b f, f 3;
#X obj 896 382 r midiNum, f 2;
#X obj 894 475 -;
#X floatatom 894 500 5 0 0 0 - - -;
#X obj 936 314 t b f, f 3;
#X obj 940 379 r midiNum, f 2;
#X obj 938 472 -;
#X floatatom 938 500 5 0 0 0 - - -;
#X obj 981 314 t b f, f 3;
#X obj 984 383 r midiNum, f 2;
#X obj 982 476 -;
#X floatatom 982 501 5 0 0 0 - - -;
#X obj 1024 315 t b f, f 3;
#X obj 1028 380 r midiNum, f 2;
#X obj 1026 473 -;
#X floatatom 1026 501 5 0 0 0 - - -;
#X obj 541 525 abs;
#X obj 585 526 abs;
#X obj 629 526 abs;
#X obj 673 527 abs;
#X obj 717 527 abs;
#X obj 761 528 abs;
#X obj 806 527 abs;
#X obj 850 528 abs;
#X obj 894 528 abs;
#X obj 938 529 abs;
#X obj 982 529 abs;
#X obj 1026 530 abs;
#X floatatom 542 555 5 0 0 0 - - -;
#X floatatom 586 553 5 0 0 0 - - -;
#X floatatom 629 556 5 0 0 0 - - -;
#X floatatom 673 556 5 0 0 0 - - -;
#X floatatom 715 557 5 0 0 0 - - -;
#X floatatom 759 557 5 0 0 0 - - -;
#X floatatom 805 559 5 0 0 0 - - -;
#X floatatom 847 558 5 0 0 0 - - -;
#X floatatom 894 558 5 0 0 0 - - -;
#X floatatom 938 558 5 0 0 0 - - -;
#X floatatom 982 559 5 0 0 0 - - -;
#X floatatom 1026 559 5 0 0 0 - - -;
#X obj 586 637 t b f;
#X obj 630 638 t b f;
#X obj 674 638 t b f;
#X obj 718 639 t b f;
#X obj 763 639 t b f;
#X obj 807 640 t b f;
#X obj 851 640 t b f;
#X obj 895 641 t b f;
#X obj 940 641 t b f;
#X obj 984 641 t b f;
#X obj 1029 641 t b f;
#X obj 586 670 min, f 5;
#X obj 630 689 min, f 5;
#X obj 674 708 min, f 5;
#X obj 718 727 min, f 5;
#X obj 764 666 min, f 5;
#X obj 808 685 min, f 5;
#X obj 852 704 min, f 5;
#X obj 896 723 min, f 5;
#X obj 942 670 min, f 5;
#X obj 986 689 min, f 5;
#X obj 1030 708 min, f 5;
#X floatatom 1030 733 5 0 0 0 - - -;
#X obj 1030 757 s minDistance;
#X msg 543 947 0;
#X msg 586 947 1;
#X msg 624 946 2;
#X floatatom 573 984 5 0 0 0 - - -;
#X msg 663 946 3;
#X msg 706 946 4;
#X msg 744 946 5;
#X msg 786 946 6;
#X msg 829 946 7;
#X msg 867 945 8;
#X msg 906 945 9;
#X msg 949 945 10;
#X msg 987 944 11;
#X obj 546 802 t b b b b b b b b b b b b f, f 66;
#X obj 542 862 ==;
#X obj 585 863 ==;
#X obj 624 865 ==;
#X obj 662 861 ==;
#X obj 705 861 ==;
#X obj 743 860 ==;
#X obj 785 861 ==;
#X obj 828 861 ==;
#X obj 866 860 ==;
#X obj 905 860 ==;
#X obj 948 860 ==;
#X obj 986 859 ==;
#X obj 545 901 sel 1;
#X obj 585 915 sel 1;
#X obj 626 898 sel 1;
#X obj 663 921 sel 1;
#X obj 704 904 sel 1;
#X obj 747 916 sel 1;
#X obj 788 899 sel 1;
#X obj 825 922 sel 1;
#X obj 866 905 sel 1;
#X obj 906 919 sel 1;
#X obj 947 902 sel 1;
#X obj 990 915 sel 1;
#X floatatom 198 967 5 0 0 0 - - -;
#X obj 150 690 t b f;
#X obj 577 1015 outlet;
#X text 76 1030 Quantized Note;
#X text 631 1015 Pitch Class;
#X obj 14 830 inlet;
#X text 21 810 sync;
#X obj 68 969 f;
#X obj 117 444 i;
#X connect 1 0 15 0;
#X connect 3 0 16 0;
#X connect 4 0 20 0;
#X connect 5 0 23 0;
#X connect 6 0 29 0;
#X connect 7 0 32 0;
#X connect 8 0 38 0;
#X connect 9 0 44 0;
#X connect 10 0 50 0;
#X connect 11 0 26 0;
#X connect 12 0 35 0;
#X connect 13 0 41 0;
#X connect 14 0 47 0;
#X connect 15 0 3 0;
#X connect 15 1 4 0;
#X connect 15 2 5 0;
#X connect 15 3 11 0;
#X connect 15 4 6 0;
#X connect 15 5 7 0;
#X connect 15 6 12 0;
#X connect 15 7 8 0;
#X connect 15 8 13 0;
#X connect 15 9 9 0;
#X connect 15 10 14 0;
#X connect 15 11 10 0;
#X connect 16 0 19 0;
#X connect 16 1 17 0;
#X connect 17 0 18 0;
#X connect 18 0 75 0;
#X connect 19 0 18 0;
#X connect 20 0 22 0;
#X connect 20 1 63 0;
#X connect 21 0 80 0;
#X connect 22 0 21 0;
#X connect 23 0 25 0;
#X connect 23 1 64 0;
#X connect 24 0 84 0;
#X connect 25 0 24 0;
#X connect 26 0 28 0;
#X connect 26 1 65 0;
#X connect 27 0 88 0;
#X connect 28 0 27 0;
#X connect 29 0 31 0;
#X connect 29 1 66 0;
#X connect 30 0 92 0;
#X connect 31 0 30 0;
#X connect 32 0 34 0;
#X connect 32 1 67 0;
#X connect 33 0 96 0;
#X connect 34 0 33 0;
#X connect 35 0 37 0;
#X connect 35 1 68 0;
#X connect 36 0 100 0;
#X connect 37 0 36 0;
#X connect 38 0 40 0;
#X connect 38 1 69 0;
#X connect 39 0 104 0;
#X connect 40 0 39 0;
#X connect 41 0 43 0;
#X connect 41 1 70 0;
#X connect 42 0 108 0;
#X connect 43 0 42 0;
#X connect 44 0 46 0;
#X connect 44 1 71 0;
#X connect 45 0 112 0;
#X connect 46 0 45 0;
#X connect 47 0 49 0;
#X connect 47 1 72 0;
#X connect 48 0 116 0;
#X connect 49 0 48 0;
#X connect 50 0 52 0;
#X connect 50 1 73 0;
#X connect 51 0 120 0;
#X connect 52 0 51 0;
#X connect 53 0 54 0;
#X connect 54 0 55 0;
#X connect 55 0 218 0;
#X connect 55 1 218 1;
#X connect 56 0 57 0;
#X connect 57 0 58 0;
#X connect 58 0 211 0;
#X connect 60 0 210 0;
#X connect 60 0 217 1;
#X connect 61 0 74 0;
#X connect 62 0 61 0;
#X connect 62 0 53 0;
#X connect 63 0 21 0;
#X connect 64 0 24 0;
#X connect 65 0 27 0;
#X connect 66 0 30 0;
#X connect 67 0 33 0;
#X connect 68 0 36 0;
#X connect 69 0 39 0;
#X connect 70 0 42 0;
#X connect 71 0 45 0;
#X connect 72 0 48 0;
#X connect 73 0 51 0;
#X connect 74 0 76 0;
#X connect 75 0 78 0;
#X connect 75 1 78 1;
#X connect 77 0 78 0;
#X connect 78 0 79 0;
#X connect 79 0 124 0;
#X connect 80 0 82 0;
#X connect 80 1 82 1;
#X connect 81 0 82 0;
#X connect 82 0 83 0;
#X connect 83 0 125 0;
#X connect 84 0 86 0;
#X connect 84 1 86 1;
#X connect 85 0 86 0;
#X connect 86 0 87 0;
#X connect 87 0 126 0;
#X connect 88 0 90 0;
#X connect 88 1 90 1;
#X connect 89 0 90 0;
#X connect 90 0 91 0;
#X connect 91 0 127 0;
#X connect 92 0 94 0;
#X connect 92 1 94 1;
#X connect 93 0 94 0;
#X connect 94 0 95 0;
#X connect 95 0 128 0;
#X connect 96 0 98 0;
#X connect 96 1 98 1;
#X connect 97 0 98 0;
#X connect 98 0 99 0;
#X connect 99 0 129 0;
#X connect 100 0 102 0;
#X connect 100 1 102 1;
#X connect 101 0 102 0;
#X connect 102 0 103 0;
#X connect 103 0 130 0;
#X connect 104 0 106 0;
#X connect 104 1 106 1;
#X connect 105 0 106 0;
#X connect 106 0 107 0;
#X connect 107 0 131 0;
#X connect 108 0 110 0;
#X connect 108 1 110 1;
#X connect 109 0 110 0;
#X connect 110 0 111 0;
#X connect 111 0 132 0;
#X connect 112 0 114 0;
#X connect 112 1 114 1;
#X connect 113 0 114 0;
#X connect 114 0 115 0;
#X connect 115 0 133 0;
#X connect 116 0 118 0;
#X connect 116 1 118 1;
#X connect 117 0 118 0;
#X connect 118 0 119 0;
#X connect 119 0 134 0;
#X connect 120 0 122 0;
#X connect 120 1 122 1;
#X connect 121 0 122 0;
#X connect 122 0 123 0;
#X connect 123 0 135 0;
#X connect 124 0 136 0;
#X connect 125 0 137 0;
#X connect 126 0 138 0;
#X connect 127 0 139 0;
#X connect 128 0 140 0;
#X connect 129 0 141 0;
#X connect 130 0 142 0;
#X connect 131 0 143 0;
#X connect 132 0 144 0;
#X connect 133 0 145 0;
#X connect 134 0 146 0;
#X connect 135 0 147 0;
#X connect 136 0 159 0;
#X connect 136 0 186 0;
#X connect 137 0 148 0;
#X connect 137 0 187 0;
#X connect 138 0 149 0;
#X connect 138 0 188 0;
#X connect 139 0 150 0;
#X connect 139 0 189 0;
#X connect 140 0 151 0;
#X connect 140 0 190 0;
#X connect 141 0 152 0;
#X connect 141 0 191 0;
#X connect 142 0 153 0;
#X connect 142 0 192 0;
#X connect 143 0 154 0;
#X connect 143 0 193 0;
#X connect 144 0 155 0;
#X connect 144 0 194 0;
#X connect 145 0 156 0;
#X connect 145 0 195 0;
#X connect 146 0 157 0;
#X connect 146 0 196 0;
#X connect 147 0 158 0;
#X connect 147 0 197 0;
#X connect 148 0 159 0;
#X connect 148 1 159 1;
#X connect 149 0 160 0;
#X connect 149 1 160 1;
#X connect 150 0 161 0;
#X connect 150 1 161 1;
#X connect 151 0 162 0;
#X connect 151 1 162 1;
#X connect 152 0 163 0;
#X connect 152 1 163 1;
#X connect 153 0 164 0;
#X connect 153 1 164 1;
#X connect 154 0 165 0;
#X connect 154 1 165 1;
#X connect 155 0 166 0;
#X connect 155 1 166 1;
#X connect 156 0 167 0;
#X connect 156 1 167 1;
#X connect 157 0 168 0;
#X connect 157 1 168 1;
#X connect 158 0 169 0;
#X connect 158 1 169 1;
#X connect 159 0 160 0;
#X connect 160 0 161 0;
#X connect 161 0 162 0;
#X connect 162 0 163 0;
#X connect 163 0 164 0;
#X connect 164 0 165 0;
#X connect 165 0 166 0;
#X connect 166 0 167 0;
#X connect 167 0 168 0;
#X connect 168 0 169 0;
#X connect 169 0 170 0;
#X connect 170 0 171 0;
#X connect 170 0 185 0;
#X connect 172 0 175 0;
#X connect 173 0 175 0;
#X connect 174 0 175 0;
#X connect 175 0 60 0;
#X connect 175 0 212 0;
#X connect 176 0 175 0;
#X connect 177 0 175 0;
#X connect 178 0 175 0;
#X connect 179 0 175 0;
#X connect 180 0 175 0;
#X connect 181 0 175 0;
#X connect 182 0 175 0;
#X connect 183 0 175 0;
#X connect 184 0 175 0;
#X connect 185 1 187 0;
#X connect 185 2 188 0;
#X connect 185 3 189 0;
#X connect 185 4 190 0;
#X connect 185 5 191 0;
#X connect 185 6 192 0;
#X connect 185 7 193 0;
#X connect 185 8 194 0;
#X connect 185 9 195 0;
#X connect 185 10 196 0;
#X connect 185 11 197 0;
#X connect 185 12 186 1;
#X connect 185 12 187 1;
#X connect 185 12 188 1;
#X connect 185 12 189 1;
#X connect 185 12 190 1;
#X connect 185 12 191 1;
#X connect 185 12 192 1;
#X connect 185 12 193 1;
#X connect 185 12 194 1;
#X connect 185 12 195 1;
#X connect 185 12 196 1;
#X connect 185 12 197 1;
#X connect 186 0 198 0;
#X connect 187 0 199 0;
#X connect 188 0 200 0;
#X connect 189 0 201 0;
#X connect 190 0 202 0;
#X connect 191 0 203 0;
#X connect 192 0 204 0;
#X connect 193 0 205 0;
#X connect 194 0 206 0;
#X connect 195 0 207 0;
#X connect 196 0 208 0;
#X connect 197 0 209 0;
#X connect 198 0 172 0;
#X connect 199 0 173 0;
#X connect 200 0 174 0;
#X connect 201 0 176 0;
#X connect 202 0 177 0;
#X connect 203 0 178 0;
#X connect 204 0 179 0;
#X connect 205 0 180 0;
#X connect 206 0 181 0;
#X connect 207 0 182 0;
#X connect 208 0 183 0;
#X connect 209 0 184 0;
#X connect 211 0 60 0;
#X connect 211 1 60 1;
#X connect 215 0 217 0;
#X connect 217 0 59 0;
#X connect 218 0 56 0;
#X restore 473 240 pd quantizer;
#X obj 606 186 tgl 15 0 empty \$0-quantizer-C-s empty 17 7 0 10 -262144
-1 -1 1 1;
#X obj 620 165 tgl 15 0 empty \$0-quantizer-Csharp-s empty 17 7 0 10
-66577 -262144 -1 0 1;
#X obj 623 186 tgl 15 0 empty \$0-quantizer-D-s empty 17 7 0 10 -262144
-1 -1 0 1;
#X obj 640 186 tgl 15 0 empty \$0-quantizer-E-s empty 17 7 0 10 -262144
-1 -1 0 1;
#X obj 657 186 tgl 15 0 empty \$0-quantizer-F-s empty 17 7 0 10 -262144
-1 -1 0 1;
#X obj 674 186 tgl 15 0 empty \$0-quantizer-G-s empty 17 7 0 10 -262144
-1 -1 0 1;
#X obj 692 186 tgl 15 0 empty \$0-quantizer-A-s empty 17 7 0 10 -262144
-1 -1 1 1;
#X obj 710 186 tgl 15 0 empty \$0-quantizer-B-s empty 17 7 0 10 -262144
-1 -1 0 1;
#X obj 638 165 tgl 15 0 empty \$0-quantizer-Dsharp-s empty 17 7 0 10
-66577 -262144 -1 0 1;
#X obj 669 165 tgl 15 0 empty \$0-quantizer-Fsharp-s empty 17 7 0 10
-66577 -262144 -1 0 1;
#X obj 687 165 tgl 15 0 empty \$0-quantizer-Gsharp-s empty 17 7 0 10
-66577 -262144 -1 1 1;
#X obj 705 165 tgl 15 0 empty \$0-quantizer-Asharp-s empty 17 7 0 10
-66577 -262144 -1 0 1;
#N canvas 488 349 1099 502 packScale 0;
#X obj 85 67 inlet;
#X text 95 46 C;
#X text 149 48 C#;
#X text 199 48 D;
#X text 248 50 D#;
#X text 294 47 E;
#X text 347 46 F;
#X text 393 48 F#, f 3;
#X text 442 45 G;
#X text 486 47 G#, f 3;
#X text 541 44 A;
#X text 586 46 A#, f 3;
#X text 644 45 B;
#X obj 85 99 t b f;
#X obj 83 195 pack f f f f f f f f f f f f, f 96;
#X obj 143 68 inlet;
#X obj 143 100 t b f;
#X obj 189 69 inlet;
#X obj 189 101 t b f;
#X obj 240 69 inlet;
#X obj 240 101 t b f;
#X obj 284 69 inlet;
#X obj 284 101 t b f;
#X obj 342 70 inlet;
#X obj 342 102 t b f;
#X obj 388 71 inlet;
#X obj 388 103 t b f;
#X obj 439 71 inlet;
#X obj 439 103 t b f;
#X obj 484 71 inlet;
#X obj 484 103 t b f;
#X obj 534 71 inlet;
#X obj 534 103 t b f;
#X obj 580 72 inlet;
#X obj 580 104 t b f;
#X obj 631 72 inlet;
#X obj 631 104 t b f;
#X obj 96 270 outlet;
#X connect 0 0 13 0;
#X connect 13 0 14 0;
#X connect 13 1 14 0;
#X connect 14 0 37 0;
#X connect 15 0 16 0;
#X connect 16 0 14 0;
#X connect 16 1 14 1;
#X connect 17 0 18 0;
#X connect 18 0 14 0;
#X connect 18 1 14 2;
#X connect 19 0 20 0;
#X connect 20 0 14 0;
#X connect 20 1 14 3;
#X connect 21 0 22 0;
#X connect 22 0 14 0;
#X connect 22 1 14 4;
#X connect 23 0 24 0;
#X connect 24 0 14 0;
#X connect 24 1 14 5;
#X connect 25 0 26 0;
#X connect 26 0 14 0;
#X connect 26 1 14 6;
#X connect 27 0 28 0;
#X connect 28 0 14 0;
#X connect 28 1 14 7;
#X connect 29 0 30 0;
#X connect 30 0 14 0;
#X connect 30 1 14 8;
#X connect 31 0 32 0;
#X connect 32 0 14 0;
#X connect 32 1 14 9;
#X connect 33 0 34 0;
#X connect 34 0 14 0;
#X connect 34 1 14 10;
#X connect 35 0 36 0;
#X connect 36 0 14 0;
#X connect 36 1 14 11;
#X restore 554 215 pd packScale;
#X f 35;
#X floatatom 453 274 5 0 0 0 - - -;
#X floatatom 490 180 5 0 0 0 - - -;
#X obj 656 254 sel 0 1 2 3 4 5 6 7 8 9 10 11;
#X obj 657 313 s \$0-pitch0, f 1;
#X obj 656 292 bng 15 250 50 0 empty empty empty 17 7 0 10 -262144
-1 -1;
#X obj 673 292 bng 15 250 50 0 empty empty empty 17 7 0 10 -262144
-1 -1;
#X obj 690 292 bng 15 250 50 0 empty empty empty 17 7 0 10 -262144
-1 -1;
#X obj 707 292 bng 15 250 50 0 empty empty empty 17 7 0 10 -262144
-1 -1;
#X obj 724 292 bng 15 250 50 0 empty empty empty 17 7 0 10 -262144
-1 -1;
#X obj 741 292 bng 15 250 50 0 empty empty empty 17 7 0 10 -262144
-1 -1;
#X obj 758 292 bng 15 250 50 0 empty empty empty 17 7 0 10 -262144
-1 -1;
#X obj 775 292 bng 15 250 50 0 empty empty empty 17 7 0 10 -262144
-1 -1;
#X obj 792 292 bng 15 250 50 0 empty empty empty 17 7 0 10 -262144
-1 -1;
#X obj 809 292 bng 15 250 50 0 empty empty empty 17 7 0 10 -262144
-1 -1;
#X obj 826 292 bng 15 250 50 0 empty empty empty 17 7 0 10 -262144
-1 -1;
#X obj 843 292 bng 15 250 50 0 empty empty empty 17 7 0 10 -262144
-1 -1;
#X obj 674 313 s \$0-pitch1, f 1;
#X obj 691 313 s \$0-pitch2, f 1;
#X obj 708 313 s \$0-pitch3, f 1;
#X obj 725 313 s \$0-pitch4, f 1;
#X obj 742 313 s \$0-pitch5, f 1;
#X obj 759 313 s \$0-pitch6, f 1;
#X obj 776 313 s \$0-pitch7, f 1;
#X obj 793 313 s \$0-pitch8, f 1;
#X obj 810 313 s \$0-pitch9, f 1;
#X obj 827 313 s \$0-pitch10, f 1;
#X obj 844 313 s \$0-pitch11, f 1;
#X floatatom 542 324 5 0 0 0 - - -;
#X obj 592 298 i;
#X obj 478 206 t b b f;
#X obj 491 100 inlet;
#X text 539 98 input pitch;
#X obj 473 477 outlet;
#X text 543 478 quantized pitch;
#X obj 203 196 bng 15 250 50 0 empty \$0-pitch1 empty 17 7 0 10 -66577
-258113 -1;
#X obj 221 196 bng 15 250 50 0 empty \$0-pitch3 empty 17 7 0 10 -66577
-258113 -1;
#X obj 193 214 bng 15 250 50 0 empty \$0-pitch0 empty 17 7 0 10 -262144
-258113 -1;
#X obj 212 214 bng 15 250 50 0 empty \$0-pitch2 empty 17 7 0 10 -262144
-258113 -1;
#X obj 230 214 bng 15 250 50 0 empty \$0-pitch4 empty 17 7 0 10 -262144
-258113 -1;
#X obj 257 196 bng 15 250 50 0 empty \$0-pitch6 empty 17 7 0 10 -66577
-258113 -1;
#X obj 275 196 bng 15 250 50 0 empty \$0-pitch8 empty 17 7 0 10 -66577
-258113 -1;
#X obj 247 214 bng 15 250 50 0 empty \$0-pitch5 empty 17 7 0 10 -262144
-258113 -1;
#X obj 266 214 bng 15 250 50 0 empty \$0-pitch7 empty 17 7 0 10 -262144
-258113 -1;
#X obj 284 214 bng 15 250 50 0 empty \$0-pitch9 empty 17 7 0 10 -262144
-258113 -1;
#X text 196 230 C;
#X text 214 230 D;
#X text 232 231 E;
#X text 251 231 F;
#X text 268 231 G;
#X text 286 231 A;
#X text 306 232 B;
#X obj 301 214 bng 15 250 50 0 empty \$0-pitch11 empty 17 7 0 10 -262144
-258113 -1;
#X obj 292 196 bng 15 250 50 0 empty \$0-pitch10 empty 17 7 0 10 -66577
-258113 -1;
#X obj 194 147 tgl 15 0 \$0-quantizer-C-s \$0-quantizer-C-r empty 17
7 0 10 -262144 -1 -1 0 1;
#X obj 205 128 tgl 15 0 \$0-quantizer-Csharp-s \$0-quantizer-Csharp-r
empty 17 7 0 10 -66577 -262144 -1 0 1;
#X text 194 164 C;
#X text 212 164 D;
#X text 230 165 E;
#X text 249 165 F;
#X text 266 165 G;
#X text 284 165 A;
#X text 304 166 B;
#X text 222 106 QUANTIZER;
#X obj 211 147 tgl 15 0 \$0-quantizer-D-s \$0-quantizer-D-r empty 17
7 0 10 -262144 -1 -1 0 1;
#X obj 228 147 tgl 15 0 \$0-quantizer-E-s \$0-quantizer-E-r empty 17
7 0 10 -262144 -1 -1 0 1;
#X obj 245 147 tgl 15 0 \$0-quantizer-F-s \$0-quantizer-F-r empty 17
7 0 10 -262144 -1 -1 0 1;
#X obj 262 147 tgl 15 0 \$0-quantizer-G-s \$0-quantizer-G-r empty 17
7 0 10 -262144 -1 -1 0 1;
#X obj 280 147 tgl 15 0 \$0-quantizer-A-s \$0-quantizer-A-r empty 17
7 0 10 -262144 -1 -1 0 1;
#X obj 298 147 tgl 15 0 \$0-quantizer-B-s \$0-quantizer-B-r empty 17
7 0 10 -262144 -1 -1 0 1;
#X obj 223 128 tgl 15 0 \$0-quantizer-Dsharp-s \$0-quantizer-Dsharp-r
empty 17 7 0 10 -66577 -262144 -1 0 1;
#X obj 254 128 tgl 15 0 \$0-quantizer-Fsharp-s \$0-quantizer-Fsharp-r
empty 17 7 0 10 -66577 -262144 -1 0 1;
#X obj 272 128 tgl 15 0 \$0-quantizer-Gsharp-s \$0-quantizer-Gsharp-r
empty 17 7 0 10 -66577 -262144 -1 0 1;
#X obj 290 128 tgl 15 0 \$0-quantizer-Asharp-s \$0-quantizer-Asharp-r
empty 17 7 0 10 -66577 -262144 -1 0 1;
#X connect 0 0 14 0;
#X connect 0 1 41 0;
#X connect 0 1 42 1;
#X connect 1 0 13 0;
#X connect 2 0 13 1;
#X connect 3 0 13 2;
#X connect 4 0 13 4;
#X connect 5 0 13 5;
#X connect 6 0 13 7;
#X connect 7 0 13 9;
#X connect 8 0 13 11;
#X connect 9 0 13 3;
#X connect 10 0 13 6;
#X connect 11 0 13 8;
#X connect 12 0 13 10;
#X connect 13 0 0 2;
#X connect 14 0 46 0;
#X connect 15 0 43 0;
#X connect 16 0 18 0;
#X connect 16 1 19 0;
#X connect 16 2 20 0;
#X connect 16 3 21 0;
#X connect 16 4 22 0;
#X connect 16 5 23 0;
#X connect 16 6 24 0;
#X connect 16 7 25 0;
#X connect 16 8 26 0;
#X connect 16 9 27 0;
#X connect 16 10 28 0;
#X connect 16 11 29 0;
#X connect 18 0 17 0;
#X connect 19 0 30 0;
#X connect 20 0 31 0;
#X connect 21 0 32 0;
#X connect 22 0 33 0;
#X connect 23 0 34 0;
#X connect 24 0 35 0;
#X connect 25 0 36 0;
#X connect 26 0 37 0;
#X connect 27 0 38 0;
#X connect 28 0 39 0;
#X connect 29 0 40 0;
#X connect 42 0 16 0;
#X connect 43 0 42 0;
#X connect 43 1 0 0;
#X connect 43 2 0 1;
#X connect 44 0 15 0;
#X coords 0 -1 1 1 300 160 1 100 100;
#X restore 816 293 pd quantize;
#X obj 816 275 r pitch_unquantized;
#X obj 816 454 s pitch_quantized;
#X connect 0 0 1 0;
#X connect 1 0 2 0;
#X connect 2 0 21 0;
#X connect 3 0 0 0;
#X connect 4 0 3 0;
#X connect 5 0 6 0;
#X connect 6 0 7 0;
#X connect 7 0 16 1;
#X connect 10 0 20 0;
#X connect 12 0 16 0;
#X connect 14 0 12 0;
#X connect 14 1 12 1;
#X connect 14 2 12 2;
#X connect 15 0 14 0;
#X connect 15 1 14 1;
#X connect 16 0 4 0;
#X connect 18 0 20 1;
#X connect 20 0 15 0;
#X connect 22 0 24 0;
#X connect 23 0 22 0;
#X coords 0 619 1 618 350 270 0;
#X restore 462 507 pd gamelan_synth;
#X obj 570 481 tgl 15 0 empty enable_init empty 17 7 0 10 -262144 -1
-1 0 1;
#N canvas 351 86 712 506 spectrolog 0;
#N canvas 556 61 872 789 FFT_Analyse 0;
#X obj 101 102 inlet~;
#X obj 101 332 *~;
#X obj 132 331 *~;
#X obj 101 356 +~;
#X obj 102 377 powtodb~;
#N canvas 0 22 346 535 init_input_window 0;
#X obj 73 217 / 10;
#X obj 55 278 line 0 0.1;
#X msg 119 246 0;
#X obj 54 176 t f f b;
#X obj 54 239 pack;
#X obj 55 301 t f f;
#X obj 54 152 - 1;
#X obj 74 114 t f f;
#X obj 55 359 * 3.14159;
#X obj 55 381 sin;
#X msg 55 401 \$1 \$1;
#X obj 55 423 *;
#X text 119 334 0...0.99;
#X text 128 359 0...pi;
#X text 79 423 hanning;
#X msg 55 88 4096;
#X obj 100 88 f 4096;
#X obj 99 60 bng 15 250 50 0 empty empty empty 0 -6 0 8 -262144 -1
-1;
#X obj 99 39 loadbang;
#X obj 74 333 / 4096;
#X obj 55 448 tabwrite \$0-window;
#X text 86 381 half-sine;
#X connect 0 0 4 1;
#X connect 1 0 5 0;
#X connect 2 0 1 0;
#X connect 3 0 4 0;
#X connect 3 1 0 0;
#X connect 3 2 2 0;
#X connect 4 0 1 0;
#X connect 5 0 19 0;
#X connect 5 1 20 1;
#X connect 6 0 3 0;
#X connect 7 0 6 0;
#X connect 7 1 19 1;
#X connect 8 0 9 0;
#X connect 9 0 10 0;
#X connect 10 0 11 0;
#X connect 11 0 20 0;
#X connect 15 0 7 0;
#X connect 16 0 7 0;
#X connect 17 0 16 0;
#X connect 18 0 17 0;
#X connect 19 0 8 0;
#X restore 161 276 pd init_input_window;
#N canvas 0 22 450 300 (subpatch) 0;
#X array \$0-lin_scope 2048 float 0;
#X coords 0 100 2047 0 200 140 1;
#X restore 110 621 graph;
#N canvas 0 22 822 328 init_norm 0;
#X obj 43 230 outlet;
#X obj 43 187 - 100;
#X floatatom 43 208 9 0 0 0 - - -;
#X text 108 169 leistung - techn. dB;
#X msg 43 69 4096;
#X obj 80 68 f 4096;
#X obj 80 47 bng 15 250 50 0 empty empty empty 0 -6 0 8 -262144 -1
-1;
#X obj 80 26 loadbang;
#X obj 43 167 rmstodb;
#X obj 43 110 / 4;
#X text 74 103 faktor 2 wegen hanning;
#X text 74 114 weiterer faktor 2 \, weil wir nur die;
#X text 73 124 erste haelfte des konjungiert komplexen spektrum sehen
;
#X text 108 135 bzw. bearbeiten \, somit nur die haelfte der spektralen
energie;
#X connect 1 0 2 0;
#X connect 2 0 0 0;
#X connect 4 0 9 0;
#X connect 5 0 9 0;
#X connect 6 0 5 0;
#X connect 7 0 6 0;
#X connect 8 0 1 0;
#X connect 9 0 8 0;
#X restore 153 421 pd init_norm;
#X obj 100 231 *~;
#X obj 102 443 -~ 60.206;
#X obj 113 517 *~ 0.98;
#X obj 100 539 +~;
#X obj 101 471 *~ 0.02;
#X msg 314 481 1 \$1;
#X obj 314 502 -;
#X obj 314 458 clip 0 1;
#X obj 314 437 / 100;
#X floatatom 314 413 5 0.5 100 0 - - -;
#X obj 333 366 loadbang;
#X obj 100 277 fft~;
#X obj 463 557 line 0 0.1;
#X obj 463 602 / 2;
#X obj 463 622 mtof;
#X msg 463 536 6 \, 273 26.7;
#X obj 463 580 t f f;
#X obj 494 602 - 6;
#X obj 463 642 / 44100;
#X obj 463 663 * 4096;
#X msg 656 633 6;
#X obj 656 653 / 2;
#X obj 656 673 mtof;
#X floatatom 656 693 9 0 0 0 - - -;
#X text 723 694 Hz;
#X obj 754 654 / 2;
#X obj 754 673 mtof;
#X floatatom 754 693 9 0 0 0 - - -;
#X text 822 693 Hz;
#X msg 754 634 273;
#X obj 656 612 t b b;
#X obj 463 498 tgl 15 0 empty empty empty 0 -6 0 8 -262144 -1 -1 1
1;
#X obj 463 458 loadbang;
#X msg 463 478 1;
#X obj 656 592 loadbang;
#X obj 468 245 loadbang;
#X obj 703 102 inlet;
#X obj 130 253 table \$0-window 4096;
#X obj 137 214 tabreceive~ \$0-window;
#X text 353 403 temporal lowpass;
#X text 355 415 parameter between 0 .. 100 %;
#X text 23 23 spectrum~;
#X text 120 23 draws the power of a spectrum in a logarithmic scale
;
#X text 118 36 (by Thomas Musil);
#X obj 113 496 tabreceive~ \$0-lin_scope;
#X obj 100 564 tabsend~ \$0-lin_scope;
#X obj 463 685 tabread4 \$0-lin_scope;
#X obj 468 267 f \$0;
#X text 553 536 transformation to log scale;
#X msg 333 385 100;
#X obj 314 341 max 0.5;
#X obj 314 319 min 100;
#X obj 440 107 inlet;
#X text 96 81 audio sig;
#X text 700 81 ON/OFF;
#X text 427 86 (0 .. 100);
#X text 408 72 temporal lowpass;
#X obj 533 244 bng 15 250 50 0 empty empty empty 0 -6 0 8 -262144 -1
-1;
#X obj 463 735 tabwrite \$0-s;
#X msg 468 296 \; \$1-s xticks 0 12 2;
#X msg 491 330 \; \$1-s yticks 0 5 2;
#X obj 462 516 metro 100;
#X obj 704 166 switch~ 4096 2;
#X obj 463 711 clip 0 100;
#X obj 773 101 loadbang;
#X msg 773 123 1;
#X connect 0 0 8 0;
#X connect 1 0 3 0;
#X connect 2 0 3 1;
#X connect 3 0 4 0;
#X connect 4 0 9 0;
#X connect 7 0 9 1;
#X connect 8 0 19 0;
#X connect 9 0 12 0;
#X connect 10 0 11 1;
#X connect 11 0 53 0;
#X connect 12 0 11 0;
#X connect 13 0 14 0;
#X connect 14 0 10 1;
#X connect 15 0 13 0;
#X connect 15 0 12 1;
#X connect 16 0 15 0;
#X connect 17 0 16 0;
#X connect 18 0 57 0;
#X connect 19 0 1 0;
#X connect 19 0 1 1;
#X connect 19 1 2 0;
#X connect 19 1 2 1;
#X connect 20 0 24 0;
#X connect 21 0 22 0;
#X connect 22 0 26 0;
#X connect 23 0 20 0;
#X connect 24 0 21 0;
#X connect 24 1 25 0;
#X connect 25 0 66 1;
#X connect 26 0 27 0;
#X connect 27 0 54 0;
#X connect 28 0 29 0;
#X connect 29 0 30 0;
#X connect 30 0 31 0;
#X connect 33 0 34 0;
#X connect 34 0 35 0;
#X connect 37 0 33 0;
#X connect 38 0 28 0;
#X connect 38 1 37 0;
#X connect 39 0 69 0;
#X connect 40 0 41 0;
#X connect 41 0 39 0;
#X connect 42 0 38 0;
#X connect 43 0 55 0;
#X connect 44 0 70 0;
#X connect 46 0 8 1;
#X connect 52 0 10 0;
#X connect 54 0 71 0;
#X connect 55 0 67 0;
#X connect 55 0 68 0;
#X connect 57 0 17 0;
#X connect 58 0 17 0;
#X connect 59 0 58 0;
#X connect 60 0 59 0;
#X connect 65 0 55 0;
#X connect 69 0 23 0;
#X connect 71 0 66 0;
#X connect 72 0 73 0;
#X connect 73 0 70 0;
#X restore 17 320 pd FFT_Analyse;
#X obj 63 299 inlet;
#X obj 16 299 inlet~;
#X obj 110 299 inlet;
#N canvas 0 22 450 300 (subpatch) 0;
#X array \$0-s 268 float 0;
#X coords 0 100 267 0 267 140 1;
#X restore 23 27 graph;
#X obj 297 42 cnv 15 1 1 empty empty -10 0 0 0 10 -262144 -1 0;
#X obj 297 154 cnv 15 1 1 empty empty -90 0 0 0 10 -262144 -1 0;
#X obj 297 98 cnv 15 1 1 empty empty -50 0 0 0 10 -262144 -1 0;
#X obj 297 70 cnv 15 1 1 empty empty -30 0 0 0 10 -262144 -1 0;
#X obj 297 126 cnv 15 1 1 empty empty -70 0 0 0 10 -262144 -1 0;
#X obj 18 171 cnv 15 1 1 empty empty 10 0 5 0 10 -262144 -1 0;
#X obj 66 171 cnv 15 1 1 empty empty 40 0 5 0 10 -262144 -1 0;
#X obj 115 171 cnv 15 1 1 empty empty 160 0 5 0 10 -262144 -1 0;
#X obj 162 171 cnv 15 1 1 empty empty 640 0 5 0 10 -262144 -1 0;
#X obj 210 171 cnv 15 1 1 empty empty 2k56 0 5 0 10 -262144 -1 0;
#X obj 258 171 cnv 15 1 1 empty empty 10k2 0 5 0 10 -262144 -1 0;
#X obj 138 184 cnv 15 1 1 empty empty 320 0 5 0 10 -262144 -1 0;
#X obj 282 184 cnv 15 1 1 empty empty 20k5 0 5 0 10 -262144 -1 0;
#X obj 42 181 cnv 15 1 1 empty empty 20 0 9 0 10 -262144 -1 0;
#X obj 90 184 cnv 15 1 1 empty empty 80 0 5 0 10 -262144 -1 0;
#X obj 186 184 cnv 15 1 1 empty empty 1k28 0 5 0 10 -262144 -1 0;
#X obj 234 184 cnv 15 1 1 empty empty 5k12 0 5 0 10 -262144 -1 0;
#X obj 46 168 cnv 15 1 1 empty empty | 0 7 0 10 -262144 -1 0;
#X obj 94 168 cnv 15 1 1 empty empty | 0 7 0 10 -262144 -1 0;
#X obj 142 168 cnv 15 1 1 empty empty | 0 7 0 10 -262144 -1 0;
#X obj 190 168 cnv 15 1 1 empty empty | 0 7 0 10 -262144 -1 0;
#X obj 238 168 cnv 15 1 1 empty empty | 0 7 0 10 -262144 -1 0;
#X obj 286 168 cnv 15 1 1 empty empty | 0 7 0 10 -262144 -1 0;
#X connect 1 0 0 1;
#X connect 2 0 0 0;
#X connect 3 0 0 2;
#X coords 0 -1 1 1 330 210 1 0 0;
#X restore 780 556 pd spectrolog;
#X obj 738 531 dac~;
#X obj 414 604 cnv 15 314 160 empty empty Recevie_OSC_From_Python 120
12 0 14 -262130 -4160 0;
#X obj 439 686 oscparse;
#X obj 439 715 list trim;
#X obj 439 661 netreceive -u -b 5000;
#X msg 438 639 listen 1123;
#X msg 530 640 listen 0;
#X obj 438 615 loadbang;
#X obj 439 742 s osc_received_from_python;
#N canvas 203 153 1052 634 osc_decode 0;
#X floatatom 556 252 5 0 0 0 - - -;
#X floatatom 639 405 5 0 0 0 - - -;
#X floatatom 710 405 5 0 0 0 - - -;
#X text 509 262 pitch;
#X text 746 405 dur;
#X text 676 405 vel;
#X obj 571 438 makenote;
#X obj 571 461 pack f f;
#X floatatom 795 301 5 0 0 0 - - -;
#X floatatom 863 301 5 0 0 0 - - -;
#X floatatom 934 301 5 0 0 0 - - -;
#X text 749 299 pitch;
#X text 971 301 dur;
#X text 900 301 vel;
#X obj 796 323 makenote;
#X obj 796 346 pack f f;
#X obj 554 222 route pitch velocity_duration;
#X obj 656 373 unpack f f;
#X obj 554 193 route gamelan drum, f 69;
#X obj 795 221 route pitch velocity_duration;
#X obj 892 255 unpack f f;
#X obj 554 164 inlet;
#X text 632 165 osc_received_from_python;
#X obj 575 545 outlet;
#X text 581 571 gamelan note;
#X obj 801 422 outlet;
#X text 807 448 drum note;
#N canvas 0 23 1680 951 quantize 0;
#N canvas 199 119 1404 855 quantizer 0;
#X text 68 25 Note;
#X obj 539 52 inlet;
#X text 536 26 packed scale pitchs;
#X obj 539 156 tgl 15 0 empty empty empty 17 7 0 10 -262144 -1 -1 1
1;
#X obj 582 140 tgl 15 0 empty empty empty 17 7 0 10 -66577 -262144
-1 0 1;
#X obj 626 160 tgl 15 0 empty empty empty 17 7 0 10 -262144 -1 -1 0
1;
#X obj 714 160 tgl 15 0 empty empty empty 17 7 0 10 -262144 -1 -1 0
1;
#X obj 758 160 tgl 15 0 empty empty empty 17 7 0 10 -262144 -1 -1 0
1;
#X obj 844 160 tgl 15 0 empty empty empty 17 7 0 10 -262144 -1 -1 0
1;
#X obj 931 160 tgl 15 0 empty empty empty 17 7 0 10 -262144 -1 -1 1
1;
#X obj 1019 160 tgl 15 0 empty empty empty 17 7 0 10 -262144 -1 -1
0 1;
#X obj 670 141 tgl 15 0 empty empty empty 17 7 0 10 -66577 -262144
-1 0 1;
#X obj 801 143 tgl 15 0 empty empty empty 17 7 0 10 -66577 -262144
-1 0 1;
#X obj 888 142 tgl 15 0 empty empty empty 17 7 0 10 -66577 -262144
-1 1 1;
#X obj 976 142 tgl 15 0 empty empty empty 17 7 0 10 -66577 -262144
-1 0 1;
#X obj 539 88 unpack f f f f f f f f f f f f, f 69;
#X obj 539 182 sel 0, f 2;
#X msg 540 254 0;
#X floatatom 540 281 5 0 0 0 - - -;
#X msg 540 231 100;
#X obj 582 184 sel 0, f 2;
#X floatatom 583 283 5 0 0 0 - - -;
#X msg 583 233 100;
#X obj 627 183 sel 0, f 2;
#X floatatom 628 282 5 0 0 0 - - -;
#X msg 628 232 100;
#X obj 668 184 sel 0, f 2;
#X floatatom 669 283 5 0 0 0 - - -;
#X msg 669 233 100;
#X obj 713 184 sel 0, f 2;
#X floatatom 714 283 5 0 0 0 - - -;
#X msg 714 233 100;
#X obj 754 185 sel 0, f 2;
#X floatatom 755 284 5 0 0 0 - - -;
#X msg 755 234 100;
#X obj 803 182 sel 0, f 2;
#X floatatom 803 282 5 0 0 0 - - -;
#X msg 804 231 100;
#X obj 844 183 sel 0, f 2;
#X floatatom 845 282 5 0 0 0 - - -;
#X msg 845 232 100;
#X obj 890 182 sel 0, f 2;
#X floatatom 891 281 5 0 0 0 - - -;
#X msg 891 231 100;
#X obj 931 183 sel 0, f 2;
#X floatatom 932 282 5 0 0 0 - - -;
#X msg 932 232 100;
#X obj 976 183 sel 0, f 2;
#X floatatom 977 282 5 0 0 0 - - -;
#X msg 977 232 100;
#X obj 1017 184 sel 0, f 2;
#X floatatom 1020 283 5 0 0 0 - - -;
#X msg 1018 233 100;
#X obj 111 362 / 12;
#X floatatom 111 389 5 0 0 0 - - -;
#X obj 111 413 t b f;
#X floatatom 117 474 5 0 0 0 - - -;
#X obj 117 503 * 12;
#X floatatom 117 530 5 0 0 0 - - -;
#X obj 102 1005 outlet;
#X obj 118 927 +;
#X obj 69 116 % 12;
#X obj 69 49 inlet;
#X msg 583 256 1;
#X msg 628 255 2;
#X msg 669 256 3;
#X msg 714 256 4;
#X msg 755 257 5;
#X msg 804 254 6;
#X msg 845 255 7;
#X msg 891 254 8;
#X msg 932 255 9;
#X msg 977 255 10;
#X msg 1018 256 11;
#X floatatom 102 166 5 0 0 0 - - -;
#X obj 540 310 t b f, f 3;
#X obj 149 206 s midiNum;
#X obj 543 379 r midiNum, f 2;
#X obj 541 472 -;
#X floatatom 541 497 5 0 0 0 - - -;
#X obj 583 311 t b f, f 3;
#X obj 587 376 r midiNum, f 2;
#X obj 585 469 -;
#X floatatom 585 497 5 0 0 0 - - -;
#X obj 628 311 t b f, f 3;
#X obj 631 380 r midiNum, f 2;
#X obj 629 473 -;
#X floatatom 629 498 5 0 0 0 - - -;
#X obj 671 312 t b f, f 3;
#X obj 675 377 r midiNum, f 2;
#X obj 673 470 -;
#X floatatom 673 498 5 0 0 0 - - -;
#X obj 714 312 t b f, f 3;
#X obj 717 381 r midiNum, f 2;
#X obj 715 474 -;
#X floatatom 715 499 5 0 0 0 - - -;
#X obj 757 313 t b f, f 3;
#X obj 761 378 r midiNum, f 2;
#X obj 759 471 -;
#X floatatom 759 499 5 0 0 0 - - -;
#X obj 802 313 t b f, f 3;
#X obj 805 382 r midiNum, f 2;
#X obj 803 475 -;
#X floatatom 805 501 5 0 0 0 - - -;
#X obj 845 314 t b f, f 3;
#X obj 849 379 r midiNum, f 2;
#X obj 847 472 -;
#X floatatom 847 500 5 0 0 0 - - -;
#X obj 893 313 t b f, f 3;
#X obj 896 382 r midiNum, f 2;
#X obj 894 475 -;
#X floatatom 894 500 5 0 0 0 - - -;
#X obj 936 314 t b f, f 3;
#X obj 940 379 r midiNum, f 2;
#X obj 938 472 -;
#X floatatom 938 500 5 0 0 0 - - -;
#X obj 981 314 t b f, f 3;
#X obj 984 383 r midiNum, f 2;
#X obj 982 476 -;
#X floatatom 982 501 5 0 0 0 - - -;
#X obj 1024 315 t b f, f 3;
#X obj 1028 380 r midiNum, f 2;
#X obj 1026 473 -;
#X floatatom 1026 501 5 0 0 0 - - -;
#X obj 541 525 abs;
#X obj 585 526 abs;
#X obj 629 526 abs;
#X obj 673 527 abs;
#X obj 717 527 abs;
#X obj 761 528 abs;
#X obj 806 527 abs;
#X obj 850 528 abs;
#X obj 894 528 abs;
#X obj 938 529 abs;
#X obj 982 529 abs;
#X obj 1026 530 abs;
#X floatatom 542 555 5 0 0 0 - - -;
#X floatatom 586 553 5 0 0 0 - - -;
#X floatatom 629 556 5 0 0 0 - - -;
#X floatatom 673 556 5 0 0 0 - - -;
#X floatatom 715 557 5 0 0 0 - - -;
#X floatatom 759 557 5 0 0 0 - - -;
#X floatatom 805 559 5 0 0 0 - - -;
#X floatatom 847 558 5 0 0 0 - - -;
#X floatatom 894 558 5 0 0 0 - - -;
#X floatatom 938 558 5 0 0 0 - - -;
#X floatatom 982 559 5 0 0 0 - - -;
#X floatatom 1026 559 5 0 0 0 - - -;
#X obj 586 637 t b f;
#X obj 630 638 t b f;
#X obj 674 638 t b f;
#X obj 718 639 t b f;
#X obj 763 639 t b f;
#X obj 807 640 t b f;
#X obj 851 640 t b f;
#X obj 895 641 t b f;
#X obj 940 641 t b f;
#X obj 984 641 t b f;
#X obj 1029 641 t b f;
#X obj 586 670 min, f 5;
#X obj 630 689 min, f 5;
#X obj 674 708 min, f 5;
#X obj 718 727 min, f 5;
#X obj 764 666 min, f 5;
#X obj 808 685 min, f 5;
#X obj 852 704 min, f 5;
#X obj 896 723 min, f 5;
#X obj 942 670 min, f 5;
#X obj 986 689 min, f 5;
#X obj 1030 708 min, f 5;
#X floatatom 1030 733 5 0 0 0 - - -;
#X obj 1030 757 s minDistance;
#X msg 543 947 0;
#X msg 586 947 1;
#X msg 624 946 2;
#X floatatom 573 984 5 0 0 0 - - -;
#X msg 663 946 3;
#X msg 706 946 4;
#X msg 744 946 5;
#X msg 786 946 6;
#X msg 829 946 7;
#X msg 867 945 8;
#X msg 906 945 9;
#X msg 949 945 10;
#X msg 987 944 11;
#X obj 546 802 t b b b b b b b b b b b b f, f 66;
#X obj 542 862 ==;
#X obj 585 863 ==;
#X obj 624 865 ==;
#X obj 662 861 ==;
#X obj 705 861 ==;
#X obj 743 860 ==;
#X obj 785 861 ==;
#X obj 828 861 ==;
#X obj 866 860 ==;
#X obj 905 860 ==;
#X obj 948 860 ==;
#X obj 986 859 ==;
#X obj 545 901 sel 1;
#X obj 585 915 sel 1;
#X obj 626 898 sel 1;
#X obj 663 921 sel 1;
#X obj 704 904 sel 1;
#X obj 747 916 sel 1;
#X obj 788 899 sel 1;
#X obj 825 922 sel 1;
#X obj 866 905 sel 1;
#X obj 906 919 sel 1;
#X obj 947 902 sel 1;
#X obj 990 915 sel 1;
#X floatatom 198 967 5 0 0 0 - - -;
#X obj 150 690 t b f;
#X obj 577 1015 outlet;
#X text 76 1030 Quantized Note;
#X text 631 1015 Pitch Class;
#X obj 14 830 inlet;
#X text 21 810 sync;
#X obj 68 969 f;
#X obj 117 444 i;
#X connect 1 0 15 0;
#X connect 3 0 16 0;
#X connect 4 0 20 0;
#X connect 5 0 23 0;
#X connect 6 0 29 0;
#X connect 7 0 32 0;
#X connect 8 0 38 0;
#X connect 9 0 44 0;
#X connect 10 0 50 0;
#X connect 11 0 26 0;
#X connect 12 0 35 0;
#X connect 13 0 41 0;
#X connect 14 0 47 0;
#X connect 15 0 3 0;
#X connect 15 1 4 0;
#X connect 15 2 5 0;
#X connect 15 3 11 0;
#X connect 15 4 6 0;
#X connect 15 5 7 0;
#X connect 15 6 12 0;
#X connect 15 7 8 0;
#X connect 15 8 13 0;
#X connect 15 9 9 0;
#X connect 15 10 14 0;
#X connect 15 11 10 0;
#X connect 16 0 19 0;
#X connect 16 1 17 0;
#X connect 17 0 18 0;
#X connect 18 0 75 0;
#X connect 19 0 18 0;
#X connect 20 0 22 0;
#X connect 20 1 63 0;
#X connect 21 0 80 0;
#X connect 22 0 21 0;
#X connect 23 0 25 0;
#X connect 23 1 64 0;
#X connect 24 0 84 0;
#X connect 25 0 24 0;
#X connect 26 0 28 0;
#X connect 26 1 65 0;
#X connect 27 0 88 0;
#X connect 28 0 27 0;
#X connect 29 0 31 0;
#X connect 29 1 66 0;
#X connect 30 0 92 0;
#X connect 31 0 30 0;
#X connect 32 0 34 0;
#X connect 32 1 67 0;
#X connect 33 0 96 0;
#X connect 34 0 33 0;
#X connect 35 0 37 0;
#X connect 35 1 68 0;
#X connect 36 0 100 0;
#X connect 37 0 36 0;
#X connect 38 0 40 0;
#X connect 38 1 69 0;
#X connect 39 0 104 0;
#X connect 40 0 39 0;
#X connect 41 0 43 0;
#X connect 41 1 70 0;
#X connect 42 0 108 0;
#X connect 43 0 42 0;
#X connect 44 0 46 0;
#X connect 44 1 71 0;
#X connect 45 0 112 0;
#X connect 46 0 45 0;
#X connect 47 0 49 0;
#X connect 47 1 72 0;
#X connect 48 0 116 0;
#X connect 49 0 48 0;
#X connect 50 0 52 0;
#X connect 50 1 73 0;
#X connect 51 0 120 0;
#X connect 52 0 51 0;
#X connect 53 0 54 0;
#X connect 54 0 55 0;
#X connect 55 0 218 0;
#X connect 55 1 218 1;
#X connect 56 0 57 0;
#X connect 57 0 58 0;
#X connect 58 0 211 0;
#X connect 60 0 210 0;
#X connect 60 0 217 1;
#X connect 61 0 74 0;
#X connect 62 0 61 0;
#X connect 62 0 53 0;
#X connect 63 0 21 0;
#X connect 64 0 24 0;
#X connect 65 0 27 0;
#X connect 66 0 30 0;
#X connect 67 0 33 0;
#X connect 68 0 36 0;
#X connect 69 0 39 0;
#X connect 70 0 42 0;
#X connect 71 0 45 0;
#X connect 72 0 48 0;
#X connect 73 0 51 0;
#X connect 74 0 76 0;
#X connect 75 0 78 0;
#X connect 75 1 78 1;
#X connect 77 0 78 0;
#X connect 78 0 79 0;
#X connect 79 0 124 0;
#X connect 80 0 82 0;
#X connect 80 1 82 1;
#X connect 81 0 82 0;
#X connect 82 0 83 0;
#X connect 83 0 125 0;
#X connect 84 0 86 0;
#X connect 84 1 86 1;
#X connect 85 0 86 0;
#X connect 86 0 87 0;
#X connect 87 0 126 0;
#X connect 88 0 90 0;
#X connect 88 1 90 1;
#X connect 89 0 90 0;
#X connect 90 0 91 0;
#X connect 91 0 127 0;
#X connect 92 0 94 0;
#X connect 92 1 94 1;
#X connect 93 0 94 0;
#X connect 94 0 95 0;
#X connect 95 0 128 0;
#X connect 96 0 98 0;
#X connect 96 1 98 1;
#X connect 97 0 98 0;
#X connect 98 0 99 0;
#X connect 99 0 129 0;
#X connect 100 0 102 0;
#X connect 100 1 102 1;
#X connect 101 0 102 0;
#X connect 102 0 103 0;
#X connect 103 0 130 0;
#X connect 104 0 106 0;
#X connect 104 1 106 1;
#X connect 105 0 106 0;
#X connect 106 0 107 0;
#X connect 107 0 131 0;
#X connect 108 0 110 0;
#X connect 108 1 110 1;
#X connect 109 0 110 0;
#X connect 110 0 111 0;
#X connect 111 0 132 0;
#X connect 112 0 114 0;
#X connect 112 1 114 1;
#X connect 113 0 114 0;
#X connect 114 0 115 0;
#X connect 115 0 133 0;
#X connect 116 0 118 0;
#X connect 116 1 118 1;
#X connect 117 0 118 0;
#X connect 118 0 119 0;
#X connect 119 0 134 0;
#X connect 120 0 122 0;
#X connect 120 1 122 1;
#X connect 121 0 122 0;
#X connect 122 0 123 0;
#X connect 123 0 135 0;
#X connect 124 0 136 0;
#X connect 125 0 137 0;
#X connect 126 0 138 0;
#X connect 127 0 139 0;
#X connect 128 0 140 0;
#X connect 129 0 141 0;
#X connect 130 0 142 0;
#X connect 131 0 143 0;
#X connect 132 0 144 0;
#X connect 133 0 145 0;
#X connect 134 0 146 0;
#X connect 135 0 147 0;
#X connect 136 0 159 0;
#X connect 136 0 186 0;
#X connect 137 0 148 0;
#X connect 137 0 187 0;
#X connect 138 0 149 0;
#X connect 138 0 188 0;
#X connect 139 0 150 0;
#X connect 139 0 189 0;
#X connect 140 0 151 0;
#X connect 140 0 190 0;
#X connect 141 0 152 0;
#X connect 141 0 191 0;
#X connect 142 0 153 0;
#X connect 142 0 192 0;
#X connect 143 0 154 0;
#X connect 143 0 193 0;
#X connect 144 0 155 0;
#X connect 144 0 194 0;
#X connect 145 0 156 0;
#X connect 145 0 195 0;
#X connect 146 0 157 0;
#X connect 146 0 196 0;
#X connect 147 0 158 0;
#X connect 147 0 197 0;
#X connect 148 0 159 0;
#X connect 148 1 159 1;
#X connect 149 0 160 0;
#X connect 149 1 160 1;
#X connect 150 0 161 0;
#X connect 150 1 161 1;
#X connect 151 0 162 0;
#X connect 151 1 162 1;
#X connect 152 0 163 0;
#X connect 152 1 163 1;
#X connect 153 0 164 0;
#X connect 153 1 164 1;
#X connect 154 0 165 0;
#X connect 154 1 165 1;
#X connect 155 0 166 0;
#X connect 155 1 166 1;
#X connect 156 0 167 0;
#X connect 156 1 167 1;
#X connect 157 0 168 0;
#X connect 157 1 168 1;
#X connect 158 0 169 0;
#X connect 158 1 169 1;
#X connect 159 0 160 0;
#X connect 160 0 161 0;
#X connect 161 0 162 0;
#X connect 162 0 163 0;
#X connect 163 0 164 0;
#X connect 164 0 165 0;
#X connect 165 0 166 0;
#X connect 166 0 167 0;
#X connect 167 0 168 0;
#X connect 168 0 169 0;
#X connect 169 0 170 0;
#X connect 170 0 171 0;
#X connect 170 0 185 0;
#X connect 172 0 175 0;
#X connect 173 0 175 0;
#X connect 174 0 175 0;
#X connect 175 0 60 0;
#X connect 175 0 212 0;
#X connect 176 0 175 0;
#X connect 177 0 175 0;
#X connect 178 0 175 0;
#X connect 179 0 175 0;
#X connect 180 0 175 0;
#X connect 181 0 175 0;
#X connect 182 0 175 0;
#X connect 183 0 175 0;
#X connect 184 0 175 0;
#X connect 185 1 187 0;
#X connect 185 2 188 0;
#X connect 185 3 189 0;
#X connect 185 4 190 0;
#X connect 185 5 191 0;
#X connect 185 6 192 0;
#X connect 185 7 193 0;
#X connect 185 8 194 0;
#X connect 185 9 195 0;
#X connect 185 10 196 0;
#X connect 185 11 197 0;
#X connect 185 12 186 1;
#X connect 185 12 187 1;
#X connect 185 12 188 1;
#X connect 185 12 189 1;
#X connect 185 12 190 1;
#X connect 185 12 191 1;
#X connect 185 12 192 1;
#X connect 185 12 193 1;
#X connect 185 12 194 1;
#X connect 185 12 195 1;
#X connect 185 12 196 1;
#X connect 185 12 197 1;
#X connect 186 0 198 0;
#X connect 187 0 199 0;
#X connect 188 0 200 0;
#X connect 189 0 201 0;
#X connect 190 0 202 0;
#X connect 191 0 203 0;
#X connect 192 0 204 0;
#X connect 193 0 205 0;
#X connect 194 0 206 0;
#X connect 195 0 207 0;
#X connect 196 0 208 0;
#X connect 197 0 209 0;
#X connect 198 0 172 0;
#X connect 199 0 173 0;
#X connect 200 0 174 0;
#X connect 201 0 176 0;
#X connect 202 0 177 0;
#X connect 203 0 178 0;
#X connect 204 0 179 0;
#X connect 205 0 180 0;
#X connect 206 0 181 0;
#X connect 207 0 182 0;
#X connect 208 0 183 0;
#X connect 209 0 184 0;
#X connect 211 0 60 0;
#X connect 211 1 60 1;
#X connect 215 0 217 0;
#X connect 217 0 59 0;
#X connect 218 0 56 0;
#X restore 473 240 pd quantizer;
#X obj 606 186 tgl 15 0 empty \$0-quantizer-C-s empty 17 7 0 10 -262144
-1 -1 1 1;
#X obj 620 165 tgl 15 0 empty \$0-quantizer-Csharp-s empty 17 7 0 10
-66577 -262144 -1 0 1;
#X obj 623 186 tgl 15 0 empty \$0-quantizer-D-s empty 17 7 0 10 -262144
-1 -1 0 1;
#X obj 640 186 tgl 15 0 empty \$0-quantizer-E-s empty 17 7 0 10 -262144
-1 -1 0 1;
#X obj 657 186 tgl 15 0 empty \$0-quantizer-F-s empty 17 7 0 10 -262144
-1 -1 0 1;
#X obj 674 186 tgl 15 0 empty \$0-quantizer-G-s empty 17 7 0 10 -262144
-1 -1 0 1;
#X obj 692 186 tgl 15 0 empty \$0-quantizer-A-s empty 17 7 0 10 -262144
-1 -1 1 1;
#X obj 710 186 tgl 15 0 empty \$0-quantizer-B-s empty 17 7 0 10 -262144
-1 -1 0 1;
#X obj 638 165 tgl 15 0 empty \$0-quantizer-Dsharp-s empty 17 7 0 10
-66577 -262144 -1 0 1;
#X obj 669 165 tgl 15 0 empty \$0-quantizer-Fsharp-s empty 17 7 0 10
-66577 -262144 -1 0 1;
#X obj 687 165 tgl 15 0 empty \$0-quantizer-Gsharp-s empty 17 7 0 10
-66577 -262144 -1 1 1;
#X obj 705 165 tgl 15 0 empty \$0-quantizer-Asharp-s empty 17 7 0 10
-66577 -262144 -1 0 1;
#N canvas 488 349 1099 502 packScale 0;
#X obj 85 67 inlet;
#X text 95 46 C;
#X text 149 48 C#;
#X text 199 48 D;
#X text 248 50 D#;
#X text 294 47 E;
#X text 347 46 F;
#X text 393 48 F#, f 3;
#X text 442 45 G;
#X text 486 47 G#, f 3;
#X text 541 44 A;
#X text 586 46 A#, f 3;
#X text 644 45 B;
#X obj 85 99 t b f;
#X obj 83 195 pack f f f f f f f f f f f f, f 96;
#X obj 143 68 inlet;
#X obj 143 100 t b f;
#X obj 189 69 inlet;
#X obj 189 101 t b f;
#X obj 240 69 inlet;
#X obj 240 101 t b f;
#X obj 284 69 inlet;
#X obj 284 101 t b f;
#X obj 342 70 inlet;
#X obj 342 102 t b f;
#X obj 388 71 inlet;
#X obj 388 103 t b f;
#X obj 439 71 inlet;
#X obj 439 103 t b f;
#X obj 484 71 inlet;
#X obj 484 103 t b f;
#X obj 534 71 inlet;
#X obj 534 103 t b f;
#X obj 580 72 inlet;
#X obj 580 104 t b f;
#X obj 631 72 inlet;
#X obj 631 104 t b f;
#X obj 96 270 outlet;
#X connect 0 0 13 0;
#X connect 13 0 14 0;
#X connect 13 1 14 0;
#X connect 14 0 37 0;
#X connect 15 0 16 0;
#X connect 16 0 14 0;
#X connect 16 1 14 1;
#X connect 17 0 18 0;
#X connect 18 0 14 0;
#X connect 18 1 14 2;
#X connect 19 0 20 0;
#X connect 20 0 14 0;
#X connect 20 1 14 3;
#X connect 21 0 22 0;
#X connect 22 0 14 0;
#X connect 22 1 14 4;
#X connect 23 0 24 0;
#X connect 24 0 14 0;
#X connect 24 1 14 5;
#X connect 25 0 26 0;
#X connect 26 0 14 0;
#X connect 26 1 14 6;
#X connect 27 0 28 0;
#X connect 28 0 14 0;
#X connect 28 1 14 7;
#X connect 29 0 30 0;
#X connect 30 0 14 0;
#X connect 30 1 14 8;
#X connect 31 0 32 0;
#X connect 32 0 14 0;
#X connect 32 1 14 9;
#X connect 33 0 34 0;
#X connect 34 0 14 0;
#X connect 34 1 14 10;
#X connect 35 0 36 0;
#X connect 36 0 14 0;
#X connect 36 1 14 11;
#X restore 554 215 pd packScale;
#X f 35;
#X floatatom 453 274 5 0 0 0 - - -;
#X floatatom 490 180 5 0 0 0 - - -;
#X obj 656 254 sel 0 1 2 3 4 5 6 7 8 9 10 11;
#X obj 657 313 s \$0-pitch0, f 1;
#X obj 656 292 bng 15 250 50 0 empty empty empty 17 7 0 10 -262144
-1 -1;
#X obj 673 292 bng 15 250 50 0 empty empty empty 17 7 0 10 -262144
-1 -1;
#X obj 690 292 bng 15 250 50 0 empty empty empty 17 7 0 10 -262144
-1 -1;
#X obj 707 292 bng 15 250 50 0 empty empty empty 17 7 0 10 -262144
-1 -1;
#X obj 724 292 bng 15 250 50 0 empty empty empty 17 7 0 10 -262144
-1 -1;
#X obj 741 292 bng 15 250 50 0 empty empty empty 17 7 0 10 -262144
-1 -1;
#X obj 758 292 bng 15 250 50 0 empty empty empty 17 7 0 10 -262144
-1 -1;
#X obj 775 292 bng 15 250 50 0 empty empty empty 17 7 0 10 -262144
-1 -1;
#X obj 792 292 bng 15 250 50 0 empty empty empty 17 7 0 10 -262144
-1 -1;
#X obj 809 292 bng 15 250 50 0 empty empty empty 17 7 0 10 -262144
-1 -1;
#X obj 826 292 bng 15 250 50 0 empty empty empty 17 7 0 10 -262144
-1 -1;
#X obj 843 292 bng 15 250 50 0 empty empty empty 17 7 0 10 -262144
-1 -1;
#X obj 674 313 s \$0-pitch1, f 1;
#X obj 691 313 s \$0-pitch2, f 1;
#X obj 708 313 s \$0-pitch3, f 1;
#X obj 725 313 s \$0-pitch4, f 1;
#X obj 742 313 s \$0-pitch5, f 1;
#X obj 759 313 s \$0-pitch6, f 1;
#X obj 776 313 s \$0-pitch7, f 1;
#X obj 793 313 s \$0-pitch8, f 1;
#X obj 810 313 s \$0-pitch9, f 1;
#X obj 827 313 s \$0-pitch10, f 1;
#X obj 844 313 s \$0-pitch11, f 1;
#X floatatom 542 324 5 0 0 0 - - -;
#X obj 592 298 i;
#X obj 478 206 t b b f;
#X obj 491 100 inlet;
#X text 539 98 input pitch;
#X obj 473 477 outlet;
#X text 543 478 quantized pitch;
#X obj 203 196 bng 15 250 50 0 empty \$0-pitch1 empty 17 7 0 10 -66577
-258113 -1;
#X obj 221 196 bng 15 250 50 0 empty \$0-pitch3 empty 17 7 0 10 -66577
-258113 -1;
#X obj 193 214 bng 15 250 50 0 empty \$0-pitch0 empty 17 7 0 10 -262144
-258113 -1;
#X obj 212 214 bng 15 250 50 0 empty \$0-pitch2 empty 17 7 0 10 -262144
-258113 -1;
#X obj 230 214 bng 15 250 50 0 empty \$0-pitch4 empty 17 7 0 10 -262144
-258113 -1;
#X obj 257 196 bng 15 250 50 0 empty \$0-pitch6 empty 17 7 0 10 -66577
-258113 -1;
#X obj 275 196 bng 15 250 50 0 empty \$0-pitch8 empty 17 7 0 10 -66577
-258113 -1;
#X obj 247 214 bng 15 250 50 0 empty \$0-pitch5 empty 17 7 0 10 -262144
-258113 -1;
#X obj 266 214 bng 15 250 50 0 empty \$0-pitch7 empty 17 7 0 10 -262144
-258113 -1;
#X obj 284 214 bng 15 250 50 0 empty \$0-pitch9 empty 17 7 0 10 -262144
-258113 -1;
#X text 196 230 C;
#X text 214 230 D;
#X text 232 231 E;
#X text 251 231 F;
#X text 268 231 G;
#X text 286 231 A;
#X text 306 232 B;
#X obj 301 214 bng 15 250 50 0 empty \$0-pitch11 empty 17 7 0 10 -262144
-258113 -1;
#X obj 292 196 bng 15 250 50 0 empty \$0-pitch10 empty 17 7 0 10 -66577
-258113 -1;
#X obj 194 147 tgl 15 0 \$0-quantizer-C-s \$0-quantizer-C-r empty 17
7 0 10 -262144 -1 -1 1 1;
#X obj 205 128 tgl 15 0 \$0-quantizer-Csharp-s \$0-quantizer-Csharp-r
empty 17 7 0 10 -66577 -262144 -1 0 1;
#X text 194 164 C;
#X text 212 164 D;
#X text 230 165 E;
#X text 249 165 F;
#X text 266 165 G;
#X text 284 165 A;
#X text 304 166 B;
#X text 222 106 QUANTIZER;
#X obj 211 147 tgl 15 0 \$0-quantizer-D-s \$0-quantizer-D-r empty 17
7 0 10 -262144 -1 -1 0 1;
#X obj 228 147 tgl 15 0 \$0-quantizer-E-s \$0-quantizer-E-r empty 17
7 0 10 -262144 -1 -1 0 1;
#X obj 245 147 tgl 15 0 \$0-quantizer-F-s \$0-quantizer-F-r empty 17
7 0 10 -262144 -1 -1 0 1;
#X obj 262 147 tgl 15 0 \$0-quantizer-G-s \$0-quantizer-G-r empty 17
7 0 10 -262144 -1 -1 0 1;
#X obj 280 147 tgl 15 0 \$0-quantizer-A-s \$0-quantizer-A-r empty 17
7 0 10 -262144 -1 -1 1 1;
#X obj 298 147 tgl 15 0 \$0-quantizer-B-s \$0-quantizer-B-r empty 17
7 0 10 -262144 -1 -1 0 1;
#X obj 223 128 tgl 15 0 \$0-quantizer-Dsharp-s \$0-quantizer-Dsharp-r
empty 17 7 0 10 -66577 -262144 -1 0 1;
#X obj 254 128 tgl 15 0 \$0-quantizer-Fsharp-s \$0-quantizer-Fsharp-r
empty 17 7 0 10 -66577 -262144 -1 0 1;
#X obj 272 128 tgl 15 0 \$0-quantizer-Gsharp-s \$0-quantizer-Gsharp-r
empty 17 7 0 10 -66577 -262144 -1 1 1;
#X obj 290 128 tgl 15 0 \$0-quantizer-Asharp-s \$0-quantizer-Asharp-r
empty 17 7 0 10 -66577 -262144 -1 0 1;
#X connect 0 0 14 0;
#X connect 0 1 41 0;
#X connect 0 1 42 1;
#X connect 1 0 13 0;
#X connect 2 0 13 1;
#X connect 3 0 13 2;
#X connect 4 0 13 4;
#X connect 5 0 13 5;
#X connect 6 0 13 7;
#X connect 7 0 13 9;
#X connect 8 0 13 11;
#X connect 9 0 13 3;
#X connect 10 0 13 6;
#X connect 11 0 13 8;
#X connect 12 0 13 10;
#X connect 13 0 0 2;
#X connect 14 0 46 0;
#X connect 15 0 43 0;
#X connect 16 0 18 0;
#X connect 16 1 19 0;
#X connect 16 2 20 0;
#X connect 16 3 21 0;
#X connect 16 4 22 0;
#X connect 16 5 23 0;
#X connect 16 6 24 0;
#X connect 16 7 25 0;
#X connect 16 8 26 0;
#X connect 16 9 27 0;
#X connect 16 10 28 0;
#X connect 16 11 29 0;
#X connect 18 0 17 0;
#X connect 19 0 30 0;
#X connect 20 0 31 0;
#X connect 21 0 32 0;
#X connect 22 0 33 0;
#X connect 23 0 34 0;
#X connect 24 0 35 0;
#X connect 25 0 36 0;
#X connect 26 0 37 0;
#X connect 27 0 38 0;
#X connect 28 0 39 0;
#X connect 29 0 40 0;
#X connect 42 0 16 0;
#X connect 43 0 42 0;
#X connect 43 1 0 0;
#X connect 43 2 0 1;
#X connect 44 0 15 0;
#X coords 0 -1 1 1 238 163 1 100 100;
#X restore 107 146 pd quantize;
#X obj 107 54 r pitch_unquantized;
#X obj 110 368 s pitch_quantized;
#X obj 512 326 s pitch_unquantized;
#X obj 511 355 r pitch_quantized;
#X connect 0 0 30 0;
#X connect 1 0 6 1;
#X connect 2 0 6 2;
#X connect 6 0 7 0;
#X connect 6 1 7 1;
#X connect 7 0 23 0;
#X connect 8 0 14 0;
#X connect 9 0 14 1;
#X connect 10 0 14 2;
#X connect 14 0 15 0;
#X connect 14 1 15 1;
#X connect 15 0 25 0;
#X connect 16 0 0 0;
#X connect 16 1 17 0;
#X connect 17 0 1 0;
#X connect 17 1 2 0;
#X connect 18 0 16 0;
#X connect 18 1 19 0;
#X connect 19 0 8 0;
#X connect 19 1 20 0;
#X connect 20 0 9 0;
#X connect 20 1 10 0;
#X connect 21 0 18 0;
#X connect 27 0 29 0;
#X connect 28 0 27 0;
#X connect 31 0 6 0;
#X coords 0 -1 1 1 250 250 1 100 100;
#X restore 462 217 pd osc_decode;
#X f 26;
#X obj 462 195 r osc_received_from_python;
#X obj 780 493 catch~ generate_sound;
#N canvas 0 45 1440 761 drum_synth 0;
#X obj 142 433 hsl 128 15 70 500 1 1 empty empty FREQUENCY -2 -8 0
10 -262144 -1 -1 1200 1;
#X obj 160 503 hsl 128 15 0 1 0 1 empty empty DAMPING -2 -8 0 10 -262144
-1 -1 7300 1;
#X obj 169 538 hsl 128 15 -1 1 0 1 empty empty APF-GAIN -2 -8 0 10
-262144 -1 -1 12700 1;
#X obj 178 573 hsl 128 15 70 500 1 1 empty empty APF-FREQUENCY -2 -8
0 10 -262144 -1 -1 12700 1;
#X obj 151 468 hsl 128 15 0.5 1 1 1 empty empty FEEDBACK -2 -8 0 10
-262144 -1 -1 12700 1;
#X obj 193 633 tgl 15 1 empty empty RESET 17 7 0 10 -262144 -1 -1 1
1;
#X obj 187 608 hsl 128 15 0.001 1 1 1 empty empty NOISE-LEVEL -2 -8
0 10 -262144 -1 -1 5300 1;
#N canvas 4 23 162 227 hv.tanh 0;
#X obj 12 12 inlet~;
#X obj 12 38 clip~ -3 3;
#X obj 27 64 *~;
#X obj 12 192 outlet~;
#X obj 27 140 /~;
#X obj 12 166 *~;
#X obj 67 90 *~ 9;
#X obj 27 90 +~ 27;
#X obj 67 116 +~ 27;
#X connect 0 0 1 0;
#X connect 1 0 2 0;
#X connect 1 0 2 1;
#X connect 1 0 5 0;
#X connect 2 0 7 0;
#X connect 2 0 6 0;
#X connect 4 0 5 1;
#X connect 5 0 3 0;
#X connect 6 0 8 0;
#X connect 7 0 4 0;
#X connect 8 0 4 1;
#X restore 130 767 pd hv.tanh;
#X floatatom 272 433 5 0 0 1 Hz - -;
#X floatatom 290 503 5 0 0 0 - - -;
#X floatatom 308 573 5 0 0 1 Hz - -;
#X floatatom 281 468 5 0 0 1 - - -;
#X floatatom 299 538 5 0 0 0 - - -;
#X floatatom 317 608 5 0 0 0 - - -;
#X obj 130 654 mymembrane~;
#X obj 130 164 pack f f;
#X obj 130 377 bng 15 250 50 0 empty empty empty 17 7 0 10 -262144
-1 -1;
#X obj 175 248 vsl 15 127 1 127 0 1 empty empty VELOCITY 0 -9 0 10
-262144 -1 -1 1800 1;
#X obj 130 397 i;
#X floatatom 175 384 5 0 0 0 - - -;
#X obj 130 232 t b f;
#X obj 130 206 sel 0;
#N canvas 0 22 450 278 (subpatch) 0;
#X array \$0-mem1 1764 float 0;
#X coords 0 0.7 1763 -0.7 101 101 1 0 0;
#X restore 233 261 graph;
#X obj 130 701 tabwrite~ \$0-mem1;
#X obj 130 675 throw~ \$0-M;
#X obj 130 726 catch~ \$0-M;
#X obj 442 433 hsl 128 15 70 500 1 1 empty empty FREQUENCY -2 -8 0
10 -262144 -1 -1 8100 1;
#X obj 460 503 hsl 128 15 0 1 0 1 empty empty DAMPING -2 -8 0 10 -262144
-1 -1 11400 1;
#X obj 469 538 hsl 128 15 -1 1 0 1 empty empty APF-GAIN -2 -8 0 10
-262144 -1 -1 8300 1;
#X obj 478 573 hsl 128 15 70 500 1 1 empty empty APF-FREQUENCY -2 -8
0 10 -262144 -1 -1 2900 1;
#X obj 451 468 hsl 128 15 0.5 1 1 1 empty empty FEEDBACK -2 -8 0 10
-262144 -1 -1 10100 1;
#X obj 493 633 tgl 15 1 empty empty RESET 17 7 0 10 -262144 -1 -1 1
1;
#X obj 487 608 hsl 128 15 0.001 1 1 1 empty empty NOISE-LEVEL -2 -8
0 10 -262144 -1 -1 8700 1;
#X floatatom 572 433 5 0 0 1 Hz - -;
#X floatatom 590 503 5 0 0 0 - - -;
#X floatatom 608 573 5 0 0 1 Hz - -;
#X floatatom 581 468 5 0 0 1 - - -;
#X floatatom 599 538 5 0 0 0 - - -;
#X floatatom 617 608 5 0 0 0 - - -;
#X obj 430 654 mymembrane~;
#X obj 430 164 pack f f;
#X obj 430 377 bng 15 250 50 0 empty empty empty 17 7 0 10 -262144
-1 -1;
#X obj 475 248 vsl 15 127 1 127 0 1 empty empty VELOCITY 0 -9 0 10
-262144 -1 -1 1600 1;
#X obj 430 397 i;
#X floatatom 475 384 5 0 0 0 - - -;
#X obj 430 232 t b f;
#X obj 430 206 sel 0;
#N canvas 0 22 450 278 (subpatch) 0;
#X array \$0-mem2 1764 float 0;
#X coords 0 0.7 1763 -0.7 101 101 1 0 0;
#X restore 533 261 graph;
#X obj 430 675 throw~ \$0-M;
#X obj 430 696 tabwrite~ \$0-mem2;
#X obj 742 433 hsl 128 15 70 500 1 1 empty empty FREQUENCY -2 -8 0
10 -262144 -1 -1 2800 1;
#X obj 760 503 hsl 128 15 0 1 0 1 empty empty DAMPING -2 -8 0 10 -262144
-1 -1 10300 1;
#X obj 769 538 hsl 128 15 -1 1 0 1 empty empty APF-GAIN -2 -8 0 10
-262144 -1 -1 11300 1;
#X obj 778 573 hsl 128 15 70 500 1 1 empty empty APF-FREQUENCY -2 -8
0 10 -262144 -1 -1 2500 1;
#X obj 751 468 hsl 128 15 0.5 1 1 1 empty empty FEEDBACK -2 -8 0 10
-262144 -1 -1 11200 1;
#X obj 793 633 tgl 15 1 empty empty RESET 17 7 0 10 -262144 -1 -1 1
1;
#X obj 787 608 hsl 128 15 0.001 1 1 1 empty empty NOISE-LEVEL -2 -8
0 10 -262144 -1 -1 900 1;
#X floatatom 872 433 5 0 0 1 Hz - -;
#X floatatom 890 503 5 0 0 0 - - -;
#X floatatom 908 573 5 0 0 1 Hz - -;
#X floatatom 881 468 5 0 0 1 - - -;
#X floatatom 899 538 5 0 0 0 - - -;
#X floatatom 917 608 5 0 0 0 - - -;
#X obj 730 654 mymembrane~;
#X obj 730 164 pack f f;
#X obj 730 377 bng 15 250 50 0 empty empty empty 17 7 0 10 -262144
-1 -1;
#X obj 775 248 vsl 15 127 1 127 0 1 empty empty VELOCITY 0 -9 0 10
-262144 -1 -1 4800 1;
#X obj 730 397 i;
#X floatatom 775 384 5 0 0 0 - - -;
#X obj 730 232 t b f;
#X obj 730 206 sel 0;
#N canvas 0 22 450 278 (subpatch) 0;
#X array \$0-mem3 1764 float 0;
#X coords 0 0.7 1763 -0.7 101 101 1 0 0;
#X restore 833 261 graph;
#X obj 730 675 throw~ \$0-M;
#X obj 1042 433 hsl 128 15 70 500 1 1 empty empty FREQUENCY -2 -8 0
10 -262144 -1 -1 5800 1;
#X obj 1060 503 hsl 128 15 0 1 0 1 empty empty DAMPING -2 -8 0 10 -262144
-1 -1 9500 1;
#X obj 1069 538 hsl 128 15 -1 1 0 1 empty empty APF-GAIN -2 -8 0 10
-262144 -1 -1 8700 1;
#X obj 1078 573 hsl 128 15 70 500 1 1 empty empty APF-FREQUENCY -2
-8 0 10 -262144 -1 -1 9600 1;
#X obj 1051 468 hsl 128 15 0.5 1 1 1 empty empty FEEDBACK -2 -8 0 10
-262144 -1 -1 12400 1;
#X obj 1093 633 tgl 15 1 empty empty RESET 17 7 0 10 -262144 -1 -1
1 1;
#X obj 1087 608 hsl 128 15 0.001 1 1 1 empty empty NOISE-LEVEL -2 -8
0 10 -262144 -1 -1 0 1;
#X floatatom 1172 433 5 0 0 1 Hz - -;
#X floatatom 1190 503 5 0 0 0 - - -;
#X floatatom 1208 573 5 0 0 1 Hz - -;
#X floatatom 1181 468 5 0 0 1 - - -;
#X floatatom 1199 538 5 0 0 0 - - -;
#X floatatom 1217 608 5 0 0 0 - - -;
#X obj 1030 654 mymembrane~;
#X obj 1030 164 pack f f;
#X obj 1030 377 bng 15 250 50 0 empty empty empty 17 7 0 10 -262144
-1 -1;
#X obj 1075 248 vsl 15 127 1 127 0 1 empty empty VELOCITY 0 -9 0 10
-262144 -1 -1 4800 1;
#X obj 1030 397 i;
#X floatatom 1075 384 5 0 0 0 - - -;
#X obj 1030 232 t b f;
#X obj 1030 206 sel 0;
#N canvas 0 22 450 278 (subpatch) 0;
#X array \$0-mem4 1764 float 0;
#X coords 0 0.7 1763 -0.7 101 101 1 0 0;
#X restore 1133 261 graph;
#X obj 1030 675 throw~ \$0-M;
#X obj 730 701 tabwrite~ \$0-mem3;
#X obj 1030 696 tabwrite~ \$0-mem4;
#X obj 235 222 cnv 15 20 20 empty empty Kick 20 12 1 20 -261123 -1
0;
#X obj 535 222 cnv 15 20 20 empty empty Snare 20 12 1 20 -261123 -1
0;
#X obj 835 222 cnv 15 20 20 empty empty Tom-1 20 12 1 20 -261123 -1
0;
#X obj 1135 222 cnv 15 20 20 empty empty Tom-2 20 12 1 20 -261123 -1
0;
#X obj 130 746 *~ 2;
#X obj 130 185 route 36;
#X obj 430 185 route 38;
#X obj 730 185 route 47;
#X obj 1030 185 route 42;
#X obj 132 20 inlet;
#X text 192 21 drum note;
#X obj 132 91 s \$0-drumNote;
#X obj 130 143 r \$0-drumNote;
#X obj 430 143 r \$0-drumNote;
#X obj 730 143 r \$0-drumNote;
#X obj 1030 143 r \$0-drumNote;
#X obj 130 788 throw~ generate_sound;
#N canvas 1075 260 689 665 hihat 0;
#X obj 430 31 inlet;
#X obj 371 627 outlet~;
#X obj 386 113 loadbang;
#X obj 386 155 /;
#N canvas 1164 679 371 206 allpass100ms 0;
#X obj 12 31 inlet~;
#X obj 12 92 +~;
#X obj 27 70 *~;
#X obj 232 53 inlet;
#X obj 232 75 * -1;
#X obj 187 109 *~;
#X obj 172 131 +~;
#X obj 172 153 outlet~;
#X text 12 173 0 - 100 mSec allpass;
#X text 232 33 gain;
#X text 102 11 time;
#X text 12 11 sound;
#X obj 12 153 delwrite~ \$0-short-4 100;
#X obj 248 118 inlet;
#X msg 248 139 clear;
#X obj 102 31 inlet;
#X obj 102 53 delread~ \$0-short-4;
#X connect 0 0 1 0;
#X connect 1 0 5 0;
#X connect 1 0 12 0;
#X connect 2 0 1 1;
#X connect 3 0 2 1;
#X connect 3 0 4 0;
#X connect 4 0 5 1;
#X connect 5 0 6 1;
#X connect 6 0 7 0;
#X connect 13 0 14 0;
#X connect 14 0 12 0;
#X connect 15 0 16 0;
#X connect 16 0 2 0;
#X connect 16 0 6 0;
#X restore 371 304 pd allpass100ms;
#X obj 128 164 vline~;
#X obj 457 136 s \$0-hht-trg;
#X obj 128 59 r \$0-hht-trg;
#X obj 214 135 r \$0-hht-trg;
#X msg 214 156 seed 1234;
#X obj 214 178 noise~;
#X obj 128 206 *~;
#X obj 458 283 r \$0-hht-trg;
#X msg 471 545 clear;
#X obj 400 218 loadbang;
#X msg 400 261 1000 \$1;
#X obj 400 282 /;
#X obj 471 523 r \$0-hht-trg;
#N canvas 1164 679 371 206 allpass100ms 0;
#X obj 12 31 inlet~;
#X obj 12 92 +~;
#X obj 27 70 *~;
#X obj 232 53 inlet;
#X obj 232 75 * -1;
#X obj 187 109 *~;
#X obj 172 131 +~;
#X obj 172 153 outlet~;
#X text 12 173 0 - 100 mSec allpass;
#X text 232 33 gain;
#X text 102 11 time;
#X text 12 11 sound;
#X obj 248 118 inlet;
#X msg 248 139 clear;
#X obj 102 31 inlet;
#X obj 12 153 delwrite~ \$0-short-3 100;
#X obj 102 53 delread~ \$0-short-3;
#X connect 0 0 1 0;
#X connect 1 0 5 0;
#X connect 1 0 15 0;
#X connect 2 0 1 1;
#X connect 3 0 2 1;
#X connect 3 0 4 0;
#X connect 4 0 5 1;
#X connect 5 0 6 1;
#X connect 6 0 7 0;
#X connect 12 0 13 0;
#X connect 13 0 15 0;
#X connect 14 0 16 0;
#X connect 16 0 2 0;
#X connect 16 0 6 0;
#X restore 371 411 pd allpass100ms;
#X obj 400 325 loadbang;
#X msg 400 368 1000 \$1;
#X obj 400 389 /;
#N canvas 1164 679 371 206 allpass100ms 0;
#X obj 12 31 inlet~;
#X obj 12 92 +~;
#X obj 27 70 *~;
#X obj 232 53 inlet;
#X obj 232 75 * -1;
#X obj 187 109 *~;
#X obj 172 131 +~;
#X obj 172 153 outlet~;
#X text 12 173 0 - 100 mSec allpass;
#X text 232 33 gain;
#X text 102 11 time;
#X text 12 11 sound;
#X obj 248 118 inlet;
#X msg 248 139 clear;
#X obj 102 31 inlet;
#X obj 12 153 delwrite~ \$0-short-2 100;
#X obj 102 53 delread~ \$0-short-2;
#X connect 0 0 1 0;
#X connect 1 0 5 0;
#X connect 1 0 15 0;
#X connect 2 0 1 1;
#X connect 3 0 2 1;
#X connect 3 0 4 0;
#X connect 4 0 5 1;
#X connect 5 0 6 1;
#X connect 6 0 7 0;
#X connect 12 0 13 0;
#X connect 13 0 15 0;
#X connect 14 0 16 0;
#X connect 16 0 2 0;
#X connect 16 0 6 0;
#X restore 371 518 pd allpass100ms;
#X obj 400 432 loadbang;
#X msg 400 475 1000 \$1;
#X obj 400 496 /;
#X msg 386 134 1000 1142;
#X obj 12 144 vline~;
#X obj 12 206 *~;
#X msg 400 346 647;
#X obj 371 283 +~;
#X msg 400 453 806;
#X obj 457 94 t b f;
#X obj 484 115 s \$0-hht-vel;
#X obj 300 108 r \$0-hht-vel;
#X obj 12 269 *~;
#X obj 300 129 - 1;
#X obj 300 150 / 126;
#X msg 300 171 1 \$1;
#X obj 300 192 -;
#X obj 300 234 + 100;
#X obj 300 255 dbtorms;
#X obj 567 94 t b f;
#X obj 594 115 s \$0-hht-vel;
#X obj 567 136 s \$0-ohh-trg;
#X obj 386 197 *~ 0.5;
#X obj 498 162 r \$0-ohh-trg;
#X obj 12 80 r \$0-ohh-trg;
#X msg 429 453 -0.5;
#X msg 429 346 0.55;
#X msg 498 183 0.9;
#X msg 578 183 0.7;
#X msg 12 101 1 10 \, 0 2500 10;
#X obj 557 503 env~;
#X obj 557 524 change;
#X obj 557 545 sel 0;
#X msg 557 566 0;
#X msg 491 568 1;
#X obj 557 587 switch~ 1 1 1;
#X obj 578 162 r \$0-hht-trg;
#X obj 458 263 r \$0-ohh-trg;
#X obj 471 503 r \$0-ohh-trg;
#X msg 128 101 0.95 4 \, 0 50 4;
#X obj 386 176 delread~ \$0-hih-1;
#X obj 471 615 delwrite~ \$0-hih-1;
#X obj 128 185 pow~ 6;
#X msg 400 239 1531;
#X msg 71 159 clear;
#X msg 12 123 1 10 \, 0 150 10;
#X msg 224 72 2 \$1;
#X obj 224 93 pow;
#X msg 128 143 1 1 \, 0 \$2 1;
#X obj 128 80 pack f f;
#X obj 224 51 * 2;
#X obj 224 114 * 20;
#X msg 429 239 0.5;
#X obj 12 227 hip~ 11025;
#X obj 128 227 hip~ 8820;
#X obj 72 192 pow~ 60;
#X obj 13 248 hip~ 4410;
#X obj 371 559 lop~ 6500;
#X obj 371 580 hip~ 200;
#X obj 371 601 hip~ 100;
#X obj 300 213 * -18;
#X obj 430 52 clip 0 127;
#X obj 430 73 sel 0;
#X obj 540 31 inlet;
#X obj 540 52 clip 0 127;
#X obj 540 73 sel 0;
#X text 430 11 Closed Hihat;
#X text 540 11 Open Hihat;
#X obj 12 186 lop~ 10;
#X obj 12 165 pow~ 4;
#X connect 0 0 84 0;
#X connect 2 0 26 0;
#X connect 3 0 63 0;
#X connect 4 0 18 0;
#X connect 5 0 65 0;
#X connect 7 0 68 0;
#X connect 7 0 67 0;
#X connect 7 0 72 0;
#X connect 8 0 9 0;
#X connect 9 0 10 0;
#X connect 10 0 11 1;
#X connect 10 0 78 0;
#X connect 11 0 77 0;
#X connect 12 0 4 3;
#X connect 12 0 18 3;
#X connect 12 0 22 3;
#X connect 13 0 57 0;
#X connect 13 0 64 0;
#X connect 13 0 80 0;
#X connect 13 0 81 0;
#X connect 13 0 82 0;
#X connect 14 0 66 0;
#X connect 14 0 75 0;
#X connect 15 0 16 0;
#X connect 16 0 4 1;
#X connect 17 0 13 0;
#X connect 18 0 22 0;
#X connect 19 0 29 0;
#X connect 19 0 49 0;
#X connect 20 0 21 0;
#X connect 21 0 18 1;
#X connect 22 0 80 0;
#X connect 23 0 31 0;
#X connect 23 0 48 0;
#X connect 24 0 25 0;
#X connect 25 0 22 1;
#X connect 26 0 3 0;
#X connect 27 0 92 0;
#X connect 28 0 76 0;
#X connect 29 0 20 0;
#X connect 30 0 4 0;
#X connect 31 0 24 0;
#X connect 32 0 6 0;
#X connect 32 1 33 0;
#X connect 34 0 36 0;
#X connect 35 0 30 0;
#X connect 36 0 37 0;
#X connect 37 0 38 0;
#X connect 37 0 73 0;
#X connect 38 0 39 0;
#X connect 39 0 83 0;
#X connect 40 0 41 0;
#X connect 41 0 35 1;
#X connect 42 0 44 0;
#X connect 42 1 43 0;
#X connect 45 0 30 1;
#X connect 46 0 50 0;
#X connect 47 0 52 0;
#X connect 47 0 62 0;
#X connect 47 0 67 0;
#X connect 48 0 22 2;
#X connect 49 0 18 2;
#X connect 50 0 45 1;
#X connect 51 0 45 1;
#X connect 52 0 27 0;
#X connect 53 0 54 0;
#X connect 54 0 55 0;
#X connect 55 0 56 0;
#X connect 56 0 58 0;
#X connect 57 0 58 0;
#X connect 59 0 51 0;
#X connect 60 0 4 3;
#X connect 60 0 22 3;
#X connect 60 0 18 3;
#X connect 61 0 13 0;
#X connect 62 0 5 0;
#X connect 63 0 45 0;
#X connect 65 0 11 0;
#X connect 66 0 15 0;
#X connect 67 0 91 0;
#X connect 68 0 27 0;
#X connect 69 0 70 0;
#X connect 70 0 74 0;
#X connect 71 0 5 0;
#X connect 72 0 71 0;
#X connect 73 0 69 0;
#X connect 74 0 72 1;
#X connect 75 0 4 2;
#X connect 76 0 79 0;
#X connect 77 0 79 0;
#X connect 78 0 28 1;
#X connect 79 0 35 0;
#X connect 80 0 81 0;
#X connect 81 0 82 0;
#X connect 82 0 53 0;
#X connect 82 0 64 0;
#X connect 82 0 1 0;
#X connect 83 0 40 0;
#X connect 84 0 85 0;
#X connect 85 1 32 0;
#X connect 86 0 87 0;
#X connect 87 0 88 0;
#X connect 88 1 42 0;
#X connect 91 0 28 0;
#X connect 92 0 91 0;
#X restore 1287 592 pd hihat;
#X obj 1287 639 clip~ -1 1;
#X obj 1287 660 hip~ 3;
#X obj 1287 702 dac~ 1 2;
#X obj 1287 681 *~ 0.7;
#X obj 1287 618 *~ 0.7;
#X obj 1287 545 bng 16 250 50 0 empty empty CLOSED 0 -9 0 10 -257985
-1 -1;
#X obj 1332 545 bng 16 250 50 0 empty empty OPEN 0 -9 0 10 -261123
-1 -1;
#X obj 1287 566 i;
#X obj 1332 566 i;
#X obj 1370 417 vsl 16 127 1 127 0 1 empty empty CLOSED 0 -9 0 10 -257985
-1 -1 1600 1;
#X obj 1370 552 nbx 3 16 1 127 0 1 empty empty empty 0 -8 0 10 -257985
-1 -1 17 256;
#X obj 1420 417 vsl 16 127 1 127 0 1 empty empty OPEN 0 -9 0 10 -261123
-1 -1 807 1;
#X obj 1420 552 nbx 3 16 1 127 0 1 empty empty empty 0 -8 0 10 -261123
-1 -1 9.07143 256;
#X text 1376 624 Email: mianmogra94@gmail.com;
#X text 1376 639 GitHub: github.com/MikeMorenoAudio;
#X text 1376 664 Facebook: fb.com/MikeMorenoAudio;
#X text 1376 694 WordPress: mikemorenoaudio.wordpress.com;
#X text 1376 709 PatchStorage: patchstorage.com/author/mianmogra;
#X text 1376 609 Miguel Moreno 2019;
#X text 1376 589 [hihat~] version 1;
#X text 1376 679 Youtube: youtube.com/c/mikemorenoaudio;
#X obj 1294 163 pack f f;
#X obj 1294 231 t b f;
#X obj 1294 205 sel 0;
#X obj 1294 142 r \$0-drumNote;
#X obj 1406 165 pack f f;
#X obj 1406 233 t b f;
#X obj 1406 207 sel 0;
#X obj 1406 144 r \$0-drumNote;
#X obj 1294 184 route 64;
#X obj 1406 186 route 63;
#X obj 366 24 inlet;
#X text 431 20 enable;
#X obj 213 55 spigot;
#X text 1191 400 171.8;
#X text 905 404 107.9;
#X connect 0 0 8 0;
#X connect 0 0 14 1;
#X connect 1 0 9 0;
#X connect 1 0 14 3;
#X connect 2 0 12 0;
#X connect 2 0 14 4;
#X connect 3 0 10 0;
#X connect 3 0 14 5;
#X connect 4 0 11 0;
#X connect 4 0 14 2;
#X connect 5 0 14 7;
#X connect 6 0 13 0;
#X connect 6 0 14 6;
#X connect 7 0 114 0;
#X connect 14 0 23 0;
#X connect 14 0 24 0;
#X connect 15 0 103 0;
#X connect 16 0 18 0;
#X connect 16 0 23 0;
#X connect 17 0 19 0;
#X connect 18 0 14 0;
#X connect 19 0 18 1;
#X connect 20 0 16 0;
#X connect 20 1 17 0;
#X connect 21 1 20 0;
#X connect 25 0 102 0;
#X connect 26 0 33 0;
#X connect 26 0 39 1;
#X connect 27 0 34 0;
#X connect 27 0 39 3;
#X connect 28 0 37 0;
#X connect 28 0 39 4;
#X connect 29 0 35 0;
#X connect 29 0 39 5;
#X connect 30 0 36 0;
#X connect 30 0 39 2;
#X connect 31 0 39 7;
#X connect 32 0 38 0;
#X connect 32 0 39 6;
#X connect 39 0 48 0;
#X connect 39 0 49 0;
#X connect 40 0 104 0;
#X connect 41 0 43 0;
#X connect 41 0 49 0;
#X connect 42 0 44 0;
#X connect 43 0 39 0;
#X connect 44 0 43 1;
#X connect 45 0 41 0;
#X connect 45 1 42 0;
#X connect 46 1 45 0;
#X connect 50 0 57 0;
#X connect 50 0 63 1;
#X connect 51 0 58 0;
#X connect 51 0 63 3;
#X connect 52 0 61 0;
#X connect 52 0 63 4;
#X connect 53 0 59 0;
#X connect 53 0 63 5;
#X connect 54 0 60 0;
#X connect 54 0 63 2;
#X connect 55 0 63 7;
#X connect 56 0 62 0;
#X connect 56 0 63 6;
#X connect 63 0 72 0;
#X connect 63 0 96 0;
#X connect 64 0 105 0;
#X connect 65 0 67 0;
#X connect 65 0 96 0;
#X connect 66 0 68 0;
#X connect 67 0 63 0;
#X connect 68 0 67 1;
#X connect 69 0 65 0;
#X connect 69 1 66 0;
#X connect 70 1 69 0;
#X connect 73 0 80 0;
#X connect 73 0 86 1;
#X connect 74 0 81 0;
#X connect 74 0 86 3;
#X connect 75 0 84 0;
#X connect 75 0 86 4;
#X connect 76 0 82 0;
#X connect 76 0 86 5;
#X connect 77 0 83 0;
#X connect 77 0 86 2;
#X connect 78 0 86 7;
#X connect 79 0 85 0;
#X connect 79 0 86 6;
#X connect 86 0 95 0;
#X connect 86 0 97 0;
#X connect 87 0 106 0;
#X connect 88 0 90 0;
#X connect 88 0 97 0;
#X connect 89 0 91 0;
#X connect 90 0 86 0;
#X connect 91 0 90 1;
#X connect 92 0 88 0;
#X connect 92 1 89 0;
#X connect 93 1 92 0;
#X connect 102 0 7 0;
#X connect 103 0 21 0;
#X connect 104 0 46 0;
#X connect 105 0 70 0;
#X connect 106 0 93 0;
#X connect 107 0 149 0;
#X connect 110 0 15 0;
#X connect 111 0 40 0;
#X connect 112 0 64 0;
#X connect 113 0 87 0;
#X connect 115 0 120 0;
#X connect 116 0 117 0;
#X connect 117 0 119 0;
#X connect 119 0 118 0;
#X connect 119 0 118 1;
#X connect 120 0 116 0;
#X connect 121 0 123 0;
#X connect 122 0 124 0;
#X connect 123 0 115 0;
#X connect 124 0 115 1;
#X connect 125 0 126 0;
#X connect 126 0 123 1;
#X connect 127 0 128 0;
#X connect 128 0 124 1;
#X connect 137 0 145 0;
#X connect 138 0 121 0;
#X connect 138 1 125 0;
#X connect 139 1 138 0;
#X connect 140 0 137 0;
#X connect 141 0 146 0;
#X connect 142 0 122 0;
#X connect 142 1 127 0;
#X connect 143 1 142 0;
#X connect 144 0 141 0;
#X connect 145 0 139 0;
#X connect 146 0 143 0;
#X connect 147 0 149 1;
#X connect 149 0 109 0;
#X restore 603 512 pd drum_synth;
#X obj 690 481 tgl 15 0 empty enable_init empty 17 7 0 10 -262144 -1
-1 1 1;
#X connect 0 0 8 0;
#X connect 4 0 8 1;
#X connect 5 0 7 0;
#X connect 6 0 7 1;
#X connect 9 0 19 0;
#X connect 10 0 19 1;
#X connect 11 0 20 0;
#X connect 12 0 20 1;
#X connect 13 0 21 0;
#X connect 14 0 21 1;
#X connect 15 0 22 0;
#X connect 16 0 22 1;
#X connect 17 0 23 0;
#X connect 18 0 23 1;
#X connect 24 0 26 0;
#X connect 25 0 26 1;
#X connect 27 0 28 0;
#X connect 28 0 30 0;
#X connect 29 0 34 0;
#X connect 30 1 29 0;
#X connect 32 0 33 0;
#X connect 33 0 38 0;
#X connect 34 0 32 0;
#X connect 35 0 38 0;
#X connect 36 0 38 0;
#X connect 37 0 36 0;
#X connect 40 0 44 1;
#X connect 41 0 45 0;
#X connect 43 0 44 0;
#X connect 44 0 41 0;
#X connect 49 0 48 1;
#X connect 53 0 54 0;
#X connect 54 0 59 0;
#X connect 55 0 53 0;
#X connect 56 0 55 0;
#X connect 57 0 55 0;
#X connect 58 0 56 0;
#X connect 60 0 48 0;
#X connect 60 1 63 0;
#X connect 61 0 60 0;
#X connect 62 0 51 0;
#X connect 62 0 51 1;
#X connect 62 0 50 0;
#X connect 64 0 63 1;
