#N canvas 106 296 1334 533 12;
#X obj 134 264 loadbang, f 3;
#X obj 134 313 i 1;
#X obj 18 404 tabwrite groove, f 16;
#X obj 18 430 tabwrite groove, f 16;
#X obj 39 -21 inlet;
#X obj 42 312 unpack f f;
#X obj 659 -12 inlet;
#X text 704 -3 beat index;
#X obj 39 9 s \$0-step1-v-ut;
#X obj 45 236 r \$0-step1-v-ut;
#X obj 373 265 loadbang, f 3;
#X obj 281 361 tabwrite groove, f 16;
#X obj 281 387 tabwrite groove, f 16;
#X obj 281 313 unpack f f;
#X obj 609 264 loadbang, f 3;
#X obj 517 360 tabwrite groove, f 16;
#X obj 517 386 tabwrite groove, f 16;
#X obj 517 312 unpack f f;
#X obj 856 258 loadbang, f 3;
#X obj 764 354 tabwrite groove, f 16;
#X obj 764 380 tabwrite groove, f 16;
#X obj 764 306 unpack f f;
#X obj 284 237 r \$0-step2-v-ut;
#X obj 373 315 i 2;
#X obj 609 313 i 3;
#X obj 520 236 r \$0-step3-v-ut;
#X obj 767 230 r \$0-step4-v-ut;
#X obj 857 307 i 4;
#X obj 169 -21 inlet;
#X obj 294 -19 inlet;
#X obj 418 -21 inlet;
#X obj 169 9 s \$0-step2-v-ut;
#X obj 294 11 s \$0-step3-v-ut;
#X obj 418 9 s \$0-step4-v-ut;
#X obj 665 21 s \$0-beat_index;
#X obj 176 308 r \$0-beat_index;
#X obj 414 309 r \$0-beat_index;
#X obj 650 308 r \$0-beat_index;
#X obj 897 302 r \$0-beat_index;
#X obj 42 336 plot_trigger;
#X obj 281 337 plot_trigger;
#X obj 517 337 plot_trigger;
#X obj 764 330 plot_trigger;
#X msg 238 73 1;
#X msg 296 73 2;
#X obj 251 115 pack f f;
#X obj 251 170 unpack f f;
#X floatatom 252 200 5 0 0 0 - - -;
#X floatatom 326 203 5 0 0 0 - - -;
#X obj 358 89 bng 15 250 50 0 empty empty empty 17 7 0 10 -262144 -1
-1;
#X connect 0 0 1 0;
#X connect 1 0 39 2;
#X connect 4 0 8 0;
#X connect 5 0 39 0;
#X connect 5 1 39 1;
#X connect 6 0 34 0;
#X connect 9 0 5 0;
#X connect 10 0 23 0;
#X connect 13 0 40 0;
#X connect 13 1 40 1;
#X connect 14 0 24 0;
#X connect 17 0 41 0;
#X connect 17 1 41 1;
#X connect 18 0 27 0;
#X connect 21 0 42 0;
#X connect 21 1 42 1;
#X connect 22 0 13 0;
#X connect 23 0 40 2;
#X connect 24 0 41 2;
#X connect 25 0 17 0;
#X connect 26 0 21 0;
#X connect 27 0 42 2;
#X connect 28 0 31 0;
#X connect 29 0 32 0;
#X connect 30 0 33 0;
#X connect 35 0 39 3;
#X connect 36 0 40 3;
#X connect 37 0 41 3;
#X connect 38 0 42 3;
#X connect 39 0 2 0;
#X connect 39 1 2 1;
#X connect 39 2 3 0;
#X connect 39 3 3 1;
#X connect 40 0 11 0;
#X connect 40 1 11 1;
#X connect 40 2 12 0;
#X connect 40 3 12 1;
#X connect 41 0 15 0;
#X connect 41 1 15 1;
#X connect 41 2 16 0;
#X connect 41 3 16 1;
#X connect 42 0 19 0;
#X connect 42 1 19 1;
#X connect 42 2 20 0;
#X connect 42 3 20 1;
#X connect 43 0 45 0;
#X connect 44 0 45 1;
#X connect 45 0 46 0;
#X connect 46 0 47 0;
#X connect 46 1 48 0;
#X connect 49 0 45 0;
