#N canvas 0 24 719 824 12;
#X obj 66 109 bng 15 250 50 0 empty empty empty 17 7 0 10 -262144 -1
-1;
#X obj 66 27 loadbang;
#X obj 75 81 r reset;
#X obj 60 145 t b b b b b b b b b b b b b b, f 78;
#X msg 572 411 \; KICK const 0 \; SNARE const 0 \; HH_CLOSED const
0 \; HH_OPEN const 0 \; TOM_3_LO const 0 \; TOM_2_MID const 0 \; TOM_1_HI
const 0 \; CRASH const 0 \; RIDE const 0 \;;
#X obj 209 65 t b b;
#X msg 754 182 \; py2pd_port_init 1123 \; pd2py_port_init 1415 \; drum_out_channel_init
10 \; bpm_r 70 \;;
#X obj 426 45 r reset;
#X obj 547 77 t b b b;
#X msg 612 294 \; groove_vel_scale_init 1 \; meter_numerator_preset
3 \; meter_denominator_preset 2 \; metronome_volume_init 0.01 \; groove_volume
0 \; ppq_selection_init 0 \; pd dsp 1 \;, f 56;
#X msg 409 207 \; thres_0_init 0.4 \; max_count_0_init 6 \; thres_1_init
0.5 \; max_count_1_init 2 \; thres_2_init 0.6 \; max_count_2_init 32
\; thres_3_init 0.7 \; max_count_3_init 32 \; thres_4_init 0.95 \;
max_count_4_init 0 \; thres_5_init 0.95 \; max_count_5_init 0 \; thres_6_init
0.95 \; max_count_6_init 0 \; thres_7_init 0.95 \; max_count_7_init
0 \; thres_8_init 0.7 \; max_count_8_init 0 \; vel_scale_0_in 1 \;
vel_scale_1_in 1 \; vel_scale_2_in 1 \; vel_scale_3_in 1 \; vel_scale_4_in
1 \; vel_scale_5_in 1 \; vel_scale_6_in 1 \; vel_scale_7_in 1 \; vel_scale_8_in
1 \;;
#X connect 0 0 3 0;
#X connect 1 0 5 0;
#X connect 2 0 0 0;
#X connect 3 11 10 0;
#X connect 3 12 4 0;
#X connect 3 13 9 0;
#X connect 5 0 0 0;
#X connect 5 1 6 0;
#X connect 7 0 8 0;
#X connect 8 2 10 0;
