#N canvas 0 24 719 824 12;
#X obj 66 109 bng 15 250 50 0 empty empty empty 17 7 0 10 -262144 -1
-1;
#X obj 66 27 loadbang;
#X obj 75 81 r reset;
#X obj 60 145 t b b b b b b b b b b b b b b, f 78;
#X msg 572 411 \; KICK const 0 \; SNARE const 0 \; HH_CLOSED const
0 \; HH_OPEN const 0 \; TOM_3_LO const 0 \; TOM_2_MID const 0 \; TOM_1_HI
const 0 \; CRASH const 0 \; RIDE const 0 \;;
#X obj 209 65 t b b;
#X msg 754 182 \; py2pd_port_init 1123 \; pd2py_port_init 1415 \; drum_out_channel_init
10 \; bpm_r 70 \;;
#X msg 612 294 \; groove_vel_scale_init 1 \; meter_numerator_preset
3 \; meter_denominator_preset 2 \; metronome_volume_init 0.01 \; groove_volume
0 \; ppq_selection_init 0 \; pd dsp 1 \;, f 56;
#X obj 395 210 r reset;
#X obj 470 242 t b b b;
#X msg 378 372 \; thres_0_in 0.4 \; thres_1_in 0.5 \; thres_2_in 0.6
\; thres_3_in 0.7 \; thres_4_in 0.95 \; thres_5_in 0.95 \; thres_6_in
0.95 \; thres_7_in 0.95 \; thres_8_in 0.7 \; max_count_0_in 6 \; max_count_1_in
2 \; max_count_2_in 32 \; max_count_3_in 32 \; max_count_4_in 6 \;
max_count_5_in 6 \; max_count_6_in 6 \; max_count_7_in 6 \; max_count_8_in
0 \; vel_scale_0_in 2 \; vel_scale_1_in 1 \; vel_scale_2_in 2 \; vel_scale_3_in
2 \; vel_scale_4_in 3 \; vel_scale_5_in 3 \; vel_scale_6_in 3 \; vel_scale_7_in
2 \; vel_scale_8_in 1 \;;
#X connect 0 0 3 0;
#X connect 1 0 5 0;
#X connect 2 0 0 0;
#X connect 3 12 4 0;
#X connect 3 13 7 0;
#X connect 5 0 0 0;
#X connect 5 1 6 0;
#X connect 5 1 9 0;
#X connect 8 0 9 0;
#X connect 9 2 10 0;
