#N canvas 0 23 1094 786 12;
#X obj 519 34 keyname;
#X symbolatom 566 80 10 0 0 0 - - -;
#X floatatom 481 82 5 0 0 0 - - -;
#X obj 656 148 t b f, f 8;
#X obj 656 168 symbol;
#X obj 656 188 pack s f;
#X obj 656 265 s keySymbole_State;
#X text 793 268 State = 1 when push 0 when released;
#X obj 695 208 r keyboard_enabled;
#X obj 656 244 spigot;
#X obj 695 228 tgl 15 0 empty empty empty 17 7 0 10 -262144 -1 -1 0
1;
#N canvas 0 23 598 442 check_if_caps_lock_is_on 0;
#X obj 52 62 unpack s f;
#X obj 70 127 f;
#X obj 52 89 sel Caps_Lock;
#X obj 71 150 tgl 15 0 empty empty empty 17 7 0 10 -262144 -1 -1 0
1;
#X obj 52 26 inlet;
#X text 113 22 list of key symbol and state (1 pressed/0 released)
together;
#X obj 72 201 outlet;
#X connect 0 0 2 0;
#X connect 0 1 1 1;
#X connect 1 0 3 0;
#X connect 2 0 1 0;
#X connect 3 0 6 0;
#X connect 4 0 0 0;
#X restore 434 226 pd check_if_caps_lock_is_on;
#X text 726 188 pack key symbol and volume together;
#X obj 434 248 tgl 15 0 empty empty empty 17 7 0 10 -262144 -1 -1 0
1;
#X obj 433 267 s keyboard_enabled_r;
#N canvas 191 96 1150 751 play_a_groove_via_keyboard 0;
#X obj 116 16 inlet;
#X obj 29 118 unpack s f;
#X obj 28 169 f, f 10;
#X obj 28 198 sel 1;
#X obj 27 308 expr $f1/7*127;
#X obj 28 222 bng 15 250 50 0 empty empty empty 17 7 0 10 -262144 -1
-1;
#X obj 29 145 sel Z, f 6;
#X obj 125 48 s \$0-packed-keySym-stateFloat;
#X obj 29 93 r \$0-packed-keySym-stateFloat;
#X msg 27 256 1;
#X obj 28 333 s \$0-velocity;
#X obj 123 467 r \$0-velocity;
#X floatatom 123 496 5 0 0 0 - - -;
#X obj 124 522 outlet;
#X obj 249 119 unpack s f;
#X obj 248 170 f, f 10;
#X obj 248 199 sel 1;
#X obj 247 309 expr $f1/7*127;
#X obj 248 223 bng 15 250 50 0 empty empty empty 17 7 0 10 -262144
-1 -1;
#X obj 249 94 r \$0-packed-keySym-stateFloat;
#X obj 248 334 s \$0-velocity;
#X obj 480 120 unpack s f;
#X obj 479 171 f, f 10;
#X obj 479 200 sel 1;
#X obj 478 310 expr $f1/7*127;
#X obj 479 224 bng 15 250 50 0 empty empty empty 17 7 0 10 -262144
-1 -1;
#X obj 480 95 r \$0-packed-keySym-stateFloat;
#X obj 479 335 s \$0-velocity;
#X obj 708 120 unpack s f;
#X obj 707 171 f, f 10;
#X obj 707 200 sel 1;
#X obj 706 310 expr $f1/7*127;
#X obj 707 224 bng 15 250 50 0 empty empty empty 17 7 0 10 -262144
-1 -1;
#X obj 708 95 r \$0-packed-keySym-stateFloat;
#X obj 707 335 s \$0-velocity;
#X obj 933 123 unpack s f;
#X obj 932 174 f, f 10;
#X obj 932 203 sel 1;
#X obj 931 313 expr $f1/7*127;
#X obj 932 227 bng 15 250 50 0 empty empty empty 17 7 0 10 -262144
-1 -1;
#X obj 933 98 r \$0-packed-keySym-stateFloat;
#X obj 932 338 s \$0-velocity;
#X obj 249 146 sel X, f 6;
#X obj 480 147 sel C, f 6;
#X obj 708 147 sel V, f 6;
#X obj 933 150 sel B, f 6;
#X obj 1151 121 unpack s f;
#X obj 1150 172 f, f 10;
#X obj 1150 201 sel 1;
#X obj 1149 311 expr $f1/7*127;
#X obj 1150 225 bng 15 250 50 0 empty empty empty 17 7 0 10 -262144
-1 -1;
#X obj 1151 96 r \$0-packed-keySym-stateFloat;
#X obj 1150 336 s \$0-velocity;
#X obj 1376 124 unpack s f;
#X obj 1375 175 f, f 10;
#X obj 1375 204 sel 1;
#X obj 1374 314 expr $f1/7*127;
#X obj 1375 228 bng 15 250 50 0 empty empty empty 17 7 0 10 -262144
-1 -1;
#X obj 1376 99 r \$0-packed-keySym-stateFloat;
#X obj 1375 339 s \$0-velocity;
#X obj 1151 148 sel N, f 6;
#X obj 1376 151 sel M, f 6;
#X msg 247 257 2;
#X msg 478 258 3;
#X msg 706 258 4;
#X msg 931 261 5;
#X msg 1149 259 6;
#X msg 1373 262 7;
#X connect 0 0 7 0;
#X connect 1 0 6 0;
#X connect 1 1 2 1;
#X connect 2 0 3 0;
#X connect 3 0 5 0;
#X connect 4 0 10 0;
#X connect 5 0 9 0;
#X connect 6 0 2 0;
#X connect 8 0 1 0;
#X connect 9 0 4 0;
#X connect 11 0 12 0;
#X connect 12 0 13 0;
#X connect 14 0 42 0;
#X connect 14 1 15 1;
#X connect 15 0 16 0;
#X connect 16 0 18 0;
#X connect 17 0 20 0;
#X connect 18 0 62 0;
#X connect 19 0 14 0;
#X connect 21 0 43 0;
#X connect 21 1 22 1;
#X connect 22 0 23 0;
#X connect 23 0 25 0;
#X connect 24 0 27 0;
#X connect 25 0 63 0;
#X connect 26 0 21 0;
#X connect 28 0 44 0;
#X connect 28 1 29 1;
#X connect 29 0 30 0;
#X connect 30 0 32 0;
#X connect 31 0 34 0;
#X connect 32 0 64 0;
#X connect 33 0 28 0;
#X connect 35 0 45 0;
#X connect 35 1 36 1;
#X connect 36 0 37 0;
#X connect 37 0 39 0;
#X connect 38 0 41 0;
#X connect 39 0 65 0;
#X connect 40 0 35 0;
#X connect 42 0 15 0;
#X connect 43 0 22 0;
#X connect 44 0 29 0;
#X connect 45 0 36 0;
#X connect 46 0 60 0;
#X connect 46 1 47 1;
#X connect 47 0 48 0;
#X connect 48 0 50 0;
#X connect 49 0 52 0;
#X connect 50 0 66 0;
#X connect 51 0 46 0;
#X connect 53 0 61 0;
#X connect 53 1 54 1;
#X connect 54 0 55 0;
#X connect 55 0 57 0;
#X connect 56 0 59 0;
#X connect 57 0 67 0;
#X connect 58 0 53 0;
#X connect 60 0 47 0;
#X connect 61 0 54 0;
#X connect 62 0 17 0;
#X connect 63 0 24 0;
#X connect 64 0 31 0;
#X connect 65 0 38 0;
#X connect 66 0 49 0;
#X connect 67 0 56 0;
#X restore 40 485 pd play_a_groove_via_keyboard;
#X obj 40 464 r keySymbole_State;
#X obj 40 507 s realtime_velocity;
#X text 473 480 Using keyboard keys Z X C V B N M (while caps on) to
play groove;
#X obj 41 572 r keySymbole_State;
#X obj 201 570 r groove_volume;
#X obj 41 615 s groove_volume_init;
#X obj 43 666 r keySymbole_State;
#N canvas 0 23 598 442 toggle_play_and_record_buttons 1;
#X obj 52 26 inlet;
#X text 113 22 list of key symbol and state (1 pressed/0 released)
together;
#X obj 55 243 outlet;
#X floatatom 182 153 5 0 0 0 - - -;
#X obj 184 126 r run;
#X obj 54 187 expr if($f2==0 \, 1 \, 0);
#X obj 54 59 unpack s f;
#X obj 53 110 f, f 10;
#X obj 53 139 sel 1;
#X obj 53 163 bng 15 250 50 0 empty empty empty 17 7 0 10 -262144 -1
-1;
#X obj 54 86 sel P, f 6;
#X floatatom 405 163 5 0 0 0 - - -;
#X obj 277 197 expr if($f2==0 \, 1 \, 0);
#X obj 277 69 unpack s f;
#X obj 276 120 f, f 10;
#X obj 276 149 sel 1;
#X obj 276 173 bng 15 250 50 0 empty empty empty 17 7 0 10 -262144
-1 -1;
#X obj 277 96 sel R, f 6;
#X obj 407 136 r record;
#X obj 276 242 outlet;
#X connect 0 0 6 0;
#X connect 0 0 13 0;
#X connect 3 0 5 1;
#X connect 4 0 3 0;
#X connect 5 0 2 0;
#X connect 6 0 10 0;
#X connect 6 1 7 1;
#X connect 7 0 8 0;
#X connect 8 0 9 0;
#X connect 9 0 5 0;
#X connect 10 0 7 0;
#X connect 11 0 12 1;
#X connect 12 0 19 0;
#X connect 13 0 17 0;
#X connect 13 1 14 1;
#X connect 14 0 15 0;
#X connect 15 0 16 0;
#X connect 16 0 12 0;
#X connect 17 0 14 0;
#X connect 18 0 11 0;
#X restore 43 689 pd toggle_play_and_record_buttons;
#X obj 43 713 s play_r;
#X obj 272 718 s record_r;
#X obj 43 784 r keySymbole_State;
#X text 471 695 P for Play/Pause and R for Record On/Off;
#X obj 43 831 s take_snapshot_r;
#X text 469 798 Press Shift+ENTER to take snap. Arrow left and Right
to move to different snapshots;
#X obj 168 831 s previous_snapshot_r;
#X obj 322 831 s next_snapshot_r;
#X obj 45 882 r keySymbole_State;
#N canvas 662 323 598 442 clear_groove 0;
#X obj 52 26 inlet;
#X text 113 22 list of key symbol and state (1 pressed/0 released)
together;
#X obj 55 362 outlet;
#X obj 54 59 unpack s f;
#X obj 53 116 f, f 20;
#X obj 53 139 sel 1;
#X obj 54 167 bng 15 250 50 0 empty empty empty 17 7 0 10 -262144 -1
-1;
#X obj 54 84 sel Shift_L Shift_R Shift;
#X obj 130 146 unpack s f;
#X obj 127 207 f, f 20;
#X obj 127 230 sel 1;
#X obj 104 280 tgl 15 0 empty empty empty 17 7 0 10 -262144 -1 -1 0
1;
#X obj 63 326 bng 15 250 50 0 empty empty empty 17 7 0 10 -262144 -1
-1;
#X obj 63 299 spigot;
#X text 54 384 Take Snapshot;
#X obj 128 175 sel D;
#X connect 0 0 3 0;
#X connect 0 0 8 0;
#X connect 3 0 7 0;
#X connect 3 1 4 1;
#X connect 4 0 5 0;
#X connect 4 0 11 0;
#X connect 5 0 6 0;
#X connect 7 0 4 0;
#X connect 7 1 4 0;
#X connect 7 2 4 0;
#X connect 8 0 15 0;
#X connect 8 1 9 1;
#X connect 9 0 10 0;
#X connect 10 0 13 0;
#X connect 11 0 13 1;
#X connect 12 0 2 0;
#X connect 13 0 12 0;
#X connect 15 0 9 0;
#X restore 45 905 pd clear_groove;
#X f 57;
#X obj 45 929 s clear_groove_r;
#X text 471 896 Press Shift+D to clear the groove (input to system)
;
#N canvas 220 323 1040 442 snapshot_managing_via_keyboard 0;
#X obj 52 26 inlet;
#X text 113 22 list of key symbol and state (1 pressed/0 released)
together;
#X obj 55 362 outlet;
#X obj 54 59 unpack s f;
#X obj 53 116 f, f 20;
#X obj 53 139 sel 1;
#X obj 54 167 bng 15 250 50 0 empty empty empty 17 7 0 10 -262144 -1
-1;
#X obj 316 366 outlet;
#X obj 54 84 sel Shift_L Shift_R Shift;
#X obj 128 150 unpack s f;
#X obj 127 207 f, f 20;
#X obj 127 230 sel 1;
#X obj 128 175 sel Return Enter;
#X obj 104 280 tgl 15 0 empty empty empty 17 7 0 10 -262144 -1 -1 0
1;
#X obj 63 326 bng 15 250 50 0 empty empty empty 17 7 0 10 -262144 -1
-1;
#X obj 63 299 spigot;
#X obj 416 109 unpack s f;
#X obj 415 166 f, f 20;
#X obj 415 189 sel 1;
#X obj 472 200 f, f 20;
#X obj 472 223 sel 1;
#X obj 319 314 bng 15 250 50 0 empty empty empty 17 7 0 10 -262144
-1 -1;
#X obj 474 360 outlet;
#X obj 477 308 bng 15 250 50 0 empty empty empty 17 7 0 10 -262144
-1 -1;
#X text 54 384 Take Snapshot;
#X text 294 391 Previous Snapshot;
#X text 464 387 Next Snapshot;
#X obj 416 134 sel < >;
#X connect 0 0 3 0;
#X connect 0 0 9 0;
#X connect 0 0 16 0;
#X connect 3 0 8 0;
#X connect 3 1 4 1;
#X connect 4 0 5 0;
#X connect 4 0 13 0;
#X connect 5 0 6 0;
#X connect 8 0 4 0;
#X connect 8 1 4 0;
#X connect 8 2 4 0;
#X connect 9 0 12 0;
#X connect 9 1 10 1;
#X connect 10 0 11 0;
#X connect 11 0 15 0;
#X connect 12 0 10 0;
#X connect 12 1 10 0;
#X connect 13 0 15 1;
#X connect 14 0 2 0;
#X connect 15 0 14 0;
#X connect 16 0 27 0;
#X connect 16 1 17 1;
#X connect 16 1 19 1;
#X connect 17 0 18 0;
#X connect 18 0 21 0;
#X connect 19 0 20 0;
#X connect 20 0 23 0;
#X connect 21 0 7 0;
#X connect 23 0 22 0;
#X connect 27 0 17 0;
#X connect 27 1 19 0;
#X restore 43 807 pd snapshot_managing_via_keyboard;
#X f 57;
#X text 475 593 Adjust the volume of the metronome and the groove sound
played in real-time;
#N canvas 191 97 1150 751 adjust_groove_and_metronome_volume 0;
#X obj 116 16 inlet;
#X obj 21 259 unpack s f;
#X obj 20 310 f, f 10;
#X obj 20 339 sel 1;
#X obj 20 363 bng 15 250 50 0 empty empty empty 17 7 0 10 -262144 -1
-1;
#X obj 116 38 s \$0-packed-keySym-stateFloat;
#X obj 21 234 r \$0-packed-keySym-stateFloat;
#X floatatom 115 637 5 0 0 0 - - -;
#X obj 116 663 outlet;
#X obj 241 260 unpack s f;
#X obj 240 311 f, f 10;
#X obj 240 340 sel 1;
#X obj 241 235 r \$0-packed-keySym-stateFloat;
#X obj 500 9 inlet;
#X floatatom 501 56 5 0 0 0 - - -;
#X obj 240 368 bng 15 250 50 0 empty empty empty 17 7 0 10 -262144
-1 -1;
#X obj 33 437 expr max(0 \, $f2-0.05);
#X obj 234 448 expr min(1 \, $f2+0.05);
#X obj 528 254 unpack s f;
#X obj 527 305 f, f 10;
#X obj 527 334 sel 1;
#X obj 527 358 bng 15 250 50 0 empty empty empty 17 7 0 10 -262144
-1 -1;
#X obj 528 229 r \$0-packed-keySym-stateFloat;
#X floatatom 622 632 5 0 0 0 - - -;
#X obj 623 658 outlet;
#X obj 748 255 unpack s f;
#X obj 747 306 f, f 10;
#X obj 747 335 sel 1;
#X obj 748 230 r \$0-packed-keySym-stateFloat;
#X obj 747 363 bng 15 250 50 0 empty empty empty 17 7 0 10 -262144
-1 -1;
#X obj 540 432 expr max(0 \, $f2-0.05);
#X obj 741 443 expr min(1 \, $f2+0.05);
#X obj 500 92 s \$0-current-value-groove;
#X obj 277 379 r \$0-current-value-groove;
#X obj 57 391 r \$0-current-value-groove;
#X obj 735 15 inlet;
#X floatatom 736 62 5 0 0 0 - - -;
#X obj 735 98 s \$0-current-value-metronome;
#X obj 21 286 sel Down;
#X obj 241 287 sel Up;
#X obj 528 281 sel Left;
#X obj 748 282 sel Right;
#X obj 583 363 r \$0-current-value-metronome;
#X obj 784 374 r \$0-current-value-metronome;
#X connect 0 0 5 0;
#X connect 1 0 38 0;
#X connect 1 1 2 1;
#X connect 2 0 3 0;
#X connect 3 0 4 0;
#X connect 4 0 16 0;
#X connect 6 0 1 0;
#X connect 7 0 8 0;
#X connect 9 0 39 0;
#X connect 9 1 10 1;
#X connect 10 0 11 0;
#X connect 11 0 15 0;
#X connect 12 0 9 0;
#X connect 13 0 14 0;
#X connect 14 0 32 0;
#X connect 15 0 17 0;
#X connect 16 0 7 0;
#X connect 17 0 7 0;
#X connect 18 0 40 0;
#X connect 18 1 19 1;
#X connect 19 0 20 0;
#X connect 20 0 21 0;
#X connect 21 0 30 0;
#X connect 22 0 18 0;
#X connect 23 0 24 0;
#X connect 25 0 41 0;
#X connect 25 1 26 1;
#X connect 26 0 27 0;
#X connect 27 0 29 0;
#X connect 28 0 25 0;
#X connect 29 0 31 0;
#X connect 30 0 23 0;
#X connect 31 0 23 0;
#X connect 33 0 17 1;
#X connect 34 0 16 1;
#X connect 35 0 36 0;
#X connect 36 0 37 0;
#X connect 38 0 2 0;
#X connect 39 0 10 0;
#X connect 40 0 19 0;
#X connect 41 0 26 0;
#X connect 42 0 30 1;
#X connect 43 0 31 1;
#X restore 42 593 pd adjust_groove_and_metronome_volume;
#X obj 324 570 r metronome_volume;
#X obj 735 98 s \$0-current-value-metronome;
#X obj 258 621 s metronome_volume_r;
#X text 471 976 Press S to enable sustain of internal electro piano
synth;
#X obj 46 964 r keySymbole_State;
#X obj 46 1011 s enable_ep_mk1_sustain;
#N canvas 0 23 598 442 toggle_ep_mk1_sustain 0;
#X obj 52 26 inlet;
#X text 113 22 list of key symbol and state (1 pressed/0 released)
together;
#X obj 55 243 outlet;
#X floatatom 182 153 5 0 0 0 - - -;
#X obj 54 187 expr if($f2==0 \, 1 \, 0);
#X obj 54 59 unpack s f;
#X obj 53 110 f, f 10;
#X obj 53 139 sel 1;
#X obj 53 163 bng 15 250 50 0 empty empty empty 17 7 0 10 -262144 -1
-1;
#X obj 54 86 sel S, f 6;
#X obj 184 126 r sustain_out;
#X connect 0 0 5 0;
#X connect 3 0 4 1;
#X connect 4 0 2 0;
#X connect 5 0 9 0;
#X connect 5 1 6 1;
#X connect 6 0 7 0;
#X connect 7 0 8 0;
#X connect 8 0 4 0;
#X connect 9 0 6 0;
#X connect 10 0 3 0;
#X restore 46 987 pd toggle_ep_mk1_sustain;
#X connect 0 0 2 0;
#X connect 0 1 1 0;
#X connect 1 0 4 1;
#X connect 2 0 3 0;
#X connect 3 0 4 0;
#X connect 3 1 5 1;
#X connect 4 0 5 0;
#X connect 5 0 9 0;
#X connect 5 0 11 0;
#X connect 8 0 10 0;
#X connect 9 0 6 0;
#X connect 10 0 9 1;
#X connect 11 0 13 0;
#X connect 13 0 14 0;
#X connect 15 0 17 0;
#X connect 16 0 15 0;
#X connect 19 0 38 0;
#X connect 20 0 38 1;
#X connect 22 0 23 0;
#X connect 23 0 24 0;
#X connect 23 1 25 0;
#X connect 26 0 36 0;
#X connect 32 0 33 0;
#X connect 33 0 34 0;
#X connect 36 0 28 0;
#X connect 36 1 30 0;
#X connect 36 2 31 0;
#X connect 38 0 21 0;
#X connect 38 1 41 0;
#X connect 39 0 38 2;
#X connect 43 0 45 0;
#X connect 45 0 44 0;
