#N canvas 0 23 1440 806 12;
#X obj 73 727 *~;
#X obj 73 652 vline~;
#X msg 73 603 1 20 \, 0 20 20;
#X text 167 600 got to 1 (full volume) in 20 \, then go to zero (no
volume) in 20 ms after waiting 20 ms;
#X text 121 651 translate to audio rate signal;
#X text 151 684 generate 800 hz sine tone;
#X text 103 726 multiply sine tone by amplitude envelope;
#X obj 320 359 mod 384;
#X obj 320 397 route 0;
#X obj 369 428 mod 384;
#X floatatom 481 163 5 0 0 0 - - -;
#X text 522 163 beat ppq resolution;
#X obj 398 222 expr $f1*$f2;
#X obj 437 194 t b f;
#X floatatom 397 260 5 0 0 0 - - -;
#X text 464 264 num ticks for 1 bar;
#X obj 499 44 route 0 1 2 3;
#X msg 480 70 1;
#X msg 517 72 2;
#X msg 555 73 4;
#X msg 597 71 8;
#X obj 500 -10 r meter_denominator;
#X msg 309 70 1;
#X msg 346 72 2;
#X obj 328 36 route 0 1 2 3 4;
#X msg 384 73 3;
#X msg 418 71 4;
#X msg 440 72 6;
#X obj 294 -9 r meter_numerator;
#X floatatom 389 144 5 0 0 0 - - -;
#X text 201 145 number of ticks for 1 bar;
#X obj 143 212 r playback_pos;
#X obj 716 659 osc~ 800;
#X obj 701 703 *~;
#X obj 701 628 vline~;
#X msg 701 579 1 20 \, 0 20 20;
#X text 795 576 got to 1 (full volume) in 20 \, then go to zero (no
volume) in 20 ms after waiting 20 ms;
#X text 749 627 translate to audio rate signal;
#X text 779 660 generate 800 hz sine tone;
#X text 731 702 multiply sine tone by amplitude envelope;
#X obj 88 682 osc~ 400;
#X obj 368 457 route 0;
#X obj 73 766 throw~ metronome_sound;
#X obj 701 742 throw~ metronome_sound;
#X obj 505 742 r metronome_volume;
#X obj 462 773 *~;
#X obj 414 695 catch~ metronome_sound;
#X obj 464 803 outlet~;
#X obj 251 333 - 48;
#X obj 499 21 f;
#X obj 302 15 f;
#X obj 717 71 r ppq;
#X obj 717 97 t b b f;
#X obj 481 136 expr $f2/($f1/4);
#X floatatom 1100 196 5 0 0 0 - - -;
#X obj 1106 267 pack f f;
#X obj 1099 217 t f f;
#X obj 1108 305 s \$0-drumNote;
#X obj 1104 357 makenote 0 100;
#X obj 1111 423 noteout;
#X msg 1101 241 47;
#X obj 1175 394 r drum_out_channel;
#X obj 118 503 s metronome_measure_trigger;
#X obj 375 506 s metronome_beat_trigger;
#X obj 247 253 r starting_tick_pos;
#X connect 0 0 42 0;
#X connect 1 0 0 0;
#X connect 2 0 1 0;
#X connect 7 0 8 0;
#X connect 8 0 2 0;
#X connect 8 0 62 0;
#X connect 8 1 9 0;
#X connect 9 0 41 0;
#X connect 10 0 13 0;
#X connect 10 0 9 1;
#X connect 12 0 14 0;
#X connect 13 0 12 0;
#X connect 13 1 12 1;
#X connect 14 0 7 1;
#X connect 16 0 17 0;
#X connect 16 1 18 0;
#X connect 16 2 19 0;
#X connect 16 3 20 0;
#X connect 17 0 53 0;
#X connect 18 0 53 0;
#X connect 19 0 53 0;
#X connect 20 0 53 0;
#X connect 21 0 49 0;
#X connect 22 0 29 0;
#X connect 23 0 29 0;
#X connect 24 0 22 0;
#X connect 24 1 23 0;
#X connect 24 2 25 0;
#X connect 24 3 26 0;
#X connect 24 4 27 0;
#X connect 25 0 29 0;
#X connect 26 0 29 0;
#X connect 27 0 29 0;
#X connect 28 0 50 0;
#X connect 29 0 12 0;
#X connect 31 0 48 0;
#X connect 32 0 33 1;
#X connect 33 0 43 0;
#X connect 34 0 33 0;
#X connect 35 0 34 0;
#X connect 40 0 0 1;
#X connect 41 0 35 0;
#X connect 41 0 63 0;
#X connect 44 0 45 1;
#X connect 45 0 47 0;
#X connect 46 0 45 0;
#X connect 48 0 7 0;
#X connect 49 0 16 0;
#X connect 50 0 24 0;
#X connect 51 0 52 0;
#X connect 52 0 50 0;
#X connect 52 1 49 0;
#X connect 52 2 53 1;
#X connect 53 0 10 0;
#X connect 54 0 56 0;
#X connect 55 0 57 0;
#X connect 56 0 60 0;
#X connect 56 1 55 1;
#X connect 56 1 58 1;
#X connect 58 0 59 0;
#X connect 58 1 59 1;
#X connect 60 0 55 0;
#X connect 60 0 58 0;
#X connect 61 0 59 2;
#X connect 64 0 48 1;
