#N canvas 0 23 1920 1125 12;
#X obj 1034 538 get_cc_learnable;
#X floatatom 1031 562 5 0 0 0 - - -;
#X text 1000 587 cc value;
#X floatatom 1070 562 5 0 0 0 - - -;
#X text 1062 586 learnt cc;
#X obj 858 370 tgl 10 0 empty empty empty 20 7 0 10 -232576 -1 -1 0
1;
#X floatatom 1137 563 5 0 0 0 - - -;
#X text 1129 587 learnt channel_port;
#X text 460 235 type of cc (0) button (1) Encoder (3) Potentiometer/slider
;
#X obj 130 882 outlet;
#X obj 87 766 pushbutton_cc2toggle, f 26;
#X obj 88 738 spigot;
#X obj 1004 612 s \$0-value;
#X obj 29 685 r \$0-value;
#X obj 96 801 tgl 15 0 empty empty empty 17 7 0 10 -262144 -1 -1 1
1;
#X obj 125 688 tgl 15 0 empty empty empty 17 7 0 10 -262144 -1 -1 1
1;
#X msg 38 363 1;
#X obj 123 652 r \$0-pushbutton;
#X obj 38 387 s \$0-pushbutton;
#X obj 38 441 s \$0-encoder;
#X msg 38 417 0;
#X msg 39 464 0;
#X obj 39 488 s \$0-pot-slider;
#X obj 1011 879 outlet;
#X obj 787 256 inlet;
#X text 148 902 on--off toggle out;
#X obj 1077 405 unpack;
#X floatatom 1065 447 5 0 0 0 - - -;
#X floatatom 1112 447 5 0 0 0 - - -;
#X obj 781 276 cnv 4 46 8 empty empty cc_channel|port 0 4 0 5 -33289
-262144 0;
#X obj 706 314 cnv 4 15 8 empty empty Learn 0 4 0 5 -33289 -262144
0;
#X obj 1018 748 pack f f;
#X obj 1175 825 change;
#X obj 1203 881 outlet;
#X obj 862 277 inlet;
#X text 1257 877 connect directly to last inlet;
#X floatatom 727 605 5 0 0 0 - - -;
#X text 696 630 cc value;
#X floatatom 766 605 5 0 0 0 - - -;
#X text 758 629 learnt cc;
#X floatatom 833 606 5 0 0 0 - - -;
#X text 825 630 learnt channel_port;
#X obj 700 655 s \$0-value;
#X obj 773 448 unpack;
#X floatatom 761 490 5 0 0 0 - - -;
#X floatatom 808 490 5 0 0 0 - - -;
#X obj 730 581 get_cc_learnable_note_as_button;
#X obj 34 253 loadbang;
#X obj 36 276 bng 15 250 50 0 empty empty empty 17 7 0 10 -262144 -1
-1;
#X obj 37 327 bang, f 16;
#X connect 0 0 1 0;
#X connect 0 1 3 0;
#X connect 0 2 6 0;
#X connect 0 3 32 0;
#X connect 1 0 12 0;
#X connect 3 0 31 0;
#X connect 5 0 0 0;
#X connect 5 0 46 0;
#X connect 6 0 31 1;
#X connect 10 0 14 0;
#X connect 11 0 10 0;
#X connect 13 0 11 0;
#X connect 14 0 9 0;
#X connect 15 0 11 1;
#X connect 16 0 18 0;
#X connect 17 0 15 0;
#X connect 20 0 19 0;
#X connect 21 0 22 0;
#X connect 24 0 26 0;
#X connect 24 0 43 0;
#X connect 26 0 27 0;
#X connect 26 1 28 0;
#X connect 27 0 0 1;
#X connect 28 0 0 2;
#X connect 31 0 23 0;
#X connect 32 0 33 0;
#X connect 34 0 5 0;
#X connect 36 0 42 0;
#X connect 38 0 31 0;
#X connect 40 0 31 1;
#X connect 43 0 44 0;
#X connect 43 1 45 0;
#X connect 44 0 46 1;
#X connect 45 0 46 2;
#X connect 46 0 36 0;
#X connect 46 1 38 0;
#X connect 46 2 40 0;
#X connect 46 3 32 0;
#X connect 47 0 48 0;
#X connect 48 0 49 0;
#X connect 49 0 16 0;
#X connect 49 0 20 0;
#X connect 49 0 21 0;
#X coords 0 1125 1 1124 26 26 0;
