#N canvas 0 23 1440 808 12;
#X msg 284 89 bang;
#X obj 325 164 until;
#X text 324 100 start;
#X obj 325 192 f;
#X obj 363 192 + 1;
#X obj 408 191 sel 0;
#X obj 305 260 + 0;
#X obj 370 271 t b f;
#X text 271 63 reset table first;
#X obj 156 71 t b f b;
#X obj 59 436 f;
#X obj 66 395 t b f b;
#X obj 347 321 i 0;
#X obj 360 225 mod 96;
#X floatatom 183 113 5 0 0 0 - - -;
#X obj 490 77 inlet;
#X text 538 73 step_ix;
#X obj 191 678 outlet;
#X obj 40 675 outlet;
#X text 245 674 indx;
#X text 89 673 vel;
#X obj 70 47 inlet;
#X obj 154 41 inlet;
#X floatatom 177 518 5 0 0 0 - - -;
#X obj 90 553 pack f f;
#X obj 88 589 unpack f f;
#X floatatom 491 314 5 0 0 0 - - -;
#X floatatom 530 244 5 0 0 0 - - -;
#X obj 216 439 t b f;
#X obj 675 35 inlet;
#X obj 674 177 * 384;
#X obj 478 341 + 0;
#X obj 214 631 + 0;
#X obj 676 65 - 1;
#X text 720 35 beat idx starting from 1;
#X obj 674 199 * 1;
#X obj 715 118 r ppq;
#X obj 715 147 t b f;
#X obj 589 112 r step_ticks;
#X obj 494 185 expr ($f1-1)*$f2;
#X obj 535 151 t b f;
#X obj 265 116 r half_step_ticks;
#X obj 269 437 t b f;
#X obj 145 479 expr $f1*$f4 + $f3 + $f2;
#X obj 331 451 t b f;
#X obj 331 422 r step_ticks;
#X obj 440 569 f;
#X text 476 570 previous index;
#X obj 494 673 outlet;
#X obj 402 675 outlet;
#X text 548 669 indx;
#X text 451 673 vel;
#X msg 403 631 0;
#X obj 498 622 t b f;
#X connect 0 0 46 0;
#X connect 1 0 3 0;
#X connect 3 0 4 0;
#X connect 3 0 6 0;
#X connect 4 0 13 0;
#X connect 5 0 1 1;
#X connect 6 0 7 0;
#X connect 7 0 12 0;
#X connect 7 1 26 0;
#X connect 9 0 10 0;
#X connect 9 1 14 0;
#X connect 9 2 0 0;
#X connect 10 0 24 0;
#X connect 11 0 10 0;
#X connect 11 1 10 1;
#X connect 11 2 0 0;
#X connect 13 0 3 1;
#X connect 13 0 5 0;
#X connect 14 0 43 0;
#X connect 15 0 39 0;
#X connect 21 0 11 0;
#X connect 22 0 9 0;
#X connect 24 0 25 0;
#X connect 25 0 18 0;
#X connect 25 1 32 0;
#X connect 26 0 31 0;
#X connect 27 0 28 0;
#X connect 28 0 43 0;
#X connect 28 1 43 1;
#X connect 29 0 33 0;
#X connect 30 0 35 0;
#X connect 32 0 17 0;
#X connect 32 0 46 1;
#X connect 33 0 30 0;
#X connect 35 0 32 1;
#X connect 35 0 31 1;
#X connect 36 0 37 0;
#X connect 37 0 30 0;
#X connect 37 1 30 1;
#X connect 38 0 40 0;
#X connect 39 0 27 0;
#X connect 39 0 6 1;
#X connect 40 0 39 0;
#X connect 40 1 39 1;
#X connect 40 1 13 1;
#X connect 41 0 42 0;
#X connect 42 0 43 0;
#X connect 42 1 43 2;
#X connect 43 0 23 0;
#X connect 43 0 24 1;
#X connect 44 0 43 0;
#X connect 44 1 43 3;
#X connect 45 0 44 0;
#X connect 46 0 53 0;
#X connect 52 0 49 0;
#X connect 53 0 52 0;
#X connect 53 1 48 0;
