#N canvas 499 215 1350 805 12;
#X msg 280 105 384;
#X obj 248 225 r ppq;
#X floatatom 247 249 5 0 0 0 - - -;
#X obj 248 274 * 8;
#X msg 249 326 \; groove resize \$1 \; KICK resize \$1 \; SNARE resize
\$1 \; HH_CLOSED resize \$1 \; HH_OPEN resize \$1 \; TOM_3_LO resize
\$1 \; TOM_2_MID resize \$1 \; TOM_1_HI resize \$1 \; CRASH resize
\$1 \; RIDE resize \$1 \;;
#X msg 382 104 96;
#X obj 330 297 s total_ticks;
#X obj 473 339 s half_step_ticks;
#X obj 416 248 / 8;
#X floatatom 443 286 5 0 0 0 - - -;
#X floatatom 273 297 5 0 0 0 - - -;
#X obj 138 415 s playback_pos;
#X msg 146 328 range 0 \$1;
#X floatatom 558 293 5 0 0 0 - - -;
#X obj 531 255 / 4;
#X obj 612 337 s step_ticks;
#X obj 286 40 r ppq_selection;
#X obj 284 68 sel 0 1 2 3, f 30;
#X msg 441 104 48;
#X msg 318 104 192;
#X obj 280 169 s ppq;
#X obj 279 137 change;
#X connect 0 0 21 0;
#X connect 1 0 2 0;
#X connect 2 0 3 0;
#X connect 2 0 8 0;
#X connect 2 0 14 0;
#X connect 3 0 4 0;
#X connect 3 0 10 0;
#X connect 5 0 21 0;
#X connect 8 0 9 0;
#X connect 9 0 7 0;
#X connect 10 0 6 0;
#X connect 10 0 12 0;
#X connect 12 0 11 0;
#X connect 13 0 15 0;
#X connect 14 0 13 0;
#X connect 16 0 17 0;
#X connect 17 0 0 0;
#X connect 17 1 19 0;
#X connect 17 2 5 0;
#X connect 17 3 18 0;
#X connect 18 0 21 0;
#X connect 19 0 21 0;
#X connect 21 0 20 0;
