#N canvas 703 34 1009 823 12;
#X obj 67 0 r v1;
#X obj 127 63 r ut1;
#X text 232 53 step;
#X text 71 1443 vel \, utiming \, step;
#X obj 20 1444 outlet;
#X obj 67 88 gen_osc_for_step, f 19;
#X msg 198 55 1;
#X obj 67 124 s \$0-new_osc_msg;
#X obj 20 1421 r \$0-new_osc_msg;
#X text 432 59 step;
#X obj 403 30 loadbang;
#X obj 267 94 gen_osc_for_step, f 19;
#X obj 267 130 s \$0-new_osc_msg;
#X obj 267 68 r v2;
#X obj 327 69 r ut2;
#X msg 398 62 2;
#X text 644 60 step;
#X obj 615 31 loadbang;
#X obj 479 95 gen_osc_for_step, f 19;
#X obj 479 131 s \$0-new_osc_msg;
#X text 860 61 step;
#X obj 831 32 loadbang;
#X obj 695 96 gen_osc_for_step, f 19;
#X obj 695 132 s \$0-new_osc_msg;
#X obj 479 69 r v3;
#X obj 543 70 r ut3;
#X msg 610 63 3;
#X obj 695 70 r v4;
#X obj 755 71 r ut4;
#X msg 826 64 4;
#X text 241 199 step;
#X obj 212 170 loadbang;
#X obj 76 234 gen_osc_for_step, f 19;
#X obj 76 270 s \$0-new_osc_msg;
#X text 441 205 step;
#X obj 412 176 loadbang;
#X obj 276 240 gen_osc_for_step, f 19;
#X obj 276 276 s \$0-new_osc_msg;
#X text 653 206 step;
#X obj 624 177 loadbang;
#X obj 488 241 gen_osc_for_step, f 19;
#X obj 488 277 s \$0-new_osc_msg;
#X text 869 207 step;
#X obj 840 178 loadbang;
#X obj 704 242 gen_osc_for_step, f 19;
#X obj 704 278 s \$0-new_osc_msg;
#X obj 77 209 r v5;
#X obj 136 209 r ut5;
#X msg 207 201 5;
#X obj 276 214 r v6;
#X obj 336 215 r ut6;
#X msg 407 208 6;
#X obj 488 215 r v7;
#X obj 552 216 r ut7;
#X msg 619 209 7;
#X obj 704 216 r v8;
#X obj 764 217 r ut8;
#X msg 835 210 8;
#X text 235 325 step;
#X obj 206 296 loadbang;
#X obj 70 360 gen_osc_for_step, f 19;
#X obj 70 396 s \$0-new_osc_msg;
#X text 435 331 step;
#X obj 406 302 loadbang;
#X obj 270 366 gen_osc_for_step, f 19;
#X obj 270 402 s \$0-new_osc_msg;
#X text 647 332 step;
#X obj 618 303 loadbang;
#X obj 482 367 gen_osc_for_step, f 19;
#X obj 482 403 s \$0-new_osc_msg;
#X text 863 333 step;
#X obj 834 304 loadbang;
#X obj 698 368 gen_osc_for_step, f 19;
#X obj 698 404 s \$0-new_osc_msg;
#X obj 71 335 r v9;
#X obj 130 335 r ut9;
#X msg 201 327 9;
#X obj 270 340 r v10;
#X obj 330 341 r ut10;
#X msg 401 334 10;
#X obj 482 341 r v11;
#X obj 546 342 r ut11;
#X msg 612 335 11;
#X obj 698 342 r v12;
#X obj 758 343 r ut12;
#X msg 829 336 12;
#X text 233 457 step;
#X obj 204 428 loadbang;
#X obj 68 492 gen_osc_for_step, f 19;
#X obj 68 528 s \$0-new_osc_msg;
#X text 433 463 step;
#X obj 404 434 loadbang;
#X obj 268 498 gen_osc_for_step, f 19;
#X obj 268 534 s \$0-new_osc_msg;
#X text 645 464 step;
#X obj 616 435 loadbang;
#X obj 480 499 gen_osc_for_step, f 19;
#X obj 480 535 s \$0-new_osc_msg;
#X text 861 465 step;
#X obj 832 436 loadbang;
#X obj 696 500 gen_osc_for_step, f 19;
#X obj 696 536 s \$0-new_osc_msg;
#X obj 69 467 r v13;
#X obj 128 467 r ut13;
#X msg 199 459 13;
#X obj 268 472 r v14;
#X obj 328 473 r ut14;
#X msg 399 466 14;
#X obj 478 474 r v15;
#X obj 544 474 r ut15;
#X msg 610 467 15;
#X obj 696 474 r v16;
#X obj 756 475 r ut16;
#X msg 827 468 16;
#X text 237 589 step;
#X obj 208 560 loadbang;
#X obj 72 624 gen_osc_for_step, f 19;
#X obj 72 660 s \$0-new_osc_msg;
#X text 437 595 step;
#X obj 408 566 loadbang;
#X obj 272 630 gen_osc_for_step, f 19;
#X obj 272 666 s \$0-new_osc_msg;
#X text 649 596 step;
#X obj 620 567 loadbang;
#X obj 484 631 gen_osc_for_step, f 19;
#X obj 484 667 s \$0-new_osc_msg;
#X text 865 597 step;
#X obj 836 568 loadbang;
#X obj 700 632 gen_osc_for_step, f 19;
#X obj 700 668 s \$0-new_osc_msg;
#X obj 73 599 r v17;
#X obj 133 598 r ut17;
#X msg 203 591 17;
#X obj 272 604 r v18;
#X obj 332 605 r ut18;
#X msg 403 598 18;
#X obj 482 606 r v19;
#X obj 548 606 r ut19;
#X msg 614 599 19;
#X obj 700 606 r v20;
#X obj 761 607 r ut20;
#X msg 831 600 20;
#X text 232 718 step;
#X obj 203 689 loadbang;
#X obj 67 753 gen_osc_for_step, f 19;
#X obj 67 789 s \$0-new_osc_msg;
#X text 432 724 step;
#X obj 403 695 loadbang;
#X obj 267 759 gen_osc_for_step, f 19;
#X obj 267 795 s \$0-new_osc_msg;
#X text 644 725 step;
#X obj 615 696 loadbang;
#X obj 479 760 gen_osc_for_step, f 19;
#X obj 479 796 s \$0-new_osc_msg;
#X text 860 726 step;
#X obj 831 697 loadbang;
#X obj 695 761 gen_osc_for_step, f 19;
#X obj 695 797 s \$0-new_osc_msg;
#X obj 68 728 r v21;
#X msg 198 719 21;
#X obj 128 726 r ut21;
#X obj 267 733 r v22;
#X obj 327 734 r ut22;
#X msg 398 727 22;
#X obj 477 735 r v23;
#X obj 543 735 r ut23;
#X msg 609 728 23;
#X obj 695 735 r v24;
#X obj 756 736 r ut24;
#X msg 826 729 24;
#X text 234 852 step;
#X obj 205 823 loadbang;
#X obj 69 887 gen_osc_for_step, f 19;
#X obj 69 923 s \$0-new_osc_msg;
#X text 434 858 step;
#X obj 405 829 loadbang;
#X obj 269 893 gen_osc_for_step, f 19;
#X obj 269 929 s \$0-new_osc_msg;
#X text 646 859 step;
#X obj 617 830 loadbang;
#X obj 481 894 gen_osc_for_step, f 19;
#X obj 481 930 s \$0-new_osc_msg;
#X text 862 860 step;
#X obj 833 831 loadbang;
#X obj 697 895 gen_osc_for_step, f 19;
#X obj 697 931 s \$0-new_osc_msg;
#X obj 70 862 r v25;
#X obj 130 860 r ut25;
#X msg 201 853 25;
#X obj 269 867 r v26;
#X obj 329 868 r ut26;
#X msg 400 861 26;
#X obj 479 869 r v27;
#X obj 545 869 r ut27;
#X msg 611 862 27;
#X obj 697 869 r v28;
#X obj 758 870 r ut28;
#X msg 828 863 28;
#X text 227 973 step;
#X obj 198 944 loadbang;
#X obj 62 1008 gen_osc_for_step, f 19;
#X obj 62 1044 s \$0-new_osc_msg;
#X text 427 979 step;
#X obj 398 950 loadbang;
#X obj 262 1014 gen_osc_for_step, f 19;
#X obj 262 1050 s \$0-new_osc_msg;
#X text 639 980 step;
#X obj 610 951 loadbang;
#X obj 474 1015 gen_osc_for_step, f 19;
#X obj 474 1051 s \$0-new_osc_msg;
#X text 855 981 step;
#X obj 826 952 loadbang;
#X obj 690 1016 gen_osc_for_step, f 19;
#X obj 690 1052 s \$0-new_osc_msg;
#X obj 63 983 r v29;
#X obj 123 981 r ut29;
#X msg 194 974 29;
#X obj 262 988 r v30;
#X obj 322 989 r ut30;
#X msg 393 982 30;
#X obj 472 990 r v31;
#X obj 538 990 r ut31;
#X msg 604 983 31;
#X obj 690 990 r v32;
#X obj 751 991 r ut32;
#X msg 821 984 32;
#X obj 475 -28 inlet;
#X text 518 -26 resend data bang;
#X obj 474 -3 s resend_groove_data;
#X obj 199 21 r starting_step;
#X connect 0 0 5 0;
#X connect 1 0 5 1;
#X connect 5 0 7 0;
#X connect 6 0 5 2;
#X connect 8 0 4 0;
#X connect 10 0 15 0;
#X connect 11 0 12 0;
#X connect 13 0 11 0;
#X connect 14 0 11 1;
#X connect 15 0 11 2;
#X connect 17 0 26 0;
#X connect 18 0 19 0;
#X connect 21 0 29 0;
#X connect 22 0 23 0;
#X connect 24 0 18 0;
#X connect 25 0 18 1;
#X connect 26 0 18 2;
#X connect 27 0 22 0;
#X connect 28 0 22 1;
#X connect 29 0 22 2;
#X connect 31 0 48 0;
#X connect 32 0 33 0;
#X connect 35 0 51 0;
#X connect 36 0 37 0;
#X connect 39 0 54 0;
#X connect 40 0 41 0;
#X connect 43 0 57 0;
#X connect 44 0 45 0;
#X connect 46 0 32 0;
#X connect 47 0 32 1;
#X connect 48 0 32 2;
#X connect 49 0 36 0;
#X connect 50 0 36 1;
#X connect 51 0 36 2;
#X connect 52 0 40 0;
#X connect 53 0 40 1;
#X connect 54 0 40 2;
#X connect 55 0 44 0;
#X connect 56 0 44 1;
#X connect 57 0 44 2;
#X connect 59 0 76 0;
#X connect 60 0 61 0;
#X connect 63 0 79 0;
#X connect 64 0 65 0;
#X connect 67 0 82 0;
#X connect 68 0 69 0;
#X connect 71 0 85 0;
#X connect 72 0 73 0;
#X connect 74 0 60 0;
#X connect 75 0 60 1;
#X connect 76 0 60 2;
#X connect 77 0 64 0;
#X connect 78 0 64 1;
#X connect 79 0 64 2;
#X connect 80 0 68 0;
#X connect 81 0 68 1;
#X connect 82 0 68 2;
#X connect 83 0 72 0;
#X connect 84 0 72 1;
#X connect 85 0 72 2;
#X connect 87 0 104 0;
#X connect 88 0 89 0;
#X connect 91 0 107 0;
#X connect 92 0 93 0;
#X connect 95 0 110 0;
#X connect 96 0 97 0;
#X connect 99 0 113 0;
#X connect 100 0 101 0;
#X connect 102 0 88 0;
#X connect 103 0 88 1;
#X connect 104 0 88 2;
#X connect 105 0 92 0;
#X connect 106 0 92 1;
#X connect 107 0 92 2;
#X connect 108 0 96 0;
#X connect 109 0 96 1;
#X connect 110 0 96 2;
#X connect 111 0 100 0;
#X connect 112 0 100 1;
#X connect 113 0 100 2;
#X connect 115 0 132 0;
#X connect 116 0 117 0;
#X connect 119 0 135 0;
#X connect 120 0 121 0;
#X connect 123 0 138 0;
#X connect 124 0 125 0;
#X connect 127 0 141 0;
#X connect 128 0 129 0;
#X connect 130 0 116 0;
#X connect 131 0 116 1;
#X connect 132 0 116 2;
#X connect 133 0 120 0;
#X connect 134 0 120 1;
#X connect 135 0 120 2;
#X connect 136 0 124 0;
#X connect 137 0 124 1;
#X connect 138 0 124 2;
#X connect 139 0 128 0;
#X connect 140 0 128 1;
#X connect 141 0 128 2;
#X connect 143 0 159 0;
#X connect 144 0 145 0;
#X connect 147 0 163 0;
#X connect 148 0 149 0;
#X connect 151 0 166 0;
#X connect 152 0 153 0;
#X connect 155 0 169 0;
#X connect 156 0 157 0;
#X connect 158 0 144 0;
#X connect 159 0 144 2;
#X connect 160 0 144 1;
#X connect 161 0 148 0;
#X connect 162 0 148 1;
#X connect 163 0 148 2;
#X connect 164 0 152 0;
#X connect 165 0 152 1;
#X connect 166 0 152 2;
#X connect 167 0 156 0;
#X connect 168 0 156 1;
#X connect 169 0 156 2;
#X connect 171 0 188 0;
#X connect 172 0 173 0;
#X connect 175 0 191 0;
#X connect 176 0 177 0;
#X connect 179 0 194 0;
#X connect 180 0 181 0;
#X connect 183 0 197 0;
#X connect 184 0 185 0;
#X connect 186 0 172 0;
#X connect 187 0 172 1;
#X connect 188 0 172 2;
#X connect 189 0 176 0;
#X connect 190 0 176 1;
#X connect 191 0 176 2;
#X connect 192 0 180 0;
#X connect 193 0 180 1;
#X connect 194 0 180 2;
#X connect 195 0 184 0;
#X connect 196 0 184 1;
#X connect 197 0 184 2;
#X connect 199 0 216 0;
#X connect 200 0 201 0;
#X connect 203 0 219 0;
#X connect 204 0 205 0;
#X connect 207 0 222 0;
#X connect 208 0 209 0;
#X connect 211 0 225 0;
#X connect 212 0 213 0;
#X connect 214 0 200 0;
#X connect 215 0 200 1;
#X connect 216 0 200 2;
#X connect 217 0 204 0;
#X connect 218 0 204 1;
#X connect 219 0 204 2;
#X connect 220 0 208 0;
#X connect 221 0 208 1;
#X connect 222 0 208 2;
#X connect 223 0 212 0;
#X connect 224 0 212 1;
#X connect 225 0 212 2;
#X connect 226 0 228 0;
#X connect 229 0 6 0;
