#N canvas 0 23 1356 823 12;
#X floatatom 119 109 5 0 0 0 - - -;
#X floatatom 214 85 5 0 0 0 - - -;
#X floatatom 241 355 5 0 0 0 - - -;
#X text 133 163 find location for hit;
#X obj 86 558 tabwrite, f 18;
#X obj 220 53 r ix;
#X obj 129 75 r offset;
#X obj 134 337 r vel;
#X msg 44 345 set \$1;
#X obj 14 198 r voice;
#X obj 118 453 f;
#X obj 135 271 r update_now;
#X floatatom 503 199 5 0 0 0 - - -;
#X obj 508 325 +;
#X obj 505 133 until;
#X obj 505 161 f;
#X obj 543 161 + 1;
#X msg 513 102 96;
#X obj 543 187 mod 96;
#X obj 432 303 * 96;
#X msg 353 515 0;
#X floatatom 391 463 5 0 0 0 - - -;
#X obj 388 490 t b f;
#X text 583 327 reset range;
#X obj 506 45 r reset_range;
#X obj 217 431 f;
#X obj 117 315 t b b, f 11;
#X text 256 8 comment;
#X floatatom 588 153 5 0 0 0 - - -;
#X obj 588 129 r step_ticks;
#X floatatom 457 276 5 0 0 0 - - -;
#X obj 457 252 r step_ticks;
#X floatatom 284 98 5 0 0 0 - - -;
#X obj 284 74 r step_ticks;
#X obj 376 97 + 1;
#X floatatom 376 121 5 0 0 0 - - -;
#X obj 140 143 expr ($f2+$f1) * $f3 + $f4;
#X text 227 559 KICK \, SNARE ... Tables;
#N canvas 0 23 937 614 get_vel_scale_for_voice 0;
#X obj 82 121 r vel_scale_0_in;
#X obj 65 97 sel KICK SNARE HH_CLOSED HH_OPEN TOM_3_LO TOM_2_MID TOM_1_HI
CRASH RIDE, f 79;
#X obj 64 149 f;
#X obj 110 177 f;
#X obj 217 186 f;
#X obj 242 219 f;
#X obj 312 247 f;
#X obj 419 256 f;
#X obj 414 157 f;
#X obj 460 185 f;
#X obj 567 194 f;
#X obj 151 357 outlet;
#X floatatom 148 288 5 0 0 0 - - -;
#X obj 68 20 inlet;
#X obj 128 149 r vel_scale_1_in;
#X obj 235 158 r vel_scale_2_in;
#X obj 284 191 r vel_scale_3_in;
#X obj 330 219 r vel_scale_4_in;
#X obj 437 228 r vel_scale_5_in;
#X obj 432 129 r vel_scale_6_in;
#X obj 478 157 r vel_scale_7_in;
#X obj 585 166 r vel_scale_8_in;
#X connect 0 0 2 1;
#X connect 1 0 2 0;
#X connect 1 1 3 0;
#X connect 1 2 4 0;
#X connect 1 3 5 0;
#X connect 1 4 6 0;
#X connect 1 5 7 0;
#X connect 1 6 8 0;
#X connect 1 7 9 0;
#X connect 1 8 10 0;
#X connect 2 0 12 0;
#X connect 3 0 12 0;
#X connect 4 0 12 0;
#X connect 5 0 12 0;
#X connect 6 0 12 0;
#X connect 7 0 12 0;
#X connect 8 0 12 0;
#X connect 9 0 12 0;
#X connect 10 0 12 0;
#X connect 12 0 11 0;
#X connect 13 0 1 0;
#X connect 14 0 3 1;
#X connect 15 0 4 1;
#X connect 16 0 5 1;
#X connect 17 0 6 1;
#X connect 18 0 7 1;
#X connect 19 0 8 1;
#X connect 20 0 9 1;
#X connect 21 0 10 1;
#X restore 88 243 pd get_vel_scale_for_voice;
#X obj 116 510 * 1;
#X floatatom 196 476 5 0 0 0 - - -;
#X obj 376 73 r starting_tick_pos;
#X obj 264 391 mod;
#X obj 301 364 r total_ticks;
#X floatatom 291 438 5 0 0 0 - - -;
#X connect 0 0 36 0;
#X connect 1 0 19 0;
#X connect 1 0 36 1;
#X connect 2 0 42 0;
#X connect 5 0 1 0;
#X connect 6 0 0 0;
#X connect 7 0 10 1;
#X connect 8 0 4 0;
#X connect 9 0 8 0;
#X connect 9 0 38 0;
#X connect 10 0 39 0;
#X connect 11 0 26 0;
#X connect 12 0 13 0;
#X connect 13 0 21 0;
#X connect 14 0 15 0;
#X connect 15 0 16 0;
#X connect 15 0 12 0;
#X connect 16 0 18 0;
#X connect 17 0 14 0;
#X connect 18 0 15 1;
#X connect 19 0 13 1;
#X connect 20 0 4 0;
#X connect 21 0 22 0;
#X connect 22 0 20 0;
#X connect 22 1 4 1;
#X connect 24 0 17 0;
#X connect 25 0 4 1;
#X connect 26 0 10 0;
#X connect 26 1 25 0;
#X connect 28 0 18 1;
#X connect 29 0 28 0;
#X connect 30 0 19 1;
#X connect 31 0 30 0;
#X connect 32 0 36 2;
#X connect 33 0 32 0;
#X connect 34 0 35 0;
#X connect 35 0 36 3;
#X connect 36 0 2 0;
#X connect 38 0 39 1;
#X connect 38 0 40 0;
#X connect 39 0 4 0;
#X connect 41 0 34 0;
#X connect 42 0 25 1;
#X connect 42 0 44 0;
#X connect 43 0 42 1;
