#N canvas 114 23 1326 825 12;
#X obj 596 394 coll;
#X f 17;
#C restore;
#X floatatom 816 415 5 0 0 0 - - -;
#X msg 514 96 read;
#X msg 626 351 dump;
#X obj 546 489 print;
#X obj 504 35 inlet;
#X obj 305 36 inlet;
#X msg 307 128 write;
#X obj 326 80 t b b;
#X text 552 37 load preset;
#X text 350 36 Save preset;
#X msg 798 297 1000;
#X obj 786 229 r bpm;
#X obj 867 275 r ppq_selection;
#X obj 1030 103 r max_count_0;
#X obj 1040 124 r max_count_1;
#X obj 1060 146 r max_count_2;
#X obj 1066 171 r max_count_3;
#X obj 1076 192 r max_count_4;
#X obj 1096 214 r max_count_5;
#X obj 1104 237 r max_count_6;
#X obj 1114 258 r max_count_7;
#X obj 1134 280 r max_count_8;
#X obj 1163 96 r vel_scale_0;
#X obj 1173 117 r vel_scale_1;
#X obj 1193 139 r vel_scale_2;
#X obj 1199 162 r vel_scale_3;
#X obj 1209 183 r vel_scale_4;
#X obj 1229 205 r vel_scale_5;
#X obj 1231 227 r vel_scale_6;
#X obj 1239 247 r vel_scale_7;
#X obj 1247 270 r vel_scale_8;
#X msg 682 116 clear;
#X obj 904 90 r thres0;
#X obj 914 111 r thres1;
#X obj 934 133 r thres2;
#X obj 943 156 r thres3;
#X obj 954 177 r thres4;
#X obj 974 199 r thres5;
#X obj 982 228 r thres6;
#X obj 991 249 r thres7;
#X obj 1010 272 r thres8;
#X obj 822 662 s thres_0_in;
#X obj 832 683 s thres_1_in;
#X obj 852 705 s thres_2_in;
#X obj 862 728 s thres_3_in;
#X obj 872 749 s thres_4_in;
#X obj 891 771 s thres_5_in;
#X obj 900 800 s thres_6_in;
#X obj 910 821 s thres_7_in;
#X obj 928 844 s thres_8_in;
#X obj 948 675 s max_count_0_in;
#X obj 958 696 s max_count_1_in;
#X obj 978 718 s max_count_2_in;
#X obj 984 743 s max_count_3_in;
#X obj 994 764 s max_count_4_in;
#X obj 1014 786 s max_count_5_in;
#X obj 1022 809 s max_count_6_in;
#X obj 1032 831 s max_count_7_in;
#X obj 1052 852 s max_count_8_in;
#X obj 1081 668 s vel_scale_0_in;
#X obj 1091 689 s vel_scale_1_in;
#X obj 1111 711 s vel_scale_2_in;
#X obj 1117 734 s vel_scale_3_in;
#X obj 1127 756 s vel_scale_4_in;
#X obj 1147 777 s vel_scale_5_in;
#X obj 1149 799 s vel_scale_6_in;
#X obj 1157 819 s vel_scale_7_in;
#X obj 1165 842 s vel_scale_8_in;
#X obj 681 762 s ppq_selection;
#X obj 707 671 s bpm_init;
#X obj 2264 48 r py2pd_port;
#X obj 2287 70 r pd2py_port;
#X obj 2315 90 r drum_out_channel;
#X obj 2284 796 s py2pd_port_init;
#X obj 2307 818 s pd2py_port_init;
#X obj 2336 840 s drum_out_channel_init;
#X obj 2329 116 r groove_volume;
#X obj 2355 880 s groove_volume_init;
#X obj 2380 908 s metronome_volume_init;
#X obj 2340 143 r metronome_volume;
#X obj 2396 943 s meter_numerator_preset;
#X obj 2378 967 s meter_denominator_preset;
#X obj 2346 168 r meter_numerator;
#X obj 2355 201 r meter_denominator;
#X msg 772 128 \$1;
#X floatatom 774 68 5 0 0 0 - - -;
#X obj 898 368 pack f f f f f f f f f f f f f f f f f f f f f f f f
f f f f f f f f f f f f f f f f f f f f f f f f f f f f f f f f f f
f f f f f f f f f f f f f f f f f f f f f f f f f f f f f f f f f f
f f f f f f f f f f f f f f, f 231;
#X obj 898 590 unpack f f f f f f f f f f f f f f f f f f f f f f f
f f f f f f f f f f f f f f f f f f f f f f f f f f f f f f f f f f
f f f f f f f f f f f f f f f f f f f f f f f f f f f f f f f f f f
f f f f f f f f f f f f f f, f 226;
#X obj 2294 668 change;
#X obj 2307 716 change;
#X obj 2434 232 r model_version;
#X obj 2446 643 s model_version_r;
#X connect 0 0 4 0;
#X connect 0 0 88 0;
#X connect 0 1 1 0;
#X connect 0 2 3 0;
#X connect 2 0 0 0;
#X connect 3 0 0 0;
#X connect 5 0 2 0;
#X connect 6 0 8 0;
#X connect 7 0 0 0;
#X connect 8 0 7 0;
#X connect 8 1 11 0;
#X connect 11 0 87 1;
#X connect 12 0 87 1;
#X connect 13 0 87 2;
#X connect 14 0 87 12;
#X connect 15 0 87 13;
#X connect 16 0 87 14;
#X connect 17 0 87 15;
#X connect 18 0 87 16;
#X connect 19 0 87 17;
#X connect 20 0 87 18;
#X connect 21 0 87 19;
#X connect 22 0 87 20;
#X connect 23 0 87 21;
#X connect 24 0 87 22;
#X connect 25 0 87 23;
#X connect 26 0 87 24;
#X connect 27 0 87 25;
#X connect 28 0 87 26;
#X connect 29 0 87 27;
#X connect 30 0 87 28;
#X connect 31 0 87 29;
#X connect 33 0 87 3;
#X connect 34 0 87 4;
#X connect 35 0 87 5;
#X connect 36 0 87 6;
#X connect 37 0 87 7;
#X connect 38 0 87 8;
#X connect 39 0 87 9;
#X connect 40 0 87 10;
#X connect 41 0 87 11;
#X connect 71 0 87 95;
#X connect 72 0 87 96;
#X connect 73 0 87 97;
#X connect 77 0 87 98;
#X connect 80 0 87 99;
#X connect 83 0 87 100;
#X connect 84 0 87 101;
#X connect 86 0 85 0;
#X connect 87 0 0 0;
#X connect 88 0 70 0;
#X connect 88 1 69 0;
#X connect 88 2 42 0;
#X connect 88 3 43 0;
#X connect 88 4 44 0;
#X connect 88 5 45 0;
#X connect 88 6 46 0;
#X connect 88 7 47 0;
#X connect 88 8 48 0;
#X connect 88 9 49 0;
#X connect 88 10 50 0;
#X connect 88 11 51 0;
#X connect 88 12 52 0;
#X connect 88 13 53 0;
#X connect 88 14 54 0;
#X connect 88 15 55 0;
#X connect 88 16 56 0;
#X connect 88 17 57 0;
#X connect 88 18 58 0;
#X connect 88 19 59 0;
#X connect 88 20 60 0;
#X connect 88 21 61 0;
#X connect 88 22 62 0;
#X connect 88 23 63 0;
#X connect 88 24 64 0;
#X connect 88 25 65 0;
#X connect 88 26 66 0;
#X connect 88 27 67 0;
#X connect 88 28 68 0;
#X connect 88 94 89 0;
#X connect 88 95 90 0;
#X connect 88 96 76 0;
#X connect 88 99 81 0;
#X connect 88 100 82 0;
#X connect 88 101 92 0;
#X connect 89 0 74 0;
#X connect 90 0 75 0;
#X connect 91 0 87 102;
