#N canvas 0 23 1440 806 12;
#X obj 50 94 s v1r;
#X obj 193 33 r v1;
#X obj 47 31 r groove_vel_scale;
#X obj 238 32 r groove_vel_scale;
#X obj 424 34 r groove_vel_scale;
#X obj 612 35 r groove_vel_scale;
#X obj 384 34 r v2;
#X obj 241 95 s v2r;
#X obj 427 97 s v3r;
#X obj 570 36 r v3;
#X obj 758 37 r v4;
#X obj 615 98 s v4r;
#X obj 49 65 scale_vel_for_step;
#X obj 240 66 scale_vel_for_step;
#X obj 426 68 scale_vel_for_step;
#X obj 614 69 scale_vel_for_step;
#X obj 52 198 s v5r;
#X obj 195 137 r v5;
#X obj 49 135 r groove_vel_scale;
#X obj 240 136 r groove_vel_scale;
#X obj 426 138 r groove_vel_scale;
#X obj 614 139 r groove_vel_scale;
#X obj 386 138 r v6;
#X obj 243 199 s v6r;
#X obj 429 201 s v7r;
#X obj 572 140 r v7;
#X obj 760 141 r v8;
#X obj 617 202 s v8r;
#X obj 51 169 scale_vel_for_step;
#X obj 242 170 scale_vel_for_step;
#X obj 428 172 scale_vel_for_step;
#X obj 616 173 scale_vel_for_step;
#X obj 50 297 s v9r;
#X obj 193 236 r v9;
#X obj 47 234 r groove_vel_scale;
#X obj 238 235 r groove_vel_scale;
#X obj 424 237 r groove_vel_scale;
#X obj 612 238 r groove_vel_scale;
#X obj 384 237 r v10;
#X obj 241 298 s v10r;
#X obj 427 300 s v11r;
#X obj 570 239 r v11;
#X obj 758 240 r v12;
#X obj 615 301 s v12r;
#X obj 49 268 scale_vel_for_step;
#X obj 240 269 scale_vel_for_step;
#X obj 426 271 scale_vel_for_step;
#X obj 614 272 scale_vel_for_step;
#X obj 52 401 s v13r;
#X obj 195 340 r v13;
#X obj 49 338 r groove_vel_scale;
#X obj 240 339 r groove_vel_scale;
#X obj 426 341 r groove_vel_scale;
#X obj 614 342 r groove_vel_scale;
#X obj 386 341 r v14;
#X obj 243 402 s v14r;
#X obj 429 404 s v15r;
#X obj 572 343 r v15;
#X obj 760 344 r v16;
#X obj 617 405 s v16r;
#X obj 51 372 scale_vel_for_step;
#X obj 242 373 scale_vel_for_step;
#X obj 428 375 scale_vel_for_step;
#X obj 616 376 scale_vel_for_step;
#X obj 50 509 s v17r;
#X obj 193 448 r v17;
#X obj 47 446 r groove_vel_scale;
#X obj 238 447 r groove_vel_scale;
#X obj 424 449 r groove_vel_scale;
#X obj 612 450 r groove_vel_scale;
#X obj 384 449 r v18;
#X obj 427 512 s v19r;
#X obj 570 451 r v19;
#X obj 758 452 r v20;
#X obj 615 513 s v20r;
#X obj 49 480 scale_vel_for_step;
#X obj 240 481 scale_vel_for_step;
#X obj 426 483 scale_vel_for_step;
#X obj 614 484 scale_vel_for_step;
#X obj 52 613 s v21r;
#X obj 195 552 r v21;
#X obj 49 550 r groove_vel_scale;
#X obj 240 551 r groove_vel_scale;
#X obj 426 553 r groove_vel_scale;
#X obj 614 554 r groove_vel_scale;
#X obj 386 553 r v22;
#X obj 243 614 s v22r;
#X obj 429 616 s v23r;
#X obj 572 555 r v23;
#X obj 760 556 r v24;
#X obj 617 617 s v24r;
#X obj 51 584 scale_vel_for_step;
#X obj 242 585 scale_vel_for_step;
#X obj 428 587 scale_vel_for_step;
#X obj 616 588 scale_vel_for_step;
#X obj 50 712 s v25r;
#X obj 193 651 r v25;
#X obj 47 649 r groove_vel_scale;
#X obj 238 650 r groove_vel_scale;
#X obj 424 652 r groove_vel_scale;
#X obj 612 653 r groove_vel_scale;
#X obj 384 652 r v26;
#X obj 241 713 s v26r;
#X obj 427 715 s v27r;
#X obj 570 654 r v27;
#X obj 758 655 r v28;
#X obj 615 716 s v28r;
#X obj 49 683 scale_vel_for_step;
#X obj 240 684 scale_vel_for_step;
#X obj 426 686 scale_vel_for_step;
#X obj 614 687 scale_vel_for_step;
#X obj 52 816 s v29r;
#X obj 195 755 r v29;
#X obj 49 753 r groove_vel_scale;
#X obj 240 754 r groove_vel_scale;
#X obj 426 756 r groove_vel_scale;
#X obj 614 757 r groove_vel_scale;
#X obj 386 756 r v30;
#X obj 243 817 s v30r;
#X obj 429 819 s v31r;
#X obj 572 758 r v31;
#X obj 760 759 r v32;
#X obj 617 820 s v32r;
#X obj 51 787 scale_vel_for_step;
#X obj 242 788 scale_vel_for_step;
#X obj 428 790 scale_vel_for_step;
#X obj 616 791 scale_vel_for_step;
#X obj 241 510 s v18r;
#X connect 1 0 12 1;
#X connect 2 0 12 0;
#X connect 3 0 13 0;
#X connect 4 0 14 0;
#X connect 5 0 15 0;
#X connect 6 0 13 1;
#X connect 9 0 14 1;
#X connect 10 0 15 1;
#X connect 12 0 0 0;
#X connect 13 0 7 0;
#X connect 14 0 8 0;
#X connect 15 0 11 0;
#X connect 17 0 28 1;
#X connect 18 0 28 0;
#X connect 19 0 29 0;
#X connect 20 0 30 0;
#X connect 21 0 31 0;
#X connect 22 0 29 1;
#X connect 25 0 30 1;
#X connect 26 0 31 1;
#X connect 28 0 16 0;
#X connect 29 0 23 0;
#X connect 30 0 24 0;
#X connect 31 0 27 0;
#X connect 33 0 44 1;
#X connect 34 0 44 0;
#X connect 35 0 45 0;
#X connect 36 0 46 0;
#X connect 37 0 47 0;
#X connect 38 0 45 1;
#X connect 41 0 46 1;
#X connect 42 0 47 1;
#X connect 44 0 32 0;
#X connect 45 0 39 0;
#X connect 46 0 40 0;
#X connect 47 0 43 0;
#X connect 49 0 60 1;
#X connect 50 0 60 0;
#X connect 51 0 61 0;
#X connect 52 0 62 0;
#X connect 53 0 63 0;
#X connect 54 0 61 1;
#X connect 57 0 62 1;
#X connect 58 0 63 1;
#X connect 60 0 48 0;
#X connect 61 0 55 0;
#X connect 62 0 56 0;
#X connect 63 0 59 0;
#X connect 65 0 75 1;
#X connect 66 0 75 0;
#X connect 67 0 76 0;
#X connect 68 0 77 0;
#X connect 69 0 78 0;
#X connect 70 0 76 1;
#X connect 72 0 77 1;
#X connect 73 0 78 1;
#X connect 75 0 64 0;
#X connect 76 0 127 0;
#X connect 77 0 71 0;
#X connect 78 0 74 0;
#X connect 80 0 91 1;
#X connect 81 0 91 0;
#X connect 82 0 92 0;
#X connect 83 0 93 0;
#X connect 84 0 94 0;
#X connect 85 0 92 1;
#X connect 88 0 93 1;
#X connect 89 0 94 1;
#X connect 91 0 79 0;
#X connect 92 0 86 0;
#X connect 93 0 87 0;
#X connect 94 0 90 0;
#X connect 96 0 107 1;
#X connect 97 0 107 0;
#X connect 98 0 108 0;
#X connect 99 0 109 0;
#X connect 100 0 110 0;
#X connect 101 0 108 1;
#X connect 104 0 109 1;
#X connect 105 0 110 1;
#X connect 107 0 95 0;
#X connect 108 0 102 0;
#X connect 109 0 103 0;
#X connect 110 0 106 0;
#X connect 112 0 123 1;
#X connect 113 0 123 0;
#X connect 114 0 124 0;
#X connect 115 0 125 0;
#X connect 116 0 126 0;
#X connect 117 0 124 1;
#X connect 120 0 125 1;
#X connect 121 0 126 1;
#X connect 123 0 111 0;
#X connect 124 0 118 0;
#X connect 125 0 119 0;
#X connect 126 0 122 0;
