#N canvas 555 236 753 506 12;
#X obj 301 441 netsend -u -b;
#X msg 431 413 disconnect, f 22;
#X msg 294 361 connect 127.0.0.1 \$1;
#N canvas 51 452 450 300 prepare_groove_vel_utime_msg 0;
#X obj 14 117 list prepend send, f 10;
#X obj 14 165 list trim;
#X obj 14 83 oscformat /VelutimeIndex, f 15;
#X obj 14 22 prepare_osc_message;
#X obj 16 200 outlet;
#X obj 17 -14 inlet;
#X text 60 -12 resend data bang;
#X connect 0 0 1 0;
#X connect 1 0 4 0;
#X connect 2 0 0 0;
#X connect 3 0 2 0;
#X connect 5 0 3 0;
#X restore 265 254 pd prepare_groove_vel_utime_msg;
#N canvas 591 188 821 495 send_sampling_threshold 0;
#X floatatom 34 134 5 0 0 0 - - - 0;
#X obj 34 195 list prepend send, f 10;
#X obj 34 243 list trim;
#X obj 32 691 outlet;
#X obj 34 161 oscformat /threshold/0;
#X obj 33 104 r thres0;
#X floatatom 196 136 5 0 0 0 - - - 0;
#X obj 196 197 list prepend send, f 10;
#X obj 196 245 list trim;
#X floatatom 359 136 5 0 0 0 - - - 0;
#X obj 359 197 list prepend send, f 10;
#X obj 359 245 list trim;
#X floatatom 540 136 5 0 0 0 - - - 0;
#X obj 540 197 list prepend send, f 10;
#X obj 540 245 list trim;
#X obj 195 106 r thres1;
#X obj 196 163 oscformat /threshold/1;
#X obj 358 106 r thres2;
#X obj 359 163 oscformat /threshold/2;
#X obj 539 106 r thres3;
#X obj 540 163 oscformat /threshold/3;
#X floatatom 37 352 5 0 0 0 - - - 0;
#X obj 37 413 list prepend send, f 10;
#X obj 37 461 list trim;
#X floatatom 199 354 5 0 0 0 - - - 0;
#X obj 199 415 list prepend send, f 10;
#X obj 199 463 list trim;
#X floatatom 362 354 5 0 0 0 - - - 0;
#X obj 362 415 list prepend send, f 10;
#X obj 362 463 list trim;
#X floatatom 543 354 5 0 0 0 - - - 0;
#X obj 543 415 list prepend send, f 10;
#X obj 543 463 list trim;
#X obj 36 322 r thres4;
#X obj 37 379 oscformat /threshold/4;
#X obj 198 324 r thres5;
#X obj 199 381 oscformat /threshold/5;
#X obj 361 324 r thres6;
#X obj 362 381 oscformat /threshold/6;
#X obj 542 324 r thres7;
#X obj 543 381 oscformat /threshold/7;
#X floatatom 280 592 5 0 0 0 - - - 0;
#X obj 280 653 list prepend send, f 10;
#X obj 280 701 list trim;
#X obj 279 562 r thres8;
#X obj 280 619 oscformat /threshold/8;
#X obj 36 278 s msg_1;
#X obj 198 280 s msg_1;
#X obj 361 280 s msg_1;
#X obj 542 280 s msg_1;
#X obj 545 498 s msg_1;
#X obj 364 498 s msg_1;
#X obj 201 498 s msg_1;
#X obj 39 496 s msg_1;
#X obj 282 736 s msg_1;
#X obj 32 666 r msg_1;
#X obj 396 5 inlet;
#X obj 395 30 s \$0-resend_data;
#X text 439 7 resend data bang;
#X obj 115 75 r \$0-resend_data;
#X obj 267 75 r \$0-resend_data;
#X obj 437 76 r \$0-resend_data;
#X obj 607 107 r \$0-resend_data;
#X obj 612 326 r \$0-resend_data;
#X obj 117 303 r \$0-resend_data;
#X obj 282 306 r \$0-resend_data;
#X obj 432 306 r \$0-resend_data;
#X obj 353 564 r \$0-resend_data;
#X connect 0 0 4 0;
#X connect 1 0 2 0;
#X connect 2 0 46 0;
#X connect 4 0 1 0;
#X connect 5 0 0 0;
#X connect 6 0 16 0;
#X connect 7 0 8 0;
#X connect 8 0 47 0;
#X connect 9 0 18 0;
#X connect 10 0 11 0;
#X connect 11 0 48 0;
#X connect 12 0 20 0;
#X connect 13 0 14 0;
#X connect 14 0 49 0;
#X connect 15 0 6 0;
#X connect 16 0 7 0;
#X connect 17 0 9 0;
#X connect 18 0 10 0;
#X connect 19 0 12 0;
#X connect 20 0 13 0;
#X connect 21 0 34 0;
#X connect 22 0 23 0;
#X connect 23 0 53 0;
#X connect 24 0 36 0;
#X connect 25 0 26 0;
#X connect 26 0 52 0;
#X connect 27 0 38 0;
#X connect 28 0 29 0;
#X connect 29 0 51 0;
#X connect 30 0 40 0;
#X connect 31 0 32 0;
#X connect 32 0 50 0;
#X connect 33 0 21 0;
#X connect 34 0 22 0;
#X connect 35 0 24 0;
#X connect 36 0 25 0;
#X connect 37 0 27 0;
#X connect 38 0 28 0;
#X connect 39 0 30 0;
#X connect 40 0 31 0;
#X connect 41 0 45 0;
#X connect 42 0 43 0;
#X connect 43 0 54 0;
#X connect 44 0 41 0;
#X connect 45 0 42 0;
#X connect 55 0 3 0;
#X connect 56 0 57 0;
#X connect 59 0 0 0;
#X connect 60 0 6 0;
#X connect 61 0 9 0;
#X connect 62 0 12 0;
#X connect 63 0 30 0;
#X connect 64 0 21 0;
#X connect 65 0 24 0;
#X connect 66 0 27 0;
#X connect 67 0 41 0;
#X restore 229 213 pd send_sampling_threshold;
#N canvas 0 23 821 495 send_max_counts_allowed 0;
#X floatatom 34 134 5 0 0 0 - - - 0;
#X obj 34 195 list prepend send, f 10;
#X obj 34 243 list trim;
#X obj 32 638 outlet;
#X obj 36 278 s msg_;
#X obj 32 613 r msg_;
#X floatatom 196 136 5 0 0 0 - - - 0;
#X obj 196 197 list prepend send, f 10;
#X obj 196 245 list trim;
#X obj 198 280 s msg_;
#X floatatom 359 136 5 0 0 0 - - - 0;
#X obj 359 197 list prepend send, f 10;
#X obj 359 245 list trim;
#X obj 361 280 s msg_;
#X floatatom 540 136 5 0 0 0 - - - 0;
#X obj 540 197 list prepend send, f 10;
#X obj 540 245 list trim;
#X obj 542 280 s msg_;
#X floatatom 37 336 5 0 0 0 - - - 0;
#X obj 37 397 list prepend send, f 10;
#X obj 37 445 list trim;
#X obj 39 480 s msg_;
#X floatatom 199 338 5 0 0 0 - - - 0;
#X obj 199 399 list prepend send, f 10;
#X obj 199 447 list trim;
#X obj 201 482 s msg_;
#X floatatom 362 338 5 0 0 0 - - - 0;
#X obj 362 399 list prepend send, f 10;
#X obj 362 447 list trim;
#X obj 364 482 s msg_;
#X floatatom 543 338 5 0 0 0 - - - 0;
#X obj 543 399 list prepend send, f 10;
#X obj 543 447 list trim;
#X obj 545 482 s msg_;
#X floatatom 280 539 5 0 0 0 - - - 0;
#X obj 280 600 list prepend send, f 10;
#X obj 280 648 list trim;
#X obj 282 683 s msg_;
#X obj 33 104 r max_count_0;
#X obj 195 106 r max_count_1;
#X obj 358 106 r max_count_2;
#X obj 539 106 r max_count_3;
#X obj 36 306 r max_count_4;
#X obj 198 308 r max_count_5;
#X obj 362 308 r max_count_6;
#X obj 542 309 r max_count_7;
#X obj 279 509 r max_count_8;
#X obj 34 161 oscformat /max_count/0;
#X obj 196 163 oscformat /max_count/1;
#X obj 359 163 oscformat /max_count/2;
#X obj 541 163 oscformat /max_count/3;
#X obj 543 365 oscformat /max_count/7;
#X obj 362 365 oscformat /max_count/6;
#X obj 199 365 oscformat /max_count/5;
#X obj 37 363 oscformat /max_count/4;
#X obj 280 566 oscformat /max_count/8;
#X obj 291 17 inlet;
#X obj 290 42 s \$0-resend_data;
#X text 334 19 resend data bang;
#X obj 300 81 r \$0-resend_data;
#X connect 0 0 47 0;
#X connect 1 0 2 0;
#X connect 2 0 4 0;
#X connect 5 0 3 0;
#X connect 6 0 48 0;
#X connect 7 0 8 0;
#X connect 8 0 9 0;
#X connect 10 0 49 0;
#X connect 11 0 12 0;
#X connect 12 0 13 0;
#X connect 14 0 50 0;
#X connect 15 0 16 0;
#X connect 16 0 17 0;
#X connect 18 0 54 0;
#X connect 19 0 20 0;
#X connect 20 0 21 0;
#X connect 22 0 53 0;
#X connect 23 0 24 0;
#X connect 24 0 25 0;
#X connect 26 0 52 0;
#X connect 27 0 28 0;
#X connect 28 0 29 0;
#X connect 30 0 51 0;
#X connect 31 0 32 0;
#X connect 32 0 33 0;
#X connect 34 0 55 0;
#X connect 35 0 36 0;
#X connect 36 0 37 0;
#X connect 38 0 0 0;
#X connect 39 0 6 0;
#X connect 40 0 10 0;
#X connect 41 0 14 0;
#X connect 42 0 18 0;
#X connect 43 0 22 0;
#X connect 44 0 26 0;
#X connect 45 0 30 0;
#X connect 46 0 34 0;
#X connect 47 0 1 0;
#X connect 48 0 7 0;
#X connect 49 0 11 0;
#X connect 50 0 15 0;
#X connect 51 0 31 0;
#X connect 52 0 27 0;
#X connect 53 0 23 0;
#X connect 54 0 19 0;
#X connect 55 0 35 0;
#X connect 56 0 57 0;
#X connect 59 0 0 0;
#X connect 59 0 6 0;
#X connect 59 0 10 0;
#X connect 59 0 14 0;
#X connect 59 0 18 0;
#X connect 59 0 22 0;
#X connect 59 0 26 0;
#X connect 59 0 30 0;
#X connect 59 0 34 0;
#X restore 170 139 pd send_max_counts_allowed;
#X obj 294 275 r pd2py_port;
#X obj 442 393 r disconnect_pd2py_connection;
#N canvas 700 186 450 300 trigger_calculation 0;
#X obj 66 120 bng 15 250 50 0 empty empty empty 17 7 0 10 #fcfcfc #000000
#000000;
#X obj 65 183 list prepend send, f 10;
#X obj 65 231 list trim;
#X obj 64 149 oscformat /regenerate/;
#X obj 68 265 outlet;
#X obj 46 15 r vel_scale_0;
#X obj 148 15 r vel_scale_1;
#X obj 251 16 r vel_scale_2;
#X obj 355 19 r vel_scale_3;
#X obj 325 51 r vel_scale_7;
#X obj 221 48 r vel_scale_6;
#X obj 119 47 r vel_scale_5;
#X obj 16 47 r vel_scale_4;
#X obj 216 89 r vel_scale_8;
#X obj 291 -16 inlet;
#X connect 0 0 3 0;
#X connect 1 0 2 0;
#X connect 2 0 4 0;
#X connect 3 0 1 0;
#X connect 5 0 0 0;
#X connect 6 0 0 0;
#X connect 7 0 0 0;
#X connect 8 0 0 0;
#X connect 9 0 0 0;
#X connect 10 0 0 0;
#X connect 11 0 0 0;
#X connect 12 0 0 0;
#X connect 13 0 0 0;
#X connect 14 0 0 0;
#X restore 115 93 pd trigger_calculation;
#X text 282 85 Whenever volumes for individual voices are adjusted
\, signal py engine to regenerate;
#X text 363 133 Send max number of voices allowed for generation to
py engine;
#X text 427 203 Send likelihood (threshold of sampling of voices) to
py engine;
#X text 493 247 Send vel and utimings at any step to py engine;
#X obj 196 25 r force_resend_data_to_py;
#X obj 338 311 change;
#X obj 336 338 t f b;
#N canvas 132 66 955 688 send_model_configs 1;
#X floatatom 55 98 5 0 0 0 - - - 0;
#X obj 55 159 list prepend send, f 10;
#X obj 55 207 list trim;
#X obj 545 39 bng 15 250 50 0 empty empty empty 17 7 0 10 #fcfcfc #000000
#000000;
#X obj 333 558 outlet;
#X obj 54 68 r wait_time_between_generations;
#X obj 55 125 oscformat /time_between_generations/;
#X obj 542 6 inlet;
#X text 600 6 force resend;
#X connect 0 0 6 0;
#X connect 1 0 2 0;
#X connect 2 0 4 0;
#X connect 3 0 0 0;
#X connect 5 0 0 0;
#X connect 6 0 1 0;
#X connect 7 0 3 0;
#X restore 66 348 pd send_model_configs;
#X obj 196 50 t b b b b b;
#X connect 1 0 0 0;
#X connect 2 0 0 0;
#X connect 3 0 0 0;
#X connect 4 0 0 0;
#X connect 5 0 0 0;
#X connect 6 0 14 0;
#X connect 7 0 1 0;
#X connect 8 0 0 0;
#X connect 13 0 17 0;
#X connect 14 0 15 0;
#X connect 15 0 2 0;
#X connect 15 1 1 0;
#X connect 16 0 0 0;
#X connect 17 0 8 0;
#X connect 17 1 5 0;
#X connect 17 2 4 0;
#X connect 17 3 3 0;
#X connect 17 4 16 0;
