#N canvas 0 23 1440 806 10;
#X obj 363 149 loadbang;
#X obj 328 315 bng 15 250 50 0 empty empty empty 17 7 0 10 -262144
-1 -1;
#X obj 27 291 pack f f, f 11;
#X obj 28 132 r v1;
#X obj 64 131 r ut1;
#X obj 64 149 t b f;
#X obj 109 292 pack f f, f 11;
#X obj 146 150 t b f;
#X obj 190 292 pack f f, f 11;
#X obj 227 150 t b f;
#X obj 269 292 pack f f, f 11;
#X obj 306 150 t b f;
#X obj 109 133 r v2;
#X obj 147 132 r ut2;
#X obj 190 133 r v3;
#X obj 227 132 r ut3;
#X obj 269 133 r v4;
#X obj 306 132 r ut4;
#X obj 363 297 f 1;
#X text 362 129 beat idx;
#X obj 27 341 draw_using_sliders_for_beat_ix, f 55;
#X obj -4 257 bng 15 250 50 0 empty ready_to_redraw empty 17 7 0 10
-262144 -1 -1;
#X obj 41 230 spigot;
#X obj 39 173 r update_on_ut_change, f 7;
#X msg 535 59 \; groove const 0 \;;
#X obj 484 -6 r force_redraw_groove;
#X obj 484 23 t b b b;
#X msg 504 94 \; ready_to_redraw 1 \;;
#X obj 124 235 spigot;
#X obj 122 178 r update_on_ut_change, f 7;
#X obj 210 241 spigot;
#X obj 208 184 r update_on_ut_change, f 7;
#X obj 286 243 spigot;
#X obj 284 186 r update_on_ut_change, f 7;
#X obj 901 151 loadbang;
#X obj 866 317 bng 15 250 50 0 empty empty empty 17 7 0 10 -262144
-1 -1;
#X obj 565 293 pack f f, f 11;
#X obj 602 151 t b f;
#X obj 647 294 pack f f, f 11;
#X obj 684 152 t b f;
#X obj 728 294 pack f f, f 11;
#X obj 765 152 t b f;
#X obj 807 294 pack f f, f 11;
#X obj 844 152 t b f;
#X text 900 131 beat idx;
#X obj 565 343 draw_using_sliders_for_beat_ix, f 55;
#X obj 534 259 bng 15 250 50 0 empty ready_to_redraw empty 17 7 0 10
-262144 -1 -1;
#X obj 579 232 spigot;
#X obj 577 175 r update_on_ut_change, f 7;
#X obj 662 237 spigot;
#X obj 660 180 r update_on_ut_change, f 7;
#X obj 748 243 spigot;
#X obj 746 186 r update_on_ut_change, f 7;
#X obj 824 245 spigot;
#X obj 822 188 r update_on_ut_change, f 7;
#X obj 566 134 r v5;
#X obj 602 133 r ut5;
#X obj 647 135 r v6;
#X obj 685 134 r ut6;
#X obj 728 135 r v7;
#X obj 765 134 r ut7;
#X obj 807 135 r v8;
#X obj 844 134 r ut8;
#X obj 901 299 f 2;
#X obj 373 400 loadbang;
#X obj 338 566 bng 15 250 50 0 empty empty empty 17 7 0 10 -262144
-1 -1;
#X obj 37 542 pack f f, f 11;
#X obj 74 400 t b f;
#X obj 119 543 pack f f, f 11;
#X obj 156 401 t b f;
#X obj 200 543 pack f f, f 11;
#X obj 237 401 t b f;
#X obj 279 543 pack f f, f 11;
#X obj 316 401 t b f;
#X text 372 380 beat idx;
#X obj 37 592 draw_using_sliders_for_beat_ix, f 55;
#X obj 6 508 bng 15 250 50 0 empty ready_to_redraw empty 17 7 0 10
-262144 -1 -1;
#X obj 51 481 spigot;
#X obj 49 424 r update_on_ut_change, f 7;
#X obj 134 486 spigot;
#X obj 132 429 r update_on_ut_change, f 7;
#X obj 220 492 spigot;
#X obj 218 435 r update_on_ut_change, f 7;
#X obj 296 494 spigot;
#X obj 294 437 r update_on_ut_change, f 7;
#X obj 911 402 loadbang;
#X obj 876 568 bng 15 250 50 0 empty empty empty 17 7 0 10 -262144
-1 -1;
#X obj 575 544 pack f f, f 11;
#X obj 612 402 t b f;
#X obj 657 545 pack f f, f 11;
#X obj 694 403 t b f;
#X obj 738 545 pack f f, f 11;
#X obj 775 403 t b f;
#X obj 817 545 pack f f, f 11;
#X obj 854 403 t b f;
#X text 910 382 beat idx;
#X obj 575 594 draw_using_sliders_for_beat_ix, f 55;
#X obj 544 510 bng 15 250 50 0 empty ready_to_redraw empty 17 7 0 10
-262144 -1 -1;
#X obj 589 483 spigot;
#X obj 587 426 r update_on_ut_change, f 7;
#X obj 672 488 spigot;
#X obj 670 431 r update_on_ut_change, f 7;
#X obj 758 494 spigot;
#X obj 756 437 r update_on_ut_change, f 7;
#X obj 834 496 spigot;
#X obj 832 439 r update_on_ut_change, f 7;
#X obj 38 383 r v9;
#X obj 74 382 r ut9;
#X obj 119 384 r v10;
#X obj 157 383 r ut10;
#X obj 199 384 r v11;
#X obj 237 383 r ut11;
#X obj 279 384 r v12;
#X obj 316 383 r ut12;
#X obj 576 385 r v13;
#X obj 612 384 r ut13;
#X obj 657 386 r v14;
#X obj 695 385 r ut14;
#X obj 738 386 r v15;
#X obj 775 385 r ut15;
#X obj 817 386 r v16;
#X obj 854 385 r ut16;
#X obj 911 550 f 4;
#X obj 373 548 f 3;
#X obj 378 652 loadbang;
#X obj 343 818 bng 15 250 50 0 empty empty empty 17 7 0 10 -262144
-1 -1;
#X obj 42 794 pack f f, f 11;
#X obj 79 652 t b f;
#X obj 124 795 pack f f, f 11;
#X obj 161 653 t b f;
#X obj 205 795 pack f f, f 11;
#X obj 242 653 t b f;
#X obj 284 795 pack f f, f 11;
#X obj 321 653 t b f;
#X text 377 632 beat idx;
#X obj 42 844 draw_using_sliders_for_beat_ix, f 55;
#X obj 11 760 bng 15 250 50 0 empty ready_to_redraw empty 17 7 0 10
-262144 -1 -1;
#X obj 56 733 spigot;
#X obj 54 676 r update_on_ut_change, f 7;
#X obj 139 738 spigot;
#X obj 137 681 r update_on_ut_change, f 7;
#X obj 225 744 spigot;
#X obj 223 687 r update_on_ut_change, f 7;
#X obj 301 746 spigot;
#X obj 299 689 r update_on_ut_change, f 7;
#X obj 916 654 loadbang;
#X obj 881 820 bng 15 250 50 0 empty empty empty 17 7 0 10 -262144
-1 -1;
#X obj 580 796 pack f f, f 11;
#X obj 617 654 t b f;
#X obj 662 797 pack f f, f 11;
#X obj 699 655 t b f;
#X obj 743 797 pack f f, f 11;
#X obj 780 655 t b f;
#X obj 822 797 pack f f, f 11;
#X obj 859 655 t b f;
#X text 915 634 beat idx;
#X obj 580 846 draw_using_sliders_for_beat_ix, f 55;
#X obj 549 762 bng 15 250 50 0 empty ready_to_redraw empty 17 7 0 10
-262144 -1 -1;
#X obj 594 735 spigot;
#X obj 592 678 r update_on_ut_change, f 7;
#X obj 677 740 spigot;
#X obj 675 683 r update_on_ut_change, f 7;
#X obj 763 746 spigot;
#X obj 761 689 r update_on_ut_change, f 7;
#X obj 839 748 spigot;
#X obj 837 691 r update_on_ut_change, f 7;
#X obj 388 903 loadbang;
#X obj 353 1069 bng 15 250 50 0 empty empty empty 17 7 0 10 -262144
-1 -1;
#X obj 52 1045 pack f f, f 11;
#X obj 89 903 t b f;
#X obj 134 1046 pack f f, f 11;
#X obj 171 904 t b f;
#X obj 215 1046 pack f f, f 11;
#X obj 252 904 t b f;
#X obj 294 1046 pack f f, f 11;
#X obj 331 904 t b f;
#X text 387 883 beat idx;
#X obj 52 1095 draw_using_sliders_for_beat_ix, f 55;
#X obj 21 1011 bng 15 250 50 0 empty ready_to_redraw empty 17 7 0 10
-262144 -1 -1;
#X obj 66 984 spigot;
#X obj 64 927 r update_on_ut_change, f 7;
#X obj 149 989 spigot;
#X obj 147 932 r update_on_ut_change, f 7;
#X obj 235 995 spigot;
#X obj 233 938 r update_on_ut_change, f 7;
#X obj 311 997 spigot;
#X obj 309 940 r update_on_ut_change, f 7;
#X obj 926 905 loadbang;
#X obj 891 1071 bng 15 250 50 0 empty empty empty 17 7 0 10 -262144
-1 -1;
#X obj 590 1047 pack f f, f 11;
#X obj 627 905 t b f;
#X obj 672 1048 pack f f, f 11;
#X obj 709 906 t b f;
#X obj 753 1048 pack f f, f 11;
#X obj 790 906 t b f;
#X obj 832 1048 pack f f, f 11;
#X obj 869 906 t b f;
#X text 925 885 beat idx;
#X obj 590 1097 draw_using_sliders_for_beat_ix, f 55;
#X obj 559 1013 bng 15 250 50 0 empty ready_to_redraw empty 17 7 0
10 -262144 -1 -1;
#X obj 604 986 spigot;
#X obj 602 929 r update_on_ut_change, f 7;
#X obj 687 991 spigot;
#X obj 685 934 r update_on_ut_change, f 7;
#X obj 773 997 spigot;
#X obj 771 940 r update_on_ut_change, f 7;
#X obj 849 999 spigot;
#X obj 847 942 r update_on_ut_change, f 7;
#X obj 43 635 r v17;
#X obj 79 634 r ut17;
#X obj 124 636 r v18;
#X obj 162 635 r ut18;
#X obj 205 635 r v19;
#X obj 242 635 r ut19;
#X obj 284 636 r v20;
#X obj 321 635 r ut20;
#X obj 378 800 f 5;
#X obj 581 637 r v21;
#X obj 617 636 r ut21;
#X obj 662 638 r v22;
#X obj 700 637 r ut22;
#X obj 743 638 r v23;
#X obj 780 637 r ut23;
#X obj 822 638 r v24;
#X obj 859 637 r ut24;
#X obj 916 802 f 6;
#X obj 53 886 r v25;
#X obj 89 885 r ut25;
#X obj 134 887 r v26;
#X obj 172 886 r ut26;
#X obj 214 887 r v27;
#X obj 252 886 r ut27;
#X obj 294 887 r v28;
#X obj 331 886 r ut28;
#X obj 591 888 r v29;
#X obj 627 887 r ut29;
#X obj 672 889 r v30;
#X obj 710 888 r ut30;
#X obj 753 889 r v31;
#X obj 790 888 r ut31;
#X obj 832 889 r v32;
#X obj 869 888 r ut32;
#X obj 388 1051 f 7;
#X obj 926 1053 f 8;
#X connect 0 0 18 0;
#X connect 1 0 18 0;
#X connect 2 0 20 0;
#X connect 3 0 2 0;
#X connect 4 0 5 0;
#X connect 5 0 22 0;
#X connect 5 1 2 1;
#X connect 6 0 20 1;
#X connect 7 0 28 0;
#X connect 7 1 6 1;
#X connect 8 0 20 2;
#X connect 9 0 30 0;
#X connect 9 1 8 1;
#X connect 10 0 20 3;
#X connect 11 0 32 0;
#X connect 11 1 10 1;
#X connect 12 0 6 0;
#X connect 13 0 7 0;
#X connect 14 0 8 0;
#X connect 15 0 9 0;
#X connect 16 0 10 0;
#X connect 17 0 11 0;
#X connect 18 0 20 4;
#X connect 21 0 2 0;
#X connect 21 0 6 0;
#X connect 21 0 8 0;
#X connect 21 0 10 0;
#X connect 22 0 2 0;
#X connect 23 0 22 1;
#X connect 25 0 26 0;
#X connect 26 1 27 0;
#X connect 26 2 24 0;
#X connect 28 0 6 0;
#X connect 29 0 28 1;
#X connect 30 0 8 0;
#X connect 31 0 30 1;
#X connect 32 0 10 0;
#X connect 33 0 32 1;
#X connect 34 0 63 0;
#X connect 35 0 63 0;
#X connect 36 0 45 0;
#X connect 37 0 47 0;
#X connect 37 1 36 1;
#X connect 38 0 45 1;
#X connect 39 0 49 0;
#X connect 39 1 38 1;
#X connect 40 0 45 2;
#X connect 41 0 51 0;
#X connect 41 1 40 1;
#X connect 42 0 45 3;
#X connect 43 0 53 0;
#X connect 43 1 42 1;
#X connect 46 0 36 0;
#X connect 46 0 38 0;
#X connect 46 0 40 0;
#X connect 46 0 42 0;
#X connect 47 0 36 0;
#X connect 48 0 47 1;
#X connect 49 0 38 0;
#X connect 50 0 49 1;
#X connect 51 0 40 0;
#X connect 52 0 51 1;
#X connect 53 0 42 0;
#X connect 54 0 53 1;
#X connect 55 0 36 0;
#X connect 56 0 37 0;
#X connect 57 0 38 0;
#X connect 58 0 39 0;
#X connect 59 0 40 0;
#X connect 60 0 41 0;
#X connect 61 0 42 0;
#X connect 62 0 43 0;
#X connect 63 0 45 4;
#X connect 64 0 123 0;
#X connect 65 0 123 0;
#X connect 66 0 75 0;
#X connect 67 0 77 0;
#X connect 67 1 66 1;
#X connect 68 0 75 1;
#X connect 69 0 79 0;
#X connect 69 1 68 1;
#X connect 70 0 75 2;
#X connect 71 0 81 0;
#X connect 71 1 70 1;
#X connect 72 0 75 3;
#X connect 73 0 83 0;
#X connect 73 1 72 1;
#X connect 76 0 66 0;
#X connect 76 0 68 0;
#X connect 76 0 70 0;
#X connect 76 0 72 0;
#X connect 77 0 66 0;
#X connect 78 0 77 1;
#X connect 79 0 68 0;
#X connect 80 0 79 1;
#X connect 81 0 70 0;
#X connect 82 0 81 1;
#X connect 83 0 72 0;
#X connect 84 0 83 1;
#X connect 85 0 122 0;
#X connect 86 0 122 0;
#X connect 87 0 96 0;
#X connect 88 0 98 0;
#X connect 88 1 87 1;
#X connect 89 0 96 1;
#X connect 90 0 100 0;
#X connect 90 1 89 1;
#X connect 91 0 96 2;
#X connect 92 0 102 0;
#X connect 92 1 91 1;
#X connect 93 0 96 3;
#X connect 94 0 104 0;
#X connect 94 1 93 1;
#X connect 97 0 87 0;
#X connect 97 0 89 0;
#X connect 97 0 91 0;
#X connect 97 0 93 0;
#X connect 98 0 87 0;
#X connect 99 0 98 1;
#X connect 100 0 89 0;
#X connect 101 0 100 1;
#X connect 102 0 91 0;
#X connect 103 0 102 1;
#X connect 104 0 93 0;
#X connect 105 0 104 1;
#X connect 106 0 66 0;
#X connect 107 0 67 0;
#X connect 108 0 68 0;
#X connect 109 0 69 0;
#X connect 110 0 70 0;
#X connect 111 0 71 0;
#X connect 112 0 72 0;
#X connect 113 0 73 0;
#X connect 114 0 87 0;
#X connect 115 0 88 0;
#X connect 116 0 89 0;
#X connect 117 0 90 0;
#X connect 118 0 91 0;
#X connect 119 0 92 0;
#X connect 120 0 93 0;
#X connect 121 0 94 0;
#X connect 122 0 96 4;
#X connect 123 0 75 4;
#X connect 124 0 216 0;
#X connect 125 0 216 0;
#X connect 126 0 135 0;
#X connect 127 0 137 0;
#X connect 127 1 126 1;
#X connect 128 0 135 1;
#X connect 129 0 139 0;
#X connect 129 1 128 1;
#X connect 130 0 135 2;
#X connect 131 0 141 0;
#X connect 131 1 130 1;
#X connect 132 0 135 3;
#X connect 133 0 143 0;
#X connect 133 1 132 1;
#X connect 136 0 126 0;
#X connect 136 0 128 0;
#X connect 136 0 130 0;
#X connect 136 0 132 0;
#X connect 137 0 126 0;
#X connect 138 0 137 1;
#X connect 139 0 128 0;
#X connect 140 0 139 1;
#X connect 141 0 130 0;
#X connect 142 0 141 1;
#X connect 143 0 132 0;
#X connect 144 0 143 1;
#X connect 145 0 225 0;
#X connect 146 0 225 0;
#X connect 147 0 156 0;
#X connect 148 0 158 0;
#X connect 148 1 147 1;
#X connect 149 0 156 1;
#X connect 150 0 160 0;
#X connect 150 1 149 1;
#X connect 151 0 156 2;
#X connect 152 0 162 0;
#X connect 152 1 151 1;
#X connect 153 0 156 3;
#X connect 154 0 164 0;
#X connect 154 1 153 1;
#X connect 157 0 147 0;
#X connect 157 0 149 0;
#X connect 157 0 151 0;
#X connect 157 0 153 0;
#X connect 158 0 147 0;
#X connect 159 0 158 1;
#X connect 160 0 149 0;
#X connect 161 0 160 1;
#X connect 162 0 151 0;
#X connect 163 0 162 1;
#X connect 164 0 153 0;
#X connect 165 0 164 1;
#X connect 166 0 242 0;
#X connect 167 0 242 0;
#X connect 168 0 177 0;
#X connect 169 0 179 0;
#X connect 169 1 168 1;
#X connect 170 0 177 1;
#X connect 171 0 181 0;
#X connect 171 1 170 1;
#X connect 172 0 177 2;
#X connect 173 0 183 0;
#X connect 173 1 172 1;
#X connect 174 0 177 3;
#X connect 175 0 185 0;
#X connect 175 1 174 1;
#X connect 178 0 168 0;
#X connect 178 0 170 0;
#X connect 178 0 172 0;
#X connect 178 0 174 0;
#X connect 179 0 168 0;
#X connect 180 0 179 1;
#X connect 181 0 170 0;
#X connect 182 0 181 1;
#X connect 183 0 172 0;
#X connect 184 0 183 1;
#X connect 185 0 174 0;
#X connect 186 0 185 1;
#X connect 187 0 243 0;
#X connect 188 0 243 0;
#X connect 189 0 198 0;
#X connect 190 0 200 0;
#X connect 190 1 189 1;
#X connect 191 0 198 1;
#X connect 192 0 202 0;
#X connect 192 1 191 1;
#X connect 193 0 198 2;
#X connect 194 0 204 0;
#X connect 194 1 193 1;
#X connect 195 0 198 3;
#X connect 196 0 206 0;
#X connect 196 1 195 1;
#X connect 199 0 189 0;
#X connect 199 0 191 0;
#X connect 199 0 193 0;
#X connect 199 0 195 0;
#X connect 200 0 189 0;
#X connect 201 0 200 1;
#X connect 202 0 191 0;
#X connect 203 0 202 1;
#X connect 204 0 193 0;
#X connect 205 0 204 1;
#X connect 206 0 195 0;
#X connect 207 0 206 1;
#X connect 208 0 126 0;
#X connect 209 0 127 0;
#X connect 210 0 128 0;
#X connect 211 0 129 0;
#X connect 212 0 130 0;
#X connect 213 0 131 0;
#X connect 214 0 132 0;
#X connect 215 0 133 0;
#X connect 216 0 135 4;
#X connect 217 0 147 0;
#X connect 218 0 148 0;
#X connect 219 0 149 0;
#X connect 220 0 150 0;
#X connect 221 0 151 0;
#X connect 222 0 152 0;
#X connect 223 0 153 0;
#X connect 224 0 154 0;
#X connect 225 0 156 4;
#X connect 226 0 168 0;
#X connect 227 0 169 0;
#X connect 228 0 170 0;
#X connect 229 0 171 0;
#X connect 230 0 172 0;
#X connect 231 0 173 0;
#X connect 232 0 174 0;
#X connect 233 0 175 0;
#X connect 234 0 189 0;
#X connect 235 0 190 0;
#X connect 236 0 191 0;
#X connect 237 0 192 0;
#X connect 238 0 193 0;
#X connect 239 0 194 0;
#X connect 240 0 195 0;
#X connect 241 0 196 0;
#X connect 242 0 177 4;
#X connect 243 0 198 4;
