#N canvas 0 23 1440 808 12;
#X obj 361 84 tgl 15 0 empty empty empty 17 7 0 10 -262144 -1 -1 0
1;
#X floatatom 245 93 5 0 0 0 - - -;
#X floatatom 238 212 5 0 0 0 - - -;
#X obj 245 46 inlet;
#X obj 361 44 inlet;
#X text 368 23 Run, f 7;
#X text 307 720 current Tick Position;
#X text 248 23 qpm;
#X text 281 134 PPQ;
#X obj 250 464 /;
#X obj 250 404 loadbang;
#X obj 296 438 t b f;
#X obj 251 505 metro;
#X msg 250 425 60000;
#X text 260 186 BPM*PPQ;
#X obj 250 636 f;
#X obj 288 636 + 1;
#X obj 333 635 sel 0;
#X obj 256 720 outlet;
#X obj 382 479 i 0;
#X obj 361 447 t i b;
#X text 413 481 reset counter before starting again;
#X obj 245 135 * 384;
#X text 364 677 8 quarter notes each with 384 ppq resolution;
#X obj 302 677 mod 3072;
#X obj 154 697 mod 3072;
#X text 41 667 0 on graph is -48 of step 0;
#X obj 432 43 t b b;
#X obj 521 29 loadbang;
#X obj 250 674 + 48;
#X connect 0 0 20 0;
#X connect 1 0 22 0;
#X connect 2 0 11 0;
#X connect 3 0 1 0;
#X connect 4 0 0 0;
#X connect 9 0 12 1;
#X connect 10 0 13 0;
#X connect 11 0 9 0;
#X connect 11 1 9 1;
#X connect 12 0 15 0;
#X connect 13 0 9 0;
#X connect 15 0 16 0;
#X connect 15 0 29 0;
#X connect 16 0 24 0;
#X connect 17 0 15 0;
#X connect 19 0 15 1;
#X connect 19 0 29 0;
#X connect 20 0 12 0;
#X connect 20 1 19 0;
#X connect 22 0 2 0;
#X connect 24 0 15 1;
#X connect 24 0 17 0;
#X connect 25 0 18 0;
#X connect 27 0 0 0;
#X connect 27 1 0 0;
#X connect 28 0 27 0;
#X connect 29 0 25 0;
