#N canvas 215 23 1225 806 12;
#N canvas 0 22 450 278 (subpatch) 0;
#X array groove 3072 float 2;
#X coords 0 127 3072 0 864 35 2 0 0;
#X restore 215 263 graph;
#X obj 214 333 hsl 866 15 0 3072 0 0 current_pos playback_pos empty
-2 -8 0 10 -228856 -1 -1 56737 1;
#X obj 126 166 tgl 30 0 run run_interface RUN 4 -10 0 10 -262144 -1
-1 1 1;
#X obj 213 353 vsl 27 65 0 127 0 0 v1 v1r empty 0 -9 0 10 -128992 -262144
-1 0 0;
#X text 149 375 velocity;
#X text 156 414 uTiming;
#X obj 217 421 hsl 22 8 -0.5 0.49 0 0 ut1 ut1r empty -2 -8 0 4 -128992
-262144 -1 1061 0;
#X obj 241 353 vsl 27 65 0 127 0 0 v2 v2r empty 0 -9 0 10 -262144 -33289
-1 0 0;
#X obj 244 421 hsl 22 8 -0.5 0.49 0 0 ut2 ut2r empty -2 -8 0 4 -262144
-1 -1 1061 0;
#X obj 268 353 vsl 27 65 0 127 0 0 v3 v3r empty 0 -9 0 10 -262144 -33289
-1 0 0;
#X obj 271 421 hsl 22 8 -0.5 0.49 0 0 ut3 ut3r empty -2 -8 0 4 -262144
-1 -1 1061 0;
#X obj 295 353 vsl 27 65 0 127 0 0 v4 v4r empty 0 -9 0 10 -262144 -33289
-1 0 0;
#X obj 298 421 hsl 22 8 -0.5 0.49 0 0 ut4 ut4r empty -2 -8 0 4 -262144
-1 -1 1061 0;
#X obj 322 353 vsl 27 65 0 127 0 0 v5 v5r empty 0 -9 0 10 -228856 -33289
-1 0 0;
#X obj 325 421 hsl 22 8 -0.5 0.49 0 0 ut5 ut5r empty -2 -8 0 4 -228856
-33289 -1 1061 0;
#X obj 349 353 vsl 27 65 0 127 0 0 v6 v6r empty 0 -9 0 10 -262144 -33289
-1 0 0;
#X obj 352 421 hsl 22 8 -0.5 0.49 0 0 ut6 ut6r empty -2 -8 0 4 -262144
-1 -1 1061 0;
#X obj 376 353 vsl 27 65 0 127 0 0 v7 v7r empty 0 -9 0 10 -262144 -33289
-1 0 0;
#X obj 379 421 hsl 22 8 -0.5 0.49 0 0 ut7 ut7r empty -2 -8 0 4 -262144
-1 -1 1061 0;
#X obj 403 353 vsl 27 65 0 127 0 0 v8 v8r empty 0 -9 0 10 -262144 -33289
-1 0 0;
#X obj 406 421 hsl 22 8 -0.5 0.49 0 0 ut8 ut8r empty -2 -8 0 4 -262144
-1 -1 1061 0;
#X obj 430 353 vsl 27 65 0 127 0 0 v9 v9r empty 0 -9 0 10 -228856 -33289
-1 0 0;
#X obj 433 421 hsl 22 8 -0.5 0.49 0 0 ut9 ut9r empty -2 -8 0 4 -228856
-33289 -1 1061 0;
#X obj 457 353 vsl 27 65 0 127 0 0 v10 v10r empty 0 -9 0 10 -262144
-33289 -1 0 0;
#X obj 460 421 hsl 22 8 -0.5 0.49 0 0 ut10 ut10r empty -2 -8 0 4 -262144
-1 -1 1061 0;
#X obj 484 353 vsl 27 65 0 127 0 0 v11 v11r empty 0 -9 0 10 -262144
-33289 -1 0 0;
#X obj 487 421 hsl 22 8 -0.5 0.49 0 0 ut11 ut11r empty -2 -8 0 4 -262144
-1 -1 1061 0;
#X obj 511 353 vsl 27 65 0 127 0 0 v12 v12r empty 0 -9 0 10 -262144
-33289 -1 0 0;
#X obj 514 421 hsl 22 8 -0.5 0.49 0 0 ut12 ut12r empty -2 -8 0 4 -262144
-1 -1 1061 0;
#X obj 538 353 vsl 27 65 0 127 0 0 v13 v13r empty 0 -9 0 10 -228856
-33289 -1 0 0;
#X obj 541 421 hsl 22 8 -0.5 0.49 0 0 ut13 ut13r empty -2 -8 0 4 -228856
-33289 -1 1061 0;
#X obj 565 353 vsl 27 65 0 127 0 0 v14 v14r empty 0 -9 0 10 -262144
-33289 -1 0 0;
#X obj 568 421 hsl 22 8 -0.5 0.49 0 0 ut14 ut14r empty -2 -8 0 4 -262144
-1 -1 1061 0;
#X obj 592 353 vsl 27 65 0 127 0 0 v15 v15r empty 0 -9 0 10 -262144
-33289 -1 0 0;
#X obj 595 421 hsl 22 8 -0.5 0.49 0 0 ut15 ut15r empty -2 -8 0 4 -262144
-1 -1 1061 0;
#X obj 619 353 vsl 27 65 0 127 0 0 v16 v16r empty 0 -9 0 10 -262144
-33289 -1 0 0;
#X obj 622 421 hsl 22 8 -0.5 0.49 0 0 ut16 ut16r empty -2 -8 0 4 -262144
-1 -1 1061 0;
#X obj 125 333 bng 30 250 50 0 reset empty Reset 0 -10 0 10 -262144
-1 -1;
#X text 223 433 1;
#X text 330 433 5;
#X text 434 433 9;
#X text 542 431 13;
#X obj 646 353 vsl 27 65 0 127 0 0 v17 v17r empty 0 -9 0 10 -128992
-262144 -1 0 0;
#X obj 649 421 hsl 22 8 -0.5 0.49 0 0 ut17 ut17r empty -2 -8 0 4 -128992
-262144 -1 1061 0;
#X obj 673 353 vsl 27 65 0 127 0 0 v18 v18r empty 0 -9 0 10 -262144
-33289 -1 0 0;
#X obj 676 421 hsl 22 8 -0.5 0.49 0 0 ut18 ut18r empty -2 -8 0 4 -262144
-1 -1 1061 0;
#X obj 700 353 vsl 27 65 0 127 0 0 v19 v19r empty 0 -9 0 10 -262144
-33289 -1 0 0;
#X obj 703 421 hsl 22 8 -0.5 0.49 0 0 ut19 ut19r empty -2 -8 0 4 -262144
-1 -1 1061 0;
#X obj 727 353 vsl 27 65 0 127 0 0 v20 v20r empty 0 -9 0 10 -262144
-33289 -1 0 0;
#X obj 730 421 hsl 22 8 -0.5 0.49 0 0 ut20 ut20r empty -2 -8 0 4 -262144
-1 -1 1061 0;
#X obj 754 353 vsl 27 65 0 127 0 0 v21 v21r empty 0 -9 0 10 -228856
-33289 -1 0 0;
#X obj 757 421 hsl 22 8 -0.5 0.49 0 0 ut21 ut21r empty -2 -8 0 4 -228856
-33289 -1 1061 0;
#X obj 781 353 vsl 27 65 0 127 0 0 v22 v22r empty 0 -9 0 10 -262144
-33289 -1 0 0;
#X obj 784 421 hsl 22 8 -0.5 0.49 0 0 ut22 ut22r empty -2 -8 0 4 -262144
-1 -1 1061 0;
#X obj 808 353 vsl 27 65 0 127 0 0 v23 v23r empty 0 -9 0 10 -262144
-33289 -1 0 0;
#X obj 811 421 hsl 22 8 -0.5 0.49 0 0 ut23 ut23r empty -2 -8 0 4 -262144
-1 -1 1061 0;
#X obj 835 353 vsl 27 65 0 127 0 0 v24 v24r empty 0 -9 0 10 -262144
-33289 -1 0 0;
#X obj 838 421 hsl 22 8 -0.5 0.49 0 0 ut24 ut24r empty -2 -8 0 4 -262144
-1 -1 1061 0;
#X obj 862 353 vsl 27 65 0 127 0 0 v25 v25r empty 0 -9 0 10 -228856
-33289 -1 0 0;
#X obj 865 421 hsl 22 8 -0.5 0.49 0 0 ut25 ut25r empty -2 -8 0 4 -228856
-33289 -1 1061 0;
#X obj 889 353 vsl 27 65 0 127 0 0 v26 v26r empty 0 -9 0 10 -262144
-33289 -1 0 0;
#X obj 892 421 hsl 22 8 -0.5 0.49 0 0 ut26 ut26r empty -2 -8 0 4 -262144
-1 -1 1061 0;
#X obj 916 353 vsl 27 65 0 127 0 0 v27 v27r empty 0 -9 0 10 -262144
-33289 -1 0 0;
#X obj 919 421 hsl 22 8 -0.5 0.49 0 0 ut27 ut27r empty -2 -8 0 4 -262144
-1 -1 1061 0;
#X obj 943 353 vsl 27 65 0 127 0 0 v28 v28r empty 0 -9 0 10 -262144
-33289 -1 0 0;
#X obj 946 421 hsl 22 8 -0.5 0.49 0 0 ut28 ut28r empty -2 -8 0 4 -262144
-1 -1 1061 0;
#X obj 970 353 vsl 27 65 0 127 0 0 v29 v29r empty 0 -9 0 10 -228856
-33289 -1 0 0;
#X obj 973 421 hsl 22 8 -0.5 0.49 0 0 ut29 ut29r empty -2 -8 0 4 -228856
-33289 -1 1061 0;
#X obj 997 353 vsl 27 65 0 127 0 0 v30 v30r empty 0 -9 0 10 -262144
-33289 -1 0 0;
#X obj 1000 421 hsl 22 8 -0.5 0.49 0 0 ut30 ut30r empty -2 -8 0 4 -262144
-1 -1 1061 0;
#X obj 1024 353 vsl 27 65 0 127 0 0 v31 v31r empty 0 -9 0 10 -262144
-33289 -1 0 0;
#X obj 1027 421 hsl 22 8 -0.5 0.49 0 0 ut31 ut31r empty -2 -8 0 4 -262144
-1 -1 1061 0;
#X obj 1051 353 vsl 27 65 0 127 0 0 v32 v32r empty 0 -9 0 10 -262144
-33289 -1 0 0;
#X obj 1054 421 hsl 22 8 -0.5 0.49 0 0 ut32 ut32r empty -2 -8 0 4 -262144
-1 -1 1061 0;
#X text 648 445 17;
#X text 759 443 21;
#X text 865 443 25;
#X text 974 442 29;
#X text 315 903 |______________|;
#X text 423 903 |______________|;
#X text 531 903 |______________|;
#X text 640 903 |______________|;
#X text 747 903 |______________|;
#X text 855 903 |______________|;
#X text 963 903 |______________|;
#X text 207 903 |______________|;
#X text 204 930 |_____________________________________________________________|
, f 63;
#X text 640 930 |_____________________________________________________________|
, f 63;
#X text 839 930 Bar 2;
#X floatatom 127 270 10 0 0 2 BPM bpm_init bpm;
#X text 229 885 Beat 1 (384 Ticks);
#X text 405 931 Bar 1 (384*4 Ticks);
#X obj 347 166 vsl 15 64 0 1 0 0 groove_volume groove_volume_init Groove_Volume
0 -9 0 10 -262144 -1 -1 0 0;
#X obj 461 182 vsl 15 16 0 1 0 0 metronome_volume metronome_volume_init
Metronome_Volume 0 -9 0 10 -262144 -1 -1 150 0;
#N canvas 0 22 450 278 (subpatch) 0;
#X array KICK 3072 float 2;
#X coords 0 1 3072 0 864 20 2 0 0;
#X restore 213 484 graph;
#N canvas 0 22 450 278 (subpatch) 0;
#X array SNARE 3072 float 2;
#X coords 0 1 3072 0 864 20 2 0 0;
#X restore 213 530 graph;
#N canvas 0 22 450 278 (subpatch) 0;
#X array HH_CLOSED 3072 float 2;
#X coords 0 1 3072 0 864 20 2 0 0;
#X restore 213 575 graph;
#N canvas 0 22 450 278 (subpatch) 0;
#X array HH_OPEN 3072 float 2;
#X coords 0 1 3072 0 864 20 2 0 0;
#X restore 213 623 graph;
#N canvas 0 22 450 278 (subpatch) 0;
#X array TOM_3_LO 3072 float 2;
#X coords 0 1 3072 0 864 20 2 0 0;
#X restore 213 671 graph;
#N canvas 0 22 450 278 (subpatch) 0;
#X array TOM_2_MID 3072 float 2;
#X coords 0 1 3072 0 864 20 2 0 0;
#X restore 213 718 graph;
#N canvas 0 22 450 278 (subpatch) 0;
#X array TOM_1_HI 3072 float 2;
#X coords 0 1 3072 0 864 20 2 0 0;
#X restore 213 761 graph;
#N canvas 0 22 450 278 (subpatch) 0;
#X array CRASH 3072 float 2;
#X coords 0 1 3072 0 864 20 2 0 0;
#X restore 213 808 graph;
#N canvas 0 22 450 278 (subpatch) 0;
#X array RIDE 3072 float 2;
#X coords 0 1 3072 0 864 20 2 0 0;
#X restore 213 853 graph;
#X text 802 20 Todo: 1 per voice tres 2 per voice max count 3 scale
velocities of sliders 4 live record via midi, f 38;
#X obj 135 471 vsl 37 16 0 1 0 0 empty thres_0_init empty 0 -9 0 10
-262144 -1 -1 600 0;
#X floatatom 135 490 5 0 0 0 - - thres0;
#X obj 172 471 vsl 37 16 0 32 0 0 empty max_count_0_init empty 0 -9
0 10 -262144 -1 -1 281 0;
#X floatatom 172 490 5 0 0 0 - - max_count_0;
#X obj 135 516 vsl 37 16 0 1 0 0 empty thres_1_init empty 0 -9 0 10
-262144 -1 -1 750 0;
#X floatatom 135 535 5 0 0 0 - - thres1;
#X obj 172 516 vsl 37 16 0 32 0 0 empty max_count_1_init empty 0 -9
0 10 -262144 -1 -1 94 0;
#X floatatom 172 535 5 0 0 0 - - max_count_1;
#X obj 135 561 vsl 37 16 0 1 0 0 empty thres_2_init empty 0 -9 0 10
-262144 -1 -1 1200 0;
#X floatatom 135 580 5 0 0 0 - - thres2;
#X obj 172 561 vsl 37 16 0 32 0 0 empty max_count_2_init empty 0 -9
0 10 -262144 -1 -1 1500 0;
#X floatatom 172 580 5 0 0 0 - - max_count_2;
#X obj 135 606 vsl 37 16 0 1 0 0 empty thres_3_init empty 0 -9 0 10
-262144 -1 -1 1500 0;
#X floatatom 135 625 5 0 0 0 - - thres3;
#X obj 172 606 vsl 37 16 0 32 0 0 empty max_count_3_init empty 0 -9
0 10 -262144 -1 -1 1500 0;
#X floatatom 172 625 5 0 0 0 - - max_count_3;
#X obj 135 653 vsl 37 16 0 1 0 0 empty thres_4_init empty 0 -9 0 10
-262144 -1 -1 1500 0;
#X floatatom 135 672 5 0 0 0 - - thres4;
#X obj 172 653 vsl 37 16 0 32 0 0 empty max_count_4_init empty 0 -9
0 10 -262144 -1 -1 0 0;
#X floatatom 172 672 5 0 0 0 - - max_count_4;
#X obj 135 700 vsl 37 16 0 1 0 0 empty thres_5_init empty 0 -9 0 10
-262144 -1 -1 1500 0;
#X floatatom 135 719 5 0 0 0 - - thres5;
#X obj 172 700 vsl 37 16 0 32 0 0 empty max_count_5_init empty 0 -9
0 10 -262144 -1 -1 0 0;
#X floatatom 172 719 5 0 0 0 - - max_count_5;
#X obj 135 748 vsl 37 16 0 1 0 0 empty thres_6_init empty 0 -9 0 10
-262144 -1 -1 1500 0;
#X floatatom 135 767 5 0 0 0 - - thres6;
#X obj 172 748 vsl 37 16 0 32 0 0 empty max_count_6_init empty 0 -9
0 10 -262144 -1 -1 0 0;
#X floatatom 172 767 5 0 0 0 - - max_count_6;
#X obj 135 794 vsl 37 16 0 1 0 0 empty thres_7_init empty 0 -9 0 10
-262144 -1 -1 1500 0;
#X floatatom 135 813 5 0 0 0 - - thres7;
#X obj 172 794 vsl 37 16 0 32 0 0 empty max_count_7_init empty 0 -9
0 10 -262144 -1 -1 0 0;
#X floatatom 172 813 5 0 0 0 - - max_count_7;
#X obj 135 840 vsl 37 16 0 1 0 0 empty thres_8_init empty 0 -9 0 10
-262144 -1 -1 1500 0;
#X floatatom 135 859 5 0 0 0 - - thres8;
#X obj 172 840 vsl 37 16 0 32 0 0 empty max_count_8_init empty 0 -9
0 10 -262144 -1 -1 0 0;
#X floatatom 172 859 5 0 0 0 - - max_count_8;
#X text 178 433 max cnt, f 5;
#X text 128 434 like- lihood, f 9;
#X obj 159 166 tgl 30 0 record empty RECORD 4 -10 0 10 -262144 -1 -1
0 1;
#X obj 269 166 tgl 30 0 send_clock_out empty Send_Clock_Out -30 -10
0 10 -262144 -1 -1 1 1;
#X obj 1080 486 vsl 37 16 0 1 0 0 empty vel_scale_0_init empty 0 -9
0 10 -262144 -1 -1 0 0;
#X floatatom 1080 505 5 0 0 0 - - vel_scale_0;
#X obj 1080 531 vsl 37 16 0 1 0 0 empty vel_scale_1_init empty 0 -9
0 10 -262144 -1 -1 0 0;
#X floatatom 1080 550 5 0 0 0 - - vel_scale_1;
#X obj 1080 576 vsl 37 16 0 1 0 0 empty vel_scale_2_init empty 0 -9
0 10 -262144 -1 -1 0 0;
#X floatatom 1080 595 5 0 0 0 - - vel_scale_2;
#X obj 1080 621 vsl 37 16 0 1 0 0 empty vel_scale_3_init empty 0 -9
0 10 -262144 -1 -1 0 0;
#X floatatom 1080 640 5 0 0 0 - - vel_scale_3;
#X obj 1080 668 vsl 37 16 0 1 0 0 empty vel_scale_4_init empty 0 -9
0 10 -262144 -1 -1 0 0;
#X floatatom 1080 687 5 0 0 0 - - vel_scale_4;
#X obj 1080 715 vsl 37 16 0 1 0 0 empty vel_scale_5_init empty 0 -9
0 10 -262144 -1 -1 0 0;
#X floatatom 1080 734 5 0 0 0 - - vel_scale_5;
#X obj 1080 763 vsl 37 16 0 1 0 0 empty vel_scale_6_init empty 0 -9
0 10 -262144 -1 -1 0 0;
#X floatatom 1080 782 5 0 0 0 - - vel_scale_6;
#X obj 1080 809 vsl 37 16 0 1 0 0 empty vel_scale_7_init empty 0 -9
0 10 -262144 -1 -1 0 0;
#X floatatom 1080 828 5 0 0 0 - - vel_scale_7;
#X obj 1080 855 vsl 37 16 0 1 0 0 empty vel_scale_8_init empty 0 -9
0 10 -262144 -1 -1 0 0;
#X floatatom 1080 874 5 0 0 0 - - vel_scale_8;
#X obj 1088 354 vsl 27 65 0.1 3 0 0 empty groove_vel_scale_init empty
0 -9 0 10 -262144 -1 -1 1986 0;
#X floatatom 1088 423 5 0 0 0 - - groove_vel_scale;
#X text 1235 446 implement a sfz player using samples from https://github.com/crabacus/the-open-source-drumkit
;
#X text 1236 496 implement a in python receive osc for events in the
background and do generation only when a specific signal is received
on pd side and also when there has been a change!!!;
#X text 1238 560 work on velocity scaling of groove;
#X floatatom 853 153 5 0 0 0 py2pd_port py2pd_port_init py2pd_port
;
#X floatatom 854 181 5 0 0 0 pd2py_port pd2py_port_init pd2py_port
;
#X obj 782 208 bng 15 250 50 0 disconnect_py2pd_connection empty disconnect_py2pd_connection
17 7 0 10 -262144 -1 -1;
#X obj 783 226 bng 15 250 50 0 disconnect_pd2py_connection empty disconnect_pd2py_connection
17 7 0 10 -262144 -1 -1;
#X obj 1244 114 cnv 15 400 200 empty empty Settings_and_Source_Not_Shown_On_Main_GUI
20 12 0 14 -233017 -66577 0;
#N canvas 0 23 800 806 guts 1;
#X obj 40 134 cnv 15 300 120 empty empty TEMPO_(QPM) 20 12 0 14 -228856
-4160 0;
#X floatatom 63 182 5 0 0 0 - - -;
#X obj 63 203 s playback_pos;
#X obj 40 6 cnv 15 300 120 empty empty Initialize 20 12 0 14 -228856
-4160 0;
#X obj 41 257 cnv 15 300 50 empty empty Code_to_plot_and_playback 20
12 0 14 -228856 -4160 0;
#X obj 347 135 cnv 15 300 120 empty empty SYNTHESIZER 20 12 0 14 -228856
-4160 0;
#X obj 347 7 cnv 15 300 120 empty empty Recording_Groove 20 12 0 14
-228856 -4160 0;
#X obj 348 259 cnv 15 300 120 empty empty OSC_Components 20 12 0 14
-228856 -4160 0;
#X obj 63 160 res/clock, f 13;
#X obj 353 192 res/metronome_sound;
#X obj 353 218 dac~;
#X obj 350 160 res/mixer_and_synths;
#X obj 353 293 res/send_groove_events;
#X obj 354 318 res/receive_generated_notes;
#X obj 377 41 res/keyboard_interface;
#X obj 378 75 res/update_slider_for_event;
#X obj 43 310 cnv 15 300 50 empty empty Code_to_plot_and_playback 20
12 0 14 -228856 -4160 0;
#X obj 60 334 res/midi_out_drums;
#X obj 378 102 res/midi_in;
#X obj 66 37 res/initialize;
#X obj 66 74 res/ppq_setter;
#X obj 64 282 res/update_on_new_groove_event;
#X obj 252 410 res/scale_groove_vels;
#N canvas 0 23 888 639 metronome_midi_note_out 1;
#X obj 67 170 pack f f;
#X obj 60 120 t f f;
#X obj 69 208 s \$0-drumNote;
#X obj 65 260 makenote 0 100;
#X obj 72 326 noteout;
#X obj 136 297 r drum_out_channel;
#X obj 64 53 inlet;
#X floatatom 323 106 5 0 0 0 - - -;
#X obj 329 177 pack f f;
#X obj 322 127 t f f;
#X obj 331 215 s \$0-drumNote;
#X obj 327 267 makenote 0 100;
#X obj 334 333 noteout;
#X obj 398 304 r drum_out_channel;
#X obj 326 60 inlet;
#X text 115 53 Bar beginning;
#X text 373 58 beats;
#X msg 62 90 100;
#X msg 283 83 100;
#X msg 62 144 1;
#X msg 324 151 2;
#X connect 0 0 2 0;
#X connect 1 0 19 0;
#X connect 1 1 0 1;
#X connect 1 1 3 1;
#X connect 3 0 4 0;
#X connect 3 1 4 1;
#X connect 5 0 4 2;
#X connect 6 0 17 0;
#X connect 7 0 9 0;
#X connect 8 0 10 0;
#X connect 9 0 20 0;
#X connect 9 1 8 1;
#X connect 9 1 11 1;
#X connect 11 0 12 0;
#X connect 11 1 12 1;
#X connect 13 0 12 2;
#X connect 14 0 18 0;
#X connect 17 0 1 0;
#X connect 18 0 7 0;
#X connect 19 0 0 0;
#X connect 19 0 3 0;
#X connect 20 0 8 0;
#X connect 20 0 11 0;
#X restore 232 539 pd metronome_midi_note_out;
#X obj 466 501 r metronome_beat_trigger;
#X obj 96 475 r metronome_measure_trigger;
#X obj 113 544 bng 15 250 50 0 empty empty empty 17 7 0 10 -262144
-1 -1;
#X obj 515 561 bng 15 250 50 0 empty empty empty 17 7 0 10 -262144
-1 -1;
#X connect 1 0 2 0;
#X connect 8 0 1 0;
#X connect 9 0 10 0;
#X connect 9 0 10 1;
#X connect 24 0 23 1;
#X connect 24 0 27 0;
#X connect 25 0 23 0;
#X connect 25 0 26 0;
#X restore 1295 148 pd guts;
#X obj 1293 227 hradio 16 1 0 4 ppq_selection ppq_selection_init PPQ_384_192__96__48
-15 -8 0 6 -262144 -1 -1 0;
#X obj 578 177 hradio 10 1 0 5 meter_numerator meter_numerator_preset
_1_2_3_4_6_ -2 -8 0 8 -262144 -1 -1 3;
#X obj 584 208 hradio 10 1 0 4 meter_denominator meter_denominator_preset
_1_2_4_8_ -2 -8 0 8 -262144 -1 -1 2;
#X text 641 172 Numerator;
#X text 634 204 Denominator;
#X text 569 183 ---------;
#X text 115 115 Run the python script before opening the pd patch (python
main.py --py2pd_port 1123 --pd2py_port 1415), f 121;
#X floatatom 1064 121 5 0 0 0 drum_out_channel drum_out_channel_init
drum_out_channel;
#X floatatom 220 39 5 0 0 0 - - -;
#X obj 218 14 ctlin 1, f 41;
#X floatatom 219 78 5 0 0 0 - - -;
#X obj 219 101 s groove_vel_scale_init;
#X obj 220 58 expr ($f1/127+.1)*2;
#X connect 104 0 105 0;
#X connect 106 0 107 0;
#X connect 108 0 109 0;
#X connect 110 0 111 0;
#X connect 112 0 113 0;
#X connect 114 0 115 0;
#X connect 116 0 117 0;
#X connect 118 0 119 0;
#X connect 120 0 121 0;
#X connect 122 0 123 0;
#X connect 124 0 125 0;
#X connect 126 0 127 0;
#X connect 128 0 129 0;
#X connect 130 0 131 0;
#X connect 132 0 133 0;
#X connect 134 0 135 0;
#X connect 136 0 137 0;
#X connect 138 0 139 0;
#X connect 144 0 145 0;
#X connect 146 0 147 0;
#X connect 148 0 149 0;
#X connect 150 0 151 0;
#X connect 152 0 153 0;
#X connect 154 0 155 0;
#X connect 156 0 157 0;
#X connect 158 0 159 0;
#X connect 160 0 161 0;
#X connect 162 0 163 0;
#X connect 181 0 185 0;
#X connect 182 0 181 0;
#X connect 183 0 184 0;
#X connect 185 0 183 0;
#X coords 0 0 1 1 1024 1024 2 100 100;
