#N canvas 0 23 1440 806 12;
#X obj 94 40 tgl 15 0 empty run Playing 0 -7 0 10 -262144 -1 -1 0 1
;
#X text 54 74 Play Head Position;
#X floatatom 55 90 8 0 0 2 - pos-ppq -;
#X text 109 95 PPQ;
#X obj 57 182 nbx 5 14 -1e+37 1e+37 0 0 empty empty empty 0 -8 0 10
-262144 -1 -1 0 256;
#X obj 56 112 spigot;
#N canvas 517 542 450 300 ppq_to_clock 1;
#X obj 181 21 r ppq;
#X obj 67 94 + 48;
#X obj 126 72 r half_step_ticks;
#X obj 70 62 * 384;
#X floatatom 183 48 5 0 0 0 - - -;
#X floatatom 126 96 5 0 0 0 - - -;
#X floatatom 67 118 5 0 0 0 - - -;
#X obj 64 12 inlet;
#X obj 50 186 outlet;
#X obj 68 145 int;
#X connect 0 0 4 0;
#X connect 1 0 6 0;
#X connect 2 0 5 0;
#X connect 3 0 1 0;
#X connect 4 0 3 1;
#X connect 5 0 1 1;
#X connect 6 0 9 0;
#X connect 7 0 3 0;
#X connect 9 0 8 0;
#X restore 59 205 pd ppq_to_clock;
#X obj 63 259 outlet;
#X obj 405 41 tgl 15 0 empty run Playing 0 -7 0 10 -262144 -1 -1 0
1;
#X text 365 75 Play Head Position;
#X floatatom 366 91 8 0 0 2 - pos-ppq -;
#X text 420 96 PPQ;
#X obj 368 158 nbx 5 14 -1e+37 1e+37 0 0 empty empty empty 0 -8 0 10
-262144 -1 -1 0 256;
#X obj 367 113 spigot;
#N canvas 517 542 450 300 ppq_to_clock 0;
#X obj 181 21 r ppq;
#X obj 67 94 + 48;
#X obj 126 72 r half_step_ticks;
#X obj 70 62 * 384;
#X floatatom 183 48 5 0 0 0 - - -;
#X floatatom 126 96 5 0 0 0 - - -;
#X floatatom 67 118 5 0 0 0 - - -;
#X obj 64 12 inlet;
#X obj 44 143 outlet;
#X connect 0 0 4 0;
#X connect 1 0 6 0;
#X connect 2 0 5 0;
#X connect 3 0 1 0;
#X connect 4 0 3 1;
#X connect 5 0 1 1;
#X connect 6 0 8 0;
#X connect 7 0 3 0;
#X restore 370 181 pd ppq_to_clock;
#X obj 369 211 outlet;
#N canvas 509 231 614 494 adjust_ppq 0;
#X obj 108 -5 inlet;
#X msg 106 129 \$1;
#X obj 107 161 t f f;
#X obj 130 199 -;
#X obj 130 223 f;
#X obj 131 432 outlet;
#X obj 106 55 change;
#X obj 266 153 i;
#X obj 326 153 + 1;
#X obj 279 86 bng 15 250 50 0 empty empty empty 17 7 0 10 -262144 -1
-1;
#X msg 261 115 0;
#X obj 269 413 outlet;
#X floatatom 296 208 5 0 0 0 - - -;
#X obj 291 265 max;
#X floatatom 302 304 5 0 0 0 - - -;
#X obj 145 325 +;
#X text 163 -6 ppq;
#X obj 201 217 moses 1;
#X obj 172 13 t f f f;
#X obj 133 382 expr fmod($f1 \, 8);
#X obj 100 278 expr $f1/max($f2 \, 1);
#X connect 0 0 18 0;
#X connect 1 0 2 0;
#X connect 2 0 3 1;
#X connect 2 1 3 0;
#X connect 3 0 4 0;
#X connect 4 0 20 0;
#X connect 6 0 1 0;
#X connect 6 0 10 0;
#X connect 7 0 8 0;
#X connect 7 0 12 0;
#X connect 8 0 7 1;
#X connect 9 0 7 0;
#X connect 10 0 7 0;
#X connect 12 0 13 0;
#X connect 13 0 14 0;
#X connect 14 0 13 1;
#X connect 14 0 11 0;
#X connect 14 0 17 0;
#X connect 15 0 19 0;
#X connect 17 1 20 1;
#X connect 18 1 15 0;
#X connect 18 2 6 0;
#X connect 18 2 9 0;
#X connect 19 0 5 0;
#X connect 20 0 15 1;
#X restore 367 132 pd adjust_ppq;
#X obj 58 138 change;
#X obj 71 159 expr fmod($f1 \, 8);
#X connect 0 0 5 1;
#X connect 2 0 5 0;
#X connect 4 0 6 0;
#X connect 5 0 17 0;
#X connect 6 0 7 0;
#X connect 12 0 14 0;
#X connect 13 0 16 0;
#X connect 16 0 12 0;
#X connect 17 0 18 0;
#X connect 18 0 4 0;
