#N canvas 406 23 1034 823 12;
#X text 120 34 Step 1;
#X obj 127 168 expr if($f2>0 \, $f1 \, 0);
#X obj 127 189 t f f, f 6;
#X obj 127 212 spigot;
#X text 183 192 no need to update utiming if no hit;
#X floatatom 20 148 5 0 0 0 - - -;
#X floatatom 127 85 5 0 0 0 - - -;
#X floatatom 127 238 5 0 0 0 - - -;
#X obj 21 120 t f f;
#X floatatom 21 213 5 0 0 0 - - -;
#X obj 49 283 expr if($f1==0 \, 0 \, $f2);
#X obj 20 239 t f f;
#X text -58 27 velocity;
#X obj 34 346 pack f f f;
#X obj 133 399 pack f f f;
#X obj 128 357 f;
#X obj 195 319 t b b f;
#X text 111 458 vel \, utiming \, step;
#X obj 60 459 outlet;
#X obj 449 28 inlet;
#X text 501 29 step index;
#X floatatom 262 297 5 0 0 0 - - -;
#X obj 12 21 inlet;
#X obj 127 63 inlet;
#X obj 29 71 * 1;
#X obj 71 10 r groove_vel_scale;
#X obj 20 180 f;
#X obj 127 106 f;
#X obj 231 61 r resend_groove_data;
#X obj 233 84 t b b b;
#X text 357 249 step;
#X obj 324 218 r starting_step;
#X msg 323 251 \$1;
#X floatatom 325 354 5 0 0 0 - - -;
#X text 486 247 position in hradio;
#X floatatom 448 249 5 0 0 0 - - -;
#X obj 323 277 expr $f2-$f1+1;
#X obj 322 313 expr if($f1<=0 \, $f1+32 \, $f1);
#X obj 329 392 - 1;
#X connect 1 0 2 0;
#X connect 2 0 3 0;
#X connect 2 1 3 1;
#X connect 3 0 7 0;
#X connect 5 0 26 0;
#X connect 6 0 10 1;
#X connect 6 0 27 0;
#X connect 7 0 16 0;
#X connect 8 0 5 0;
#X connect 8 1 1 1;
#X connect 9 0 11 0;
#X connect 10 0 13 1;
#X connect 11 0 13 0;
#X connect 11 0 15 1;
#X connect 11 1 10 0;
#X connect 13 0 18 0;
#X connect 14 0 18 0;
#X connect 15 0 14 0;
#X connect 16 1 15 0;
#X connect 16 2 14 1;
#X connect 19 0 35 0;
#X connect 21 0 14 2;
#X connect 21 0 13 2;
#X connect 22 0 24 0;
#X connect 23 0 6 0;
#X connect 24 0 8 0;
#X connect 25 0 24 1;
#X connect 26 0 9 0;
#X connect 27 0 1 0;
#X connect 28 0 29 0;
#X connect 29 1 27 0;
#X connect 29 2 21 0;
#X connect 29 2 5 0;
#X connect 31 0 32 0;
#X connect 32 0 36 0;
#X connect 33 0 38 0;
#X connect 35 0 36 1;
#X connect 36 0 37 0;
#X connect 37 0 33 0;
#X connect 38 0 21 0;
