#N canvas 0 23 1440 823 12;
#X obj 669 73 inlet;
#X text 718 75 enable;
#X obj 153 277 tgl 15 0 empty \$0-enable_drum_sample_player empty 17
7 0 10 -262144 -1 -1 1 1;
#X obj 114 296 spigot;
#X obj 669 113 s \$0-enable_drum_sample_player;
#X obj 669 95 tgl 15 0 empty empty empty 17 7 0 10 -262144 -1 -1 1
1;
#X floatatom 114 224 5 0 0 0 - - -;
#X obj 114 360 throw~ drum_sound;
#X obj 130 194 route 36;
#X obj 448 263 tgl 15 0 empty \$0-enable_drum_sample_player empty 17
7 0 10 -262144 -1 -1 1 1;
#X obj 409 282 spigot;
#X floatatom 409 210 5 0 0 0 - - -;
#X obj 409 346 throw~ drum_sound;
#N canvas 610 240 720 506 play_snare 0;
#X obj 174 449 readsf~;
#X floatatom 174 84 5 0 0 0 - - -;
#X floatatom 174 269 5 0 0 0 - - -;
#X obj 175 53 inlet;
#X text 223 53 velocity;
#X msg 142 408 1;
#X obj 175 293 i;
#X obj 176 133 moses 0;
#X obj 174 340 expr min($f1 \, $f2);
#X floatatom 173 363 5 0 0 0 - - -;
#X obj 175 245 expr $f1/(127.0/$f2)+1;
#X text 401 176 n samples;
#X obj 361 143 loadbang;
#X obj 174 383 t b f b;
#X obj 168 482 outlet~;
#X msg 360 177 110;
#X msg 174 407 open snare/44khz_snare_\$1.wav;
#X obj 175 318 expr 110-$f+1;
#X connect 0 0 14 0;
#X connect 1 0 7 0;
#X connect 2 0 6 0;
#X connect 3 0 1 0;
#X connect 5 0 0 0;
#X connect 6 0 17 0;
#X connect 7 1 10 0;
#X connect 8 0 9 0;
#X connect 9 0 13 0;
#X connect 10 0 2 0;
#X connect 12 0 15 0;
#X connect 13 0 5 0;
#X connect 13 1 16 0;
#X connect 15 0 10 1;
#X connect 15 0 8 1;
#X connect 16 0 0 0;
#X connect 17 0 8 0;
#X restore 409 305 pd play_snare;
#X obj 425 180 route 38;
#X obj 757 273 tgl 15 0 empty \$0-enable_drum_sample_player empty 17
7 0 10 -262144 -1 -1 1 1;
#X obj 718 292 spigot;
#X floatatom 718 220 5 0 0 0 - - -;
#X obj 718 356 throw~ drum_sound;
#N canvas 180 250 1145 506 play_hats 0;
#X floatatom 174 84 5 0 0 0 - - -;
#X floatatom 174 269 5 0 0 0 - - -;
#X obj 175 53 inlet;
#X msg 142 408 1;
#X obj 175 293 i;
#X obj 176 133 moses 0;
#X obj 174 316 expr min($f1 \, $f2);
#X floatatom 173 339 5 0 0 0 - - -;
#X obj 175 245 expr $f1/(127.0/$f2)+1;
#X text 401 176 n samples;
#X obj 361 143 loadbang;
#X obj 174 383 t b f b;
#X obj 168 482 outlet~;
#X msg 359 177 37;
#X floatatom 490 82 5 0 0 0 - - -;
#X floatatom 490 267 5 0 0 0 - - -;
#X obj 491 51 inlet;
#X msg 458 406 1;
#X obj 491 291 i;
#X obj 492 131 moses 0;
#X obj 490 314 expr min($f1 \, $f2);
#X floatatom 489 337 5 0 0 0 - - -;
#X obj 491 243 expr $f1/(127.0/$f2)+1;
#X text 717 174 n samples;
#X obj 677 141 loadbang;
#X obj 490 381 t b f b;
#X text 223 53 closed hat velocity;
#X text 539 51 open hat velocity;
#X obj 174 449 readsf~ 4;
#X msg 675 175 38;
#X msg 174 408 open closed-hihat/44khz_chh\$1.wav;
#X msg 490 406 open open-hihat/44khz_hohh\$1.wav;
#X connect 0 0 5 0;
#X connect 1 0 4 0;
#X connect 2 0 0 0;
#X connect 3 0 28 0;
#X connect 4 0 6 0;
#X connect 5 1 8 0;
#X connect 6 0 7 0;
#X connect 7 0 11 0;
#X connect 8 0 1 0;
#X connect 10 0 13 0;
#X connect 11 0 3 0;
#X connect 11 1 30 0;
#X connect 13 0 6 1;
#X connect 13 0 8 1;
#X connect 14 0 19 0;
#X connect 15 0 18 0;
#X connect 16 0 14 0;
#X connect 17 0 28 0;
#X connect 18 0 20 0;
#X connect 19 1 22 0;
#X connect 20 0 21 0;
#X connect 21 0 25 0;
#X connect 22 0 15 0;
#X connect 24 0 29 0;
#X connect 25 0 17 0;
#X connect 25 1 31 0;
#X connect 28 0 12 0;
#X connect 29 0 22 1;
#X connect 29 0 20 1;
#X connect 30 0 28 0;
#X connect 31 0 28 0;
#X restore 718 315 pd play_hats;
#X obj 840 270 tgl 15 0 empty \$0-enable_drum_sample_player empty 17
7 0 10 -262144 -1 -1 1 1;
#X obj 801 289 spigot;
#X floatatom 801 217 5 0 0 0 - - -;
#X obj 734 190 route 42;
#X obj 817 187 route 46;
#X obj 161 525 tgl 15 0 empty \$0-enable_drum_sample_player empty 17
7 0 10 -262144 -1 -1 1 1;
#X obj 122 544 spigot;
#X floatatom 122 472 5 0 0 0 - - -;
#X obj 122 608 throw~ drum_sound;
#X obj 164 788 tgl 15 0 empty \$0-enable_drum_sample_player empty 17
7 0 10 -262144 -1 -1 1 1;
#X obj 125 807 spigot;
#X floatatom 125 735 5 0 0 0 - - -;
#X obj 125 871 throw~ drum_sound;
#X obj 689 530 tgl 15 0 empty \$0-enable_drum_sample_player empty 17
7 0 10 -262144 -1 -1 1 1;
#X obj 650 549 spigot;
#X floatatom 650 477 5 0 0 0 - - -;
#X obj 650 613 throw~ drum_sound;
#X obj 772 527 tgl 15 0 empty \$0-enable_drum_sample_player empty 17
7 0 10 -262144 -1 -1 1 1;
#X obj 733 546 spigot;
#X floatatom 733 474 5 0 0 0 - - -;
#N canvas 682 236 720 506 play_lo_tom 0;
#X obj 174 449 readsf~;
#X floatatom 174 84 5 0 0 0 - - -;
#X floatatom 174 269 5 0 0 0 - - -;
#X obj 175 53 inlet;
#X text 223 53 velocity;
#X msg 142 408 1;
#X obj 175 293 i;
#X obj 176 133 moses 0;
#X obj 174 316 expr min($f1 \, $f2);
#X floatatom 173 339 5 0 0 0 - - -;
#X obj 175 245 expr $f1/(127.0/$f2)+1;
#X text 401 176 n samples;
#X obj 361 143 loadbang;
#X obj 174 383 t b f b;
#X obj 168 482 outlet~;
#X msg 359 177 38;
#X msg 174 409 open lo-tom/44khz_large-tom\$1.wav;
#X connect 0 0 14 0;
#X connect 1 0 7 0;
#X connect 2 0 6 0;
#X connect 3 0 1 0;
#X connect 5 0 0 0;
#X connect 6 0 8 0;
#X connect 7 1 10 0;
#X connect 8 0 9 0;
#X connect 9 0 13 0;
#X connect 10 0 2 0;
#X connect 12 0 15 0;
#X connect 13 0 5 0;
#X connect 13 1 16 0;
#X connect 15 0 10 1;
#X connect 15 0 8 1;
#X connect 16 0 0 0;
#X restore 122 567 pd play_lo_tom;
#X obj 138 442 route 43;
#N canvas 685 159 720 506 play_mid_hi_toms 0;
#X floatatom 174 84 5 0 0 0 - - -;
#X floatatom 174 269 5 0 0 0 - - -;
#X obj 175 53 inlet;
#X msg 142 408 1;
#X obj 175 293 i;
#X obj 176 133 moses 0;
#X obj 174 316 expr min($f1 \, $f2);
#X floatatom 173 339 5 0 0 0 - - -;
#X obj 175 245 expr $f1/(127.0/$f2)+1;
#X text 401 176 n samples;
#X obj 361 143 loadbang;
#X obj 174 383 t b f b;
#X obj 168 482 outlet~;
#X floatatom 490 82 5 0 0 0 - - -;
#X floatatom 490 267 5 0 0 0 - - -;
#X obj 491 51 inlet;
#X msg 458 406 1;
#X obj 491 291 i;
#X obj 492 131 moses 0;
#X obj 490 314 expr min($f1 \, $f2);
#X floatatom 489 337 5 0 0 0 - - -;
#X obj 491 243 expr $f1/(127.0/$f2)+1;
#X text 717 174 n samples;
#X obj 677 141 loadbang;
#X obj 490 381 t b f b;
#X text 223 53 closed hat velocity;
#X text 539 51 open hat velocity;
#X obj 174 449 readsf~ 4;
#X msg 359 177 35;
#X msg 675 175 36;
#X msg 175 408 open mid-tom/44khz_medium-tom\$1.wav;
#X msg 490 406 open hi-tom/44khz_small-tom\$1.wav;
#X connect 0 0 5 0;
#X connect 1 0 4 0;
#X connect 2 0 0 0;
#X connect 3 0 27 0;
#X connect 4 0 6 0;
#X connect 5 1 8 0;
#X connect 6 0 7 0;
#X connect 7 0 11 0;
#X connect 8 0 1 0;
#X connect 10 0 28 0;
#X connect 11 0 3 0;
#X connect 11 1 30 0;
#X connect 13 0 18 0;
#X connect 14 0 17 0;
#X connect 15 0 13 0;
#X connect 16 0 27 0;
#X connect 17 0 19 0;
#X connect 18 1 21 0;
#X connect 19 0 20 0;
#X connect 20 0 24 0;
#X connect 21 0 14 0;
#X connect 23 0 29 0;
#X connect 24 0 16 0;
#X connect 24 1 31 0;
#X connect 27 0 12 0;
#X connect 28 0 8 1;
#X connect 28 0 6 1;
#X connect 29 0 21 1;
#X connect 29 0 19 1;
#X connect 30 0 27 0;
#X connect 31 0 27 0;
#X restore 650 572 pd play_mid_hi_toms;
#X obj 666 447 route 47;
#X obj 749 444 route 48;
#N canvas 720 446 720 402 play_crash 0;
#X obj 174 449 readsf~;
#X floatatom 174 84 5 0 0 0 - - -;
#X floatatom 174 269 5 0 0 0 - - -;
#X obj 175 53 inlet;
#X text 223 53 velocity;
#X msg 142 408 1;
#X obj 175 293 i;
#X obj 176 133 moses 0;
#X obj 174 316 expr min($f1 \, $f2);
#X floatatom 173 339 5 0 0 0 - - -;
#X obj 175 245 expr $f1/(127.0/$f2)+1;
#X text 401 176 n samples;
#X obj 361 143 loadbang;
#X obj 174 383 t b f b;
#X obj 168 482 outlet~;
#X msg 359 177 25;
#X msg 174 408 open crash/44khz_crash\$1.wav;
#X connect 0 0 14 0;
#X connect 1 0 7 0;
#X connect 2 0 6 0;
#X connect 3 0 1 0;
#X connect 5 0 0 0;
#X connect 6 0 8 0;
#X connect 7 1 10 0;
#X connect 8 0 9 0;
#X connect 9 0 13 0;
#X connect 10 0 2 0;
#X connect 12 0 15 0;
#X connect 13 0 5 0;
#X connect 13 1 16 0;
#X connect 15 0 10 1;
#X connect 15 0 8 1;
#X connect 16 0 0 0;
#X restore 125 830 pd play_crash;
#X obj 141 705 route 49;
#X obj 373 788 tgl 15 0 empty \$0-enable_drum_sample_player empty 17
7 0 10 -262144 -1 -1 1 1;
#X obj 334 807 spigot;
#X floatatom 334 735 5 0 0 0 - - -;
#X obj 334 871 throw~ drum_sound;
#N canvas 720 446 720 402 play_ride 0;
#X obj 174 449 readsf~;
#X floatatom 174 84 5 0 0 0 - - -;
#X floatatom 174 269 5 0 0 0 - - -;
#X obj 175 53 inlet;
#X text 223 53 velocity;
#X msg 142 408 1;
#X obj 175 293 i;
#X obj 176 133 moses 0;
#X obj 174 316 expr min($f1 \, $f2);
#X floatatom 173 339 5 0 0 0 - - -;
#X obj 175 245 expr $f1/(127.0/$f2)+1;
#X text 401 176 n samples;
#X obj 361 143 loadbang;
#X obj 174 383 t b f b;
#X obj 168 482 outlet~;
#X msg 359 176 17;
#X msg 174 408 open ride/44khz_ride-mid-in\$1.wav;
#X connect 0 0 14 0;
#X connect 1 0 7 0;
#X connect 2 0 6 0;
#X connect 3 0 1 0;
#X connect 5 0 0 0;
#X connect 6 0 8 0;
#X connect 7 1 10 0;
#X connect 8 0 9 0;
#X connect 9 0 13 0;
#X connect 10 0 2 0;
#X connect 12 0 15 0;
#X connect 13 0 5 0;
#X connect 13 1 16 0;
#X connect 15 0 10 1;
#X connect 15 0 8 1;
#X connect 16 0 0 0;
#X restore 334 830 pd play_ride;
#X obj 350 705 route 51;
#X obj 547 990 vfreeverb~, f 14;
#X obj 537 911 catch~ drum_sound;
#X obj 291 273 tgl 15 0 empty \$0-enable_drum_sample_player empty 17
7 0 10 -262144 -1 -1 1 1;
#X obj 252 292 spigot;
#X floatatom 252 220 5 0 0 0 - - -;
#X obj 252 356 throw~ drum_sound;
#X obj 268 190 route 36;
#X obj 597 265 tgl 15 0 empty \$0-enable_drum_sample_player empty 17
7 0 10 -262144 -1 -1 1 1;
#X obj 558 284 spigot;
#X floatatom 558 212 5 0 0 0 - - -;
#X obj 558 348 throw~ drum_sound;
#N canvas 180 250 720 506 play_snare 0;
#X floatatom 174 84 5 0 0 0 - - -;
#X obj 175 53 inlet;
#X text 223 53 velocity;
#X obj 424 391 hsl 128 15 70 500 1 1 empty empty FREQUENCY -2 -8 0
10 -262144 -1 -1 8100 1;
#X obj 442 461 hsl 128 15 0 1 0 1 empty empty DAMPING -2 -8 0 10 -262144
-1 -1 5100 1;
#X obj 451 496 hsl 128 15 -1 1 0 1 empty empty APF-GAIN -2 -8 0 10
-262144 -1 -1 8300 1;
#X obj 460 531 hsl 128 15 70 500 1 1 empty empty APF-FREQUENCY -2 -8
0 10 -262144 -1 -1 5900 1;
#X obj 433 426 hsl 128 15 0.5 1 1 1 empty empty FEEDBACK -2 -8 0 10
-262144 -1 -1 10100 1;
#X obj 475 591 tgl 15 1 empty empty RESET 17 7 0 10 -262144 -1 -1 1
1;
#X obj 469 566 hsl 128 15 0.001 1 1 1 empty empty NOISE-LEVEL -2 -8
0 10 -262144 -1 -1 8900 1;
#X floatatom 554 391 5 0 0 1 Hz - -;
#X floatatom 572 461 5 0 0 0 - - -;
#X floatatom 590 531 5 0 0 1 Hz - -;
#X floatatom 563 426 5 0 0 1 - - -;
#X floatatom 581 496 5 0 0 0 - - -;
#X floatatom 599 566 5 0 0 0 - - -;
#X obj 412 612 mymembrane~;
#X obj 382 323 bng 15 250 50 0 empty empty empty 17 7 0 10 -262144
-1 -1;
#X obj 457 206 vsl 15 127 1 127 0 1 empty empty VELOCITY 0 -9 0 10
-262144 -1 -1 9037 1;
#X obj 412 355 i;
#X floatatom 457 342 5 0 0 0 - - -;
#X obj 412 190 t b f;
#X obj 412 164 sel 0;
#N canvas 0 22 450 278 (subpatch) 0;
#X array \$0-mem2 1764 float 0;
#X coords 0 0.7 1763 -0.7 101 101 1 0 0;
#X restore 515 219 graph;
#X obj 412 633 throw~ \$0-M;
#X obj 517 180 cnv 15 20 20 empty empty Snare 20 12 1 20 -261123 -1
0;
#X obj 379 656 outlet~;
#X connect 0 0 22 0;
#X connect 1 0 0 0;
#X connect 3 0 10 0;
#X connect 3 0 16 1;
#X connect 4 0 11 0;
#X connect 4 0 16 3;
#X connect 5 0 14 0;
#X connect 5 0 16 4;
#X connect 6 0 12 0;
#X connect 6 0 16 5;
#X connect 7 0 13 0;
#X connect 7 0 16 2;
#X connect 8 0 16 7;
#X connect 9 0 15 0;
#X connect 9 0 16 6;
#X connect 16 0 24 0;
#X connect 16 0 26 0;
#X connect 17 0 19 0;
#X connect 18 0 20 0;
#X connect 19 0 16 0;
#X connect 20 0 19 1;
#X connect 21 0 17 0;
#X connect 21 1 18 0;
#X connect 22 1 21 0;
#X restore 558 307 pd play_snare;
#X obj 574 182 route 38;
#N canvas 180 250 720 506 play_kick_sample 0;
#X obj 174 449 readsf~;
#X floatatom 174 84 5 0 0 0 - - -;
#X floatatom 174 269 5 0 0 0 - - -;
#X obj 175 53 inlet;
#X text 223 53 velocity;
#X msg 142 408 1;
#X obj 175 293 i;
#X obj 176 133 moses 0;
#X obj 174 316 expr min($f1 \, $f2);
#X floatatom 173 339 5 0 0 0 - - -;
#X obj 175 245 expr $f1/(127.0/$f2)+1;
#X msg 359 177 22;
#X text 401 176 n samples;
#X obj 361 143 loadbang;
#X obj 174 383 t b f b;
#X obj 168 482 outlet~;
#X msg 174 408 open kick/44khz_kick\$1.wav;
#X connect 0 0 15 0;
#X connect 1 0 7 0;
#X connect 2 0 6 0;
#X connect 3 0 1 0;
#X connect 5 0 0 0;
#X connect 6 0 8 0;
#X connect 7 1 10 0;
#X connect 8 0 9 0;
#X connect 9 0 14 0;
#X connect 10 0 2 0;
#X connect 11 0 10 1;
#X connect 11 0 8 1;
#X connect 13 0 11 0;
#X connect 14 0 5 0;
#X connect 14 1 16 0;
#X connect 16 0 0 0;
#X restore 114 319 pd play_kick_sample;
#N canvas 671 248 1104 764 play_kick_synth 0;
#X floatatom 174 84 5 0 0 0 - - -;
#X obj 175 53 inlet;
#X text 223 53 velocity;
#X obj 547 341 hsl 128 15 70 500 1 1 empty empty FREQUENCY -2 -8 0
10 -262144 -1 -1 2900 1;
#X obj 565 411 hsl 128 15 0 1 0 1 empty empty DAMPING -2 -8 0 10 -262144
-1 -1 1000 1;
#X obj 574 446 hsl 128 15 -1 1 0 1 empty empty APF-GAIN -2 -8 0 10
-262144 -1 -1 12700 1;
#X obj 583 481 hsl 128 15 70 500 1 1 empty empty APF-FREQUENCY -2 -8
0 10 -262144 -1 -1 12700 1;
#X obj 556 376 hsl 128 15 0.5 1 1 1 empty empty FEEDBACK -2 -8 0 10
-262144 -1 -1 12700 1;
#X obj 598 541 tgl 15 1 empty empty RESET 17 7 0 10 -262144 -1 -1 1
1;
#X obj 592 516 hsl 128 15 0.001 1 1 1 empty empty NOISE-LEVEL -2 -8
0 10 -262144 -1 -1 5300 1;
#N canvas 4 23 162 227 hv.tanh 0;
#X obj 12 12 inlet~;
#X obj 12 38 clip~ -3 3;
#X obj 27 64 *~;
#X obj 12 192 outlet~;
#X obj 27 140 /~;
#X obj 12 166 *~;
#X obj 67 90 *~ 9;
#X obj 27 90 +~ 27;
#X obj 67 116 +~ 27;
#X connect 0 0 1 0;
#X connect 1 0 2 0;
#X connect 1 0 2 1;
#X connect 1 0 5 0;
#X connect 2 0 7 0;
#X connect 2 0 6 0;
#X connect 4 0 5 1;
#X connect 5 0 3 0;
#X connect 6 0 8 0;
#X connect 7 0 4 0;
#X connect 8 0 4 1;
#X restore 536 675 pd hv.tanh;
#X floatatom 677 341 5 0 0 1 Hz - -;
#X floatatom 695 411 5 0 0 0 - - -;
#X floatatom 686 376 5 0 0 1 - - -;
#X obj 535 285 bng 15 250 50 0 empty empty empty 17 7 0 10 -262144
-1 -1;
#X obj 580 156 vsl 15 127 1 127 0 1 empty empty VELOCITY 0 -9 0 10
-262144 -1 -1 3398 1;
#X obj 535 305 i;
#X floatatom 580 292 5 0 0 0 - - -;
#X obj 535 140 t b f;
#X obj 535 114 sel 0;
#N canvas 0 22 450 278 (subpatch) 0;
#X array \$0-mem1 1764 float 0;
#X coords 0 0.7 1763 -0.7 101 101 1 0 0;
#X restore 638 169 graph;
#X obj 535 609 tabwrite~ \$0-mem1;
#X obj 535 583 throw~ \$0-M;
#X obj 535 634 catch~ \$0-M;
#X obj 640 130 cnv 15 20 20 empty empty Kick 20 12 1 20 -261123 -1
0;
#X obj 535 654 *~ 2;
#X obj 536 701 outlet~;
#X obj 535 562 mymembrane~;
#X connect 0 0 19 0;
#X connect 1 0 0 0;
#X connect 3 0 11 0;
#X connect 3 0 27 1;
#X connect 4 0 12 0;
#X connect 4 0 27 3;
#X connect 5 0 27 4;
#X connect 6 0 27 5;
#X connect 7 0 13 0;
#X connect 7 0 27 2;
#X connect 8 0 27 7;
#X connect 9 0 27 6;
#X connect 10 0 26 0;
#X connect 14 0 16 0;
#X connect 14 0 21 0;
#X connect 15 0 17 0;
#X connect 16 0 27 0;
#X connect 17 0 16 1;
#X connect 18 0 14 0;
#X connect 18 1 15 0;
#X connect 19 1 18 0;
#X connect 23 0 25 0;
#X connect 25 0 10 0;
#X connect 27 0 21 0;
#X connect 27 0 22 0;
#X restore 252 315 pd play_kick_synth;
#X msg 874 894 wet 0.1;
#X msg 940 894 dry 0.9;
#X obj 749 801 loadbang;
#X obj 411 242 / 1.6;
#X obj 804 253 / 1.4;
#X obj 709 251 / 1.9;
#X obj 557 243 / 1.2;
#X obj 1176 95 inlet;
#X msg 1005 769 wet \$1;
#X obj 1093 735 expr 1-$f1;
#X msg 1093 759 dry \$1;
#X msg 1357 900 wet 0.1;
#X msg 1423 900 dry 0.9;
#X obj 1232 807 loadbang;
#X msg 1177 903 room 0.5;
#X msg 1264 902 damp 10;
#X msg 694 897 room \$1;
#X msg 781 896 damp \$1;
#X obj 1263 90 inlet;
#X obj 1331 93 inlet;
#X obj 430 1078 outlet~;
#X obj 249 68 inlet;
#X obj 247 113 s \$0-drumNote;
#X obj 113 168 r \$0-drumNote;
#X obj 251 164 r \$0-drumNote;
#X obj 408 154 r \$0-drumNote;
#X obj 557 156 r \$0-drumNote;
#X obj 717 164 r \$0-drumNote;
#X obj 800 161 r \$0-drumNote;
#X obj 732 418 r \$0-drumNote;
#X obj 649 421 r \$0-drumNote;
#X obj 121 416 r \$0-drumNote;
#X obj 124 679 r \$0-drumNote;
#X obj 333 679 r \$0-drumNote;
#X text 298 70 drumNote;
#X connect 0 0 5 0;
#X connect 2 0 3 1;
#X connect 3 0 66 0;
#X connect 5 0 4 0;
#X connect 6 0 3 0;
#X connect 8 0 6 0;
#X connect 9 0 10 1;
#X connect 10 0 13 0;
#X connect 11 0 71 0;
#X connect 13 0 12 0;
#X connect 14 0 11 0;
#X connect 15 0 16 1;
#X connect 16 0 19 0;
#X connect 17 0 73 0;
#X connect 19 0 18 0;
#X connect 20 0 21 1;
#X connect 21 0 19 1;
#X connect 22 0 72 0;
#X connect 23 0 17 0;
#X connect 24 0 22 0;
#X connect 25 0 26 1;
#X connect 26 0 40 0;
#X connect 27 0 26 0;
#X connect 29 0 30 1;
#X connect 30 0 45 0;
#X connect 31 0 30 0;
#X connect 33 0 34 1;
#X connect 34 0 42 0;
#X connect 35 0 34 0;
#X connect 37 0 38 1;
#X connect 38 0 42 1;
#X connect 39 0 38 0;
#X connect 40 0 28 0;
#X connect 41 0 27 0;
#X connect 42 0 36 0;
#X connect 43 0 35 0;
#X connect 44 0 39 0;
#X connect 45 0 32 0;
#X connect 46 0 31 0;
#X connect 47 0 48 1;
#X connect 48 0 51 0;
#X connect 49 0 48 0;
#X connect 51 0 50 0;
#X connect 52 0 49 0;
#X connect 53 0 88 0;
#X connect 53 1 88 0;
#X connect 54 0 53 0;
#X connect 54 0 88 0;
#X connect 55 0 56 1;
#X connect 56 0 67 0;
#X connect 57 0 56 0;
#X connect 59 0 57 0;
#X connect 60 0 61 1;
#X connect 61 0 64 0;
#X connect 62 0 74 0;
#X connect 64 0 63 0;
#X connect 65 0 62 0;
#X connect 66 0 7 0;
#X connect 67 0 58 0;
#X connect 68 0 53 2;
#X connect 69 0 53 2;
#X connect 70 0 84 0;
#X connect 70 0 85 0;
#X connect 70 0 68 0;
#X connect 70 0 69 0;
#X connect 71 0 10 0;
#X connect 72 0 21 0;
#X connect 73 0 16 0;
#X connect 74 0 61 0;
#X connect 75 0 76 0;
#X connect 75 0 77 0;
#X connect 76 0 53 2;
#X connect 77 0 78 0;
#X connect 78 0 53 2;
#X connect 81 0 82 0;
#X connect 81 0 83 0;
#X connect 81 0 79 0;
#X connect 81 0 80 0;
#X connect 84 0 53 2;
#X connect 85 0 53 2;
#X connect 86 0 84 0;
#X connect 87 0 85 0;
#X connect 89 0 90 0;
#X connect 91 0 8 0;
#X connect 92 0 59 0;
#X connect 93 0 14 0;
#X connect 94 0 65 0;
#X connect 95 0 23 0;
#X connect 96 0 24 0;
#X connect 97 0 44 0;
#X connect 98 0 43 0;
#X connect 99 0 41 0;
#X connect 100 0 46 0;
#X connect 101 0 52 0;
