#N canvas 313 69 954 866 12;
#X obj 56 253 cnv 15 330 230 empty empty Note_Receiver_(Routes_to_Midi_Out)
10 12 0 14 -261682 -83269 0;
#X msg 172 317 listen 0;
#X obj 80 292 loadbang;
#X obj 80 362 s port;
#X obj 55 48 cnv 15 700 130 empty empty Action_Sender 540 12 0 14 -204786
-83269 0;
#N canvas 101 23 1339 453 sendAction2Python 0;
#X obj 19 365 netsend -u -b;
#X floatatom 19 395 5 0 0 0 - - -;
#X obj 19 152 list prepend send;
#X obj 19 179 list trim;
#X text 123 179 converts list to message;
#X obj 178 11 inlet;
#X text 220 8 reset bang;
#X obj 178 32 bng 15 250 50 0 empty empty empty 17 7 0 10 -262144 -1
-1;
#X obj 19 12 inlet;
#X text 61 4 connection settings, f 10;
#X obj 39 116 oscformat /actions/generate_left_melody;
#X obj 543 15 inlet;
#X text 585 12 reset bang;
#X obj 543 36 bng 15 250 50 0 empty empty empty 17 7 0 10 -262144 -1
-1;
#X obj 404 120 oscformat /actions/generate_right_melody;
#X obj 893 14 inlet;
#X text 935 11 reset bang;
#X floatatom 871 62 5 0 10 0 - - -;
#X msg 865 90 \$1;
#X msg 451 90 0;
#X msg 69 81 0;
#X obj 978 70 s reset_interpolated_melody_tables;
#X obj 549 71 s reset_right_melody_tables;
#X obj 189 62 s reset_left_melody_tables;
#X obj 548 95 s reset_interpolated_melody_tables;
#X obj 190 87 s reset_interpolated_melody_tables;
#X obj 754 119 oscformat /actions/generate_interpolation;
#X obj 942 44 bng 15 250 50 0 empty empty empty 17 7 0 10 -262144 -1
-1;
#X connect 0 0 1 0;
#X connect 2 0 3 0;
#X connect 3 0 0 0;
#X connect 5 0 7 0;
#X connect 7 0 20 0;
#X connect 7 0 23 0;
#X connect 7 0 25 0;
#X connect 8 0 0 0;
#X connect 10 0 2 0;
#X connect 11 0 13 0;
#X connect 13 0 22 0;
#X connect 13 0 24 0;
#X connect 13 0 19 0;
#X connect 14 0 2 0;
#X connect 15 0 17 0;
#X connect 15 0 27 0;
#X connect 17 0 18 0;
#X connect 18 0 26 0;
#X connect 19 0 14 0;
#X connect 20 0 10 0;
#X connect 26 0 2 0;
#X connect 27 0 21 0;
#X restore 160 136 pd sendAction2Python;
#X f 78;
#X msg 160 50 disconnect;
#X msg 160 72 connect 127.0.0.1 1235;
#X obj 341 114 bng 15 250 50 0 empty empty empty 17 7 0 10 -262144
-1 -1;
#X msg 80 316 listen 1240;
#N canvas 0 23 450 278 (subpatch) 0;
#X array Notes_Interpolated 16 float 3;
#A 0 9 0 0 0 9 0 0 0 9 0 0 0 7 0 0 0;
#X coords 0 18 16 -1 128 60 1 0 0;
#X restore 341 621 graph;
#N canvas 0 23 450 278 (subpatch) 0;
#X array Durations_Interpolated 16 float 3;
#A 0 4 0 0 0 4 0 0 0 4 0 0 0 4 0 0 0;
#X coords 0 18 16 -1 128 60 1 0 0;
#X restore 341 739 graph;
#X obj 345 586 hsl 123 15 0 1 0 0 Interpolation_position Interpolation_position_r
empty -2 -8 0 10 -262144 -1 -1 0 0;
#N canvas 240 23 1158 797 osc_receiver 0;
#X obj 185 284 oscparse;
#X obj 185 313 list trim;
#X text -212 501 route is the regular Pd object \, and should match
the OSC address without a backslash, f 43;
#X obj 185 174 netreceive -u -b 5000;
#X obj 218 224 spigot 0;
#X text -63 322 reconstructed OSC message (address followed by one
or more floats or strings., f 28;
#X obj 236 366 print OSC;
#X floatatom 99 569 5 0 0 0 - - -;
#X floatatom 167 569 5 0 0 0 - - -;
#X floatatom 238 569 5 0 0 0 - - -;
#X text 173 550 pitch;
#X text 274 569 dur;
#X obj 236 342 spigot 0;
#X obj 362 187 cnv 15 200 60 empty empty Enable_to_Print 100 12 2 14
-261682 -66577 0;
#X obj 404 210 tgl 15 0 empty empty empty 17 7 0 10 -262144 -1 -1 0
1;
#X obj 218 256 print serial_data;
#X obj 103 371 route note;
#X obj 114 98 r port;
#X text -33 567 starting position;
#X obj 101 424 route Interpolated_Melody Left_Melody Right_Melody,
f 115;
#X obj 100 513 route startTime pitch duration;
#X msg 99 703 \; Notes_Interpolated \$1 \$2;
#X msg 106 645 \; Durations_Interpolated \$1 \$2;
#X obj 99 682 pack f f, f 10;
#X obj 106 624 pack f f;
#X floatatom 366 570 5 0 0 0 - - -;
#X floatatom 434 570 5 0 0 0 - - -;
#X floatatom 505 570 5 0 0 0 - - -;
#X text 440 551 pitch;
#X text 541 570 dur;
#X obj 367 514 route startTime pitch duration;
#X obj 366 683 pack f f, f 10;
#X obj 373 625 pack f f;
#X msg 366 704 \; Notes_Left_Melody \$1 \$2;
#X msg 373 646 \; Durations_Left_Melody \$1 \$2;
#X floatatom 634 574 5 0 0 0 - - -;
#X floatatom 702 574 5 0 0 0 - - -;
#X floatatom 773 574 5 0 0 0 - - -;
#X text 708 555 pitch;
#X text 809 574 dur;
#X obj 635 518 route startTime pitch duration;
#X obj 634 687 pack f f, f 10;
#X obj 641 629 pack f f;
#X msg 641 650 \; Durations_Right_Melody \$1 \$2;
#X msg 634 708 \; Notes_Right_Melody \$1 \$2;
#X connect 0 0 1 0;
#X connect 1 0 12 0;
#X connect 1 0 16 0;
#X connect 3 0 0 0;
#X connect 3 0 4 0;
#X connect 4 0 15 0;
#X connect 7 0 23 0;
#X connect 7 0 24 0;
#X connect 8 0 23 1;
#X connect 9 0 24 1;
#X connect 12 0 6 0;
#X connect 14 0 12 1;
#X connect 16 0 19 0;
#X connect 17 0 3 0;
#X connect 19 0 20 0;
#X connect 19 1 30 0;
#X connect 19 2 40 0;
#X connect 20 0 7 0;
#X connect 20 1 8 0;
#X connect 20 2 9 0;
#X connect 23 0 21 0;
#X connect 24 0 22 0;
#X connect 25 0 31 0;
#X connect 25 0 32 0;
#X connect 26 0 31 1;
#X connect 27 0 32 1;
#X connect 30 0 25 0;
#X connect 30 1 26 0;
#X connect 30 2 27 0;
#X connect 31 0 33 0;
#X connect 32 0 34 0;
#X connect 35 0 41 0;
#X connect 35 0 42 0;
#X connect 36 0 41 1;
#X connect 37 0 42 1;
#X connect 40 0 35 0;
#X connect 40 1 36 0;
#X connect 40 2 37 0;
#X connect 41 0 44 0;
#X connect 42 0 43 0;
#X restore 85 424 pd osc_receiver;
#X obj 342 700 hradio 8 1 0 16 empty playback_pos empty 0 -8 0 10 -262144
-1 -1 -1;
#X text 336 91 Generate Left Melody;
#X obj 521 113 bng 15 250 50 0 empty empty empty 17 7 0 10 -262144
-1 -1;
#X text 517 94 Generate Right Melody;
#N canvas 0 23 450 278 (subpatch) 0;
#X array Notes_Left_Melody 16 float 3;
#A 0 5 0 0 0 10 0 0 0 0 0 0 0 0 0 0 0;
#X coords 0 18 16 -1 128 60 1 0 0;
#X restore 100 620 graph;
#N canvas 0 23 450 278 (subpatch) 0;
#X array Durations_Left_Melody 16 float 3;
#A 0 4 0 0 0 12 0 0 0 0 0 0 0 0 0 0 0;
#X coords 0 18 16 -1 128 60 1 0 0;
#X restore 100 739 graph;
#N canvas 0 23 450 278 (subpatch) 0;
#X array Notes_Right_Melody 16 float 3;
#A 0 4 0 0 0 7 0 0 0 9 0 9 0 7 0 9 0;
#X coords 0 18 16 -1 128 60 1 0 0;
#X restore 606 620 graph;
#N canvas 0 23 450 278 (subpatch) 0;
#X array Durations_Right_Melody 16 float 3;
#A 0 4 0 0 0 4 0 0 0 2 0 2 0 2 0 2 0;
#X coords 0 18 16 -1 128 60 1 0 0;
#X restore 606 738 graph;
#N canvas 450 156 990 369 reset_tables 0;
#X msg 10 37 \; Notes_Left_Melody 0 0 0 0 0 0 0 0 0 0 0 0 0 0 0 0 0
\; Durations_Left_Melody 0 0 0 0 0 0 0 0 0 0 0 0 0 0 0 0 0;
#X msg 13 198 \; Notes_Right_Melody 0 0 0 0 0 0 0 0 0 0 0 0 0 0 0 0
0 \; Durations_Right_Melody 0 0 0 0 0 0 0 0 0 0 0 0 0 0 0 0 0;
#X obj 10 10 r reset_left_melody_tables;
#X obj 12 94 r reset_interpolated_melody_tables;
#X msg 13 118 \; Notes_Interpolated 0 0 0 0 0 0 0 0 0 0 0 0 0 0 0 0
0 \; Durations_Interpolated 0 0 0 0 0 0 0 0 0 0 0 0 0 0 0 0 0;
#X obj 13 175 r reset_right_melody_tables;
#X obj 465 12 inlet;
#X text 517 14 reset all;
#X connect 2 0 0 0;
#X connect 3 0 4 0;
#X connect 5 0 1 0;
#X connect 6 0 0 0;
#X connect 6 0 4 0;
#X connect 6 0 1 0;
#X restore 235 399 pd reset_tables;
#X text 255 585 Left Melody;
#X text 472 583 Right Melody;
#X floatatom 703 104 20 0 1 0 - Interpolation_position -;
#X text 697 82 Interpolation_position;
#X obj 236 377 bng 15 250 50 0 empty empty empty 17 7 0 10 -262144
-1 -1;
#X text 258 377 reset all;
#X obj 237 353 loadbang;
#X obj 444 247 cnv 15 330 230 empty empty Note_Receiver_(Routes_to_Midi_Out)
10 12 0 14 -261682 -83269 0;
#X obj 489 431 noteout, f 32;
#N canvas 67 24 1464 946 playback_Position 0;
#N canvas 421 389 541 310 midi_clock 0;
#X text 9 -1 1:start \, 0:stop;
#X obj 126 40 inlet;
#X obj 9 26 inlet;
#X obj 290 246 outlet;
#X obj 48 244 outlet;
#X text 94 244 clock bang;
#X obj 47 160 /;
#X obj 47 59 loadbang;
#X obj 93 134 t b f;
#X obj 48 201 metro;
#X floatatom 290 202 5 0 0 0 - - -;
#X msg 47 80 60000;
#X text 126 13 BPM*PPQ;
#X text 339 241 sec per quarter;
#X text 79 105 resolution = 16th note --> so divide beat duration by
4;
#X obj 48 117 / 4;
#X connect 1 0 8 0;
#X connect 2 0 9 0;
#X connect 6 0 9 1;
#X connect 6 0 10 0;
#X connect 7 0 11 0;
#X connect 8 0 6 0;
#X connect 8 1 6 1;
#X connect 9 0 4 0;
#X connect 10 0 3 0;
#X connect 11 0 15 0;
#X connect 15 0 6 0;
#X restore 90 254 pd midi_clock;
#X obj 90 202 tgl 15 0 empty empty empty 17 7 0 10 -262144 -1 -1 0
1;
#X floatatom 188 170 5 0 0 0 - - -;
#X floatatom 181 289 5 0 0 0 - - -;
#X obj 190 94 inlet;
#X text 161 101 BPM;
#X obj 92 91 inlet;
#X text 252 352 resolution per time step (ms), f 12;
#X text 54 70 Start 1 /Pause 0;
#X text 7 323 trigger per 16th note, f 9;
#X obj 87 388 outlet;
#X obj 87 299 bng 15 250 50 0 empty empty empty 17 7 0 10 -262144 -1
-1;
#X obj 181 372 outlet;
#X connect 0 0 11 0;
#X connect 0 1 3 0;
#X connect 1 0 0 0;
#X connect 2 0 0 1;
#X connect 3 0 12 0;
#X connect 4 0 2 0;
#X connect 6 0 1 0;
#X connect 11 0 10 0;
#X restore 561 353 pd playback_Position;
#X f 11;
#N canvas 190 173 960 797 playNoteFromTables 0;
#X obj 122 120 loadbang;
#X obj 207 125 bng 15 250 50 0 empty empty empty 17 7 0 10 -262144
-1 -1;
#X obj 119 198 i;
#X obj 152 208 + 1;
#X floatatom 119 237 5 0 0 0 - - playback_pos;
#X obj 121 81 inlet;
#X text 104 62 reset bang;
#X obj 121 102 bng 15 250 50 0 empty empty empty 17 7 0 10 -262144
-1 -1;
#X obj 151 185 % 16;
#X floatatom 73 369 5 0 0 0 - - -;
#X text 49 347 pitch;
#X obj 62 392 route 2 3 4 5 6 7 8 9 10 11 12 13, f 57;
#X msg 62 416 45;
#X msg 95 416 46;
#X msg 129 416 47;
#X msg 161 416 48;
#X msg 194 415 49;
#X msg 227 415 50;
#X msg 261 415 51;
#X msg 294 415 52;
#X msg 326 415 53;
#X msg 358 415 54;
#X msg 393 415 55;
#X msg 425 415 56;
#X text 42 415 A;
#X text 463 415 G#;
#X floatatom 133 484 5 0 0 0 - - -;
#X obj 182 258 t f f;
#X floatatom 331 486 5 0 0 0 - - -;
#X obj 349 524 *;
#X floatatom 346 581 5 0 0 0 - - -;
#X obj 179 609 makenote;
#X obj 208 545 loadbang;
#X msg 209 570 100;
#X obj 157 676 outlet;
#X text 157 705 pitch;
#X obj 219 677 outlet;
#X text 219 705 velocity;
#X obj 197 75 inlet;
#X text 250 77 trigger per 16th note, f 9;
#X obj 373 72 inlet;
#X text 417 71 resolution per time step (ms), f 12;
#X obj 141 524 + 0;
#X obj 579 83 inlet;
#X text 627 80 pitch_shift (semitones);
#X obj 225 152 t b b;
#X obj 243 195 s play_bang;
#X obj 302 560 moses 1;
#X msg 121 146 -1;
#X obj 106 302 tabread Notes_Interpolated;
#X obj 307 303 tabread Durations_Interpolated;
#X obj 298 610 t b f;
#X connect 0 0 48 0;
#X connect 1 0 45 0;
#X connect 2 0 4 0;
#X connect 2 0 3 0;
#X connect 2 0 27 0;
#X connect 3 0 8 0;
#X connect 5 0 7 0;
#X connect 7 0 48 0;
#X connect 8 0 2 1;
#X connect 9 0 11 0;
#X connect 11 0 12 0;
#X connect 11 1 13 0;
#X connect 11 2 14 0;
#X connect 11 3 15 0;
#X connect 11 4 16 0;
#X connect 11 5 17 0;
#X connect 11 6 18 0;
#X connect 11 7 19 0;
#X connect 11 8 20 0;
#X connect 11 9 21 0;
#X connect 11 10 22 0;
#X connect 11 11 23 0;
#X connect 12 0 26 0;
#X connect 13 0 26 0;
#X connect 14 0 26 0;
#X connect 15 0 26 0;
#X connect 16 0 26 0;
#X connect 17 0 26 0;
#X connect 18 0 26 0;
#X connect 19 0 26 0;
#X connect 20 0 26 0;
#X connect 21 0 26 0;
#X connect 22 0 26 0;
#X connect 23 0 26 0;
#X connect 26 0 42 0;
#X connect 27 0 49 0;
#X connect 27 1 50 0;
#X connect 28 0 29 0;
#X connect 29 0 47 0;
#X connect 30 0 51 0;
#X connect 31 0 34 0;
#X connect 31 1 36 0;
#X connect 32 0 33 0;
#X connect 33 0 31 1;
#X connect 38 0 1 0;
#X connect 40 0 29 1;
#X connect 42 0 31 0;
#X connect 43 0 42 1;
#X connect 45 0 46 0;
#X connect 45 1 2 0;
#X connect 47 1 30 0;
#X connect 48 0 2 0;
#X connect 49 0 9 0;
#X connect 50 0 28 0;
#X connect 51 1 31 2;
#X restore 489 405 pd playNoteFromTables;
#X f 32;
#X obj 490 333 bng 15 250 50 0 reset empty empty 17 7 0 10 -262144
-1 -1;
#X text 441 315 Reset Cursor;
#X obj 559 330 tgl 15 0 empty empty empty 17 7 0 10 -262144 -1 -1 0
1;
#X text 539 297 Start 1 / Pause 0, f 10;
#X floatatom 634 329 5 0 0 0 - - -;
#X text 675 329 BPM;
#X obj 634 284 loadbang;
#X msg 634 306 90;
#X floatatom 710 376 5 0 0 0 - - -;
#X text 683 346 Pitch Shift (semitones);
#N canvas 0 23 1294 777 AutoCursor 0;
#N canvas 987 269 450 300 autoMoveInterpolationCursor 0;
#X obj 206 8 inlet;
#X text 246 10 Interpolation Resolution;
#X obj 72 57 loadbang;
#X obj 37 18 inlet;
#X text 20 -1 reset bang;
#X obj 37 39 bng 15 250 50 0 empty empty empty 17 7 0 10 -262144 -1
-1;
#X obj 48 249 outlet;
#X floatatom 224 148 5 0 0 0 - - -;
#X obj 225 112 /;
#X obj 200 72 i 1;
#X obj 203 42 t b f;
#X obj 87 121 + 0.1;
#X floatatom 102 249 20 0 1 0 - - -;
#X msg 73 80 0;
#X floatatom 34 144 10 0 1 0 - - -;
#X obj 38 114 f;
#X obj 123 219 bng 15 250 50 0 empty reset empty 17 7 0 10 -262144
-1 -1;
#X obj 63 192 moses 1.1;
#X connect 0 0 10 0;
#X connect 2 0 13 0;
#X connect 3 0 5 0;
#X connect 5 0 15 0;
#X connect 7 0 11 1;
#X connect 8 0 7 0;
#X connect 9 0 8 0;
#X connect 10 0 9 0;
#X connect 10 1 8 1;
#X connect 11 0 15 1;
#X connect 13 0 15 0;
#X connect 15 0 11 0;
#X connect 15 0 14 0;
#X connect 15 0 17 0;
#X connect 16 0 13 0;
#X connect 17 0 6 0;
#X connect 17 0 12 0;
#X connect 17 1 16 0;
#X restore 60 95 pd autoMoveInterpolationCursor;
#X floatatom 61 117 5 0 1 0 - - Interpolation_position_r;
#X floatatom 59 27 5 0 0 0 - playback_pos -;
#X obj 59 73 route 15;
#X obj 98 26 tgl 15 0 empty empty empty 0 -6 0 8 -262144 -1 -1 0 1
;
#X obj 59 49 spigot;
#X obj 98 -3 inlet;
#X text 141 0 Enable;
#X obj 256 41 inlet;
#X text 295 17 numsteps;
#X connect 0 0 1 0;
#X connect 2 0 5 0;
#X connect 3 0 0 0;
#X connect 4 0 5 1;
#X connect 5 0 3 0;
#X connect 6 0 4 0;
#X connect 8 0 0 1;
#X restore 342 560 pd AutoCursor;
#X obj 342 543 tgl 15 0 empty empty empty 0 -6 0 8 -262144 -1 -1 0
1;
#X floatatom 429 537 5 0 0 0 - - -;
#X obj 427 490 loadbang;
#X msg 427 514 5;
#X connect 1 0 3 0;
#X connect 2 0 9 0;
#X connect 6 0 5 0;
#X connect 7 0 5 0;
#X connect 8 0 5 1;
#X connect 9 0 3 0;
#X connect 16 0 5 2;
#X connect 25 0 5 3;
#X connect 27 0 22 0;
#X connect 29 0 27 0;
#X connect 32 0 33 1;
#X connect 32 1 33 2;
#X connect 33 0 31 0;
#X connect 33 1 31 1;
#X connect 34 0 33 0;
#X connect 36 0 32 0;
#X connect 38 0 32 1;
#X connect 40 0 41 0;
#X connect 41 0 38 0;
#X connect 42 0 33 3;
#X connect 45 0 44 0;
#X connect 46 0 44 1;
#X connect 47 0 48 0;
#X connect 48 0 46 0;
#X coords 0 -1 1 1 900 800 1 10 10;
