#N canvas 721 104 512 658 12;
#X obj 104 51 inlet~;
#N canvas 667 241 314 331 set 0;
#X obj 80 40 inlet;
#X obj 102 206 s \$0-ratio;
#X obj 134 185 s \$0-attack;
#X obj 166 164 s \$0-release;
#X obj 71 227 s \$0-thresh;
#X obj 176 134 s \$0-gain;
#X obj 78 78 route thresh ratio attack release gain, f 12;
#X connect 0 0 6 0;
#X connect 6 0 4 0;
#X connect 6 1 1 0;
#X connect 6 2 2 0;
#X connect 6 3 3 0;
#X connect 6 4 5 0;
#X restore 178 82 pd set;
#X obj 178 51 inlet;
#X text 102 29 in;
#X obj 207 571 outlet~;
#X obj 104 491 *~;
#X obj 122 400 min~ 1;
#X obj 140 293 /~;
#X obj 122 248 -~;
#X obj 122 325 -~;
#X obj 158 235 max 1;
#X obj 156 169 r \$0-thresh;
#X obj 158 209 r \$0-ratio;
#X obj 207 530 *~;
#X obj 225 471 r \$0-gain;
#X obj 140 138 cyclone/average~ 512 rms;
#X obj 122 363 cyclone/dbtoa~;
#X obj 225 496 cyclone/dbtoa;
#X obj 122 438 cyclone/rampsmooth~;
#X obj 258 359 r \$0-release;
#X obj 322 384 r \$0-attack;
#X obj 322 410 * 44.1;
#X obj 258 392 * 44.1;
#X connect 0 0 5 0;
#X connect 0 0 15 0;
#X connect 2 0 1 0;
#X connect 5 0 13 0;
#X connect 6 0 18 0;
#X connect 7 0 9 1;
#X connect 8 0 7 0;
#X connect 8 0 9 0;
#X connect 9 0 16 0;
#X connect 10 0 7 1;
#X connect 11 0 8 0;
#X connect 12 0 10 0;
#X connect 13 0 4 0;
#X connect 14 0 17 0;
#X connect 15 0 8 1;
#X connect 16 0 6 0;
#X connect 17 0 13 1;
#X connect 18 0 5 1;
#X connect 19 0 22 0;
#X connect 20 0 21 0;
#X connect 21 0 18 2;
#X connect 22 0 18 1;
