#N canvas 0 23 1440 825 12;
#X obj 101 101 cnv 15 798 798 empty empty empty 20 12 0 14 -233017
-66577 0;
#X text 793 -28 Todo: 1 per voice tres 2 per voice max count 3 scale
velocities of sliders 4 live record via midi, f 38;
#X obj 949 111 cnv 15 400 200 empty empty Settings_and_Source_Not_Shown_On_Main_GUI
20 12 0 14 -258113 -66577 0;
#X obj 132 102 hradio 15 1 0 10 empty empty empty 0 -8 0 10 -262144
-1 -1 2;
#N canvas 0 23 960 825 \$0-setting-panes 0;
#X obj 1503 64 inlet;
#X msg 1510 192 0;
#X obj 1327 49 hradio 15 1 0 10 empty empty empty 0 -8 0 10 -262144
-1 -1 9;
#X obj 1596 224 pack f f;
#X obj 1509 94 t f f b;
#X obj 1483 138 != 0;
#X text 1316 194 get's messy without this ->;
#X text 1772 82 https://forum.pdpatchrepo.info/topic/9799/gui-tab-like-question/2
;
#X obj 1533 338 s pd-\$0-setting-panes;
#X text 567 618 Run the python script before opening the pd patch (python
main.py --py2pd_port 1123 --pd2py_port 1415), f 121;
#X obj 765 74 bng 15 250 50 0 disconnect_py2pd_connection empty disconnect_py2pd_connection
17 7 0 10 -262144 -1 -1;
#X obj 766 92 bng 15 250 50 0 disconnect_pd2py_connection empty disconnect_pd2py_connection
17 7 0 10 -262144 -1 -1;
#X floatatom 709 58 5 0 0 0 - - -;
#X obj 683 132 ctlin, f 27;
#X floatatom 682 159 5 0 0 0 - - -;
#X floatatom 775 170 5 0 0 0 - - -;
#X floatatom 870 171 5 0 0 0 - - -;
#X floatatom 517 441 10 0 0 2 metronome_volume_init metronome_volume_init
-;
#X obj 517 477 res/rotary_encoder_to_value, f 26;
#X obj 517 459 ctlin 15, f 14;
#X floatatom 620 509 5 0 0 0 - - -;
#X obj 621 439 loadbang;
#X msg 683 458 0 3;
#X msg 621 457 0.01;
#X msg 1663 197 80;
#X msg 1704 197 280;
#X msg 1738 201 480;
#X msg 1776 200 680;
#X msg 1533 311 donecanvasdialog 1 -1 \$1 0 -1 1 1 300 70 180 \$2;
#X msg 1822 198 780;
#X msg 1826 249 880;
#X obj 181 881 cnv 15 298 68 empty empty empty 20 12 0 14 -262144 -66577
0;
#X obj 181 781 cnv 15 298 68 empty empty empty 20 12 0 14 -237242 -66577
0;
#X obj 267 814 hradio 30 1 0 4 ppq_selection ppq_selection_init PPQ_384_192__96__48
-19 -8 0 12 -262130 -1 -1 0;
#X text 398 797 Resolution;
#X text 422 782 PPQ;
#X obj 181 681 cnv 15 298 68 empty empty empty 20 12 0 14 -237242 -66577
0;
#X floatatom 288 694 5 0 0 0 py2pd_port py2pd_port_init py2pd_port
;
#X floatatom 412 695 5 0 0 0 pd2py_port pd2py_port_init pd2py_port
;
#X floatatom 353 727 5 0 0 0 drum_out_channel drum_out_channel_init
drum_out_channel;
#X obj 181 481 cnv 15 298 68 empty empty empty 20 12 0 14 -237242 -66577
0;
#X obj 195 514 hradio 10 1 0 5 meter_numerator meter_numerator_preset
_1_2_3_4_6_ -2 -8 0 8 -232576 -1 -1 3;
#X obj 198 537 hradio 10 1 0 4 meter_denominator meter_denominator_preset
_1_2_4_8_ -2 -8 0 8 -232576 -1 -1 2;
#X text 258 509 Numerator;
#X text 248 533 Denominator;
#X text 202 487 Meter (only affects metronome sound);
#X obj 181 281 cnv 15 298 68 empty empty empty 20 12 0 14 -237242 -66577
0;
#X obj 343 310 hsl 110 15 0 1 0 0 groove_volume groove_volume_init
Clap_Sound_Volume -2 -8 0 10 -261234 -1 -1 10900 0;
#X obj 349 519 hsl 110 15 0 1 0 0 metronome_volume metronome_volume_r
Metronome_Volume -2 -8 0 10 -232576 -1 -1 6540 1;
#X obj 181 81 cnv 15 298 68 empty empty empty 20 12 0 14 -237242 -66577
0;
#X obj 195 105 tgl 30 0 empty play_r PLAY 4 -10 0 10 -262144 -1 -1
0 1;
#X obj 241 105 tgl 30 0 record record_r RECORD 4 -10 0 10 -262144 -1
-1 1 1;
#X obj 315 105 tgl 30 0 send_clock_out send_clock_out_r Send_Clock_Out
-30 -10 0 10 -262144 -1 -1 1 1;
#X floatatom 148 49 10 0 0 2 BPM bpm_init -;
#X obj -3 99 ctlin 85, f 14;
#X obj -3 118 res/pushbutton_cc2toggle, f 26;
#X obj -4 173 res/pushbutton_cc2toggle, f 26;
#X floatatom 380 114 10 0 0 2 BPM bpm_r bpm;
#X obj -4 154 ctlin 86, f 14;
#X obj 36 49 ctlin 14, f 14;
#X obj 36 67 res/rotary_encoder_to_value;
#X obj 784 336 cnv 15 698 490 empty empty empty 20 12 0 14 -241339
-66577 0;
#X text 185 928 >> python run_generative_engine.py --help;
#X text 205 905 Prior to Loading a Preset/Session;
#X text 181 884 Don't Forget to Load the Generative Engine;
#X obj 286 309 tgl 15 0 keyboard_enabled keyboard_enabled_r Enable_Keyboard
-100 6 0 10 -261682 -1 -1 1 1;
#X msg 1893 202 980;
#X obj 181 981 cnv 15 298 68 empty empty empty 20 12 0 14 -262144 -66577
0;
#X obj 190 238 s run;
#X obj 249 230 s force_resend_data_to_py;
#X obj 252 195 sel 1;
#X msg 1944 201 1080;
#X msg 1992 204 1180;
#X obj 1650 164 sel 1 2 3 4 5 6 7 8 9, f 42;
#X obj 181 1081 cnv 15 298 68 empty empty empty 20 12 0 14 -237242
-66577 0;
#X obj 181 1181 cnv 15 298 68 empty empty empty 20 12 0 14 -262144
-66577 0;
#X text 181 1180 Light Model: Smaller Transformer \,;
#X text 260 1195 Less Computationally Intensive;
#X text 260 1232 More Computationally Intensive;
#X text 181 1215 Heavy Model: Larger Transformer \,;
#X obj 273 1120 hsl 128 15 0.1 20 0 0 empty empty Delay_Between_Generations
-2 -8 0 10 -203904 -1 -1 0 0;
#X floatatom 403 1118 5 0 0 0 - - -;
#X obj 504 1148 change;
#X obj 513 1124 s wait_time_between_generations;
#X obj 192 1104 vradio 20 1 0 2 empty empty empty 0 -8 0 10 -203302
-1 -1 1;
#X text 215 1105 Light;
#X text 215 1125 Heavy;
#X obj 51 1166 s model_version;
#X obj 65 1054 r model_version_r;
#X text 195 1080 Select Model and Minimum Delay btn Gens;
#X obj 202 166 t f f;
#X obj 274 328 cnv 2 40 8 empty empty CapsLock 0 4 0 8 -260097 -262144
0;
#X obj 340 327 cnv 2 10 8 empty empty - 3 4 0 8 -260097 -262144 0;
#X obj 445 327 cnv 2 10 8 empty empty + 3 4 0 8 -260097 -262144 0;
#X obj 56 217 keyname;
#X symbolatom 103 263 10 0 0 0 - - -;
#X floatatom 18 265 5 0 0 0 - - -;
#X obj 13 300 t b f;
#X obj 3 344 symbol;
#X obj 3 367 sel Caps_Lock;
#X obj 5 392 f;
#X obj 6 423 tgl 15 0 empty empty empty 17 7 0 10 -262144 -1 -1 1 1
;
#X obj 319 25 loadbang;
#X msg 319 52 1;
#X obj 202 138 cnv 2 12 8 empty empty P 4 4 0 9 -260097 -262144 0;
#X obj 249 138 cnv 2 12 8 empty empty R 4 4 0 9 -260097 -262144 0;
#X text 266 1007 -- Version 0.3;
#X obj 346 536 cnv 2 45 8 empty empty Left_Arrow 3 5 0 7 -260097 -262144
0;
#X obj 416 536 cnv 2 45 8 empty empty Right_Arrow 3 5 0 7 -260097 -262144
0;
#X connect 0 0 4 0;
#X connect 1 0 3 0;
#X connect 2 0 4 0;
#X connect 3 0 28 0;
#X connect 4 0 5 0;
#X connect 4 1 73 0;
#X connect 4 2 1 0;
#X connect 5 0 3 0;
#X connect 13 0 14 0;
#X connect 13 1 15 0;
#X connect 13 2 16 0;
#X connect 17 0 18 1;
#X connect 18 1 20 0;
#X connect 19 0 18 0;
#X connect 20 0 48 0;
#X connect 21 0 23 0;
#X connect 21 0 22 0;
#X connect 22 0 18 3;
#X connect 23 0 18 2;
#X connect 24 0 3 1;
#X connect 25 0 3 1;
#X connect 26 0 3 1;
#X connect 27 0 3 1;
#X connect 28 0 8 0;
#X connect 29 0 3 1;
#X connect 30 0 3 1;
#X connect 50 0 90 0;
#X connect 53 0 60 1;
#X connect 54 0 55 0;
#X connect 55 0 50 0;
#X connect 56 0 51 0;
#X connect 58 0 56 0;
#X connect 59 0 60 0;
#X connect 66 0 3 1;
#X connect 70 0 69 0;
#X connect 71 0 3 1;
#X connect 72 0 3 1;
#X connect 73 0 24 0;
#X connect 73 1 25 0;
#X connect 73 2 26 0;
#X connect 73 3 27 0;
#X connect 73 4 29 0;
#X connect 73 5 30 0;
#X connect 73 6 66 0;
#X connect 73 7 71 0;
#X connect 73 8 72 0;
#X connect 80 0 81 0;
#X connect 81 0 82 0;
#X connect 81 0 83 0;
#X connect 82 0 80 0;
#X connect 84 0 87 0;
#X connect 88 0 84 0;
#X connect 90 0 68 0;
#X connect 90 1 70 0;
#X connect 94 0 96 0;
#X connect 94 1 95 0;
#X connect 95 0 98 1;
#X connect 96 0 97 0;
#X connect 97 0 98 0;
#X connect 97 1 100 1;
#X connect 98 0 99 0;
#X connect 99 0 100 0;
#X connect 100 0 101 0;
#X connect 101 0 65 0;
#X connect 102 0 103 0;
#X connect 103 0 52 0;
#X coords 0 -1 1 1 300 70 1 180 280;
#X restore 132 117 pd \$0-setting-panes;
#X obj 128 46 loadbang;
#X msg 129 64 1;
#X obj 131 191 cnv 15 698 700 empty empty empty 20 12 0 14 -237242
-66577 0;
#X obj 102 271 tgl 30 0 empty empty empty 17 7 0 10 -262144 -1 -1 1
1;
#X obj 102 192 tgl 30 0 empty empty empty 17 7 0 10 -262144 -1 -1 1
1;
#X obj 102 395 vradio 30 1 0 3 empty empty empty 0 -8 0 10 -262144
-1 -1 1;
#X obj -1 427 loadbang;
#X msg 2 451 1;
#N canvas 0 23 1440 825 \$0-gvo 0;
#X obj 1 1 cnv 15 698 122 empty empty empty 20 12 0 14 -237242 -66577
0;
#X msg 1447 184 0;
#X obj 1320 72 hradio 15 1 0 2 empty empty empty 0 -8 0 10 -262144
-1 -1 1;
#X obj 1533 216 pack f f;
#X obj 1587 156 sel 1 2 3;
#X obj 1446 86 t f f b;
#X obj 1420 130 != 0;
#X text 1253 186 get's messy without this ->;
#X text 1709 74 https://forum.pdpatchrepo.info/topic/9799/gui-tab-like-question/2
;
#X msg 1600 188 0;
#X msg 1641 189 440;
#X msg 1675 192 880;
#X floatatom 1344 156 5 0 0 0 - - -;
#X obj 1310 28 inlet;
#X obj 1533 259 s pd-\$0-gvo;
#X msg 1533 237 donecanvasdialog 1 -1 \$1 0 -1 1 1 700 124 0 \$2;
#X obj 169 9 hsl 512 15 0 3072 0 0 current_pos playback_pos empty -2
-8 0 10 -228856 -1 -1 798 1;
#X obj 171 29 vsl 16 65 0 127 0 0 v1 v1r empty 0 -9 0 10 -128992 -262144
-1 0 0;
#X obj 174 97 hsl 11 8 -0.5 0.49 0 0 ut1 ut1r empty -2 -8 0 4 -128992
-262144 -1 505 0;
#X obj 187 29 vsl 16 65 0 127 0 0 v2 v2r empty 0 -9 0 10 -262144 -33289
-1 0 0;
#X obj 190 97 hsl 11 8 -0.5 0.49 0 0 ut2 ut2r empty -2 -8 0 4 -262144
-1 -1 505 0;
#X obj 203 29 vsl 16 65 0 127 0 0 v3 v3r empty 0 -9 0 10 -262144 -33289
-1 0 0;
#X obj 206 97 hsl 11 8 -0.5 0.49 0 0 ut3 ut3r empty -2 -8 0 4 -262144
-1 -1 505 0;
#X obj 219 29 vsl 16 65 0 127 0 0 v4 v4r empty 0 -9 0 10 -262144 -33289
-1 0 0;
#X obj 222 97 hsl 11 8 -0.5 0.49 0 0 ut4 ut4r empty -2 -8 0 4 -262144
-1 -1 505 0;
#X obj 235 29 vsl 16 65 0 127 0 0 v5 v5r empty 0 -9 0 10 -228856 -33289
-1 0 0;
#X obj 238 97 hsl 11 8 -0.5 0.49 0 0 ut5 ut5r empty -2 -8 0 4 -228856
-33289 -1 505 0;
#X obj 251 29 vsl 16 65 0 127 0 0 v6 v6r empty 0 -9 0 10 -262144 -33289
-1 0 0;
#X obj 254 97 hsl 11 8 -0.5 0.49 0 0 ut6 ut6r empty -2 -8 0 4 -262144
-1 -1 505 0;
#X obj 267 29 vsl 16 65 0 127 0 0 v7 v7r empty 0 -9 0 10 -262144 -33289
-1 0 0;
#X obj 270 97 hsl 11 8 -0.5 0.49 0 0 ut7 ut7r empty -2 -8 0 4 -262144
-1 -1 505 0;
#X obj 283 29 vsl 16 65 0 127 0 0 v8 v8r empty 0 -9 0 10 -262144 -33289
-1 0 0;
#X obj 286 97 hsl 11 8 -0.5 0.49 0 0 ut8 ut8r empty -2 -8 0 4 -262144
-1 -1 505 0;
#X obj 299 29 vsl 16 65 0 127 0 0 v9 v9r empty 0 -9 0 10 -228856 -33289
-1 0 0;
#X obj 302 97 hsl 11 8 -0.5 0.49 0 0 ut9 ut9r empty -2 -8 0 4 -228856
-33289 -1 505 0;
#X obj 315 29 vsl 16 65 0 127 0 0 v10 v10r empty 0 -9 0 10 -262144
-33289 -1 0 0;
#X obj 318 97 hsl 11 8 -0.5 0.49 0 0 ut10 ut10r empty -2 -8 0 4 -262144
-1 -1 505 0;
#X obj 331 29 vsl 16 65 0 127 0 0 v11 v11r empty 0 -9 0 10 -262144
-33289 -1 0 0;
#X obj 334 97 hsl 11 8 -0.5 0.49 0 0 ut11 ut11r empty -2 -8 0 4 -262144
-1 -1 505 0;
#X obj 347 29 vsl 16 65 0 127 0 0 v12 v12r empty 0 -9 0 10 -262144
-33289 -1 0 0;
#X obj 350 97 hsl 11 8 -0.5 0.49 0 0 ut12 ut12r empty -2 -8 0 4 -262144
-1 -1 505 0;
#X obj 363 29 vsl 16 65 0 127 0 0 v13 v13r empty 0 -9 0 10 -228856
-33289 -1 0 0;
#X obj 366 97 hsl 11 8 -0.5 0.49 0 0 ut13 ut13r empty -2 -8 0 4 -228856
-33289 -1 505 0;
#X obj 379 29 vsl 16 65 0 127 0 0 v14 v14r empty 0 -9 0 10 -262144
-33289 -1 0 0;
#X obj 382 97 hsl 11 8 -0.5 0.49 0 0 ut14 ut14r empty -2 -8 0 4 -262144
-1 -1 505 0;
#X obj 395 29 vsl 16 65 0 127 0 0 v15 v15r empty 0 -9 0 10 -262144
-33289 -1 0 0;
#X obj 398 97 hsl 11 8 -0.5 0.49 0 0 ut15 ut15r empty -2 -8 0 4 -262144
-1 -1 505 0;
#X obj 411 29 vsl 16 65 0 127 0 0 v16 v16r empty 0 -9 0 10 -262144
-33289 -1 0 0;
#X obj 414 97 hsl 11 8 -0.5 0.49 0 0 ut16 ut16r empty -2 -8 0 4 -262144
-1 -1 505 0;
#X text 175 105 1;
#X text 237 105 5;
#X text 297 105 9;
#X text 361 105 13;
#X obj 427 29 vsl 16 65 0 127 0 0 v17 v17r empty 0 -9 0 10 -128992
-262144 -1 0 0;
#X obj 430 97 hsl 11 8 -0.5 0.49 0 0 ut17 ut17r empty -2 -8 0 4 -128992
-262144 -1 505 0;
#X obj 443 29 vsl 16 65 0 127 0 0 v18 v18r empty 0 -9 0 10 -262144
-33289 -1 0 0;
#X obj 446 97 hsl 11 8 -0.5 0.49 0 0 ut18 ut18r empty -2 -8 0 4 -262144
-1 -1 505 0;
#X obj 459 29 vsl 16 65 0 127 0 0 v19 v19r empty 0 -9 0 10 -262144
-33289 -1 0 0;
#X obj 462 97 hsl 11 8 -0.5 0.49 0 0 ut19 ut19r empty -2 -8 0 4 -262144
-1 -1 505 0;
#X obj 475 29 vsl 16 65 0 127 0 0 v20 v20r empty 0 -9 0 10 -262144
-33289 -1 0 0;
#X obj 478 97 hsl 11 8 -0.5 0.49 0 0 ut20 ut20r empty -2 -8 0 4 -262144
-1 -1 505 0;
#X obj 491 29 vsl 16 65 0 127 0 0 v21 v21r empty 0 -9 0 10 -228856
-33289 -1 0 0;
#X obj 494 97 hsl 11 8 -0.5 0.49 0 0 ut21 ut21r empty -2 -8 0 4 -228856
-33289 -1 505 0;
#X obj 507 29 vsl 16 65 0 127 0 0 v22 v22r empty 0 -9 0 10 -262144
-33289 -1 0 0;
#X obj 510 97 hsl 11 8 -0.5 0.49 0 0 ut22 ut22r empty -2 -8 0 4 -262144
-1 -1 505 0;
#X obj 523 29 vsl 16 65 0 127 0 0 v23 v23r empty 0 -9 0 10 -262144
-33289 -1 0 0;
#X obj 526 97 hsl 11 8 -0.5 0.49 0 0 ut23 ut23r empty -2 -8 0 4 -262144
-1 -1 505 0;
#X obj 539 29 vsl 16 65 0 127 0 0 v24 v24r empty 0 -9 0 10 -262144
-33289 -1 0 0;
#X obj 542 97 hsl 11 8 -0.5 0.49 0 0 ut24 ut24r empty -2 -8 0 4 -262144
-1 -1 505 0;
#X obj 555 29 vsl 16 65 0 127 0 0 v25 v25r empty 0 -9 0 10 -228856
-33289 -1 0 0;
#X obj 558 97 hsl 11 8 -0.5 0.49 0 0 ut25 ut25r empty -2 -8 0 4 -228856
-33289 -1 505 0;
#X obj 571 29 vsl 16 65 0 127 0 0 v26 v26r empty 0 -9 0 10 -262144
-33289 -1 0 0;
#X obj 574 97 hsl 11 8 -0.5 0.49 0 0 ut26 ut26r empty -2 -8 0 4 -262144
-1 -1 505 0;
#X obj 587 29 vsl 16 65 0 127 0 0 v27 v27r empty 0 -9 0 10 -262144
-33289 -1 0 0;
#X obj 590 97 hsl 11 8 -0.5 0.49 0 0 ut27 ut27r empty -2 -8 0 4 -262144
-1 -1 505 0;
#X obj 603 29 vsl 16 65 0 127 0 0 v28 v28r empty 0 -9 0 10 -262144
-33289 -1 0 0;
#X obj 606 97 hsl 11 8 -0.5 0.49 0 0 ut28 ut28r empty -2 -8 0 4 -262144
-1 -1 505 0;
#X obj 619 29 vsl 16 65 0 127 0 0 v29 v29r empty 0 -9 0 10 -228856
-33289 -1 0 0;
#X obj 622 97 hsl 11 8 -0.5 0.49 0 0 ut29 ut29r empty -2 -8 0 4 -228856
-33289 -1 505 0;
#X obj 635 29 vsl 16 65 0 127 0 0 v30 v30r empty 0 -9 0 10 -262144
-33289 -1 0 0;
#X obj 638 97 hsl 11 8 -0.5 0.49 0 0 ut30 ut30r empty -2 -8 0 4 -262144
-1 -1 505 0;
#X obj 651 29 vsl 16 65 0 127 0 0 v31 v31r empty 0 -9 0 10 -262144
-33289 -1 0 0;
#X obj 654 97 hsl 11 8 -0.5 0.49 0 0 ut31 ut31r empty -2 -8 0 4 -262144
-1 -1 505 0;
#X obj 667 29 vsl 16 65 0 127 0 0 v32 v32r empty 0 -9 0 10 -262144
-33289 -1 0 0;
#X obj 670 97 hsl 11 8 -0.5 0.49 0 0 ut32 ut32r empty -2 -8 0 4 -262144
-1 -1 505 0;
#X text 424 105 17;
#X text 491 104 21;
#X text 553 104 25;
#X text 621 103 29;
#X obj 93 28 vsl 16 65 0.1 3 0 0 empty groove_vel_scale_init empty
0 -9 0 10 -262144 -1 -1 1986 0;
#X floatatom 93 97 5 0 0 0 - - groove_vel_scale;
#X text 134 30 Vel;
#X text 127 69 uTime;
#X text 65 46 +/-;
#X floatatom 48 174 5 0 0 0 - - -;
#X obj 46 149 ctlin 1, f 41;
#X floatatom 47 213 5 0 0 0 - - -;
#X obj 48 193 expr ($f1/127+.1)*2;
#X connect 1 0 3 0;
#X connect 2 0 5 0;
#X connect 3 0 15 0;
#X connect 4 0 9 0;
#X connect 4 1 10 0;
#X connect 4 2 11 0;
#X connect 5 0 6 0;
#X connect 5 1 4 0;
#X connect 5 2 1 0;
#X connect 6 0 3 0;
#X connect 6 0 12 0;
#X connect 9 0 3 1;
#X connect 10 0 3 1;
#X connect 11 0 3 1;
#X connect 13 0 2 0;
#X connect 15 0 14 0;
#X connect 89 0 90 0;
#X connect 94 0 97 0;
#X connect 95 0 94 0;
#X connect 96 0 89 0;
#X connect 97 0 96 0;
#X coords 0 -1 1 1 700 124 1 0 0;
#X restore 132 271 pd \$0-gvo;
#N canvas 0 191 1440 657 \$0-visualizer 0;
#X msg 1381 184 0;
#X obj 1254 72 hradio 15 1 0 3 empty empty empty 0 -8 0 10 -262144
-1 -1 1;
#X obj 1467 216 pack f f;
#X obj 1521 156 sel 1 2 3;
#X obj 1380 86 t f f b;
#X obj 1354 130 != 0;
#X text 1187 186 get's messy without this ->;
#X text 1643 74 https://forum.pdpatchrepo.info/topic/9799/gui-tab-like-question/2
;
#X msg 1534 188 0;
#X msg 1575 189 440;
#X msg 1609 192 880;
#X floatatom 1278 156 5 0 0 0 - - -;
#X obj 1244 28 inlet;
#X obj 1349 328 s pd-\$0-visualizer;
#X msg 1461 241 donecanvasdialog 1 -1 \$1 0 -1 1 1 700 80 0 \$2;
#X obj 1 1 cnv 15 698 78 empty empty empty 20 12 0 14 -237242 -66577
0;
#N canvas 0 22 450 278 (subpatch) 0;
#X array groove 3072 float 2;
#X coords 0 127 3072 0 512 35 1;
#X restore 171 40 graph;
#X obj 1 441 cnv 15 698 78 empty empty empty 20 12 0 14 -237242 -66577
0;
#X connect 0 0 2 0;
#X connect 1 0 4 0;
#X connect 2 0 14 0;
#X connect 3 0 8 0;
#X connect 3 1 9 0;
#X connect 3 2 10 0;
#X connect 4 0 5 0;
#X connect 4 1 3 0;
#X connect 4 2 0 0;
#X connect 5 0 2 0;
#X connect 5 0 11 0;
#X connect 8 0 2 1;
#X connect 9 0 2 1;
#X connect 10 0 2 1;
#X connect 12 0 1 0;
#X connect 14 0 13 0;
#X coords 0 -1 1 1 700 80 1 0 0;
#X restore 132 191 pd \$0-visualizer;
#N canvas 720 23 720 825 \$0-params 0;
#X obj 1 502 cnv 15 698 490 empty empty empty 20 12 0 14 -237242 -66577
0;
#X obj 1 1 cnv 15 698 490 empty empty empty 20 12 0 14 -237242 -66577
0;
#X obj 1320 75 inlet;
#X msg 1363 189 0;
#X obj 1200 91 hradio 15 1 0 4 empty empty empty 0 -8 0 10 -262144
-1 -1 3;
#X obj 1357 217 pack f f;
#X obj 1411 157 sel 1 2 3;
#X obj 1326 105 t f f b;
#X obj 1336 135 != 0;
#X text 1169 191 get's messy without this ->;
#X text 1589 93 https://forum.pdpatchrepo.info/topic/9799/gui-tab-like-question/2
;
#X msg 1424 189 0;
#X obj 3 19 res/see_generated_pattern;
#N canvas 0 82 1440 766 midi_cc_map_for_per_voice_generation_parameters
0;
#X obj 908 179 sel 0 1 2, f 54;
#X text 940 431 top 9 push encoders control each voice's generation
params depending on which which their on (change page using right left
buttons);
#X obj 908 150 hradio 15 1 0 3 empty empty empty 0 -8 0 10 -262144
-1 -1 1;
#X obj 77 111 res/pushbutton_cc2toggle, f 26;
#X obj 135 191 mod 3;
#X floatatom 135 214 5 0 0 0 - - -;
#X obj 77 92 ctlin 44, f 14;
#X obj 277 109 res/pushbutton_cc2toggle, f 26;
#X msg 75 138 -1;
#X obj 123 171 +;
#X obj 169 168 i;
#X obj 277 90 ctlin 45, f 14;
#X msg 229 151 1;
#X obj 134 237 s cc_page_for_generations_in;
#X obj 788 84 change;
#X obj 792 114 s cc_page_for_generations_in;
#X obj 785 51 r cc_page_for_generations;
#X text 81 74 page left cc toggle;
#X text 280 69 page right cc toggle;
#X text 767 24 ensures synchronization of multiple instances;
#X text 77 40 Step 1;
#X text 651 53 Step 2;
#X text 144 585 Step 4;
#X text 144 552 Step 3;
#X obj 206 585 res/max_count_cc_adjustments;
#X obj 206 551 res/likelihood_cc_adjustments;
#X obj 1018 39 loadbang;
#X msg 1018 66 1;
#X obj 207 613 res/vel_scale_cc_adjustments;
#X text 145 613 Step 5;
#X msg 909 202 \; thres_page_enabled 1 \; max_count_page_enabled 0
\; vel_scale_page_enabled 0 \;;
#X msg 1033 270 \; thres_page_enabled 0 \; max_count_page_enabled 1
\; vel_scale_page_enabled 0 \;;
#X msg 1169 352 \; thres_page_enabled 0 \; max_count_page_enabled 0
\; vel_scale_page_enabled 1 \;;
#X connect 0 0 30 0;
#X connect 0 1 31 0;
#X connect 0 2 32 0;
#X connect 2 0 0 0;
#X connect 3 0 8 0;
#X connect 4 0 5 0;
#X connect 5 0 13 0;
#X connect 6 0 3 0;
#X connect 7 0 12 0;
#X connect 8 0 9 0;
#X connect 9 0 10 0;
#X connect 9 0 4 0;
#X connect 10 0 9 1;
#X connect 11 0 7 0;
#X connect 12 0 9 0;
#X connect 14 0 15 0;
#X connect 14 0 2 0;
#X connect 16 0 14 0;
#X connect 26 0 27 0;
#X connect 27 0 15 0;
#X restore 1108 473 pd midi_cc_map_for_per_voice_generation_parameters
;
#X msg 1465 190 501;
#X obj 1359 271 s pd-\$0-params;
#X obj 171 552 cnv 15 512 36 empty empty KICK 0 8 0 12 -229182 -33289
0;
#X obj 170 598 cnv 15 512 36 empty empty SNARE 0 8 0 12 -225077 -33289
0;
#X obj 170 643 cnv 15 512 36 empty empty HH_CLOSED 0 8 0 12 -262013
-33289 0;
#X obj 170 691 cnv 15 512 36 empty empty HH_OPEN 0 8 0 12 -257398 -33289
0;
#X obj 170 739 cnv 15 512 36 empty empty TOM_3_LO 0 8 0 12 -262136
-33289 0;
#X obj 170 786 cnv 15 512 36 empty empty TOM_2_MID 0 8 0 12 -261996
-33289 0;
#X obj 170 829 cnv 15 512 36 empty empty TOM_1_HI 0 8 0 12 -261600
-33289 0;
#X obj 170 876 cnv 15 512 36 empty empty CRASH 0 8 0 12 -55982 -33289
0;
#X obj 170 921 cnv 15 512 36 empty empty RIDE 0 8 0 12 -26605 -33289
0;
#X text 266 534 Likelihood;
#X text 381 533 Max Count;
#X text 494 533 Vol;
#X obj 20 598 cnv 15 140 36 empty empty empty 0 8 0 12 -225077 -33289
0;
#X obj 20 643 cnv 15 140 36 empty empty empty 0 8 0 12 -262013 -33289
0;
#X obj 20 691 cnv 15 140 36 empty empty empty 0 8 0 12 -257398 -33289
0;
#X obj 20 739 cnv 15 140 36 empty empty empty 0 8 0 12 -262136 -33289
0;
#X obj 20 786 cnv 15 140 36 empty empty empty 0 8 0 12 -261996 -33289
0;
#X obj 20 829 cnv 15 140 36 empty empty empty 0 8 0 12 -261600 -33289
0;
#X obj 20 876 cnv 15 140 36 empty empty empty 0 8 0 12 -55982 -33289
0;
#X obj 20 921 cnv 15 140 36 empty empty empty 0 8 0 12 -26605 -33289
0;
#X obj 21 553 cnv 15 140 36 empty empty empty 0 8 0 12 -229182 -33289
0;
#X text 555 11 GENERATED PATTERNS;
#X text 533 513 GENERATION PARAMETERS;
#X msg 1359 245 donecanvasdialog 1 -1 \$1 0 -1 1 1 700 492 0 \$2;
#X msg 1499 193 1002;
#X obj 1 1003 cnv 15 698 490 empty empty empty 20 12 0 14 -237242 -66577
0;
#X obj 171 1053 cnv 15 512 36 empty empty KICK 0 8 0 12 -229182 -33289
0;
#X obj 170 1099 cnv 15 512 36 empty empty SNARE 0 8 0 12 -225077 -33289
0;
#X obj 170 1144 cnv 15 512 36 empty empty HH_CLOSED 0 8 0 12 -262013
-33289 0;
#X obj 170 1192 cnv 15 512 36 empty empty HH_OPEN 0 8 0 12 -257398
-33289 0;
#X obj 170 1240 cnv 15 512 36 empty empty TOM_3_LO 0 8 0 12 -262136
-33289 0;
#X obj 170 1287 cnv 15 512 36 empty empty TOM_2_MID 0 8 0 12 -261996
-33289 0;
#X obj 170 1330 cnv 15 512 36 empty empty TOM_1_HI 0 8 0 12 -261600
-33289 0;
#X obj 170 1377 cnv 15 512 36 empty empty CRASH 0 8 0 12 -55982 -33289
0;
#X obj 170 1422 cnv 15 512 36 empty empty RIDE 0 8 0 12 -26605 -33289
0;
#X obj 258 1062 hsl 48 17 0 1 0 0 empty thres_0_in empty -2 -8 0 10
-262144 -1 -1 1880 0;
#X text 266 1035 Likelihood;
#X floatatom 308 1062 5 0 1 0 - - thres0;
#X obj 358 1062 hsl 48 17 0 32 0 0 empty max_count_0_in empty -2 -8
0 10 -262144 -1 -1 881 0;
#X floatatom 408 1062 5 0 32 0 - - max_count_0;
#X text 381 1034 Max Count;
#X obj 459 1062 hsl 48 17 0 3 0 0 empty vel_scale_0_in empty -2 -8
0 10 -262144 -1 -1 1567 0;
#X text 494 1034 Vol;
#X floatatom 509 1062 5 0 0 0 - - vel_scale_0;
#X obj 258 1108 hsl 48 17 0 1 0 0 empty thres_1_in empty -2 -8 0 10
-262144 -1 -1 2350 0;
#X floatatom 308 1108 5 0 1 0 - - thres1;
#X obj 358 1108 hsl 48 17 0 32 0 0 empty max_count_1_in empty -2 -8
0 10 -262144 -1 -1 294 0;
#X floatatom 408 1108 5 0 32 0 - - max_count_1;
#X obj 459 1108 hsl 48 17 0 3 0 0 empty vel_scale_1_in empty -2 -8
0 10 -262144 -1 -1 1567 0;
#X floatatom 509 1108 5 0 0 0 - - vel_scale_1;
#X obj 258 1153 hsl 48 17 0 1 0 0 empty thres_2_in empty -2 -8 0 10
-262144 -1 -1 2820 0;
#X floatatom 308 1153 5 0 1 0 - - thres2;
#X obj 358 1153 hsl 48 17 0 32 0 0 empty max_count_2_in empty -2 -8
0 10 -262144 -1 -1 4700 0;
#X floatatom 408 1153 5 0 32 0 - - max_count_2;
#X obj 459 1153 hsl 48 17 0 3 0 0 empty vel_scale_2_in empty -2 -8
0 10 -262144 -1 -1 1567 0;
#X floatatom 509 1153 5 0 0 0 - - vel_scale_2;
#X obj 260 1200 hsl 48 17 0 1 0 0 empty thres_3_in empty -2 -8 0 10
-262144 -1 -1 3290 0;
#X floatatom 310 1200 5 0 1 0 - - thres3;
#X obj 360 1200 hsl 48 17 0 32 0 0 empty max_count_3_in empty -2 -8
0 10 -262144 -1 -1 4700 0;
#X floatatom 410 1200 5 0 32 0 - - max_count_3;
#X obj 461 1200 hsl 48 17 0 3 0 0 empty vel_scale_3_in empty -2 -8
0 10 -262144 -1 -1 1567 0;
#X floatatom 511 1200 5 0 0 0 - - vel_scale_3;
#X obj 259 1250 hsl 48 17 0 1 0 0 empty thres_4_in empty -2 -8 0 10
-262144 -1 -1 4465 0;
#X floatatom 309 1250 5 0 1 0 - - thres4;
#X obj 359 1250 hsl 48 17 0 32 0 0 empty max_count_4_in empty -2 -8
0 10 -262144 -1 -1 0 0;
#X floatatom 409 1250 5 0 32 0 - - max_count_4;
#X obj 460 1250 hsl 48 17 0 3 0 0 empty vel_scale_4_in empty -2 -8
0 10 -262144 -1 -1 1567 0;
#X floatatom 510 1250 5 0 0 0 - - vel_scale_4;
#X obj 259 1296 hsl 48 17 0 1 0 0 empty thres_5_in empty -2 -8 0 10
-262144 -1 -1 4465 0;
#X floatatom 309 1296 5 0 1 0 - - thres5;
#X obj 359 1296 hsl 48 17 0 32 0 0 empty max_count_5_in empty -2 -8
0 10 -262144 -1 -1 0 0;
#X floatatom 409 1296 5 0 32 0 - - max_count_5;
#X obj 460 1296 hsl 48 17 0 3 0 0 empty vel_scale_5_in empty -2 -8
0 10 -262144 -1 -1 1567 0;
#X floatatom 510 1296 5 0 0 0 - - vel_scale_5;
#X obj 259 1341 hsl 48 17 0 1 0 0 empty thres_6_in empty -2 -8 0 10
-262144 -1 -1 4465 0;
#X floatatom 309 1341 5 0 1 0 - - thres6;
#X obj 359 1341 hsl 48 17 0 32 0 0 empty max_count_6_in empty -2 -8
0 10 -262144 -1 -1 0 0;
#X floatatom 409 1341 5 0 32 0 - - max_count_6;
#X obj 460 1341 hsl 48 17 0 3 0 0 empty vel_scale_6_in empty -2 -8
0 10 -262144 -1 -1 1567 0;
#X floatatom 510 1341 5 0 0 0 - - vel_scale_6;
#X obj 261 1388 hsl 48 17 0 1 0 0 empty thres_7_in empty -2 -8 0 10
-262144 -1 -1 4465 0;
#X floatatom 311 1388 5 0 1 0 - - thres7;
#X obj 361 1388 hsl 48 17 0 32 0 0 empty max_count_7_in empty -2 -8
0 10 -262144 -1 -1 0 0;
#X floatatom 411 1388 5 0 32 0 - - max_count_7;
#X obj 462 1388 hsl 48 17 0 3 0 0 empty vel_scale_7_in empty -2 -8
0 10 -262144 -1 -1 1567 0;
#X floatatom 512 1388 5 0 0 0 - - vel_scale_7;
#X obj 262 1432 hsl 48 17 0 1 0 0 empty thres_8_in empty -2 -8 0 10
-262144 -1 -1 3290 0;
#X floatatom 312 1432 5 0 1 0 - - thres8;
#X obj 362 1432 hsl 48 17 0 32 0 0 empty max_count_8_in empty -2 -8
0 10 -262144 -1 -1 0 0;
#X floatatom 412 1432 5 0 32 0 - - max_count_8;
#X obj 463 1432 hsl 48 17 0 3 0 0 empty vel_scale_8_in empty -2 -8
0 10 -262144 -1 -1 1567 0;
#X floatatom 513 1432 5 0 0 0 - - vel_scale_8;
#X obj 20 1099 cnv 15 140 36 empty empty empty 0 8 0 12 -225077 -33289
0;
#X obj 20 1144 cnv 15 140 36 empty empty empty 0 8 0 12 -262013 -33289
0;
#X obj 20 1192 cnv 15 140 36 empty empty empty 0 8 0 12 -257398 -33289
0;
#X obj 20 1240 cnv 15 140 36 empty empty empty 0 8 0 12 -262136 -33289
0;
#X obj 20 1287 cnv 15 140 36 empty empty empty 0 8 0 12 -261996 -33289
0;
#X obj 20 1330 cnv 15 140 36 empty empty empty 0 8 0 12 -261600 -33289
0;
#X obj 20 1377 cnv 15 140 36 empty empty empty 0 8 0 12 -55982 -33289
0;
#X obj 20 1422 cnv 15 140 36 empty empty empty 0 8 0 12 -26605 -33289
0;
#X floatatom 73 1117 5 0 32 0 - max_count_1 -;
#X floatatom 73 1162 5 0 32 0 - max_count_2 -;
#X floatatom 73 1210 5 0 32 0 - max_count_3 -;
#X floatatom 73 1257 5 0 32 0 - max_count_4 -;
#X floatatom 73 1305 5 0 32 0 - max_count_5 -;
#X floatatom 73 1348 5 0 32 0 - max_count_6 -;
#X floatatom 73 1395 5 0 32 0 - max_count_7 -;
#X floatatom 73 1440 5 0 32 0 - max_count_8 -;
#X floatatom 33 1117 5 0 1 0 - thres1 -;
#X floatatom 33 1162 5 0 1 0 - thres2 -;
#X floatatom 33 1210 5 0 1 0 - thres3 -;
#X floatatom 33 1257 5 0 1 0 - thres4 -;
#X floatatom 33 1305 5 0 1 0 - thres5 -;
#X floatatom 33 1348 5 0 1 0 - thres6 -;
#X floatatom 33 1395 5 0 1 0 - thres7 -;
#X floatatom 33 1440 5 0 1 0 - thres8 -;
#X floatatom 115 1117 5 0 3 0 - vel_scale_1 -;
#X floatatom 115 1162 5 0 3 0 - vel_scale_2 -;
#X floatatom 115 1210 5 0 3 0 - vel_scale_3 -;
#X floatatom 115 1257 5 0 3 0 - vel_scale_4 -;
#X floatatom 115 1305 5 0 3 0 - vel_scale_5 -;
#X floatatom 115 1348 5 0 3 0 - vel_scale_6 -;
#X floatatom 115 1395 5 0 3 0 - vel_scale_7 -;
#X floatatom 115 1440 5 0 3 0 - vel_scale_8 -;
#X obj -370 1133 change;
#X obj -369 1180 change;
#X obj -369 1228 change;
#X obj -370 1152 s thres_1_in;
#X obj -369 1199 s thres_2_in;
#X obj -369 1247 s thres_3_in;
#X obj -368 1274 change;
#X obj -368 1293 s thres_4_in;
#X obj -368 1321 change;
#X obj -368 1365 change;
#X obj -367 1413 change;
#X obj -367 1457 change;
#X obj -368 1340 s thres_5_in;
#X obj -368 1384 s thres_6_in;
#X obj -367 1432 s thres_7_in;
#X obj -367 1476 s thres_8_in;
#X obj -276 1134 change;
#X obj -275 1181 change;
#X obj -275 1229 change;
#X obj -274 1275 change;
#X obj -274 1322 change;
#X obj -274 1366 change;
#X obj -273 1414 change;
#X obj -273 1458 change;
#X obj -276 1153 s max_count_1_in;
#X obj -275 1200 s max_count_2_in;
#X obj -275 1247 s max_count_3_in;
#X obj -274 1294 s max_count_4_in;
#X obj -274 1341 s max_count_5_in;
#X obj -274 1385 s max_count_6_in;
#X obj -273 1433 s max_count_7_in;
#X obj -273 1477 s max_count_8_in;
#X obj -151 1134 change;
#X obj -150 1181 change;
#X obj -150 1229 change;
#X obj -149 1275 change;
#X obj -149 1322 change;
#X obj -149 1366 change;
#X obj -148 1414 change;
#X obj -148 1458 change;
#X obj -151 1152 s vel_scale_1_in;
#X obj -150 1200 s vel_scale_2_in;
#X obj -150 1247 s vel_scale_3_in;
#X obj -149 1294 s vel_scale_4_in;
#X obj -149 1341 s vel_scale_5_in;
#X obj -149 1385 s vel_scale_6_in;
#X obj -148 1433 s vel_scale_7_in;
#X obj -148 1477 s vel_scale_8_in;
#X obj 21 1054 cnv 15 140 36 empty empty empty 0 8 0 12 -229182 -33289
0;
#X floatatom 73 1070 5 0 32 0 - max_count_0 -;
#X floatatom 33 1070 5 0 1 0 - thres0 -;
#X floatatom 115 1070 5 0 3 0 - vel_scale_0 -;
#X obj -370 1086 change;
#X obj -370 1105 s thres_0_in;
#X obj -276 1087 change;
#X obj -276 1106 s max_count_0_in;
#X obj -151 1087 change;
#X obj -151 1106 s vel_scale_0_in;
#X obj 61 1039 hradio 20 1 0 3 cc_page_for_generations cc_page_for_generations_in
empty 0 -8 0 14 -262144 -1 -1 1;
#X obj 41 1023 cnv 15 30 13 empty empty likelihood 0 6 0 5 -233017
-1 0;
#X obj 77 1023 cnv 15 26 13 empty empty Max_Count 0 6 0 5 -233017 -1
0;
#X obj 108 1022 cnv 15 24 13 empty empty Volume 0 6 0 6 -233017 -1
0;
#X text 533 1014 GENERATION PARAMETERS;
#X connect 2 0 7 0;
#X connect 3 0 5 0;
#X connect 4 0 7 0;
#X connect 5 0 39 0;
#X connect 6 0 11 0;
#X connect 6 1 14 0;
#X connect 6 2 40 0;
#X connect 7 0 8 0;
#X connect 7 1 6 0;
#X connect 7 2 3 0;
#X connect 8 0 5 0;
#X connect 11 0 5 1;
#X connect 14 0 5 1;
#X connect 39 0 15 0;
#X connect 40 0 5 1;
#X connect 51 0 53 0;
#X connect 54 0 55 0;
#X connect 57 0 59 0;
#X connect 60 0 61 0;
#X connect 62 0 63 0;
#X connect 64 0 65 0;
#X connect 66 0 67 0;
#X connect 68 0 69 0;
#X connect 70 0 71 0;
#X connect 72 0 73 0;
#X connect 74 0 75 0;
#X connect 76 0 77 0;
#X connect 78 0 79 0;
#X connect 80 0 81 0;
#X connect 82 0 83 0;
#X connect 84 0 85 0;
#X connect 86 0 87 0;
#X connect 88 0 89 0;
#X connect 90 0 91 0;
#X connect 92 0 93 0;
#X connect 94 0 95 0;
#X connect 96 0 97 0;
#X connect 98 0 99 0;
#X connect 100 0 101 0;
#X connect 102 0 103 0;
#X connect 104 0 105 0;
#X connect 106 0 107 0;
#X connect 116 0 156 0;
#X connect 117 0 157 0;
#X connect 118 0 158 0;
#X connect 119 0 159 0;
#X connect 120 0 160 0;
#X connect 121 0 161 0;
#X connect 122 0 162 0;
#X connect 123 0 163 0;
#X connect 124 0 140 0;
#X connect 125 0 141 0;
#X connect 126 0 142 0;
#X connect 127 0 146 0;
#X connect 128 0 148 0;
#X connect 129 0 149 0;
#X connect 130 0 150 0;
#X connect 131 0 151 0;
#X connect 132 0 172 0;
#X connect 133 0 173 0;
#X connect 134 0 174 0;
#X connect 135 0 175 0;
#X connect 136 0 176 0;
#X connect 137 0 177 0;
#X connect 138 0 178 0;
#X connect 139 0 179 0;
#X connect 140 0 143 0;
#X connect 141 0 144 0;
#X connect 142 0 145 0;
#X connect 146 0 147 0;
#X connect 148 0 152 0;
#X connect 149 0 153 0;
#X connect 150 0 154 0;
#X connect 151 0 155 0;
#X connect 156 0 164 0;
#X connect 157 0 165 0;
#X connect 158 0 166 0;
#X connect 159 0 167 0;
#X connect 160 0 168 0;
#X connect 161 0 169 0;
#X connect 162 0 170 0;
#X connect 163 0 171 0;
#X connect 172 0 180 0;
#X connect 173 0 181 0;
#X connect 174 0 182 0;
#X connect 175 0 183 0;
#X connect 176 0 184 0;
#X connect 177 0 185 0;
#X connect 178 0 186 0;
#X connect 179 0 187 0;
#X connect 189 0 194 0;
#X connect 190 0 192 0;
#X connect 191 0 196 0;
#X connect 192 0 193 0;
#X connect 194 0 195 0;
#X connect 196 0 197 0;
#X coords 0 -1 1 1 700 492 1 0 0;
#X restore 132 395 pd \$0-params;
#X obj 432 102 hradio 15 1 0 6 empty empty empty 0 -8 0 10 -262144
-1 -1 1;
#X obj 428 46 loadbang;
#X msg 429 64 1;
#N canvas 656 23 784 825 \$0-saveloadsession 0;
#X obj 181 781 cnv 15 398 68 empty empty empty 20 12 0 14 -237242 -66577
0;
#X obj 964 403 inlet;
#X msg 971 516 0;
#X obj 844 421 hradio 15 1 0 7 empty empty empty 0 -8 0 10 -262144
-1 -1 1;
#X obj 1040 606 pack f f;
#X obj 964 447 t f f b;
#X obj 944 479 != 0;
#X text 811 552 get's messy without this ->;
#X text 1028 350 https://forum.pdpatchrepo.info/topic/9799/gui-tab-like-question/2
;
#X msg 1111 560 80;
#X obj 1111 516 sel 1 2 3 4 5 6;
#X obj 994 696 s pd-\$0-saveloadsession;
#X obj 181 81 cnv 15 398 68 empty empty empty 20 12 0 14 -237242 -66577
0;
#X floatatom 228 96 8 0 0 2 nSnapshots nSnapshots_r nSnapshots_s;
#X floatatom 237 117 6 0 0 3 Current - -;
#X obj 310 116 bng 20 250 50 0 empty next_snapshot_r > 5 9 0 18 -4034
-1 -159808;
#X obj 189 117 bng 20 250 50 0 empty previous_snapshot_r < 5 9 0 18
-261234 -1 -159808;
#X obj 368 105 bng 30 250 50 0 empty take_snapshot_r SNAPSHOT -5 -7
0 8 -204800 -1 -1;
#X floatatom 225 253 5 0 0 0 - - -;
#X floatatom 290 211 5 0 0 0 - - -;
#X obj 392 189 r reset;
#X msg 342 189 0;
#X obj 225 273 s nSnapshots_r;
#N canvas 0 23 976 557 snapshot_counter 0;
#X obj 174 183 f;
#X obj 212 183 + 1;
#X obj 174 136 bng 15 250 50 0 empty empty empty 17 7 0 10 -262144
-1 -1;
#X floatatom 176 252 5 0 0 0 - - -;
#X floatatom 177 339 5 0 0 0 - - -;
#X obj 161 54 inlet;
#X text 210 59 increase count;
#X obj 177 375 outlet;
#X obj 399 53 inlet;
#X floatatom 399 77 5 0 0 0 - - -;
#X text 453 55 start at shift;
#X obj 627 59 inlet;
#X obj 627 87 bng 15 250 50 0 empty empty empty 17 7 0 10 -262144 -1
-1;
#X text 680 57 reset;
#X msg 365 221 0;
#X obj 177 288 + 1;
#X msg 214 297 \$1;
#X connect 0 0 3 0;
#X connect 1 0 0 1;
#X connect 2 0 0 0;
#X connect 3 0 1 0;
#X connect 3 0 15 0;
#X connect 4 0 7 0;
#X connect 5 0 2 0;
#X connect 8 0 9 0;
#X connect 9 0 15 1;
#X connect 9 0 16 0;
#X connect 11 0 12 0;
#X connect 12 0 14 0;
#X connect 14 0 4 0;
#X connect 14 0 3 0;
#X connect 15 0 4 0;
#X connect 16 0 4 0;
#X restore 225 232 pd snapshot_counter;
#N canvas 0 23 1245 819 move_to_snapshot 0;
#X obj 285 26 inlet;
#X obj 385 28 inlet;
#X obj 478 36 inlet;
#X text 374 -1 move right;
#X text 281 0 move left;
#X text 486 3 nSnapshots;
#X msg 287 64 -1;
#X msg 387 62 1;
#X floatatom 344 299 5 0 0 0 - - -;
#X floatatom 539 82 5 0 0 0 - - -;
#X obj 334 496 outlet;
#X text 381 463 current snapshot pos;
#X obj 244 188 f;
#X obj 827 33 inlet, f 6;
#X floatatom 827 81 5 0 0 0 - - -;
#X text 795 4 force position to;
#X obj 290 155 t f b;
#X floatatom 396 244 5 0 0 0 - - -;
#X obj 343 347 mod;
#X obj 347 391 + 1;
#X obj 322 216 expr if ($f3==0 \, 1 \, if($f1<0 \, $f2-1 \, $f2+1))
;
#X floatatom 355 431 5 0 0 0 - - -;
#X obj 357 122 spigot;
#X obj 417 100 tgl 15 0 empty empty empty 17 7 0 10 -262144 -1 -1 0
1;
#X obj 456 94 != 0;
#X obj 463 294 - 1;
#X obj 624 300 - 1;
#X connect 0 0 6 0;
#X connect 1 0 7 0;
#X connect 2 0 9 0;
#X connect 6 0 22 0;
#X connect 7 0 22 0;
#X connect 8 0 12 1;
#X connect 8 0 18 0;
#X connect 9 0 18 1;
#X connect 9 0 20 2;
#X connect 9 0 24 0;
#X connect 9 0 25 0;
#X connect 12 0 20 1;
#X connect 13 0 14 0;
#X connect 14 0 26 0;
#X connect 16 0 20 0;
#X connect 16 1 12 0;
#X connect 17 0 8 0;
#X connect 18 0 19 0;
#X connect 19 0 21 0;
#X connect 20 0 17 0;
#X connect 21 0 10 0;
#X connect 22 0 16 0;
#X connect 23 0 22 1;
#X connect 24 0 23 0;
#X connect 25 0 8 0;
#X connect 26 0 8 0;
#X restore 49 234 pd move_to_snapshot;
#X floatatom 64 271 5 0 0 0 - - -;
#X obj 53 300 s currentSnapshots;
#X obj 126 195 change;
#X obj 299 160 r snapshot_init_from_load_session;
#X obj 218 804 bng 30 250 50 0 empty empty SAVE_TEMPLATE -18 -7 0 10
-262144 -1 -1;
#X obj 318 804 bng 30 250 50 0 empty empty LOAD_TEMPLATE -18 -7 0 10
-262144 -1 -1;
#X obj 229 869 res/save_preset;
#X msg 994 652 donecanvasdialog 1 -1 \$1 0 -1 1 1 400 70 180 \$2;
#X obj 447 104 bng 30 250 50 0 empty empty SAVE_SESSION -18 -7 0 10
-262144 -1 -1;
#X obj 536 104 bng 30 250 50 0 empty empty LOAD 2 -7 0 10 -262144 -1
-1;
#X obj 602 187 r reset;
#X obj 476 231 res/save_session;
#X obj 619 232 r currentSnapshots;
#X obj 552 161 r nSnapshots_r;
#X obj 456 201 bng 15 250 50 0 empty empty empty 17 7 0 10 -262144
-1 -1;
#X msg 1165 553 480;
#X obj 181 481 cnv 15 398 68 empty empty empty 20 12 0 14 -262144 -66577
0;
#X text 206 522 You can move back to a snapshot taken previously;
#X msg 1237 553 780;
#X msg 1199 553 600;
#X obj 181 601 cnv 15 398 68 empty empty empty 20 12 0 14 -262144 -66577
0;
#X text 181 615 If you like a pattern \, take a snapshot of it;
#X text 181 598 Save the entirety of the session \, and reload it later
on;
#X text 205 505 Snapshots save the current state of the program;
#X text 204 488 This functionality requires the cyclone/coll external
;
#X text 180 633 You can navigate back to any of the snapshots during
the performance;
#X msg 1283 553 900;
#X obj 181 901 cnv 15 398 68 empty empty empty 20 12 0 14 -262144 -66577
0;
#X text 181 923 You can save the parameters of the program as a template
;
#X obj 189 138 cnv 2 19 8 empty empty < 7 4 0 9 -260097 -262144 0;
#X obj 351 138 cnv 2 66 8 empty empty Shift+Enter 4 4 0 9 -260097 -262144
0;
#X obj 310 138 cnv 2 19 8 empty empty > 7 4 0 9 -260097 -262144 0;
#X connect 1 0 3 0;
#X connect 2 0 4 0;
#X connect 3 0 5 0;
#X connect 4 0 32 0;
#X connect 5 0 6 0;
#X connect 5 1 10 0;
#X connect 5 2 2 0;
#X connect 6 0 4 0;
#X connect 9 0 4 1;
#X connect 10 0 9 0;
#X connect 10 1 40 0;
#X connect 10 2 44 0;
#X connect 10 3 43 0;
#X connect 10 4 51 0;
#X connect 14 0 27 0;
#X connect 15 0 24 1;
#X connect 16 0 24 0;
#X connect 17 0 23 0;
#X connect 18 0 22 0;
#X connect 18 0 24 2;
#X connect 19 0 23 1;
#X connect 20 0 21 0;
#X connect 20 0 23 2;
#X connect 21 0 19 0;
#X connect 23 0 18 0;
#X connect 24 0 25 0;
#X connect 25 0 14 0;
#X connect 25 0 26 0;
#X connect 27 0 24 3;
#X connect 28 0 19 0;
#X connect 29 0 31 0;
#X connect 30 0 31 1;
#X connect 32 0 11 0;
#X connect 33 0 36 1;
#X connect 34 0 39 0;
#X connect 35 0 36 3;
#X connect 37 0 36 4;
#X connect 38 0 36 2;
#X connect 39 0 36 0;
#X connect 40 0 4 1;
#X connect 43 0 4 1;
#X connect 44 0 4 1;
#X connect 51 0 4 1;
#X coords 0 -1 1 1 400 70 1 180 80;
#X restore 432 117 pd \$0-saveloadsession;
#X obj 860 48 bng 15 250 50 0 empty empty empty 17 7 0 10 -262144 -1
-1;
#X obj 860 67 s reset;
#X obj 1014 144 res/main;
#X obj 852 139 bng 30 250 50 0 reset empty RESET_PROGRAM -17 -10 0
8 -258113 -1 -1;
#X obj 851 325 bng 30 250 50 0 empty clear_groove_r Clear_Groove -17
-10 0 8 -261234 -1 -1;
#X msg 925 477 \; v1r 0 \; v2r 0 \; v3r 0 \; v4r 0 \; v5r 0 \; v6r
0 \; v7r 0 \; v8r 0 \; v9r 0 \; v10r 0 \; v11r 0 \; v12r 0 \; v13r
0 \; v14r 0 \; v15r 0 \; v16r 0 \; v17r 0 \; v18r 0 \; v19r 0 \; v20r
0 \; v21r 0 \; v22r 0 \; v23r 0 \; v24r 0 \; v25r 0 \; v26r 0 \; v27r
0 \; v28r 0 \; v29r 0 \; v30r 0 \; v31r 0 \; v32r 0 \;;
#X msg 1006 477 \; ut1r 0 \; ut2r 0 \; ut3r 0 \; ut4r 0 \; ut5r 0 \;
ut6r 0 \; ut7r 0 \; ut8r 0 \; ut9r 0 \; ut10r 0 \; ut11r 0 \; ut12r
0 \; ut13r 0 \; ut14r 0 \; ut15r 0 \; ut16r 0 \; ut17r 0 \; ut18r 0
\; ut19r 0 \; ut20r 0 \; ut21r 0 \; ut22r 0 \; ut23r 0 \; ut24r 0 \;
ut25r 0 \; ut26r 0 \; ut27r 0 \; ut28r 0 \; ut29r 0 \; ut30r 0 \; ut31r
0 \; ut32r 0 \;;
#X obj 845 359 cnv 2 45 8 empty empty Shift+D 4 4 0 9 -260097 -262144
0;
#X connect 3 0 4 0;
#X connect 5 0 6 0;
#X connect 6 0 3 0;
#X connect 8 0 13 0;
#X connect 9 0 14 0;
#X connect 10 0 15 0;
#X connect 11 0 12 0;
#X connect 12 0 10 0;
#X connect 12 0 9 0;
#X connect 12 0 8 0;
#X connect 16 0 19 0;
#X connect 17 0 18 0;
#X connect 18 0 16 0;
#X connect 20 0 21 0;
#X connect 24 0 25 0;
#X connect 24 0 26 0;
#X coords 0 0 1 1 800 800 2 100 100;
