#N canvas 90 24 1350 805 12;
#X obj 112 10 midirealtimein;
#X obj 85 101 timer;
#X obj 112 125 select 0;
#X obj 147 357 spigot;
#X obj 191 263 del 500;
#X obj 190 289 1;
#X obj 112 67 t b b;
#X obj 147 445 f;
#X msg 220 470 0;
#X obj 103 497 + 1;
#X obj 217 217 0;
#X obj 166 191 t b b b;
#X obj 166 379 24;
#X obj 217 337 t f f;
#X obj 232 176 /;
#X floatatom 232 116 5 0 0 0 - - -;
#X msg 232 148 60000 \$1;
#X obj 273 505 bng 15 250 50 0 empty empty empty 0 -6 0 8 -262144 -1
-1;
#X obj 305 505 bng 15 250 50 0 empty empty empty 0 -6 0 8 -262144 -1
-1;
#X obj 338 505 bng 15 250 50 0 empty empty empty 0 -6 0 8 -262144 -1
-1;
#X obj 380 497 bng 15 250 50 0 empty empty empty 0 -6 0 8 -262144 -1
-1;
#X text 281 116 <-set to master BPM;
#X text 276 432 MIDIClock is 96 tics per bar;
#N canvas 0 23 534 580 comments 0;
#X text 56 29 This is working on winXP with \;;
#X text 116 97 - PD-Puckette 0.40-2;
#X text 56 141 It's a workaround \, since [midirealtimein] doesn't
;
#X text 159 357 start: 250 (FA);
#X text 158 379 clock-tick: 248 (F8);
#X text 158 401 stop: 252 (FC);
#X text 157 423 continue: 251 (FB);
#X text 111 70 - MIDI-yoke and! MIDI-oxe;
#X text 60 164 give you standart MIDI-Clock-messages \, only timing.
;
#X text 403 16 december 2006;
#X text 53 207 So the startmessage and first tick appears as time 0
[select 0] \, wait one beat \, start counting.;
#X text 135 328 MIDI-Clock-messages are \;;
#X text 37 533 Steffen Leve Poulsen slagmark at worldonline dot dk
;
#X restore 8 9 pd comments;
#X floatatom 59 198 5 0 0 0 - - -;
#X obj 724 391 sel 0;
#X obj 724 413 bng 50 250 50 0 empty empty empty 17 7 0 10 -1 -262144
-1;
#X obj 724 532 timer;
#X obj 724 487 sel 0;
#X obj 726 468 tgl 15 0 empty empty empty 17 7 0 10 -262144 -1 -1 0
1;
#X obj 757 511 t b;
#X obj 724 664 nbx 3 36 -1e+37 1e+37 0 0 bpm_init empty empty 0 -8
0 36 -262144 -1 -1 99 256;
#X obj 724 575 /;
#X obj 724 597 * 60;
#X msg 724 554 1000 \$1;
#X text 742 465 pulse;
#X obj 724 618 / 4;
#X obj 724 639 int;
#X obj 724 272 bng 15 250 50 0 empty empty empty 17 7 0 10 -262144
-1 -1;
#X obj 797 282 i;
#X obj 780 324 + 1;
#X obj 813 357 mod 6;
#X msg 875 328 -1;
#N canvas 0 22 450 278 (subpatch) 0;
#X coords 0 1 100 -1 200 140 1;
#X restore 1255 465 graph;
#X obj 147 471 moses 191;
#X obj 273 466 select 0 48 96 144;
#X text 233 527 beat 1;
#X obj 324 239 bng 50 250 50 0 empty empty empty 17 7 0 10 -13381 -262144
-1;
#X obj 447 240 bng 50 250 50 0 empty empty empty 17 7 0 10 -258113
-262144 -1;
#X obj 384 238 bng 50 250 50 0 empty empty empty 17 7 0 10 -4160 -262144
-1;
#X obj 311 37 sel 248 250 251 252;
#X obj 355 396 tgl 15 0 run_interface empty empty 17 7 0 10 -262144
-1 -1 0 1;
#X msg 428 306 0;
#X msg 344 317 1;
#X text 293 527 beat 3;
#X text 330 540 beat 5;
#X text 369 524 beat 7;
#X msg 289 576 384;
#X obj 264 746 s force_counter_value;
#X msg 212 592 0;
#X obj 279 634 * 2;
#X obj 323 637 * 4;
#X obj 366 638 * 6;
#X msg 324 580 384;
#X msg 375 581 384;
#X obj 264 673 - 48;
#X msg 235 400 -1;
#X connect 0 0 50 0;
#X connect 0 0 6 0;
#X connect 1 0 2 0;
#X connect 1 0 24 0;
#X connect 2 0 11 0;
#X connect 3 0 7 0;
#X connect 4 0 5 0;
#X connect 5 0 3 1;
#X connect 6 0 1 0;
#X connect 6 1 1 1;
#X connect 6 1 3 0;
#X connect 7 0 44 0;
#X connect 7 0 45 0;
#X connect 8 0 7 1;
#X connect 9 0 7 1;
#X connect 10 0 13 0;
#X connect 11 0 12 0;
#X connect 11 1 4 0;
#X connect 11 2 10 0;
#X connect 12 0 7 1;
#X connect 13 0 7 0;
#X connect 13 1 3 1;
#X connect 14 0 4 1;
#X connect 15 0 16 0;
#X connect 16 0 14 0;
#X connect 17 0 59 0;
#X connect 18 0 57 0;
#X connect 19 0 63 0;
#X connect 20 0 64 0;
#X connect 25 0 26 0;
#X connect 25 0 38 0;
#X connect 26 0 29 0;
#X connect 27 0 34 0;
#X connect 28 0 27 0;
#X connect 28 1 30 0;
#X connect 29 0 28 0;
#X connect 30 0 27 1;
#X connect 32 0 33 0;
#X connect 33 0 36 0;
#X connect 34 0 32 0;
#X connect 36 0 37 0;
#X connect 37 0 31 0;
#X connect 39 0 40 0;
#X connect 39 0 25 0;
#X connect 40 0 41 0;
#X connect 41 0 39 1;
#X connect 42 0 41 0;
#X connect 44 0 9 0;
#X connect 44 1 8 0;
#X connect 45 0 17 0;
#X connect 45 1 18 0;
#X connect 45 2 19 0;
#X connect 45 3 20 0;
#X connect 47 0 53 0;
#X connect 48 0 52 0;
#X connect 48 0 42 0;
#X connect 49 0 53 0;
#X connect 50 0 38 0;
#X connect 50 0 39 0;
#X connect 50 1 47 0;
#X connect 50 2 49 0;
#X connect 50 3 48 0;
#X connect 52 0 51 0;
#X connect 52 0 59 0;
#X connect 52 0 66 0;
#X connect 53 0 51 0;
#X connect 57 0 60 0;
#X connect 59 0 65 0;
#X connect 60 0 65 0;
#X connect 61 0 65 0;
#X connect 62 0 65 0;
#X connect 63 0 61 0;
#X connect 64 0 62 0;
#X connect 65 0 58 0;
#X connect 66 0 44 0;
