#N canvas 480 343 1440 806 12;
#X obj 57 61 route, f 26;
#X obj 46 129 bng 15 250 50 0 empty empty empty 17 7 0 10 -262144 -1
-1;
#X obj 256 129 bng 15 250 50 0 empty empty empty 17 7 0 10 -262144
-1 -1;
#X obj 257 159 i;
#X obj 298 160 + 1;
#X obj 257 183 mod 2;
#X floatatom 258 218 5 0 0 0 - - -;
#X obj 58 13 inlet;
#X obj 97 301 outlet;
#X obj 159 262 tgl 15 0 empty empty empty 17 7 0 10 -262144 -1 -1 0
1;
#X text 352 21 Midi push buttons generate hi (127) when pushed an zero
when released. This patch changes a toggle on/off when the inlet value
goes low to hi;
#X connect 0 0 1 0;
#X connect 0 1 2 0;
#X connect 2 0 3 0;
#X connect 3 0 4 0;
#X connect 3 0 5 0;
#X connect 4 0 3 1;
#X connect 5 0 6 0;
#X connect 6 0 9 0;
#X connect 7 0 0 0;
#X connect 9 0 8 0;
