#N canvas 0 23 1396 806 12;
#X obj 45 -3 r realtime_velocity;
#X obj 105 40 r run;
#X obj 47 96 spigot;
#X obj 129 111 r record;
#X obj 61 177 spigot;
#X obj 248 199 r current_pos;
#X obj 156 416 t f f;
#X obj 201 518 - 49;
#X floatatom 209 574 5 0 0 0 - - -;
#X text 250 578 utiming;
#X floatatom 110 542 5 0 0 0 - - -;
#X text 118 520 grid index;
#X obj 209 606 s utime_to_set;
#X obj 143 760 r utime_to_set;
#X obj 116 714 f;
#X obj 116 787 f;
#X obj 120 742 s v1r;
#X obj 116 814 s ut1r;
#X obj 83 681 t b b;
#X obj 320 766 r utime_to_set;
#X obj 293 720 f;
#X obj 293 793 f;
#X obj 260 687 t b b;
#X obj 293 820 s ut2r;
#X obj 297 748 s v2r;
#X obj 484 692 r vel_to_set;
#X obj 493 762 r utime_to_set;
#X obj 466 716 f;
#X obj 466 789 f;
#X obj 433 683 t b b;
#X obj 470 744 s v3r;
#X obj 466 816 s ut3r;
#X obj 645 690 r vel_to_set;
#X obj 654 760 r utime_to_set;
#X obj 627 714 f;
#X obj 627 787 f;
#X obj 594 681 t b b;
#X obj 631 742 s v4r;
#X obj 627 814 s ut4r;
#X obj 790 688 r vel_to_set;
#X obj 799 758 r utime_to_set;
#X obj 772 712 f;
#X obj 772 785 f;
#X obj 739 679 t b b;
#X obj 776 740 s v5r;
#X obj 772 812 s ut5r;
#X obj 953 691 r vel_to_set;
#X obj 962 761 r utime_to_set;
#X obj 935 715 f;
#X obj 935 788 f;
#X obj 902 682 t b b;
#X obj 939 743 s v6r;
#X obj 935 815 s ut6r;
#X obj 1102 692 r vel_to_set;
#X obj 1111 762 r utime_to_set;
#X obj 1084 716 f;
#X obj 1084 789 f;
#X obj 1051 683 t b b;
#X obj 1089 744 s v7r;
#X obj 1084 816 s ut7r;
#X obj 1248 691 r vel_to_set;
#X obj 1257 761 r utime_to_set;
#X obj 1230 715 f;
#X obj 1230 788 f;
#X obj 1197 682 t b b;
#X obj 1235 743 s v8r;
#X obj 1230 815 s ut8r;
#X obj 1395 686 r vel_to_set;
#X obj 1404 756 r utime_to_set;
#X obj 1377 710 f;
#X obj 1377 783 f;
#X obj 1344 677 t b b;
#X obj 1382 738 s v9r;
#X obj 1377 810 s ut9r;
#X obj 1513 686 r vel_to_set;
#X obj 1522 756 r utime_to_set;
#X obj 1495 710 f;
#X obj 1495 783 f;
#X obj 1462 677 t b b;
#X obj 149 628 sel 0 1 2 3 4 5 6 7 8 9, f 189;
#X obj 1500 738 s v10r;
#X obj 1495 810 s ut10r;
#X obj -1 913 r vel_to_set;
#X obj 8 983 r utime_to_set;
#X obj -19 937 f;
#X obj -19 1010 f;
#X obj -52 904 t b b;
#X obj 176 918 r vel_to_set;
#X obj 185 989 r utime_to_set;
#X obj 158 943 f;
#X obj 158 1016 f;
#X obj 125 910 t b b;
#X obj 349 915 r vel_to_set;
#X obj 358 985 r utime_to_set;
#X obj 331 939 f;
#X obj 331 1012 f;
#X obj 298 906 t b b;
#X obj 510 913 r vel_to_set;
#X obj 519 983 r utime_to_set;
#X obj 492 937 f;
#X obj 492 1010 f;
#X obj 459 904 t b b;
#X obj 655 911 r vel_to_set;
#X obj 664 981 r utime_to_set;
#X obj 637 935 f;
#X obj 637 1008 f;
#X obj 604 902 t b b;
#X obj 818 914 r vel_to_set;
#X obj 827 984 r utime_to_set;
#X obj 800 938 f;
#X obj 800 1011 f;
#X obj 767 905 t b b;
#X obj 967 915 r vel_to_set;
#X obj 976 985 r utime_to_set;
#X obj 949 939 f;
#X obj 949 1012 f;
#X obj 916 906 t b b;
#X obj 1113 914 r vel_to_set;
#X obj 1122 984 r utime_to_set;
#X obj 1095 938 f;
#X obj 1095 1011 f;
#X obj 1062 905 t b b;
#X obj 1260 909 r vel_to_set;
#X obj 1269 979 r utime_to_set;
#X obj 1242 933 f;
#X obj 1242 1006 f;
#X obj 1209 900 t b b;
#X obj 1378 909 r vel_to_set;
#X obj 1387 979 r utime_to_set;
#X obj 1360 933 f;
#X obj 1360 1006 f;
#X obj 1327 900 t b b;
#X obj 14 850 sel 10 11 12 13 14 15 16 17 18 19, f 189;
#X obj -15 964 s v11r;
#X obj -19 1037 s ut11r;
#X obj 162 971 s v12r;
#X obj 158 1043 s ut12r;
#X obj 331 1039 s ut13r;
#X obj 335 967 s v13r;
#X obj 496 965 s v14r;
#X obj 492 1037 s ut14r;
#X obj 637 1035 s ut15r;
#X obj 641 963 s v15r;
#X obj 804 966 s v16r;
#X obj 800 1038 s ut16r;
#X obj 949 1039 s ut17r;
#X obj 954 967 s v17r;
#X obj 1100 966 s v18r;
#X obj 1095 1038 s ut18r;
#X obj 1247 961 s v19r;
#X obj 1242 1033 s ut19r;
#X obj 1365 961 s v20r;
#X obj 1360 1033 s ut20r;
#X obj -125 1156 r vel_to_set;
#X obj -116 1226 r utime_to_set;
#X obj -143 1180 f;
#X obj -143 1253 f;
#X obj -176 1147 t b b;
#X obj 52 1162 r vel_to_set;
#X obj 61 1232 r utime_to_set;
#X obj 34 1186 f;
#X obj 34 1259 f;
#X obj 1 1153 t b b;
#X obj 225 1158 r vel_to_set;
#X obj 234 1228 r utime_to_set;
#X obj 207 1182 f;
#X obj 207 1255 f;
#X obj 174 1149 t b b;
#X obj 386 1156 r vel_to_set;
#X obj 395 1226 r utime_to_set;
#X obj 368 1180 f;
#X obj 368 1253 f;
#X obj 335 1147 t b b;
#X obj 531 1154 r vel_to_set;
#X obj 540 1224 r utime_to_set;
#X obj 513 1178 f;
#X obj 513 1251 f;
#X obj 480 1145 t b b;
#X obj 694 1157 r vel_to_set;
#X obj 703 1227 r utime_to_set;
#X obj 676 1181 f;
#X obj 676 1254 f;
#X obj 643 1148 t b b;
#X obj 843 1158 r vel_to_set;
#X obj 852 1228 r utime_to_set;
#X obj 825 1182 f;
#X obj 825 1255 f;
#X obj 792 1149 t b b;
#X obj 989 1157 r vel_to_set;
#X obj 998 1227 r utime_to_set;
#X obj 971 1181 f;
#X obj 971 1254 f;
#X obj 938 1148 t b b;
#X obj 1136 1152 r vel_to_set;
#X obj 1145 1222 r utime_to_set;
#X obj 1118 1176 f;
#X obj 1118 1249 f;
#X obj 1085 1143 t b b;
#X obj 1254 1152 r vel_to_set;
#X obj 1263 1222 r utime_to_set;
#X obj 1236 1176 f;
#X obj 1236 1249 f;
#X obj 1203 1143 t b b;
#X obj -110 1093 sel 20 21 22 23 24 25 26 27 28 29 30 31, f 245;
#X obj 1403 1146 r vel_to_set;
#X obj 1412 1216 r utime_to_set;
#X obj 1385 1170 f;
#X obj 1385 1243 f;
#X obj 1352 1137 t b b;
#X obj 1521 1146 r vel_to_set;
#X obj 1530 1216 r utime_to_set;
#X obj 1503 1170 f;
#X obj 1503 1243 f;
#X obj 1470 1137 t b b;
#X obj -139 1207 s v21r;
#X obj -143 1280 s ut21r;
#X obj 34 1286 s ut22r;
#X obj 38 1214 s v22r;
#X obj 211 1210 s v23r;
#X obj 207 1282 s ut23r;
#X obj 368 1280 s ut24r;
#X obj 372 1208 s v24r;
#X obj 518 1206 s v25r;
#X obj 513 1278 s ut25r;
#X obj 676 1281 s ut26r;
#X obj 680 1209 s v26r;
#X obj 830 1210 s v27r;
#X obj 825 1282 s ut27r;
#X obj 976 1209 s v28r;
#X obj 971 1281 s ut28r;
#X obj 1123 1204 s v29r;
#X obj 1118 1276 s ut29r;
#X obj 1241 1204 s v30r;
#X obj 1236 1275 s ut30r;
#X obj 1390 1198 s v31r;
#X obj 1385 1269 s ut31r;
#X obj 1503 1270 s ut32r;
#X obj 1508 1198 s v32r;
#X floatatom 198 154 5 0 0 0 - - -;
#X floatatom 150 79 5 0 0 0 - - -;
#X obj 110 452 div 96;
#X obj 195 454 mod 96;
#X floatatom 11 92 5 0 0 0 - - -;
#X obj -88 70 s vel_to_set;
#X obj 62 321 pack f f f, f 30;
#X obj 176 388 s vel_to_set;
#X obj 64 351 unpack f f f;
#X obj 88 270 t b f;
#X obj 134 690 r vel_to_set;
#X obj 312 696 r vel_to_set;
#X obj 210 550 / 98;
#X obj 1612 199 s step_ticks;
#X obj 300 380 r step_ticks;
#X obj 297 477 r step_ticks;
#X obj 272 526 t b f;
#X obj 298 502 + 2;
#X obj 391 414 r half_step_ticks;
#X floatatom 408 499 5 0 0 0 - - -;
#X floatatom 465 555 5 0 0 0 - - -;
#X floatatom 299 242 5 0 0 0 - - -;
#X floatatom 253 368 5 0 0 0 - - -;
#X floatatom 38 425 5 0 0 0 - - -;
#X floatatom 229 487 5 0 0 0 - - -;
#X floatatom 242 418 5 0 0 0 - - -;
#X obj 397 446 expr $f1+1;
#X obj 110 565 s slider_index;
#X connect 0 0 2 0;
#X connect 0 0 242 0;
#X connect 0 0 243 0;
#X connect 1 0 2 1;
#X connect 1 0 239 0;
#X connect 2 0 4 0;
#X connect 3 0 4 1;
#X connect 3 0 238 0;
#X connect 4 0 247 0;
#X connect 5 0 244 1;
#X connect 5 0 259 0;
#X connect 6 0 240 0;
#X connect 6 1 241 0;
#X connect 7 0 250 0;
#X connect 8 0 12 0;
#X connect 10 0 79 0;
#X connect 10 0 265 0;
#X connect 13 0 15 1;
#X connect 14 0 16 0;
#X connect 15 0 17 0;
#X connect 18 0 15 0;
#X connect 18 1 14 0;
#X connect 19 0 21 1;
#X connect 20 0 24 0;
#X connect 21 0 23 0;
#X connect 22 0 21 0;
#X connect 22 1 20 0;
#X connect 25 0 27 1;
#X connect 26 0 28 1;
#X connect 27 0 30 0;
#X connect 28 0 31 0;
#X connect 29 0 28 0;
#X connect 29 1 27 0;
#X connect 32 0 34 1;
#X connect 33 0 35 1;
#X connect 34 0 37 0;
#X connect 35 0 38 0;
#X connect 36 0 35 0;
#X connect 36 1 34 0;
#X connect 39 0 41 1;
#X connect 40 0 42 1;
#X connect 41 0 44 0;
#X connect 42 0 45 0;
#X connect 43 0 42 0;
#X connect 43 1 41 0;
#X connect 46 0 48 1;
#X connect 47 0 49 1;
#X connect 48 0 51 0;
#X connect 49 0 52 0;
#X connect 50 0 49 0;
#X connect 50 1 48 0;
#X connect 53 0 55 1;
#X connect 54 0 56 1;
#X connect 55 0 58 0;
#X connect 56 0 59 0;
#X connect 57 0 56 0;
#X connect 57 1 55 0;
#X connect 60 0 62 1;
#X connect 61 0 63 1;
#X connect 62 0 65 0;
#X connect 63 0 66 0;
#X connect 64 0 63 0;
#X connect 64 1 62 0;
#X connect 67 0 69 1;
#X connect 68 0 70 1;
#X connect 69 0 72 0;
#X connect 70 0 73 0;
#X connect 71 0 70 0;
#X connect 71 1 69 0;
#X connect 74 0 76 1;
#X connect 75 0 77 1;
#X connect 76 0 80 0;
#X connect 77 0 81 0;
#X connect 78 0 77 0;
#X connect 78 1 76 0;
#X connect 79 0 18 0;
#X connect 79 1 22 0;
#X connect 79 2 29 0;
#X connect 79 3 36 0;
#X connect 79 4 43 0;
#X connect 79 5 50 0;
#X connect 79 6 57 0;
#X connect 79 7 64 0;
#X connect 79 8 71 0;
#X connect 79 9 78 0;
#X connect 79 10 132 0;
#X connect 82 0 84 1;
#X connect 83 0 85 1;
#X connect 84 0 133 0;
#X connect 85 0 134 0;
#X connect 86 0 85 0;
#X connect 86 1 84 0;
#X connect 87 0 89 1;
#X connect 88 0 90 1;
#X connect 89 0 135 0;
#X connect 90 0 136 0;
#X connect 91 0 90 0;
#X connect 91 1 89 0;
#X connect 92 0 94 1;
#X connect 93 0 95 1;
#X connect 94 0 138 0;
#X connect 95 0 137 0;
#X connect 96 0 95 0;
#X connect 96 1 94 0;
#X connect 97 0 99 1;
#X connect 98 0 100 1;
#X connect 99 0 139 0;
#X connect 100 0 140 0;
#X connect 101 0 100 0;
#X connect 101 1 99 0;
#X connect 102 0 104 1;
#X connect 103 0 105 1;
#X connect 104 0 142 0;
#X connect 105 0 141 0;
#X connect 106 0 105 0;
#X connect 106 1 104 0;
#X connect 107 0 109 1;
#X connect 108 0 110 1;
#X connect 109 0 143 0;
#X connect 110 0 144 0;
#X connect 111 0 110 0;
#X connect 111 1 109 0;
#X connect 112 0 114 1;
#X connect 113 0 115 1;
#X connect 114 0 146 0;
#X connect 115 0 145 0;
#X connect 116 0 115 0;
#X connect 116 1 114 0;
#X connect 117 0 119 1;
#X connect 118 0 120 1;
#X connect 119 0 147 0;
#X connect 120 0 148 0;
#X connect 121 0 120 0;
#X connect 121 1 119 0;
#X connect 122 0 124 1;
#X connect 123 0 125 1;
#X connect 124 0 149 0;
#X connect 125 0 150 0;
#X connect 126 0 125 0;
#X connect 126 1 124 0;
#X connect 127 0 129 1;
#X connect 128 0 130 1;
#X connect 129 0 151 0;
#X connect 130 0 152 0;
#X connect 131 0 130 0;
#X connect 131 1 129 0;
#X connect 132 0 86 0;
#X connect 132 1 91 0;
#X connect 132 2 96 0;
#X connect 132 3 101 0;
#X connect 132 4 106 0;
#X connect 132 5 111 0;
#X connect 132 6 116 0;
#X connect 132 7 121 0;
#X connect 132 8 126 0;
#X connect 132 9 131 0;
#X connect 132 10 203 0;
#X connect 153 0 155 1;
#X connect 154 0 156 1;
#X connect 155 0 214 0;
#X connect 156 0 215 0;
#X connect 157 0 156 0;
#X connect 157 1 155 0;
#X connect 158 0 160 1;
#X connect 159 0 161 1;
#X connect 160 0 217 0;
#X connect 161 0 216 0;
#X connect 162 0 161 0;
#X connect 162 1 160 0;
#X connect 163 0 165 1;
#X connect 164 0 166 1;
#X connect 165 0 218 0;
#X connect 166 0 219 0;
#X connect 167 0 166 0;
#X connect 167 1 165 0;
#X connect 168 0 170 1;
#X connect 169 0 171 1;
#X connect 170 0 221 0;
#X connect 171 0 220 0;
#X connect 172 0 171 0;
#X connect 172 1 170 0;
#X connect 173 0 175 1;
#X connect 174 0 176 1;
#X connect 175 0 222 0;
#X connect 176 0 223 0;
#X connect 177 0 176 0;
#X connect 177 1 175 0;
#X connect 178 0 180 1;
#X connect 179 0 181 1;
#X connect 180 0 225 0;
#X connect 181 0 224 0;
#X connect 182 0 181 0;
#X connect 182 1 180 0;
#X connect 183 0 185 1;
#X connect 184 0 186 1;
#X connect 185 0 226 0;
#X connect 186 0 227 0;
#X connect 187 0 186 0;
#X connect 187 1 185 0;
#X connect 188 0 190 1;
#X connect 189 0 191 1;
#X connect 190 0 228 0;
#X connect 191 0 229 0;
#X connect 192 0 191 0;
#X connect 192 1 190 0;
#X connect 193 0 195 1;
#X connect 194 0 196 1;
#X connect 195 0 230 0;
#X connect 196 0 231 0;
#X connect 197 0 196 0;
#X connect 197 1 195 0;
#X connect 198 0 200 1;
#X connect 199 0 201 1;
#X connect 200 0 232 0;
#X connect 201 0 233 0;
#X connect 202 0 201 0;
#X connect 202 1 200 0;
#X connect 203 0 157 0;
#X connect 203 1 162 0;
#X connect 203 2 167 0;
#X connect 203 3 172 0;
#X connect 203 4 177 0;
#X connect 203 5 182 0;
#X connect 203 6 187 0;
#X connect 203 7 192 0;
#X connect 203 8 197 0;
#X connect 203 9 202 0;
#X connect 203 10 208 0;
#X connect 203 11 213 0;
#X connect 204 0 206 1;
#X connect 205 0 207 1;
#X connect 206 0 234 0;
#X connect 207 0 235 0;
#X connect 208 0 207 0;
#X connect 208 1 206 0;
#X connect 209 0 211 1;
#X connect 210 0 212 1;
#X connect 211 0 237 0;
#X connect 212 0 236 0;
#X connect 213 0 212 0;
#X connect 213 1 211 0;
#X connect 240 0 10 0;
#X connect 241 0 7 0;
#X connect 241 0 262 0;
#X connect 244 0 246 0;
#X connect 246 1 6 0;
#X connect 246 1 261 0;
#X connect 246 2 245 0;
#X connect 246 2 260 0;
#X connect 247 0 244 0;
#X connect 247 1 244 2;
#X connect 248 0 14 1;
#X connect 249 0 20 1;
#X connect 250 0 8 0;
#X connect 252 0 263 0;
#X connect 253 0 255 0;
#X connect 254 1 250 1;
#X connect 254 1 258 0;
#X connect 255 0 254 0;
#X connect 256 0 264 0;
#X connect 263 0 241 1;
#X connect 263 0 240 1;
#X connect 264 0 7 1;
#X connect 264 0 257 0;
