#N canvas 70 209 1440 823 12;
#X obj 101 101 cnv 15 798 798 empty empty empty 20 12 0 14 #e0e0e0
#404040 0;
#X text 793 -28 Todo: 1 per voice tres 2 per voice max count 3 scale
velocities of sliders 4 live record via midi, f 38;
#X obj 949 111 cnv 15 400 200 empty empty Settings_and_Source_Not_Shown_On_Main_GUI
20 12 0 14 #fc0400 #404040 0;
#X obj 132 102 hradio 15 1 0 10 empty empty empty 0 -8 0 10 #fcfcfc
#000000 #000000 0;
#N canvas 0 23 960 823 \$0-setting-panes 0;
#X obj 1503 64 inlet;
#X msg 1510 192 0;
#X obj 1327 49 hradio 15 1 0 10 empty empty empty 0 -8 0 10 #fcfcfc
#000000 #000000 0;
#X obj 1596 224 pack f f;
#X obj 1509 94 t f f b;
#X obj 1483 138 != 0;
#X text 1316 194 get's messy without this ->;
#X text 1772 82 https://forum.pdpatchrepo.info/topic/9799/gui-tab-like-question/2
;
#X obj 1533 338 s pd-\$0-setting-panes;
#X obj 765 74 bng 15 250 50 0 disconnect_py2pd_connection empty disconnect_py2pd_connection
17 7 0 10 #fcfcfc #000000 #000000;
#X obj 766 92 bng 15 250 50 0 disconnect_pd2py_connection empty disconnect_pd2py_connection
17 7 0 10 #fcfcfc #000000 #000000;
#X floatatom 709 58 5 0 0 0 - - - 0;
#X msg 1663 197 80;
#X msg 1704 197 280;
#X msg 1738 201 480;
#X msg 1776 200 680;
#X msg 1533 311 donecanvasdialog 1 -1 \$1 0 -1 1 1 300 70 180 \$2;
#X msg 1822 198 780;
#X msg 1826 249 880;
#X obj 181 881 cnv 15 298 68 empty empty empty 20 12 0 14 #fcfcfc #404040
0;
#X obj 181 781 cnv 15 298 68 empty empty empty 20 12 0 14 #e4e8e4 #404040
0;
#X obj 267 814 hradio 30 1 0 4 ppq_selection ppq_selection_init PPQ_384_192__96__48
-19 -8 0 12 #fcfcc4 #000000 #000000 0;
#X text 398 797 Resolution;
#X text 422 782 PPQ;
#X obj 181 681 cnv 15 298 68 empty empty empty 20 12 0 14 #e4e8e4 #404040
0;
#X floatatom 288 684 5 0 0 0 py2pd_port py2pd_port_init py2pd_port
0;
#X floatatom 412 685 5 0 0 0 pd2py_port pd2py_port_init pd2py_port
0;
#X floatatom 412 707 5 0 0 0 drum_out_channel drum_out_channel_init
drum_out_channel 0;
#X obj 181 481 cnv 15 298 68 empty empty empty 20 12 0 14 #e4e8e4 #404040
0;
#X obj 195 514 hradio 10 1 0 5 meter_numerator meter_numerator_preset
_1_2_3_4_6_ -2 -8 0 8 #e0c4fc #000000 #000000 0;
#X obj 198 537 hradio 10 1 0 4 meter_denominator meter_denominator_preset
_1_2_4_8_ -2 -8 0 8 #e0c4fc #000000 #000000 0;
#X text 258 509 Numerator;
#X text 248 533 Denominator;
#X text 202 487 Meter (only affects metronome sound);
#X obj 181 281 cnv 15 298 68 empty empty empty 20 12 0 14 #e4e8e4 #404040
0;
#X obj 343 310 hsl 110 15 0 1 0 0 groove_volume groove_volume_init
Clap_Sound_Volume -2 -8 0 10 #fcc4c4 #000000 #000000 0 0;
#X obj 349 519 hsl 110 15 0 1 0 0 metronome_volume metronome_volume_r
Metronome_Volume -2 -8 0 10 #e0c4fc #000000 #000000 0 1;
#X obj 181 81 cnv 15 298 68 empty empty empty 20 12 0 14 #e4e8e4 #404040
0;
#X obj 195 100 tgl 30 0 empty play_r PLAY 4 -5 0 10 #fcfcfc #000000
#000000 0 1;
#X obj 241 100 tgl 30 0 record record_r RECORD 4 -5 0 10 #fcfcfc #000000
#000000 0 1;
#X obj 315 100 tgl 30 0 send_clock_out send_clock_out_r Send_Clock_Out
-30 -5 0 10 #fcfcfc #000000 #000000 0 1;
#X floatatom 380 114 10 0 0 2 BPM bpm_r bpm 0;
#X text 185 928 >> python run_generative_engine.py --help;
#X text 205 905 Prior to Loading a Preset/Session;
#X text 181 884 Don't Forget to Load the Generative Engine;
#X obj 286 309 tgl 15 0 keyboard_enabled keyboard_enabled_r Enable_Keyboard
-100 6 0 10 #fce0c4 #000000 #000000 0 1;
#X msg 1893 202 980;
#X obj 181 981 cnv 15 298 68 empty empty empty 20 12 0 14 #fcfcfc #404040
0;
#X obj 190 238 s run;
#X obj 249 230 s force_resend_data_to_py;
#X obj 252 195 sel 1;
#X msg 1944 201 1080;
#X msg 1992 204 1180;
#X obj 1650 164 sel 1 2 3 4 5 6 7 8 9, f 42;
#X obj 181 1081 cnv 15 298 68 empty empty empty 20 12 0 14 #e4e8e4
#404040 0;
#X obj 181 1181 cnv 15 298 68 empty empty empty 20 12 0 14 #fcfcfc
#404040 0;
#X text 181 1180 Light Model: Smaller Transformer \,;
#X text 260 1195 Less Computationally Intensive;
#X text 260 1232 More Computationally Intensive;
#X text 181 1215 Heavy Model: Larger Transformer \,;
#X obj 273 1120 hsl 128 15 0.1 20 0 0 empty empty Delay_Between_Generations
-2 -8 0 10 #c4c4fc #000000 #000000 0 0;
#X floatatom 403 1118 5 0 0 0 - - - 0;
#X obj 504 1148 change;
#X obj 513 1124 s wait_time_between_generations;
#X obj 192 1104 vradio 20 1 0 2 empty empty empty 0 -8 0 10 #c4a094
#000000 #000000 0;
#X text 215 1105 Light;
#X text 215 1125 Heavy;
#X obj 51 1166 s model_version;
#X obj 65 1054 r model_version_r;
#X text 195 1080 Select Model and Minimum Delay btn Gens;
#X obj 202 166 t f f;
#X obj 274 328 cnv 2 40 8 empty empty CapsLock 0 4 0 8 #fc8000 #fcfcfc
0;
#X obj 340 327 cnv 2 10 8 empty empty - 3 4 0 8 #fc8000 #fcfcfc 0;
#X obj 445 327 cnv 2 10 8 empty empty + 3 4 0 8 #fc8000 #fcfcfc 0;
#X obj 56 217 keyname;
#X symbolatom 103 263 10 0 0 0 - - - 0;
#X floatatom 18 265 5 0 0 0 - - - 0;
#X obj 13 300 t b f;
#X obj 3 344 symbol;
#X obj 3 367 sel Caps_Lock;
#X obj 5 392 f;
#X obj 6 423 tgl 15 0 empty empty empty 17 7 0 10 #fcfcfc #000000 #000000
0 1;
#X obj 319 25 loadbang;
#X msg 319 52 1;
#X obj 203 133 cnv 2 12 8 empty empty P 4 4 0 9 #fc8000 #fcfcfc 0;
#X obj 250 133 cnv 2 12 8 empty empty R 4 4 0 9 #fc8000 #fcfcfc 0;
#X obj 346 536 cnv 2 45 8 empty empty Left_Arrow 3 5 0 7 #fc8000 #fcfcfc
0;
#X obj 416 536 cnv 2 45 8 empty empty Right_Arrow 3 5 0 7 #fc8000 #fcfcfc
0;
#X floatatom 412 727 5 0 0 0 metronome_as_midi_out_channel metronome_as_midi_out_channel_init
metronome_as_midi_out_channel 0;
#X text 266 1007 -- Version 0.7;
#X connect 0 0 4 0;
#X connect 1 0 3 0;
#X connect 2 0 4 0;
#X connect 3 0 16 0;
#X connect 4 0 5 0;
#X connect 4 1 53 0;
#X connect 4 2 1 0;
#X connect 5 0 3 0;
#X connect 12 0 3 1;
#X connect 13 0 3 1;
#X connect 14 0 3 1;
#X connect 15 0 3 1;
#X connect 16 0 8 0;
#X connect 17 0 3 1;
#X connect 18 0 3 1;
#X connect 38 0 70 0;
#X connect 46 0 3 1;
#X connect 50 0 49 0;
#X connect 51 0 3 1;
#X connect 52 0 3 1;
#X connect 53 0 12 0;
#X connect 53 1 13 0;
#X connect 53 2 14 0;
#X connect 53 3 15 0;
#X connect 53 4 17 0;
#X connect 53 5 18 0;
#X connect 53 6 46 0;
#X connect 53 7 51 0;
#X connect 53 8 52 0;
#X connect 60 0 61 0;
#X connect 61 0 62 0;
#X connect 61 0 63 0;
#X connect 62 0 60 0;
#X connect 64 0 67 0;
#X connect 68 0 64 0;
#X connect 70 0 48 0;
#X connect 70 1 50 0;
#X connect 74 0 76 0;
#X connect 74 1 75 0;
#X connect 75 0 78 1;
#X connect 76 0 77 0;
#X connect 77 0 78 0;
#X connect 77 1 80 1;
#X connect 78 0 79 0;
#X connect 79 0 80 0;
#X connect 80 0 81 0;
#X connect 81 0 45 0;
#X connect 82 0 83 0;
#X connect 83 0 40 0;
#X coords 0 -1 1 1 300 70 1 180 80;
#X restore 132 117 pd \$0-setting-panes;
#X obj 128 46 loadbang;
#X msg 129 64 1;
#X obj 131 191 cnv 15 698 700 empty empty empty 20 12 0 14 #e4e8e4
#404040 0;
#X obj 112 395 vradio 20 1 0 5 empty empty empty 0 -8 0 10 #fcfcfc
#000000 #000000 0;
#X obj -1 427 loadbang;
#X msg 2 451 1;
#N canvas 480 323 1440 823 \$0-gvo 0;
#X obj 1 1 cnv 15 698 122 empty empty empty 20 12 0 14 #e4e8e4 #404040
0;
#X msg 1447 184 0;
#X obj 1320 72 hradio 15 1 0 6 empty empty empty 0 -8 0 10 #fcfcfc
#000000 #000000 0;
#X obj 1533 216 pack f f;
#X obj 1587 156 sel 1 2 3;
#X obj 1446 86 t f f b;
#X obj 1420 130 != 0;
#X text 1253 186 get's messy without this ->;
#X text 1709 74 https://forum.pdpatchrepo.info/topic/9799/gui-tab-like-question/2
;
#X msg 1600 188 0;
#X msg 1641 189 440;
#X msg 1675 192 880;
#X floatatom 1344 156 5 0 0 0 - - - 0;
#X obj 1310 28 inlet;
#X obj 1533 259 s pd-\$0-gvo;
#X msg 1533 237 donecanvasdialog 1 -1 \$1 0 -1 1 1 700 124 0 \$2;
#X obj 172 14 hsl 512 15 0 3072 0 0 current_pos playback_pos empty
-2 -8 0 10 #dcdcdc #000000 #000000 0 1;
#X obj 171 32 vsl 16 65 0 127 0 0 v1 v1r empty 0 -9 0 10 #7c7c7c #fcfcfc
#000000 0 0;
#X obj 174 100 hsl 11 8 -0.5 0.49 0 0 ut1 ut1r empty -2 -8 0 4 #7c7c7c
#fcfcfc #000000 0 0;
#X obj 187 32 vsl 16 65 0 127 0 0 v2 v2r empty 0 -9 0 10 #fcfcfc #202020
#000000 0 0;
#X obj 190 100 hsl 11 8 -0.5 0.49 0 0 ut2 ut2r empty -2 -8 0 4 #fcfcfc
#000000 #000000 0 0;
#X obj 203 32 vsl 16 65 0 127 0 0 v3 v3r empty 0 -9 0 10 #fcfcfc #202020
#000000 0 0;
#X obj 206 100 hsl 11 8 -0.5 0.49 0 0 ut3 ut3r empty -2 -8 0 4 #fcfcfc
#000000 #000000 0 0;
#X obj 219 32 vsl 16 65 0 127 0 0 v4 v4r empty 0 -9 0 10 #fcfcfc #202020
#000000 0 0;
#X obj 222 100 hsl 11 8 -0.5 0.49 0 0 ut4 ut4r empty -2 -8 0 4 #fcfcfc
#000000 #000000 0 0;
#X obj 235 32 vsl 16 65 0 127 0 0 v5 v5r empty 0 -9 0 10 #dcdcdc #202020
#000000 0 0;
#X obj 238 100 hsl 11 8 -0.5 0.49 0 0 ut5 ut5r empty -2 -8 0 4 #dcdcdc
#202020 #000000 0 0;
#X obj 251 32 vsl 16 65 0 127 0 0 v6 v6r empty 0 -9 0 10 #fcfcfc #202020
#000000 0 0;
#X obj 254 100 hsl 11 8 -0.5 0.49 0 0 ut6 ut6r empty -2 -8 0 4 #fcfcfc
#000000 #000000 0 0;
#X obj 267 32 vsl 16 65 0 127 0 0 v7 v7r empty 0 -9 0 10 #fcfcfc #202020
#000000 0 0;
#X obj 270 100 hsl 11 8 -0.5 0.49 0 0 ut7 ut7r empty -2 -8 0 4 #fcfcfc
#000000 #000000 0 0;
#X obj 283 32 vsl 16 65 0 127 0 0 v8 v8r empty 0 -9 0 10 #fcfcfc #202020
#000000 0 0;
#X obj 286 100 hsl 11 8 -0.5 0.49 0 0 ut8 ut8r empty -2 -8 0 4 #fcfcfc
#000000 #000000 0 0;
#X obj 299 32 vsl 16 65 0 127 0 0 v9 v9r empty 0 -9 0 10 #dcdcdc #202020
#000000 0 0;
#X obj 302 100 hsl 11 8 -0.5 0.49 0 0 ut9 ut9r empty -2 -8 0 4 #dcdcdc
#202020 #000000 0 0;
#X obj 315 32 vsl 16 65 0 127 0 0 v10 v10r empty 0 -9 0 10 #fcfcfc
#202020 #000000 0 0;
#X obj 318 100 hsl 11 8 -0.5 0.49 0 0 ut10 ut10r empty -2 -8 0 4 #fcfcfc
#000000 #000000 0 0;
#X obj 331 32 vsl 16 65 0 127 0 0 v11 v11r empty 0 -9 0 10 #fcfcfc
#202020 #000000 0 0;
#X obj 334 100 hsl 11 8 -0.5 0.49 0 0 ut11 ut11r empty -2 -8 0 4 #fcfcfc
#000000 #000000 0 0;
#X obj 347 32 vsl 16 65 0 127 0 0 v12 v12r empty 0 -9 0 10 #fcfcfc
#202020 #000000 0 0;
#X obj 350 100 hsl 11 8 -0.5 0.49 0 0 ut12 ut12r empty -2 -8 0 4 #fcfcfc
#000000 #000000 0 0;
#X obj 363 32 vsl 16 65 0 127 0 0 v13 v13r empty 0 -9 0 10 #dcdcdc
#202020 #000000 0 0;
#X obj 366 100 hsl 11 8 -0.5 0.49 0 0 ut13 ut13r empty -2 -8 0 4 #dcdcdc
#202020 #000000 0 0;
#X obj 379 32 vsl 16 65 0 127 0 0 v14 v14r empty 0 -9 0 10 #fcfcfc
#202020 #000000 0 0;
#X obj 382 100 hsl 11 8 -0.5 0.49 0 0 ut14 ut14r empty -2 -8 0 4 #fcfcfc
#000000 #000000 0 0;
#X obj 395 32 vsl 16 65 0 127 0 0 v15 v15r empty 0 -9 0 10 #fcfcfc
#202020 #000000 0 0;
#X obj 398 100 hsl 11 8 -0.5 0.49 0 0 ut15 ut15r empty -2 -8 0 4 #fcfcfc
#000000 #000000 0 0;
#X obj 411 32 vsl 16 65 0 127 0 0 v16 v16r empty 0 -9 0 10 #fcfcfc
#202020 #000000 0 0;
#X obj 414 100 hsl 11 8 -0.5 0.49 0 0 ut16 ut16r empty -2 -8 0 4 #fcfcfc
#000000 #000000 0 0;
#X text 174 105 1;
#X text 238 105 5;
#X text 301 105 9;
#X text 362 105 13;
#X obj 427 32 vsl 16 65 0 127 0 0 v17 v17r empty 0 -9 0 10 #7c7c7c
#fcfcfc #000000 0 0;
#X obj 430 100 hsl 11 8 -0.5 0.49 0 0 ut17 ut17r empty -2 -8 0 4 #7c7c7c
#fcfcfc #000000 0 0;
#X obj 443 32 vsl 16 65 0 127 0 0 v18 v18r empty 0 -9 0 10 #fcfcfc
#202020 #000000 0 0;
#X obj 446 100 hsl 11 8 -0.5 0.49 0 0 ut18 ut18r empty -2 -8 0 4 #fcfcfc
#000000 #000000 0 0;
#X obj 459 32 vsl 16 65 0 127 0 0 v19 v19r empty 0 -9 0 10 #fcfcfc
#202020 #000000 0 0;
#X obj 462 100 hsl 11 8 -0.5 0.49 0 0 ut19 ut19r empty -2 -8 0 4 #fcfcfc
#000000 #000000 0 0;
#X obj 475 32 vsl 16 65 0 127 0 0 v20 v20r empty 0 -9 0 10 #fcfcfc
#202020 #000000 0 0;
#X obj 478 100 hsl 11 8 -0.5 0.49 0 0 ut20 ut20r empty -2 -8 0 4 #fcfcfc
#000000 #000000 0 0;
#X obj 491 32 vsl 16 65 0 127 0 0 v21 v21r empty 0 -9 0 10 #dcdcdc
#202020 #000000 0 0;
#X obj 494 100 hsl 11 8 -0.5 0.49 0 0 ut21 ut21r empty -2 -8 0 4 #dcdcdc
#202020 #000000 0 0;
#X obj 507 32 vsl 16 65 0 127 0 0 v22 v22r empty 0 -9 0 10 #fcfcfc
#202020 #000000 0 0;
#X obj 510 100 hsl 11 8 -0.5 0.49 0 0 ut22 ut22r empty -2 -8 0 4 #fcfcfc
#000000 #000000 0 0;
#X obj 523 32 vsl 16 65 0 127 0 0 v23 v23r empty 0 -9 0 10 #fcfcfc
#202020 #000000 0 0;
#X obj 526 100 hsl 11 8 -0.5 0.49 0 0 ut23 ut23r empty -2 -8 0 4 #fcfcfc
#000000 #000000 0 0;
#X obj 539 32 vsl 16 65 0 127 0 0 v24 v24r empty 0 -9 0 10 #fcfcfc
#202020 #000000 0 0;
#X obj 542 100 hsl 11 8 -0.5 0.49 0 0 ut24 ut24r empty -2 -8 0 4 #fcfcfc
#000000 #000000 0 0;
#X obj 555 32 vsl 16 65 0 127 0 0 v25 v25r empty 0 -9 0 10 #dcdcdc
#202020 #000000 0 0;
#X obj 558 100 hsl 11 8 -0.5 0.49 0 0 ut25 ut25r empty -2 -8 0 4 #dcdcdc
#202020 #000000 0 0;
#X obj 571 32 vsl 16 65 0 127 0 0 v26 v26r empty 0 -9 0 10 #fcfcfc
#202020 #000000 0 0;
#X obj 574 100 hsl 11 8 -0.5 0.49 0 0 ut26 ut26r empty -2 -8 0 4 #fcfcfc
#000000 #000000 0 0;
#X obj 587 32 vsl 16 65 0 127 0 0 v27 v27r empty 0 -9 0 10 #fcfcfc
#202020 #000000 0 0;
#X obj 590 100 hsl 11 8 -0.5 0.49 0 0 ut27 ut27r empty -2 -8 0 4 #fcfcfc
#000000 #000000 0 0;
#X obj 603 32 vsl 16 65 0 127 0 0 v28 v28r empty 0 -9 0 10 #fcfcfc
#202020 #000000 0 0;
#X obj 606 100 hsl 11 8 -0.5 0.49 0 0 ut28 ut28r empty -2 -8 0 4 #fcfcfc
#000000 #000000 0 0;
#X obj 619 32 vsl 16 65 0 127 0 0 v29 v29r empty 0 -9 0 10 #dcdcdc
#202020 #000000 0 0;
#X obj 622 100 hsl 11 8 -0.5 0.49 0 0 ut29 ut29r empty -2 -8 0 4 #dcdcdc
#202020 #000000 0 0;
#X obj 635 32 vsl 16 65 0 127 0 0 v30 v30r empty 0 -9 0 10 #fcfcfc
#202020 #000000 0 0;
#X obj 638 100 hsl 11 8 -0.5 0.49 0 0 ut30 ut30r empty -2 -8 0 4 #fcfcfc
#000000 #000000 0 0;
#X obj 651 32 vsl 16 65 0 127 0 0 v31 v31r empty 0 -9 0 10 #fcfcfc
#202020 #000000 0 0;
#X obj 654 100 hsl 11 8 -0.5 0.49 0 0 ut31 ut31r empty -2 -8 0 4 #fcfcfc
#000000 #000000 0 0;
#X obj 667 32 vsl 16 65 0 127 0 0 v32 v32r empty 0 -9 0 10 #fcfcfc
#202020 #000000 0 0;
#X obj 670 100 hsl 11 8 -0.5 0.49 0 0 ut32 ut32r empty -2 -8 0 4 #fcfcfc
#000000 #000000 0 0;
#X text 425 105 17;
#X text 490 105 21;
#X text 553 105 25;
#X text 617 104 29;
#X obj 13 27 vsl 16 65 0.1 3 0 0 empty groove_vel_scale_init empty
0 -9 0 10 #fcfcfc #000000 #000000 0 0;
#X text 145 33 Vel;
#X text 131 72 uTime;
#X obj 29 81 nbx 5 14 -1e+37 1e+37 0 0 groove_vel_scale empty Scale_Velocities
0 -8 0 10 #fcfcfc #000000 #000000 0 256;
#X obj 29 125 change;
#X obj 1 441 cnv 15 698 122 empty empty empty 20 12 0 14 #e4e8e4 #404040
0;
#X obj 172 454 hsl 512 15 0 3072 0 0 current_pos playback_pos empty
-2 -8 0 10 #dcdcdc #000000 #000000 0 1;
#N canvas 0 23 1440 823 midi_mapper 0;
#X obj 106 103 hradio 10 1 0 2 empty empty empty 0 -8 0 6 #e0c4fc #000000
#000000 0;
#X obj 136 103 tgl 10 0 empty empty empty 20 7 0 10 #e0c4fc #000000
#000000 0 1;
#X obj 163 104 nbx 2 8 -1e+37 1e+37 0 1 empty empty ccnum -14 4 0 4
#e0c4fc #000000 #000000 1 256;
#X obj 198 104 nbx 2 8 -1e+37 1e+37 0 1 empty empty Channel -18 4 0
4 #e0c4fc #000000 #000000 2 256;
#X obj 193 46 unpack;
#X floatatom 225 277 5 0 0 0 - - - 0;
#X obj 62 258 res/midi_cc_block_endlessEncoder_or_potentiometerSlider
;
#X obj 351 98 loadbang;
#X obj 62 171 r groove_vel_scale_ccNum_channelPort_r;
#X obj 62 189 r groove_vel_scale;
#X obj 62 208 r groove_vel_scale_stepSize_min_max;
#X obj 62 226 r groove_vel_scale_cc_type_r;
#X obj 62 303 s groove_vel_scale_init;
#X obj 131 411 s groove_vel_scale_ccNum_channelPort;
#X obj 351 133 s groove_vel_scale_stepSize_min_max;
#X obj 107 115 s groove_vel_scale_cc_type;
#X msg 351 115 0.005 0 3;
#X connect 0 0 15 0;
#X connect 0 0 6 0;
#X connect 1 0 6 4;
#X connect 4 0 2 0;
#X connect 4 1 3 0;
#X connect 6 0 12 0;
#X connect 6 1 4 0;
#X connect 6 1 5 0;
#X connect 6 1 13 0;
#X connect 6 2 1 0;
#X connect 7 0 16 0;
#X connect 8 0 4 0;
#X connect 8 0 6 3;
#X connect 9 0 6 2;
#X connect 10 0 6 1;
#X connect 11 0 0 0;
#X connect 16 0 14 0;
#X coords 0 -1 1 1 125 14 2 100 100;
#X restore 170 492 pd midi_mapper;
#X obj 170 508 cnv 4 110 8 empty empty Select_(1)_EndlessEncoder_(2)_Slider/Pot
0 4 0 4 #202020 #fcfcfc 0;
#X obj 204 484 cnv 4 15 8 empty empty Learn 2 4 0 4 #202020 #fcfcfc
0;
#X obj 29 166 s groove_vel_scale_init;
#X obj 13 467 vsl 16 65 0.1 3 0 0 empty groove_vel_scale_init empty
0 -9 0 10 #fcfcfc #000000 #000000 0 0;
#X obj 29 521 nbx 5 14 -1e+37 1e+37 0 0 groove_vel_scale empty Scale_Velocities
0 -8 0 10 #fcfcfc #000000 #000000 0 256;
#X obj 29 565 change;
#X obj 29 606 s groove_vel_scale_init;
#X obj 173 2 tgl 10 0 empty force_start_here Always_Start_Here 20 5
0 10 #fc0400 #000000 #fc0400 0 1;
#X obj 256 167 s force_start_here;
#X obj 255 138 change;
#X obj 173 442 tgl 10 0 empty force_start_here Always_Start_Here 20
5 0 10 #fc0400 #000000 #fc0400 0 1;
#X obj 256 607 s force_start_here;
#X obj 255 578 change;
#X obj 804 260 vsl 15 128 0 127 0 0 empty empty empty 0 -9 0 10 #fcfcfc
#000000 #000000 0 0;
#X obj 846 482 i;
#X obj 884 482 + 1;
#X obj 837 454 bng 15 250 50 0 empty empty empty 17 7 0 10 #fcfcfc
#000000 #000000;
#X msg 873 441 0;
#X floatatom 874 521 5 0 0 0 - - - 0;
#X obj 72 267 s update_on_ut_change;
#X obj 13 104 tgl 15 0 empty empty Update_Only_On_Vel_Change 17 7 0
8 #e0c4fc #000000 #9c00fc 0 1;
#X obj 69 221 expr if($f1==0 \, 1 \, 0);
#X obj 275 230 r update_on_ut_change_init;
#X connect 1 0 3 0;
#X connect 2 0 5 0;
#X connect 3 0 15 0;
#X connect 4 0 9 0;
#X connect 4 1 10 0;
#X connect 4 2 11 0;
#X connect 5 0 6 0;
#X connect 5 1 4 0;
#X connect 5 2 1 0;
#X connect 6 0 3 0;
#X connect 6 0 12 0;
#X connect 9 0 3 1;
#X connect 10 0 3 1;
#X connect 11 0 3 1;
#X connect 13 0 2 0;
#X connect 15 0 14 0;
#X connect 89 0 92 0;
#X connect 92 0 93 0;
#X connect 93 0 99 0;
#X connect 100 0 101 0;
#X connect 101 0 102 0;
#X connect 102 0 103 0;
#X connect 104 0 106 0;
#X connect 106 0 105 0;
#X connect 107 0 109 0;
#X connect 109 0 108 0;
#X connect 110 0 113 0;
#X connect 111 0 112 0;
#X connect 111 0 115 0;
#X connect 112 0 111 1;
#X connect 113 0 111 0;
#X connect 114 0 111 0;
#X connect 117 0 118 0;
#X connect 118 0 116 0;
#X connect 119 0 117 0;
#X coords 0 -1 1 1 700 124 1 0 0;
#X restore 132 271 pd \$0-gvo;
#N canvas 0 189 1440 657 \$0-visualizer 0;
#X msg 1381 184 0;
#X obj 1254 72 hradio 15 1 0 4 empty empty empty 0 -8 0 10 #fcfcfc
#000000 #000000 0;
#X obj 1467 216 pack f f;
#X obj 1380 86 t f f b;
#X obj 1354 130 != 0;
#X text 1187 186 get's messy without this ->;
#X text 1643 74 https://forum.pdpatchrepo.info/topic/9799/gui-tab-like-question/2
;
#X msg 1534 188 0;
#X msg 1575 189 440;
#X msg 1609 192 880;
#X floatatom 1278 156 5 0 0 0 - - - 0;
#X obj 1244 28 inlet;
#X obj 1349 328 s pd-\$0-visualizer;
#X msg 1461 241 donecanvasdialog 1 -1 \$1 0 -1 1 1 700 80 0 \$2;
#X obj 1 1 cnv 15 698 78 empty empty empty 20 12 0 14 #e4e8e4 #404040
0;
#X obj 634 3 bng 15 250 50 0 empty empty Redraw 17 7 0 10 #00f8fc #000000
#fc8000;
#X obj 741 17 s force_redraw_groove;
#X obj 171 60 hradio 16 1 0 32 empty starting_step_init Starting_Step
-80 7 0 10 #e4f8f8 #000000 #000000 0;
#X obj 10 6 vsl 16 65 0.1 3 0 0 empty groove_vel_scale_init empty 0
-9 0 10 #fcfcfc #000000 #000000 0 0;
#X obj 27 60 nbx 5 14 -1e+37 1e+37 0 0 groove_vel_scale empty Scale_Velocities
0 -8 0 10 #fcfcfc #000000 #000000 0 256;
#X obj 27 84 change;
#X obj 27 104 s groove_vel_scale_init;
#X obj 166 135 s starting_step;
#X obj 166 88 + 1;
#X floatatom 166 112 5 0 0 0 - - - 0;
#X obj 302 78 r half_step_ticks;
#X obj 208 76 r step_ticks;
#X floatatom 208 100 5 0 0 0 - - - 0;
#X floatatom 302 102 5 0 0 0 - - - 0;
#X obj 215 211 s starting_tick_pos;
#X obj 166 157 expr ($f1-1)*$f2+$f3;
#X floatatom 215 188 5 0 0 0 - - - 0;
#X obj 169 233 s force_resend_data_to_py;
#X obj 169 180 t b f;
#N canvas 0 22 450 278 (subpatch) 0;
#X array groove 3072 float 2;
#X coords 0 127 3072 0 512 35 1;
#X restore 170 20 graph;
#X obj 1 441 cnv 15 698 78 empty empty empty 20 12 0 14 #e4e8e4 #404040
0;
#N canvas 0 22 450 278 (subpatch) 0;
#X array onset_tracker 3072 float 2;
#X coords 0 127 3072 0 512 35 1 0 0;
#X restore 170 460 graph;
#X obj 1521 156 sel 1 2 3 4;
#X msg 1647 193 1320;
#X obj 1 881 cnv 15 698 78 empty empty empty 20 12 0 14 #e4e8e4 #404040
0;
#N canvas 0 22 450 278 (subpatch) 0;
#X array onset_histogram 32 float 2;
#X coords 0 127 32 0 512 35 1 0 0;
#X restore 170 900 graph;
#X connect 0 0 2 0;
#X connect 1 0 3 0;
#X connect 2 0 13 0;
#X connect 3 0 4 0;
#X connect 3 1 37 0;
#X connect 3 2 0 0;
#X connect 4 0 2 0;
#X connect 4 0 10 0;
#X connect 7 0 2 1;
#X connect 8 0 2 1;
#X connect 9 0 2 1;
#X connect 11 0 1 0;
#X connect 13 0 12 0;
#X connect 15 0 16 0;
#X connect 17 0 23 0;
#X connect 18 0 19 0;
#X connect 19 0 20 0;
#X connect 20 0 21 0;
#X connect 23 0 24 0;
#X connect 24 0 22 0;
#X connect 24 0 30 0;
#X connect 25 0 28 0;
#X connect 26 0 27 0;
#X connect 27 0 30 1;
#X connect 28 0 30 2;
#X connect 30 0 33 0;
#X connect 31 0 29 0;
#X connect 33 0 32 0;
#X connect 33 1 31 0;
#X connect 37 0 7 0;
#X connect 37 1 8 0;
#X connect 37 2 9 0;
#X connect 37 3 38 0;
#X connect 38 0 2 1;
#X coords 0 -1 1 1 700 80 1 0 0;
#X restore 132 190 pd \$0-visualizer;
#N canvas 186 64 1244 823 \$0-params 0;
#X obj 1 502 cnv 15 698 490 empty empty empty 20 12 0 14 #e4e8e4 #404040
0;
#X obj 1 1 cnv 15 698 490 empty empty empty 20 12 0 14 #e4e8e4 #404040
0;
#X obj 1320 75 inlet;
#X msg 1363 189 0;
#X obj 1200 91 hradio 15 1 0 5 empty empty empty 0 -8 0 10 #fcfcfc
#000000 #000000 0;
#X obj 1357 217 pack f f;
#X obj 1326 105 t f f b;
#X obj 1336 135 != 0;
#X text 1169 191 get's messy without this ->;
#X text 1589 93 https://forum.pdpatchrepo.info/topic/9799/gui-tab-like-question/2
;
#X msg 1424 189 0;
#X obj 3 19 res/see_generated_pattern;
#X msg 1465 190 501;
#X obj 1359 271 s pd-\$0-params;
#X obj 171 552 cnv 15 512 36 empty empty KICK 0 8 0 12 #dcf0f4 #202020
0;
#X obj 170 598 cnv 15 512 36 empty empty SNARE 0 8 0 12 #d8f0d0 #202020
0;
#X obj 170 643 cnv 15 512 36 empty empty HH_CLOSED 0 8 0 12 #fcf4f0
#202020 0;
#X obj 170 691 cnv 15 512 36 empty empty HH_OPEN 0 8 0 12 #f8d4d4 #202020
0;
#X obj 170 739 cnv 15 512 36 empty empty TOM_3_LO 0 8 0 12 #fcfcdc
#202020 0;
#X obj 170 786 cnv 15 512 36 empty empty TOM_2_MID 0 8 0 12 #fcf4ac
#202020 0;
#X obj 170 829 cnv 15 512 36 empty empty TOM_1_HI 0 8 0 12 #fcdc7c
#202020 0;
#X obj 170 876 cnv 15 512 36 empty empty CRASH 0 8 0 12 #34a8b4 #202020
0;
#X obj 170 921 cnv 15 512 36 empty empty RIDE 0 8 0 12 #187cb0 #202020
0;
#X text 266 534 Likelihood;
#X text 391 533 Max Count;
#X text 554 533 Vol;
#X text 555 11 GENERATED PATTERNS;
#X msg 1359 245 donecanvasdialog 1 -1 \$1 0 -1 1 1 700 492 0 \$2;
#X msg 1499 193 1002;
#X obj 1 1003 cnv 15 698 490 empty empty empty 20 12 0 14 #e4e8e4 #404040
0;
#X obj 171 1053 cnv 15 512 36 empty empty KICK 0 8 0 12 #dcf0f4 #202020
0;
#X obj 170 1099 cnv 15 512 36 empty empty SNARE 0 8 0 12 #d8f0d0 #202020
0;
#X obj 170 1144 cnv 15 512 36 empty empty HH_CLOSED 0 8 0 12 #fcf4f0
#202020 0;
#X obj 170 1192 cnv 15 512 36 empty empty HH_OPEN 0 8 0 12 #f8d4d4
#202020 0;
#X obj 170 1240 cnv 15 512 36 empty empty TOM_3_LO 0 8 0 12 #fcfcdc
#202020 0;
#X obj 170 1287 cnv 15 512 36 empty empty TOM_2_MID 0 8 0 12 #fcf4ac
#202020 0;
#X obj 170 1330 cnv 15 512 36 empty empty TOM_1_HI 0 8 0 12 #fcdc7c
#202020 0;
#X obj 170 1377 cnv 15 512 36 empty empty CRASH 0 8 0 12 #34a8b4 #202020
0;
#X obj 170 1422 cnv 15 512 36 empty empty RIDE 0 8 0 12 #187cb0 #202020
0;
#X obj 259 1054 hsl 48 17 0 1 0 0 empty thres_0_in empty -2 -8 0 10
#fcfcfc #000000 #000000 0 0;
#X text 266 1035 Likelihood;
#X floatatom 309 1054 5 0 1 0 - - thres0 0;
#X obj 359 1054 hsl 48 17 0 32 0 0 empty max_count_0_in empty -2 -8
0 10 #fcfcfc #000000 #000000 0 0;
#X floatatom 409 1054 5 0 32 0 - - max_count_0 0;
#X text 381 1034 Max Count;
#X obj 460 1054 hsl 48 17 0 3 0 0 empty vel_scale_0_in empty -2 -8
0 10 #fcfcfc #000000 #000000 0 0;
#X text 494 1034 Vol;
#X floatatom 510 1054 5 0 0 0 - - vel_scale_0 0;
#X obj 259 1100 hsl 48 17 0 1 0 0 empty thres_1_in empty -2 -8 0 10
#fcfcfc #000000 #000000 0 0;
#X floatatom 309 1100 5 0 1 0 - - thres1 0;
#X obj 359 1100 hsl 48 17 0 32 0 0 empty max_count_1_in empty -2 -8
0 10 #fcfcfc #000000 #000000 0 0;
#X floatatom 409 1100 5 0 32 0 - - max_count_1 0;
#X obj 460 1100 hsl 48 17 0 3 0 0 empty vel_scale_1_in empty -2 -8
0 10 #fcfcfc #000000 #000000 0 0;
#X floatatom 510 1100 5 0 0 0 - - vel_scale_1 0;
#X obj 259 1145 hsl 48 17 0 1 0 0 empty thres_2_in empty -2 -8 0 10
#fcfcfc #000000 #000000 0 0;
#X floatatom 309 1145 5 0 1 0 - - thres2 0;
#X obj 359 1145 hsl 48 17 0 32 0 0 empty max_count_2_in empty -2 -8
0 10 #fcfcfc #000000 #000000 0 0;
#X floatatom 409 1145 5 0 32 0 - - max_count_2 0;
#X obj 460 1145 hsl 48 17 0 3 0 0 empty vel_scale_2_in empty -2 -8
0 10 #fcfcfc #000000 #000000 0 0;
#X floatatom 510 1145 5 0 0 0 - - vel_scale_2 0;
#X obj 261 1192 hsl 48 17 0 1 0 0 empty thres_3_in empty -2 -8 0 10
#fcfcfc #000000 #000000 0 0;
#X floatatom 311 1192 5 0 1 0 - - thres3 0;
#X obj 361 1192 hsl 48 17 0 32 0 0 empty max_count_3_in empty -2 -8
0 10 #fcfcfc #000000 #000000 0 0;
#X floatatom 411 1192 5 0 32 0 - - max_count_3 0;
#X obj 462 1192 hsl 48 17 0 3 0 0 empty vel_scale_3_in empty -2 -8
0 10 #fcfcfc #000000 #000000 0 0;
#X floatatom 512 1192 5 0 0 0 - - vel_scale_3 0;
#X obj 260 1242 hsl 48 17 0 1 0 0 empty thres_4_in empty -2 -8 0 10
#fcfcfc #000000 #000000 0 0;
#X floatatom 310 1242 5 0 1 0 - - thres4 0;
#X obj 360 1242 hsl 48 17 0 32 0 0 empty max_count_4_in empty -2 -8
0 10 #fcfcfc #000000 #000000 0 0;
#X floatatom 410 1242 5 0 32 0 - - max_count_4 0;
#X obj 461 1242 hsl 48 17 0 3 0 0 empty vel_scale_4_in empty -2 -8
0 10 #fcfcfc #000000 #000000 0 0;
#X floatatom 511 1242 5 0 0 0 - - vel_scale_4 0;
#X obj 260 1288 hsl 48 17 0 1 0 0 empty thres_5_in empty -2 -8 0 10
#fcfcfc #000000 #000000 0 0;
#X floatatom 310 1288 5 0 1 0 - - thres5 0;
#X obj 360 1288 hsl 48 17 0 32 0 0 empty max_count_5_in empty -2 -8
0 10 #fcfcfc #000000 #000000 0 0;
#X floatatom 410 1288 5 0 32 0 - - max_count_5 0;
#X obj 461 1288 hsl 48 17 0 3 0 0 empty vel_scale_5_in empty -2 -8
0 10 #fcfcfc #000000 #000000 0 0;
#X floatatom 511 1288 5 0 0 0 - - vel_scale_5 0;
#X obj 260 1333 hsl 48 17 0 1 0 0 empty thres_6_in empty -2 -8 0 10
#fcfcfc #000000 #000000 0 0;
#X floatatom 310 1333 5 0 1 0 - - thres6 0;
#X obj 360 1333 hsl 48 17 0 32 0 0 empty max_count_6_in empty -2 -8
0 10 #fcfcfc #000000 #000000 0 0;
#X floatatom 410 1333 5 0 32 0 - - max_count_6 0;
#X obj 461 1333 hsl 48 17 0 3 0 0 empty vel_scale_6_in empty -2 -8
0 10 #fcfcfc #000000 #000000 0 0;
#X floatatom 511 1333 5 0 0 0 - - vel_scale_6 0;
#X obj 262 1379 hsl 48 17 0 1 0 0 empty thres_7_in empty -2 -8 0 10
#fcfcfc #000000 #000000 0 0;
#X floatatom 312 1379 5 0 1 0 - - thres7 0;
#X obj 362 1379 hsl 48 17 0 32 0 0 empty max_count_7_in empty -2 -8
0 10 #fcfcfc #000000 #000000 0 0;
#X floatatom 412 1379 5 0 32 0 - - max_count_7 0;
#X obj 463 1379 hsl 48 17 0 3 0 0 empty vel_scale_7_in empty -2 -8
0 10 #fcfcfc #000000 #000000 0 0;
#X floatatom 513 1379 5 0 0 0 - - vel_scale_7 0;
#X obj 263 1423 hsl 48 17 0 1 0 0 empty thres_8_in empty -2 -8 0 10
#fcfcfc #000000 #000000 0 0;
#X floatatom 313 1423 5 0 1 0 - - thres8 0;
#X obj 363 1423 hsl 48 17 0 32 0 0 empty max_count_8_in empty -2 -8
0 10 #fcfcfc #000000 #000000 0 0;
#X floatatom 413 1423 5 0 32 0 - - max_count_8 0;
#X obj 464 1423 hsl 48 17 0 3 0 0 empty vel_scale_8_in empty -2 -8
0 10 #fcfcfc #000000 #000000 0 0;
#X floatatom 514 1423 5 0 0 0 - - vel_scale_8 0;
#X obj 20 1099 cnv 15 140 36 empty empty empty 0 8 0 12 #d8f0d0 #202020
0;
#X obj 20 1144 cnv 15 140 36 empty empty empty 0 8 0 12 #fcf4f0 #202020
0;
#X obj 20 1192 cnv 15 140 36 empty empty empty 0 8 0 12 #f8d4d4 #202020
0;
#X obj 20 1240 cnv 15 140 36 empty empty empty 0 8 0 12 #fcfcdc #202020
0;
#X obj 20 1287 cnv 15 140 36 empty empty empty 0 8 0 12 #fcf4ac #202020
0;
#X obj 20 1330 cnv 15 140 36 empty empty empty 0 8 0 12 #fcdc7c #202020
0;
#X obj 20 1377 cnv 15 140 36 empty empty empty 0 8 0 12 #34a8b4 #202020
0;
#X obj 20 1422 cnv 15 140 36 empty empty empty 0 8 0 12 #187cb0 #202020
0;
#X floatatom 73 1117 5 0 32 0 - max_count_1 - 0;
#X floatatom 73 1162 5 0 32 0 - max_count_2 - 0;
#X floatatom 73 1210 5 0 32 0 - max_count_3 - 0;
#X floatatom 73 1257 5 0 32 0 - max_count_4 - 0;
#X floatatom 73 1305 5 0 32 0 - max_count_5 - 0;
#X floatatom 73 1348 5 0 32 0 - max_count_6 - 0;
#X floatatom 73 1395 5 0 32 0 - max_count_7 - 0;
#X floatatom 73 1440 5 0 32 0 - max_count_8 - 0;
#X floatatom 33 1117 5 0 1 0 - thres1 - 0;
#X floatatom 33 1162 5 0 1 0 - thres2 - 0;
#X floatatom 33 1210 5 0 1 0 - thres3 - 0;
#X floatatom 33 1257 5 0 1 0 - thres4 - 0;
#X floatatom 33 1305 5 0 1 0 - thres5 - 0;
#X floatatom 33 1348 5 0 1 0 - thres6 - 0;
#X floatatom 33 1395 5 0 1 0 - thres7 - 0;
#X floatatom 33 1440 5 0 1 0 - thres8 - 0;
#X floatatom 115 1117 5 0 3 0 - vel_scale_1 - 0;
#X floatatom 115 1162 5 0 3 0 - vel_scale_2 - 0;
#X floatatom 115 1210 5 0 3 0 - vel_scale_3 - 0;
#X floatatom 115 1257 5 0 3 0 - vel_scale_4 - 0;
#X floatatom 115 1305 5 0 3 0 - vel_scale_5 - 0;
#X floatatom 115 1348 5 0 3 0 - vel_scale_6 - 0;
#X floatatom 115 1395 5 0 3 0 - vel_scale_7 - 0;
#X floatatom 115 1440 5 0 3 0 - vel_scale_8 - 0;
#X obj -370 1133 change;
#X obj -369 1180 change;
#X obj -369 1228 change;
#X obj -370 1152 s thres_1_in;
#X obj -369 1199 s thres_2_in;
#X obj -369 1247 s thres_3_in;
#X obj -368 1274 change;
#X obj -368 1293 s thres_4_in;
#X obj -368 1321 change;
#X obj -368 1365 change;
#X obj -367 1413 change;
#X obj -367 1457 change;
#X obj -368 1340 s thres_5_in;
#X obj -368 1384 s thres_6_in;
#X obj -367 1432 s thres_7_in;
#X obj -367 1476 s thres_8_in;
#X obj -276 1134 change;
#X obj -275 1181 change;
#X obj -275 1229 change;
#X obj -274 1275 change;
#X obj -274 1322 change;
#X obj -274 1366 change;
#X obj -273 1414 change;
#X obj -273 1458 change;
#X obj -276 1153 s max_count_1_in;
#X obj -275 1200 s max_count_2_in;
#X obj -275 1247 s max_count_3_in;
#X obj -274 1294 s max_count_4_in;
#X obj -274 1341 s max_count_5_in;
#X obj -274 1385 s max_count_6_in;
#X obj -273 1433 s max_count_7_in;
#X obj -273 1477 s max_count_8_in;
#X obj -151 1134 change;
#X obj -150 1181 change;
#X obj -150 1229 change;
#X obj -149 1275 change;
#X obj -149 1322 change;
#X obj -149 1366 change;
#X obj -148 1414 change;
#X obj -148 1458 change;
#X obj -151 1152 s vel_scale_1_in;
#X obj -150 1200 s vel_scale_2_in;
#X obj -150 1247 s vel_scale_3_in;
#X obj -149 1294 s vel_scale_4_in;
#X obj -149 1341 s vel_scale_5_in;
#X obj -149 1385 s vel_scale_6_in;
#X obj -148 1433 s vel_scale_7_in;
#X obj -148 1477 s vel_scale_8_in;
#X obj 21 1054 cnv 15 140 36 empty empty empty 0 8 0 12 #dcf0f4 #202020
0;
#X floatatom 73 1070 5 0 32 0 - max_count_0 - 0;
#X floatatom 33 1070 5 0 1 0 - thres0 - 0;
#X floatatom 115 1070 5 0 3 0 - vel_scale_0 - 0;
#X obj -370 1086 change;
#X obj -370 1105 s thres_0_in;
#X obj -276 1087 change;
#X obj -276 1106 s max_count_0_in;
#X obj -151 1087 change;
#X obj -151 1106 s vel_scale_0_in;
#X obj 34 1040 cnv 9 34 13 empty empty Likelihood 0 6 2 8 #000000 #fcfcfc
0;
#X obj 74 1040 cnv 9 34 13 empty empty MaxCount 0 6 2 8 #000000 #fcfcfc
0;
#X text 533 1014 GENERATION PARAMETERS;
#N canvas 0 23 1546 1124 midi_mapper 0;
#X obj 62 303 s thres_0_in;
#X obj 62 189 r thres0;
#X obj 106 103 hradio 10 1 0 2 empty empty empty 0 -8 0 6 #e0c4fc #000000
#000000 0;
#X obj 136 103 tgl 10 0 empty empty empty 20 7 0 10 #e0c4fc #000000
#000000 0 1;
#X obj 131 411 s thres0_ccNum_channelPort;
#X obj 62 171 r thres0_ccNum_channelPort_r;
#X obj 62 226 r thres0_cc_type_r;
#X obj 107 115 s thres0_cc_type;
#X obj 62 208 r trs_stepSize_min_max;
#X obj 163 104 nbx 2 8 -1e+37 1e+37 0 1 empty empty ccnum -14 4 0 4
#e0c4fc #000000 #000000 13 256;
#X obj 198 104 nbx 2 8 -1e+37 1e+37 0 1 empty empty Channel -18 4 0
4 #e0c4fc #000000 #000000 1 256;
#X obj 193 46 unpack;
#X floatatom 225 277 5 0 0 0 - - - 0;
#X obj 62 258 res/midi_cc_block_endlessEncoder_or_potentiometerSlider
;
#X connect 1 0 13 2;
#X connect 2 0 7 0;
#X connect 2 0 13 0;
#X connect 3 0 13 4;
#X connect 5 0 11 0;
#X connect 5 0 13 3;
#X connect 6 0 2 0;
#X connect 8 0 13 1;
#X connect 11 0 9 0;
#X connect 11 1 10 0;
#X connect 13 0 0 0;
#X connect 13 1 11 0;
#X connect 13 1 12 0;
#X connect 13 1 4 0;
#X connect 13 2 3 0;
#X coords 0 -1 1 1 116 15 2 100 100;
#X restore 238 561 pd midi_mapper;
#X obj 238 577 cnv 4 110 8 empty empty Select_(1)_EndlessEncoder_(2)_Slider/Pot
0 4 0 4 #202020 #fcfcfc 0;
#X obj 272 553 cnv 4 15 8 empty empty Learn 2 4 0 4 #202020 #fcfcfc
0;
#X obj 20 598 cnv 15 140 36 empty empty empty 0 8 0 12 #d8f0d0 #202020
0;
#X obj 20 643 cnv 15 140 36 empty empty empty 0 8 0 12 #fcf4f0 #202020
0;
#X obj 20 691 cnv 15 140 36 empty empty empty 0 8 0 12 #f8d4d4 #202020
0;
#X obj 20 739 cnv 15 140 36 empty empty empty 0 8 0 12 #fcfcdc #202020
0;
#X obj 20 786 cnv 15 140 36 empty empty empty 0 8 0 12 #fcf4ac #202020
0;
#X obj 20 829 cnv 15 140 36 empty empty empty 0 8 0 12 #fcdc7c #202020
0;
#X obj 20 876 cnv 15 140 36 empty empty empty 0 8 0 12 #34a8b4 #202020
0;
#X obj 20 921 cnv 15 140 36 empty empty empty 0 8 0 12 #187cb0 #202020
0;
#X floatatom 73 616 5 0 32 0 - max_count_1 - 0;
#X floatatom 73 661 5 0 32 0 - max_count_2 - 0;
#X floatatom 73 709 5 0 32 0 - max_count_3 - 0;
#X floatatom 73 756 5 0 32 0 - max_count_4 - 0;
#X floatatom 73 804 5 0 32 0 - max_count_5 - 0;
#X floatatom 73 847 5 0 32 0 - max_count_6 - 0;
#X floatatom 73 894 5 0 32 0 - max_count_7 - 0;
#X floatatom 73 939 5 0 32 0 - max_count_8 - 0;
#X floatatom 33 616 5 0 1 0 - thres1 - 0;
#X floatatom 33 661 5 0 1 0 - thres2 - 0;
#X floatatom 33 709 5 0 1 0 - thres3 - 0;
#X floatatom 33 756 5 0 1 0 - thres4 - 0;
#X floatatom 33 804 5 0 1 0 - thres5 - 0;
#X floatatom 33 847 5 0 1 0 - thres6 - 0;
#X floatatom 33 894 5 0 1 0 - thres7 - 0;
#X floatatom 33 939 5 0 1 0 - thres8 - 0;
#X floatatom 115 616 5 0 3 0 - vel_scale_1 - 0;
#X floatatom 115 661 5 0 3 0 - vel_scale_2 - 0;
#X floatatom 115 709 5 0 3 0 - vel_scale_3 - 0;
#X floatatom 115 756 5 0 3 0 - vel_scale_4 - 0;
#X floatatom 115 804 5 0 3 0 - vel_scale_5 - 0;
#X floatatom 115 847 5 0 3 0 - vel_scale_6 - 0;
#X floatatom 115 894 5 0 3 0 - vel_scale_7 - 0;
#X floatatom 115 939 5 0 3 0 - vel_scale_8 - 0;
#X obj -370 632 change;
#X obj -369 679 change;
#X obj -369 727 change;
#X obj -370 651 s thres_1_in;
#X obj -369 698 s thres_2_in;
#X obj -369 746 s thres_3_in;
#X obj -368 773 change;
#X obj -368 792 s thres_4_in;
#X obj -368 820 change;
#X obj -368 864 change;
#X obj -367 912 change;
#X obj -367 956 change;
#X obj -368 839 s thres_5_in;
#X obj -368 883 s thres_6_in;
#X obj -367 931 s thres_7_in;
#X obj -367 975 s thres_8_in;
#X obj -276 633 change;
#X obj -275 680 change;
#X obj -275 728 change;
#X obj -274 774 change;
#X obj -274 821 change;
#X obj -274 865 change;
#X obj -273 913 change;
#X obj -273 957 change;
#X obj -276 652 s max_count_1_in;
#X obj -275 699 s max_count_2_in;
#X obj -275 746 s max_count_3_in;
#X obj -274 793 s max_count_4_in;
#X obj -274 840 s max_count_5_in;
#X obj -274 884 s max_count_6_in;
#X obj -273 932 s max_count_7_in;
#X obj -273 976 s max_count_8_in;
#X obj -151 633 change;
#X obj -150 680 change;
#X obj -150 728 change;
#X obj -149 774 change;
#X obj -149 821 change;
#X obj -149 865 change;
#X obj -148 913 change;
#X obj -148 957 change;
#X obj -151 651 s vel_scale_1_in;
#X obj -150 699 s vel_scale_2_in;
#X obj -150 746 s vel_scale_3_in;
#X obj -149 793 s vel_scale_4_in;
#X obj -149 840 s vel_scale_5_in;
#X obj -149 884 s vel_scale_6_in;
#X obj -148 932 s vel_scale_7_in;
#X obj -148 976 s vel_scale_8_in;
#X obj 21 553 cnv 15 140 36 empty empty empty 0 8 0 12 #dcf0f4 #202020
0;
#X floatatom 73 569 5 0 32 0 - max_count_0 - 0;
#X floatatom 33 569 5 0 1 0 - thres0 - 0;
#X floatatom 115 569 5 0 3 0 - vel_scale_0 - 0;
#X obj -370 585 change;
#X obj -370 604 s thres_0_in;
#X obj -276 586 change;
#X obj -276 605 s max_count_0_in;
#X obj -151 586 change;
#X obj -151 605 s vel_scale_0_in;
#N canvas 0 23 960 1125 midi_mapper 0;
#X obj 107 103 hradio 10 1 0 2 empty empty empty 0 -8 0 6 #e0c4fc #000000
#000000 0;
#X obj 136 103 tgl 10 0 empty empty empty 20 7 0 10 #e0c4fc #000000
#000000 0 1;
#X obj 163 104 nbx 2 8 -1e+37 1e+37 0 1 empty empty ccnum -14 4 0 4
#e0c4fc #000000 #000000 12 256;
#X obj 198 104 nbx 2 8 -1e+37 1e+37 0 1 empty empty Channel -18 4 0
4 #e0c4fc #000000 #000000 1 256;
#X obj 193 46 unpack;
#X floatatom 206 617 5 0 0 0 - - - 0;
#X obj 107 115 s max_count_0_cc_type;
#X obj 101 165 r max_count_0_ccNum_channelPort_r;
#X obj 73 187 r max_count_0;
#X obj 62 208 r max_count_stepSize_min_max;
#X obj 62 226 r max_count_0_cc_type_r;
#X obj 61 527 s max_count_0_in;
#X obj 126 555 s max_count_0_ccNum_channelPort;
#X obj 62 258 res/midi_cc_block_endlessEncoder_or_potentiometerSlider
;
#X connect 0 0 6 0;
#X connect 0 0 13 0;
#X connect 1 0 13 4;
#X connect 4 0 2 0;
#X connect 4 1 3 0;
#X connect 7 0 4 0;
#X connect 7 0 13 3;
#X connect 8 0 13 2;
#X connect 9 0 13 1;
#X connect 10 0 0 0;
#X connect 13 0 11 0;
#X connect 13 1 4 0;
#X connect 13 1 5 0;
#X connect 13 1 12 0;
#X connect 13 2 1 0;
#X coords 0 -1 1 1 116 15 2 100 100;
#X restore 372 561 pd midi_mapper;
#N canvas 720 23 720 825 midi_mapper 0;
#X obj 107 103 hradio 10 1 0 2 empty empty empty 0 -8 0 6 #e0c4fc #000000
#000000 0;
#X obj 136 103 tgl 10 0 empty empty empty 20 7 0 10 #e0c4fc #000000
#000000 0 1;
#X obj 163 104 nbx 2 8 -1e+37 1e+37 0 1 empty empty ccnum -14 4 0 4
#e0c4fc #000000 #000000 31 256;
#X obj 198 104 nbx 2 8 -1e+37 1e+37 0 1 empty empty Channel -18 4 0
4 #e0c4fc #000000 #000000 1 256;
#X obj 193 46 unpack;
#X floatatom 225 277 5 0 0 0 - - - 0;
#X obj 107 115 s vel_scale_0_cc_type;
#X obj 62 171 r vel_scale_0_ccNum_channelPort_r;
#X obj 62 189 r vel_scale_0;
#X obj 62 226 r vel_scale_0_cc_type_r;
#X obj 62 303 s vel_scale_0_in;
#X obj 127 331 s vel_scale_0_ccNum_channelPort;
#X obj 62 208 r vel_scale_stepSize_min_max;
#X obj 62 258 res/midi_cc_block_endlessEncoder_or_potentiometerSlider
;
#X connect 0 0 6 0;
#X connect 0 0 13 0;
#X connect 1 0 13 4;
#X connect 4 0 2 0;
#X connect 4 1 3 0;
#X connect 7 0 4 0;
#X connect 7 0 13 3;
#X connect 8 0 13 2;
#X connect 9 0 0 0;
#X connect 12 0 13 1;
#X connect 13 0 10 0;
#X connect 13 1 4 0;
#X connect 13 1 5 0;
#X connect 13 1 11 0;
#X connect 13 2 1 0;
#X coords 0 -1 1 1 116 15 2 100 100;
#X restore 506 561 pd midi_mapper;
#N canvas 0 23 1546 1124 midi_mapper 0;
#X obj 106 103 hradio 10 1 0 2 empty empty empty 0 -8 0 6 #e0c4fc #000000
#000000 0;
#X obj 136 103 tgl 10 0 empty empty empty 20 7 0 10 #e0c4fc #000000
#000000 0 1;
#X obj 62 208 r trs_stepSize_min_max;
#X obj 163 104 nbx 2 8 -1e+37 1e+37 0 1 empty empty ccnum -14 4 0 4
#e0c4fc #000000 #000000 14 256;
#X obj 198 104 nbx 2 8 -1e+37 1e+37 0 1 empty empty Channel -18 4 0
4 #e0c4fc #000000 #000000 2 256;
#X obj 193 46 unpack;
#X floatatom 225 277 5 0 0 0 - - - 0;
#X obj 62 258 res/midi_cc_block_endlessEncoder_or_potentiometerSlider
;
#X obj 107 115 s thres1_cc_type;
#X obj 62 171 r thres1_ccNum_channelPort_r;
#X obj 62 189 r thres1;
#X obj 62 226 r thres1_cc_type_r;
#X obj 62 303 s thres_1_in;
#X obj 131 411 s thres1_ccNum_channelPort;
#X connect 0 0 8 0;
#X connect 0 0 7 0;
#X connect 1 0 7 4;
#X connect 2 0 7 1;
#X connect 5 0 3 0;
#X connect 5 1 4 0;
#X connect 7 0 12 0;
#X connect 7 1 5 0;
#X connect 7 1 6 0;
#X connect 7 1 13 0;
#X connect 7 2 1 0;
#X connect 9 0 5 0;
#X connect 9 0 7 3;
#X connect 10 0 7 2;
#X connect 11 0 0 0;
#X coords 0 -1 1 1 116 15 2 100 100;
#X restore 238 608 pd midi_mapper;
#N canvas 720 23 720 825 midi_mapper 0;
#X obj 107 103 hradio 10 1 0 2 empty empty empty 0 -8 0 6 #e0c4fc #000000
#000000 0;
#X obj 136 103 tgl 10 0 empty empty empty 20 7 0 10 #e0c4fc #000000
#000000 0 1;
#X obj 163 104 nbx 2 8 -1e+37 1e+37 0 1 empty empty ccnum -14 4 0 4
#e0c4fc #000000 #000000 12 256;
#X obj 198 104 nbx 2 8 -1e+37 1e+37 0 1 empty empty Channel -18 4 0
4 #e0c4fc #000000 #000000 2 256;
#X obj 193 46 unpack;
#X floatatom 225 277 5 0 0 0 - - - 0;
#X obj 62 208 r max_count_stepSize_min_max;
#X obj 62 258 res/midi_cc_block_endlessEncoder_or_potentiometerSlider
;
#X obj 107 115 s max_count_1_cc_type;
#X obj 62 171 r max_count_1_ccNum_channelPort_r;
#X obj 62 189 r max_count_1;
#X obj 62 226 r max_count_1_cc_type_r;
#X obj 62 313 s max_count_1_in;
#X obj 127 331 s max_count_1_ccNum_channelPort;
#X obj 62 292 / 1;
#X connect 0 0 8 0;
#X connect 0 0 7 0;
#X connect 1 0 7 4;
#X connect 4 0 2 0;
#X connect 4 1 3 0;
#X connect 6 0 7 1;
#X connect 7 0 14 0;
#X connect 7 1 4 0;
#X connect 7 1 5 0;
#X connect 7 1 13 0;
#X connect 7 2 1 0;
#X connect 9 0 4 0;
#X connect 9 0 7 3;
#X connect 10 0 7 2;
#X connect 11 0 0 0;
#X connect 14 0 12 0;
#X coords 0 -1 1 1 116 15 2 100 100;
#X restore 372 608 pd midi_mapper;
#N canvas 720 23 720 825 midi_mapper 0;
#X obj 107 103 hradio 10 1 0 2 empty empty empty 0 -8 0 6 #e0c4fc #000000
#000000 0;
#X obj 136 103 tgl 10 0 empty empty empty 20 7 0 10 #e0c4fc #000000
#000000 0 1;
#X obj 163 104 nbx 2 8 -1e+37 1e+37 0 1 empty empty ccnum -14 4 0 4
#e0c4fc #000000 #000000 31 256;
#X obj 198 104 nbx 2 8 -1e+37 1e+37 0 1 empty empty Channel -18 4 0
4 #e0c4fc #000000 #000000 2 256;
#X obj 193 46 unpack;
#X floatatom 225 277 5 0 0 0 - - - 0;
#X obj 62 208 r vel_scale_stepSize_min_max;
#X obj 62 258 res/midi_cc_block_endlessEncoder_or_potentiometerSlider
;
#X obj 62 171 r vel_scale_1_ccNum_channelPort_r;
#X obj 62 189 r vel_scale_1;
#X obj 62 226 r vel_scale_1_cc_type_r;
#X obj 107 115 s vel_scale_1_cc_type;
#X obj 62 303 s vel_scale_1_in;
#X obj 127 331 s vel_scale_1_ccNum_channelPort;
#X connect 0 0 11 0;
#X connect 0 0 7 0;
#X connect 1 0 7 4;
#X connect 4 0 2 0;
#X connect 4 1 3 0;
#X connect 6 0 7 1;
#X connect 7 0 12 0;
#X connect 7 1 4 0;
#X connect 7 1 5 0;
#X connect 7 1 13 0;
#X connect 7 2 1 0;
#X connect 8 0 4 0;
#X connect 8 0 7 3;
#X connect 9 0 7 2;
#X connect 10 0 0 0;
#X coords 0 -1 1 1 116 15 2 100 100;
#X restore 506 608 pd midi_mapper;
#N canvas 0 23 1546 1124 midi_mapper 0;
#X obj 106 103 hradio 10 1 0 2 empty empty empty 0 -8 0 6 #e0c4fc #000000
#000000 0;
#X obj 136 103 tgl 10 0 empty empty empty 20 7 0 10 #e0c4fc #000000
#000000 0 1;
#X obj 62 208 r trs_stepSize_min_max;
#X obj 163 104 nbx 2 8 -1e+37 1e+37 0 1 empty empty ccnum -14 4 0 4
#e0c4fc #000000 #000000 15 256;
#X obj 198 104 nbx 2 8 -1e+37 1e+37 0 1 empty empty Channel -18 4 0
4 #e0c4fc #000000 #000000 3 256;
#X obj 193 46 unpack;
#X floatatom 225 277 5 0 0 0 - - - 0;
#X obj 62 258 res/midi_cc_block_endlessEncoder_or_potentiometerSlider
;
#X obj 107 115 s thres2_cc_type;
#X obj 62 171 r thres2_ccNum_channelPort_r;
#X obj 62 189 r thres2;
#X obj 62 226 r thres2_cc_type_r;
#X obj 62 303 s thres_2_in;
#X obj 131 411 s thres2_ccNum_channelPort;
#X connect 0 0 8 0;
#X connect 0 0 7 0;
#X connect 1 0 7 4;
#X connect 2 0 7 1;
#X connect 5 0 3 0;
#X connect 5 1 4 0;
#X connect 7 0 12 0;
#X connect 7 1 5 0;
#X connect 7 1 6 0;
#X connect 7 1 13 0;
#X connect 7 2 1 0;
#X connect 9 0 5 0;
#X connect 9 0 7 3;
#X connect 10 0 7 2;
#X connect 11 0 0 0;
#X coords 0 -1 1 1 116 15 2 100 100;
#X restore 238 653 pd midi_mapper;
#N canvas 720 23 720 825 midi_mapper 0;
#X obj 107 103 hradio 10 1 0 2 empty empty empty 0 -8 0 6 #e0c4fc #000000
#000000 0;
#X obj 136 103 tgl 10 0 empty empty empty 20 7 0 10 #e0c4fc #000000
#000000 0 1;
#X obj 163 104 nbx 2 8 -1e+37 1e+37 0 1 empty empty ccnum -14 4 0 4
#e0c4fc #000000 #000000 12 256;
#X obj 198 104 nbx 2 8 -1e+37 1e+37 0 1 empty empty Channel -18 4 0
4 #e0c4fc #000000 #000000 3 256;
#X obj 193 46 unpack;
#X floatatom 225 277 5 0 0 0 - - - 0;
#X obj 62 208 r max_count_stepSize_min_max;
#X obj 62 258 res/midi_cc_block_endlessEncoder_or_potentiometerSlider
;
#X obj 107 115 s max_count_2_cc_type;
#X obj 62 171 r max_count_2_ccNum_channelPort_r;
#X obj 62 189 r max_count_2;
#X obj 62 226 r max_count_2_cc_type_r;
#X obj 127 331 s max_count_2_ccNum_channelPort;
#X obj 62 313 s max_count_2_in;
#X obj 62 292 / 1;
#X connect 0 0 8 0;
#X connect 0 0 7 0;
#X connect 1 0 7 4;
#X connect 4 0 2 0;
#X connect 4 1 3 0;
#X connect 6 0 7 1;
#X connect 7 0 14 0;
#X connect 7 1 4 0;
#X connect 7 1 5 0;
#X connect 7 1 12 0;
#X connect 7 2 1 0;
#X connect 9 0 4 0;
#X connect 9 0 7 3;
#X connect 10 0 7 2;
#X connect 11 0 0 0;
#X connect 14 0 13 0;
#X coords 0 -1 1 1 116 15 2 100 100;
#X restore 372 653 pd midi_mapper;
#N canvas 720 23 720 825 midi_mapper 0;
#X obj 107 103 hradio 10 1 0 2 empty empty empty 0 -8 0 6 #e0c4fc #000000
#000000 0;
#X obj 136 103 tgl 10 0 empty empty empty 20 7 0 10 #e0c4fc #000000
#000000 0 1;
#X obj 163 104 nbx 2 8 -1e+37 1e+37 0 1 empty empty ccnum -14 4 0 4
#e0c4fc #000000 #000000 31 256;
#X obj 198 104 nbx 2 8 -1e+37 1e+37 0 1 empty empty Channel -18 4 0
4 #e0c4fc #000000 #000000 3 256;
#X obj 193 46 unpack;
#X floatatom 225 277 5 0 0 0 - - - 0;
#X obj 62 208 r vel_scale_stepSize_min_max;
#X obj 62 258 res/midi_cc_block_endlessEncoder_or_potentiometerSlider
;
#X obj 107 115 s vel_scale_2_cc_type;
#X obj 62 171 r vel_scale_2_ccNum_channelPort_r;
#X obj 62 189 r vel_scale_2;
#X obj 62 226 r vel_scale_2_cc_type_r;
#X obj 62 303 s vel_scale_2_in;
#X obj 127 331 s vel_scale_2_ccNum_channelPort;
#X connect 0 0 8 0;
#X connect 0 0 7 0;
#X connect 1 0 7 4;
#X connect 4 0 2 0;
#X connect 4 1 3 0;
#X connect 6 0 7 1;
#X connect 7 0 12 0;
#X connect 7 1 4 0;
#X connect 7 1 5 0;
#X connect 7 1 13 0;
#X connect 7 2 1 0;
#X connect 9 0 4 0;
#X connect 9 0 7 3;
#X connect 10 0 7 2;
#X connect 11 0 0 0;
#X coords 0 -1 1 1 116 15 2 100 100;
#X restore 506 653 pd midi_mapper;
#N canvas 0 23 1546 1124 midi_mapper 0;
#X obj 106 103 hradio 10 1 0 2 empty empty empty 0 -8 0 6 #e0c4fc #000000
#000000 0;
#X obj 136 103 tgl 10 0 empty empty empty 20 7 0 10 #e0c4fc #000000
#000000 0 1;
#X obj 62 208 r trs_stepSize_min_max;
#X obj 163 104 nbx 2 8 -1e+37 1e+37 0 1 empty empty ccnum -14 4 0 4
#e0c4fc #000000 #000000 16 256;
#X obj 198 104 nbx 2 8 -1e+37 1e+37 0 1 empty empty Channel -18 4 0
4 #e0c4fc #000000 #000000 4 256;
#X obj 193 46 unpack;
#X floatatom 225 277 5 0 0 0 - - - 0;
#X obj 62 258 res/midi_cc_block_endlessEncoder_or_potentiometerSlider
;
#X obj 107 115 s thres3_cc_type;
#X obj 62 171 r thres3_ccNum_channelPort_r;
#X obj 62 189 r thres3;
#X obj 62 226 r thres3_cc_type_r;
#X obj 62 303 s thres_3_in;
#X obj 131 411 s thres3_ccNum_channelPort;
#X connect 0 0 8 0;
#X connect 0 0 7 0;
#X connect 1 0 7 4;
#X connect 2 0 7 1;
#X connect 5 0 3 0;
#X connect 5 1 4 0;
#X connect 7 0 12 0;
#X connect 7 1 6 0;
#X connect 7 1 13 0;
#X connect 7 1 5 0;
#X connect 7 2 1 0;
#X connect 9 0 5 0;
#X connect 9 0 7 3;
#X connect 10 0 7 2;
#X connect 11 0 0 0;
#X coords 0 -1 1 1 116 15 2 100 100;
#X restore 238 702 pd midi_mapper;
#N canvas 720 23 720 825 midi_mapper 0;
#X obj 107 103 hradio 10 1 0 2 empty empty empty 0 -8 0 6 #e0c4fc #000000
#000000 0;
#X obj 136 103 tgl 10 0 empty empty empty 20 7 0 10 #e0c4fc #000000
#000000 0 1;
#X obj 163 104 nbx 2 8 -1e+37 1e+37 0 1 empty empty ccnum -14 4 0 4
#e0c4fc #000000 #000000 12 256;
#X obj 198 104 nbx 2 8 -1e+37 1e+37 0 1 empty empty Channel -18 4 0
4 #e0c4fc #000000 #000000 4 256;
#X obj 193 46 unpack;
#X floatatom 225 277 5 0 0 0 - - - 0;
#X obj 62 208 r max_count_stepSize_min_max;
#X obj 62 258 res/midi_cc_block_endlessEncoder_or_potentiometerSlider
;
#X obj 107 115 s max_count_3_cc_type;
#X obj 62 171 r max_count_3_ccNum_channelPort_r;
#X obj 62 189 r max_count_3;
#X obj 62 226 r max_count_3_cc_type_r;
#X obj 62 314 s max_count_3_in;
#X obj 127 331 s max_count_3_ccNum_channelPort;
#X obj 62 285 / 1;
#X connect 0 0 8 0;
#X connect 0 0 7 0;
#X connect 1 0 7 4;
#X connect 4 0 2 0;
#X connect 4 1 3 0;
#X connect 6 0 7 1;
#X connect 7 0 14 0;
#X connect 7 1 4 0;
#X connect 7 1 5 0;
#X connect 7 1 13 0;
#X connect 7 2 1 0;
#X connect 9 0 4 0;
#X connect 9 0 7 3;
#X connect 10 0 7 2;
#X connect 11 0 0 0;
#X connect 14 0 12 0;
#X coords 0 -1 1 1 116 15 2 100 100;
#X restore 372 702 pd midi_mapper;
#N canvas 720 23 720 825 midi_mapper 0;
#X obj 107 103 hradio 10 1 0 2 empty empty empty 0 -8 0 6 #e0c4fc #000000
#000000 0;
#X obj 136 103 tgl 10 0 empty empty empty 20 7 0 10 #e0c4fc #000000
#000000 0 1;
#X obj 163 104 nbx 2 8 -1e+37 1e+37 0 1 empty empty ccnum -14 4 0 4
#e0c4fc #000000 #000000 31 256;
#X obj 198 104 nbx 2 8 -1e+37 1e+37 0 1 empty empty Channel -18 4 0
4 #e0c4fc #000000 #000000 4 256;
#X obj 193 46 unpack;
#X floatatom 225 277 5 0 0 0 - - - 0;
#X obj 62 208 r vel_scale_stepSize_min_max;
#X obj 62 258 res/midi_cc_block_endlessEncoder_or_potentiometerSlider
;
#X obj 107 115 s vel_scale_3_cc_type;
#X obj 62 171 r vel_scale_3_ccNum_channelPort_r;
#X obj 62 189 r vel_scale_3;
#X obj 62 226 r vel_scale_3_cc_type_r;
#X obj 62 303 s vel_scale_3_in;
#X obj 127 331 s vel_scale_3_ccNum_channelPort;
#X connect 0 0 8 0;
#X connect 0 0 7 0;
#X connect 1 0 7 4;
#X connect 4 0 2 0;
#X connect 4 1 3 0;
#X connect 6 0 7 1;
#X connect 7 0 12 0;
#X connect 7 1 4 0;
#X connect 7 1 5 0;
#X connect 7 1 13 0;
#X connect 7 2 1 0;
#X connect 9 0 4 0;
#X connect 9 0 7 3;
#X connect 10 0 7 2;
#X connect 11 0 0 0;
#X coords 0 -1 1 1 116 15 2 100 100;
#X restore 506 702 pd midi_mapper;
#N canvas 0 23 1546 1124 midi_mapper 0;
#X obj 106 103 hradio 10 1 0 2 empty empty empty 0 -8 0 6 #e0c4fc #000000
#000000 0;
#X obj 136 103 tgl 10 0 empty empty empty 20 7 0 10 #e0c4fc #000000
#000000 0 1;
#X obj 62 208 r trs_stepSize_min_max;
#X obj 163 104 nbx 2 8 -1e+37 1e+37 0 1 empty empty ccnum -14 4 0 4
#e0c4fc #000000 #000000 17 256;
#X obj 198 104 nbx 2 8 -1e+37 1e+37 0 1 empty empty Channel -18 4 0
4 #e0c4fc #000000 #000000 5 256;
#X obj 193 46 unpack;
#X floatatom 225 277 5 0 0 0 - - - 0;
#X obj 62 258 res/midi_cc_block_endlessEncoder_or_potentiometerSlider
;
#X obj 107 115 s thres4_cc_type;
#X obj 62 171 r thres4_ccNum_channelPort_r;
#X obj 62 189 r thres4;
#X obj 62 226 r thres4_cc_type_r;
#X obj 62 303 s thres_4_in;
#X obj 131 411 s thres4_ccNum_channelPort;
#X connect 0 0 8 0;
#X connect 0 0 7 0;
#X connect 1 0 7 4;
#X connect 2 0 7 1;
#X connect 5 0 3 0;
#X connect 5 1 4 0;
#X connect 7 0 12 0;
#X connect 7 1 5 0;
#X connect 7 1 6 0;
#X connect 7 1 13 0;
#X connect 7 2 1 0;
#X connect 9 0 5 0;
#X connect 9 0 7 3;
#X connect 10 0 7 2;
#X connect 11 0 0 0;
#X coords 0 -1 1 1 116 15 2 100 100;
#X restore 238 750 pd midi_mapper;
#N canvas 720 23 720 825 midi_mapper 0;
#X obj 107 103 hradio 10 1 0 2 empty empty empty 0 -8 0 6 #e0c4fc #000000
#000000 0;
#X obj 136 103 tgl 10 0 empty empty empty 20 7 0 10 #e0c4fc #000000
#000000 0 1;
#X obj 163 104 nbx 2 8 -1e+37 1e+37 0 1 empty empty ccnum -14 4 0 4
#e0c4fc #000000 #000000 12 256;
#X obj 198 104 nbx 2 8 -1e+37 1e+37 0 1 empty empty Channel -18 4 0
4 #e0c4fc #000000 #000000 5 256;
#X obj 193 46 unpack;
#X floatatom 225 277 5 0 0 0 - - - 0;
#X obj 62 208 r max_count_stepSize_min_max;
#X obj 62 258 res/midi_cc_block_endlessEncoder_or_potentiometerSlider
;
#X obj 107 115 s max_count_4_cc_type;
#X obj 62 171 r max_count_4_ccNum_channelPort_r;
#X obj 62 189 r max_count_4;
#X obj 62 226 r max_count_4_cc_type_r;
#X obj 62 313 s max_count_4_in;
#X obj 127 331 s max_count_4_ccNum_channelPort;
#X obj 62 284 / 1;
#X connect 0 0 8 0;
#X connect 0 0 7 0;
#X connect 1 0 7 4;
#X connect 4 0 2 0;
#X connect 4 1 3 0;
#X connect 6 0 7 1;
#X connect 7 0 14 0;
#X connect 7 1 4 0;
#X connect 7 1 5 0;
#X connect 7 1 13 0;
#X connect 7 2 1 0;
#X connect 9 0 4 0;
#X connect 9 0 7 3;
#X connect 10 0 7 2;
#X connect 11 0 0 0;
#X connect 14 0 12 0;
#X coords 0 -1 1 1 116 15 2 100 100;
#X restore 372 750 pd midi_mapper;
#N canvas 720 23 720 825 midi_mapper 0;
#X obj 107 103 hradio 10 1 0 2 empty empty empty 0 -8 0 6 #e0c4fc #000000
#000000 0;
#X obj 136 103 tgl 10 0 empty empty empty 20 7 0 10 #e0c4fc #000000
#000000 0 1;
#X obj 163 104 nbx 2 8 -1e+37 1e+37 0 1 empty empty ccnum -14 4 0 4
#e0c4fc #000000 #000000 31 256;
#X obj 198 104 nbx 2 8 -1e+37 1e+37 0 1 empty empty Channel -18 4 0
4 #e0c4fc #000000 #000000 5 256;
#X obj 193 46 unpack;
#X floatatom 225 277 5 0 0 0 - - - 0;
#X obj 62 208 r vel_scale_stepSize_min_max;
#X obj 62 258 res/midi_cc_block_endlessEncoder_or_potentiometerSlider
;
#X obj 107 115 s vel_scale_4_cc_type;
#X obj 62 171 r vel_scale_4_ccNum_channelPort_r;
#X obj 62 189 r vel_scale_4;
#X obj 62 226 r vel_scale_4_cc_type_r;
#X obj 62 303 s vel_scale_4_in;
#X obj 127 331 s vel_scale_4_ccNum_channelPort;
#X connect 0 0 8 0;
#X connect 0 0 7 0;
#X connect 1 0 7 4;
#X connect 4 0 2 0;
#X connect 4 1 3 0;
#X connect 6 0 7 1;
#X connect 7 0 12 0;
#X connect 7 1 4 0;
#X connect 7 1 5 0;
#X connect 7 1 13 0;
#X connect 7 2 1 0;
#X connect 9 0 4 0;
#X connect 9 0 7 3;
#X connect 10 0 7 2;
#X connect 11 0 0 0;
#X coords 0 -1 1 1 116 15 2 100 100;
#X restore 506 750 pd midi_mapper;
#N canvas 629 -984 1546 1035 midi_mapper 0;
#X obj 106 103 hradio 10 1 0 2 empty empty empty 0 -8 0 6 #e0c4fc #000000
#000000 0;
#X obj 136 103 tgl 10 0 empty empty empty 20 7 0 10 #e0c4fc #000000
#000000 0 1;
#X obj 62 208 r trs_stepSize_min_max;
#X obj 163 104 nbx 2 8 -1e+37 1e+37 0 1 empty empty ccnum -14 4 0 4
#e0c4fc #000000 #000000 18 256;
#X obj 198 104 nbx 2 8 -1e+37 1e+37 0 1 empty empty Channel -18 4 0
4 #e0c4fc #000000 #000000 6 256;
#X obj 193 46 unpack;
#X floatatom 225 277 5 0 0 0 - - - 0;
#X obj 62 258 res/midi_cc_block_endlessEncoder_or_potentiometerSlider
;
#X obj 62 171 r thres5_ccNum_channelPort_r;
#X obj 62 189 r thres5;
#X obj 62 226 r thres5_cc_type_r;
#X obj 62 303 s thres_5_in;
#X obj 131 411 s thres5_ccNum_channelPort;
#X obj 107 115 s thres5_cc_type;
#X connect 0 0 13 0;
#X connect 0 0 7 0;
#X connect 1 0 7 4;
#X connect 2 0 7 1;
#X connect 5 0 3 0;
#X connect 5 1 4 0;
#X connect 7 0 11 0;
#X connect 7 1 5 0;
#X connect 7 1 6 0;
#X connect 7 1 12 0;
#X connect 7 2 1 0;
#X connect 8 0 5 0;
#X connect 8 0 7 3;
#X connect 9 0 7 2;
#X connect 10 0 0 0;
#X coords 0 -1 1 1 116 15 2 100 100;
#X restore 238 799 pd midi_mapper;
#N canvas 1031 -852 720 825 midi_mapper 0;
#X obj 107 103 hradio 10 1 0 2 empty empty empty 0 -8 0 6 #e0c4fc #000000
#000000 0;
#X obj 136 103 tgl 10 0 empty empty empty 20 7 0 10 #e0c4fc #000000
#000000 0 1;
#X obj 163 104 nbx 2 8 -1e+37 1e+37 0 1 empty empty ccnum -14 4 0 4
#e0c4fc #000000 #000000 12 256;
#X obj 198 104 nbx 2 8 -1e+37 1e+37 0 1 empty empty Channel -18 4 0
4 #e0c4fc #000000 #000000 6 256;
#X obj 193 46 unpack;
#X floatatom 225 277 5 0 0 0 - - - 0;
#X obj 62 208 r max_count_stepSize_min_max;
#X obj 62 258 res/midi_cc_block_endlessEncoder_or_potentiometerSlider
;
#X obj 69 134 s max_count_5_cc_type;
#X obj 68 155 r max_count_5_ccNum_channelPort_r;
#X obj 62 189 r max_count_5;
#X obj 61 232 r max_count_5_cc_type_r;
#X obj 62 303 s max_count_5_in;
#X obj 127 331 s max_count_5_ccNum_channelPort;
#X connect 0 0 8 0;
#X connect 0 0 7 0;
#X connect 1 0 7 4;
#X connect 4 0 2 0;
#X connect 4 1 3 0;
#X connect 6 0 7 1;
#X connect 7 0 12 0;
#X connect 7 1 4 0;
#X connect 7 1 5 0;
#X connect 7 1 13 0;
#X connect 7 2 1 0;
#X connect 9 0 4 0;
#X connect 9 0 7 3;
#X connect 10 0 7 2;
#X connect 11 0 0 0;
#X coords 0 -1 1 1 116 15 2 100 100;
#X restore 372 799 pd midi_mapper;
#N canvas 720 23 720 825 midi_mapper 0;
#X obj 107 103 hradio 10 1 0 2 empty empty empty 0 -8 0 6 #e0c4fc #000000
#000000 0;
#X obj 136 103 tgl 10 0 empty empty empty 20 7 0 10 #e0c4fc #000000
#000000 0 1;
#X obj 163 104 nbx 2 8 -1e+37 1e+37 0 1 empty empty ccnum -14 4 0 4
#e0c4fc #000000 #000000 31 256;
#X obj 198 104 nbx 2 8 -1e+37 1e+37 0 1 empty empty Channel -18 4 0
4 #e0c4fc #000000 #000000 6 256;
#X obj 193 46 unpack;
#X floatatom 225 277 5 0 0 0 - - - 0;
#X obj 62 208 r vel_scale_stepSize_min_max;
#X obj 62 258 res/midi_cc_block_endlessEncoder_or_potentiometerSlider
;
#X obj 107 115 s vel_scale_5_cc_type;
#X obj 62 171 r vel_scale_5_ccNum_channelPort_r;
#X obj 62 189 r vel_scale_5;
#X obj 62 226 r vel_scale_5_cc_type_r;
#X obj 62 303 s vel_scale_5_in;
#X obj 127 331 s vel_scale_5_ccNum_channelPort;
#X connect 0 0 8 0;
#X connect 0 0 7 0;
#X connect 1 0 7 4;
#X connect 4 0 2 0;
#X connect 4 1 3 0;
#X connect 6 0 7 1;
#X connect 7 0 12 0;
#X connect 7 1 4 0;
#X connect 7 1 5 0;
#X connect 7 1 13 0;
#X connect 7 2 1 0;
#X connect 9 0 4 0;
#X connect 9 0 7 3;
#X connect 10 0 7 2;
#X connect 11 0 0 0;
#X coords 0 -1 1 1 116 15 2 100 100;
#X restore 506 799 pd midi_mapper;
#N canvas 0 23 1546 1124 midi_mapper 0;
#X obj 106 103 hradio 10 1 0 2 empty empty empty 0 -8 0 6 #e0c4fc #000000
#000000 0;
#X obj 136 103 tgl 10 0 empty empty empty 20 7 0 10 #e0c4fc #000000
#000000 0 1;
#X obj 62 208 r trs_stepSize_min_max;
#X obj 163 104 nbx 2 8 -1e+37 1e+37 0 1 empty empty ccnum -14 4 0 4
#e0c4fc #000000 #000000 19 256;
#X obj 198 104 nbx 2 8 -1e+37 1e+37 0 1 empty empty Channel -18 4 0
4 #e0c4fc #000000 #000000 7 256;
#X obj 193 46 unpack;
#X floatatom 225 277 5 0 0 0 - - - 0;
#X obj 62 258 res/midi_cc_block_endlessEncoder_or_potentiometerSlider
;
#X obj 107 115 s thres6_cc_type;
#X obj 62 171 r thres6_ccNum_channelPort_r;
#X obj 62 189 r thres6;
#X obj 62 226 r thres6_cc_type_r;
#X obj 62 303 s thres_6_in;
#X obj 131 411 s thres6_ccNum_channelPort;
#X connect 0 0 8 0;
#X connect 0 0 7 0;
#X connect 1 0 7 4;
#X connect 2 0 7 1;
#X connect 5 0 3 0;
#X connect 5 1 4 0;
#X connect 7 0 12 0;
#X connect 7 1 5 0;
#X connect 7 1 6 0;
#X connect 7 1 13 0;
#X connect 7 2 1 0;
#X connect 9 0 5 0;
#X connect 9 0 7 3;
#X connect 10 0 7 2;
#X connect 11 0 0 0;
#X coords 0 -1 1 1 116 15 2 100 100;
#X restore 238 841 pd midi_mapper;
#N canvas 720 23 720 825 midi_mapper 0;
#X obj 107 103 hradio 10 1 0 2 empty empty empty 0 -8 0 6 #e0c4fc #000000
#000000 0;
#X obj 136 103 tgl 10 0 empty empty empty 20 7 0 10 #e0c4fc #000000
#000000 0 1;
#X obj 163 104 nbx 2 8 -1e+37 1e+37 0 1 empty empty ccnum -14 4 0 4
#e0c4fc #000000 #000000 12 256;
#X obj 198 104 nbx 2 8 -1e+37 1e+37 0 1 empty empty Channel -18 4 0
4 #e0c4fc #000000 #000000 7 256;
#X obj 193 46 unpack;
#X floatatom 225 277 5 0 0 0 - - - 0;
#X obj 62 208 r max_count_stepSize_min_max;
#X obj 62 258 res/midi_cc_block_endlessEncoder_or_potentiometerSlider
;
#X obj 107 115 s max_count_6_cc_type;
#X obj 62 171 r max_count_6_ccNum_channelPort_r;
#X obj 62 189 r max_count_6;
#X obj 62 226 r max_count_6_cc_type_r;
#X obj 62 303 s max_count_6_in;
#X obj 127 331 s max_count_6_ccNum_channelPort;
#X connect 0 0 8 0;
#X connect 0 0 7 0;
#X connect 1 0 7 4;
#X connect 4 0 2 0;
#X connect 4 1 3 0;
#X connect 6 0 7 1;
#X connect 7 0 12 0;
#X connect 7 1 4 0;
#X connect 7 1 5 0;
#X connect 7 1 13 0;
#X connect 7 2 1 0;
#X connect 9 0 4 0;
#X connect 9 0 7 3;
#X connect 10 0 7 2;
#X connect 11 0 0 0;
#X coords 0 -1 1 1 116 15 2 100 100;
#X restore 372 841 pd midi_mapper;
#N canvas 720 23 720 825 midi_mapper 0;
#X obj 107 103 hradio 10 1 0 2 empty empty empty 0 -8 0 6 #e0c4fc #000000
#000000 0;
#X obj 136 103 tgl 10 0 empty empty empty 20 7 0 10 #e0c4fc #000000
#000000 0 1;
#X obj 163 104 nbx 2 8 -1e+37 1e+37 0 1 empty empty ccnum -14 4 0 4
#e0c4fc #000000 #000000 31 256;
#X obj 198 104 nbx 2 8 -1e+37 1e+37 0 1 empty empty Channel -18 4 0
4 #e0c4fc #000000 #000000 7 256;
#X obj 193 46 unpack;
#X floatatom 225 277 5 0 0 0 - - - 0;
#X obj 62 208 r vel_scale_stepSize_min_max;
#X obj 62 258 res/midi_cc_block_endlessEncoder_or_potentiometerSlider
;
#X obj 107 115 s vel_scale_6_cc_type;
#X obj 62 171 r vel_scale_6_ccNum_channelPort_r;
#X obj 62 189 r vel_scale_6;
#X obj 62 226 r vel_scale_6_cc_type_r;
#X obj 62 303 s vel_scale_6_in;
#X obj 127 331 s vel_scale_6_ccNum_channelPort;
#X connect 0 0 8 0;
#X connect 0 0 7 0;
#X connect 1 0 7 4;
#X connect 4 0 2 0;
#X connect 4 1 3 0;
#X connect 6 0 7 1;
#X connect 7 0 12 0;
#X connect 7 1 4 0;
#X connect 7 1 5 0;
#X connect 7 1 13 0;
#X connect 7 2 1 0;
#X connect 9 0 4 0;
#X connect 9 0 7 3;
#X connect 10 0 7 2;
#X connect 11 0 0 0;
#X coords 0 -1 1 1 116 15 2 100 100;
#X restore 506 841 pd midi_mapper;
#N canvas 0 23 1546 1124 midi_mapper 0;
#X obj 106 103 hradio 10 1 0 2 empty empty empty 0 -8 0 6 #e0c4fc #000000
#000000 0;
#X obj 136 103 tgl 10 0 empty empty empty 20 7 0 10 #e0c4fc #000000
#000000 0 1;
#X obj 62 208 r trs_stepSize_min_max;
#X obj 163 104 nbx 2 8 -1e+37 1e+37 0 1 empty empty ccnum -14 4 0 4
#e0c4fc #000000 #000000 20 256;
#X obj 198 104 nbx 2 8 -1e+37 1e+37 0 1 empty empty Channel -18 4 0
4 #e0c4fc #000000 #000000 8 256;
#X obj 193 46 unpack;
#X floatatom 225 277 5 0 0 0 - - - 0;
#X obj 62 258 res/midi_cc_block_endlessEncoder_or_potentiometerSlider
;
#X obj 107 115 s thres7_cc_type;
#X obj 62 171 r thres7_ccNum_channelPort_r;
#X obj 62 189 r thres7;
#X obj 62 226 r thres7_cc_type_r;
#X obj 62 303 s thres_7_in;
#X obj 131 411 s thres7_ccNum_channelPort;
#X connect 0 0 8 0;
#X connect 0 0 7 0;
#X connect 1 0 7 4;
#X connect 2 0 7 1;
#X connect 5 0 3 0;
#X connect 5 1 4 0;
#X connect 7 0 12 0;
#X connect 7 1 5 0;
#X connect 7 1 6 0;
#X connect 7 1 13 0;
#X connect 7 2 1 0;
#X connect 9 0 5 0;
#X connect 9 0 7 3;
#X connect 10 0 7 2;
#X connect 11 0 0 0;
#X coords 0 -1 1 1 116 15 2 100 100;
#X restore 238 888 pd midi_mapper;
#N canvas 720 23 720 825 midi_mapper 0;
#X obj 107 103 hradio 10 1 0 2 empty empty empty 0 -8 0 6 #e0c4fc #000000
#000000 0;
#X obj 136 103 tgl 10 0 empty empty empty 20 7 0 10 #e0c4fc #000000
#000000 0 1;
#X obj 163 104 nbx 2 8 -1e+37 1e+37 0 1 empty empty ccnum -14 4 0 4
#e0c4fc #000000 #000000 12 256;
#X obj 198 104 nbx 2 8 -1e+37 1e+37 0 1 empty empty Channel -18 4 0
4 #e0c4fc #000000 #000000 8 256;
#X obj 193 46 unpack;
#X floatatom 225 277 5 0 0 0 - - - 0;
#X obj 62 208 r max_count_stepSize_min_max;
#X obj 62 258 res/midi_cc_block_endlessEncoder_or_potentiometerSlider
;
#X obj 107 115 s max_count_7_cc_type;
#X obj 62 171 r max_count_7_ccNum_channelPort_r;
#X obj 62 189 r max_count_7;
#X obj 62 226 r max_count_7_cc_type_r;
#X obj 62 303 s max_count_7_in;
#X obj 127 331 s max_count_7_ccNum_channelPort;
#X connect 0 0 8 0;
#X connect 0 0 7 0;
#X connect 1 0 7 4;
#X connect 4 0 2 0;
#X connect 4 1 3 0;
#X connect 6 0 7 1;
#X connect 7 0 12 0;
#X connect 7 1 4 0;
#X connect 7 1 5 0;
#X connect 7 1 13 0;
#X connect 7 2 1 0;
#X connect 9 0 4 0;
#X connect 9 0 7 3;
#X connect 10 0 7 2;
#X connect 11 0 0 0;
#X coords 0 -1 1 1 116 15 2 100 100;
#X restore 372 888 pd midi_mapper;
#N canvas 720 23 720 825 midi_mapper 0;
#X obj 107 103 hradio 10 1 0 2 empty empty empty 0 -8 0 6 #e0c4fc #000000
#000000 0;
#X obj 136 103 tgl 10 0 empty empty empty 20 7 0 10 #e0c4fc #000000
#000000 0 1;
#X obj 163 104 nbx 2 8 -1e+37 1e+37 0 1 empty empty ccnum -14 4 0 4
#e0c4fc #000000 #000000 31 256;
#X obj 198 104 nbx 2 8 -1e+37 1e+37 0 1 empty empty Channel -18 4 0
4 #e0c4fc #000000 #000000 8 256;
#X obj 193 46 unpack;
#X floatatom 225 277 5 0 0 0 - - - 0;
#X obj 62 208 r vel_scale_stepSize_min_max;
#X obj 62 258 res/midi_cc_block_endlessEncoder_or_potentiometerSlider
;
#X obj 107 115 s vel_scale_7_cc_type;
#X obj 62 171 r vel_scale_7_ccNum_channelPort_r;
#X obj 62 189 r vel_scale_7;
#X obj 62 226 r vel_scale_7_cc_type_r;
#X obj 62 303 s vel_scale_7_in;
#X obj 127 331 s vel_scale_7_ccNum_channelPort;
#X connect 0 0 8 0;
#X connect 0 0 7 0;
#X connect 1 0 7 4;
#X connect 4 0 2 0;
#X connect 4 1 3 0;
#X connect 6 0 7 1;
#X connect 7 0 12 0;
#X connect 7 1 4 0;
#X connect 7 1 5 0;
#X connect 7 1 13 0;
#X connect 7 2 1 0;
#X connect 9 0 4 0;
#X connect 9 0 7 3;
#X connect 10 0 7 2;
#X connect 11 0 0 0;
#X coords 0 -1 1 1 116 15 2 100 100;
#X restore 506 888 pd midi_mapper;
#N canvas 0 23 1546 1124 midi_mapper 0;
#X obj 106 103 hradio 10 1 0 2 empty empty empty 0 -8 0 6 #e0c4fc #000000
#000000 0;
#X obj 136 103 tgl 10 0 empty empty empty 20 7 0 10 #e0c4fc #000000
#000000 0 1;
#X obj 62 208 r trs_stepSize_min_max;
#X obj 163 104 nbx 2 8 -1e+37 1e+37 0 1 empty empty ccnum -14 4 0 4
#e0c4fc #000000 #000000 21 256;
#X obj 198 104 nbx 2 8 -1e+37 1e+37 0 1 empty empty Channel -18 4 0
4 #e0c4fc #000000 #000000 9 256;
#X obj 193 46 unpack;
#X floatatom 225 277 5 0 0 0 - - - 0;
#X obj 62 258 res/midi_cc_block_endlessEncoder_or_potentiometerSlider
;
#X obj 107 115 s thres8_cc_type;
#X obj 62 171 r thres8_ccNum_channelPort_r;
#X obj 62 189 r thres8;
#X obj 62 226 r thres8_cc_type_r;
#X obj 62 303 s thres_8_in;
#X obj 131 411 s thres8_ccNum_channelPort;
#X connect 0 0 8 0;
#X connect 0 0 7 0;
#X connect 1 0 7 4;
#X connect 2 0 7 1;
#X connect 5 0 3 0;
#X connect 5 1 4 0;
#X connect 7 0 12 0;
#X connect 7 1 5 0;
#X connect 7 1 6 0;
#X connect 7 1 13 0;
#X connect 7 2 1 0;
#X connect 9 0 5 0;
#X connect 9 0 7 3;
#X connect 10 0 7 2;
#X connect 11 0 0 0;
#X coords 0 -1 1 1 116 15 2 100 100;
#X restore 238 933 pd midi_mapper;
#N canvas 720 23 720 825 midi_mapper 0;
#X obj 107 103 hradio 10 1 0 2 empty empty empty 0 -8 0 6 #e0c4fc #000000
#000000 0;
#X obj 136 103 tgl 10 0 empty empty empty 20 7 0 10 #e0c4fc #000000
#000000 0 1;
#X obj 163 104 nbx 2 8 -1e+37 1e+37 0 1 empty empty ccnum -14 4 0 4
#e0c4fc #000000 #000000 12 256;
#X obj 198 104 nbx 2 8 -1e+37 1e+37 0 1 empty empty Channel -18 4 0
4 #e0c4fc #000000 #000000 9 256;
#X obj 193 46 unpack;
#X floatatom 225 277 5 0 0 0 - - - 0;
#X obj 62 208 r max_count_stepSize_min_max;
#X obj 62 258 res/midi_cc_block_endlessEncoder_or_potentiometerSlider
;
#X obj 107 115 s max_count_8_cc_type;
#X obj 62 171 r max_count_8_ccNum_channelPort_r;
#X obj 62 189 r max_count_8;
#X obj 62 226 r max_count_8_cc_type_r;
#X obj 62 303 s max_count_8_in;
#X obj 127 331 s max_count_8_ccNum_channelPort;
#X connect 0 0 8 0;
#X connect 0 0 7 0;
#X connect 1 0 7 4;
#X connect 4 0 2 0;
#X connect 4 1 3 0;
#X connect 6 0 7 1;
#X connect 7 0 12 0;
#X connect 7 1 4 0;
#X connect 7 1 5 0;
#X connect 7 1 13 0;
#X connect 7 2 1 0;
#X connect 9 0 4 0;
#X connect 9 0 7 3;
#X connect 10 0 7 2;
#X connect 11 0 0 0;
#X coords 0 -1 1 1 116 15 2 100 100;
#X restore 372 933 pd midi_mapper;
#N canvas 720 23 720 825 midi_mapper 0;
#X obj 107 103 hradio 10 1 0 2 empty empty empty 0 -8 0 6 #e0c4fc #000000
#000000 0;
#X obj 136 103 tgl 10 0 empty empty empty 20 7 0 10 #e0c4fc #000000
#000000 0 1;
#X obj 163 104 nbx 2 8 -1e+37 1e+37 0 1 empty empty ccnum -14 4 0 4
#e0c4fc #000000 #000000 119 256;
#X obj 198 104 nbx 2 8 -1e+37 1e+37 0 1 empty empty Channel -18 4 0
4 #e0c4fc #000000 #000000 1 256;
#X obj 193 46 unpack;
#X floatatom 225 277 5 0 0 0 - - - 0;
#X obj 62 208 r vel_scale_stepSize_min_max;
#X obj 62 258 res/midi_cc_block_endlessEncoder_or_potentiometerSlider
;
#X obj 107 115 s vel_scale_8_cc_type;
#X obj 62 171 r vel_scale_8_ccNum_channelPort_r;
#X obj 62 189 r vel_scale_8;
#X obj 62 226 r vel_scale_8_cc_type_r;
#X obj 62 303 s vel_scale_8_in;
#X obj 127 331 s vel_scale_8_ccNum_channelPort;
#X connect 0 0 8 0;
#X connect 0 0 7 0;
#X connect 1 0 7 4;
#X connect 4 0 2 0;
#X connect 4 1 3 0;
#X connect 6 0 7 1;
#X connect 7 0 12 0;
#X connect 7 1 4 0;
#X connect 7 1 5 0;
#X connect 7 1 13 0;
#X connect 7 2 1 0;
#X connect 9 0 4 0;
#X connect 9 0 7 3;
#X connect 10 0 7 2;
#X connect 11 0 0 0;
#X coords 0 -1 1 1 116 15 2 100 100;
#X restore 506 933 pd midi_mapper;
#X obj 114 1040 cnv 9 34 13 empty empty Volume 3 6 2 8 #202020 #fcfcfc
0;
#X obj 762 525 loadbang;
#X msg 762 542 0.005 0 1;
#X obj 762 560 s trs_stepSize_min_max;
#X obj 765 597 loadbang;
#X obj 766 632 s max_count_stepSize_min_max;
#X msg 765 614 0.01 0 32;
#X obj 766 659 loadbang;
#X obj 766 694 s vel_scale_stepSize_min_max;
#X msg 766 676 0.01 0 3;
#X text 323 513 MIDI MAPPING (PLACE CC DEVICE AS FIRST MIDI DEVICE)
;
#X obj 42 516 bng 20 250 50 0 empty empty SAVE_MIDI_MAPPING -36 -7
0 10 #fc8000 #000000 #000000;
#X obj 122 516 bng 20 250 50 0 empty empty LOAD 0 -7 0 10 #fc8000 #000000
#000000;
#X obj -144 493 s save_midi_mapping;
#X obj -144 516 s load_midi_mapping;
#X obj 240 520 bng 10 250 50 0 empty empty FORGET_MIDI_MAPPING -30
-7 0 5 #fc0400 #000000 #000000;
#X obj -187 454 s forget_midi_mapping;
#X obj 34 539 cnv 9 34 13 empty empty Likelihood 0 6 2 8 #000000 #fcfcfc
0;
#X obj 74 539 cnv 9 34 13 empty empty MaxCount 0 6 2 8 #000000 #fcfcfc
0;
#X obj 114 539 cnv 9 34 13 empty empty Volume 3 6 2 8 #202020 #fcfcfc
0;
#X msg 1552 193 1503;
#X obj 1411 157 sel 1 2 3 4;
#X obj 1 1504 cnv 15 698 490 empty empty empty 20 12 0 14 #e4e8e4 #404040
0;
#X obj 27 1523 cnv 15 300 150 empty empty Internal_Drum_Synth 20 12
0 14 #fcb874 #404040 0;
#X obj 367 1523 cnv 15 300 150 empty empty Internal_Plucked_Synth 20
12 0 14 #fce0c4 #404040 0;
#X obj 71 1587 vsl 15 70 0 5 0 0 empty empty Volume 0 -9 0 10 #fcfcfc
#000000 #000000 0 0;
#X obj 392 1585 vsl 15 70 0 3 0 0 empty empty Volume 0 -9 0 10 #fcfcfc
#000000 #000000 0 0;
#X obj 629 1531 tgl 15 0 empty empty enable -10 22 0 10 #fcfcfc #000000
#000000 0 1;
#X obj 295 1533 tgl 15 0 empty empty enable -10 22 0 10 #fcfcfc #000000
#000000 0 1;
#X obj 10 1886 cnv 15 300 100 empty empty Midi_Out_Routing 20 12 0
14 #fcf0fc #202020 0;
#X obj 46 1927 hradio 15 1 0 16 empty empty drum_out_channel 0 20 0
10 #fcfcfc #000000 #000000 0;
#X obj -395 1792 s drum_out_channel_init;
#X obj -395 1819 s drum_out_channel;
#X obj -264 1817 r drum_out_channel_init;
#X obj -194 1838 - 1;
#X obj -298 1839 change;
#X obj -330 1839 + 1;
#X obj -226 1790 r drum_out_channel;
#X obj 46 1956 hradio 15 1 0 16 empty empty metronome_as_note_out_channel
0 20 0 10 #fcfcfc #000000 #000000 0;
#X obj -194 1946 - 1;
#X obj -298 1947 change;
#X obj -330 1947 + 1;
#X obj -226 1897 r metronome_as_midi_out_channel;
#X obj -264 1925 r metronome_as_midi_out_channel_init;
#X obj -395 1927 s metronome_as_midi_out_channel_channel;
#X obj -395 1900 s metronome_as_midi_out_channel_init;
#X text 47 1907 1;
#X text 92 1907 4;
#X text 153 1907 8;
#X text 208 1906 12;
#X text 267 1906 16;
#X msg 369 1496 1;
#X obj -98 1503 loadbang;
#X text -344 1501 Drum Soundfont;
#X obj 629 1577 bng 15 250 50 0 empty empty empty 17 7 0 10 #fcfcfc
#000000 #000000;
#X text 553 1598 Load Soundfont;
#X obj 295 1579 bng 15 250 50 0 empty empty empty 17 7 0 10 #fcfcfc
#000000 #000000;
#X text 211 1601 Load Soundfont;
#X msg -22 1536 2.6;
#X obj 15 1708 outlet;
#X obj 83 1710 outlet;
#X obj 479 1684 outlet;
#X obj 547 1686 outlet;
#X connect 2 0 6 0;
#X connect 3 0 5 0;
#X connect 4 0 6 0;
#X connect 5 0 27 0;
#X connect 6 0 7 0;
#X connect 6 1 329 0;
#X connect 6 2 3 0;
#X connect 7 0 5 0;
#X connect 10 0 5 1;
#X connect 12 0 5 1;
#X connect 27 0 13 0;
#X connect 28 0 5 1;
#X connect 39 0 41 0;
#X connect 42 0 43 0;
#X connect 45 0 47 0;
#X connect 48 0 49 0;
#X connect 50 0 51 0;
#X connect 52 0 53 0;
#X connect 54 0 55 0;
#X connect 56 0 57 0;
#X connect 58 0 59 0;
#X connect 60 0 61 0;
#X connect 62 0 63 0;
#X connect 64 0 65 0;
#X connect 66 0 67 0;
#X connect 68 0 69 0;
#X connect 70 0 71 0;
#X connect 72 0 73 0;
#X connect 74 0 75 0;
#X connect 76 0 77 0;
#X connect 78 0 79 0;
#X connect 80 0 81 0;
#X connect 82 0 83 0;
#X connect 84 0 85 0;
#X connect 86 0 87 0;
#X connect 88 0 89 0;
#X connect 90 0 91 0;
#X connect 92 0 93 0;
#X connect 94 0 95 0;
#X connect 104 0 144 0;
#X connect 105 0 145 0;
#X connect 106 0 146 0;
#X connect 107 0 147 0;
#X connect 108 0 148 0;
#X connect 109 0 149 0;
#X connect 110 0 150 0;
#X connect 111 0 151 0;
#X connect 112 0 128 0;
#X connect 113 0 129 0;
#X connect 114 0 130 0;
#X connect 115 0 134 0;
#X connect 116 0 136 0;
#X connect 117 0 137 0;
#X connect 118 0 138 0;
#X connect 119 0 139 0;
#X connect 120 0 160 0;
#X connect 121 0 161 0;
#X connect 122 0 162 0;
#X connect 123 0 163 0;
#X connect 124 0 164 0;
#X connect 125 0 165 0;
#X connect 126 0 166 0;
#X connect 127 0 167 0;
#X connect 128 0 131 0;
#X connect 129 0 132 0;
#X connect 130 0 133 0;
#X connect 134 0 135 0;
#X connect 136 0 140 0;
#X connect 137 0 141 0;
#X connect 138 0 142 0;
#X connect 139 0 143 0;
#X connect 144 0 152 0;
#X connect 145 0 153 0;
#X connect 146 0 154 0;
#X connect 147 0 155 0;
#X connect 148 0 156 0;
#X connect 149 0 157 0;
#X connect 150 0 158 0;
#X connect 151 0 159 0;
#X connect 160 0 168 0;
#X connect 161 0 169 0;
#X connect 162 0 170 0;
#X connect 163 0 171 0;
#X connect 164 0 172 0;
#X connect 165 0 173 0;
#X connect 166 0 174 0;
#X connect 167 0 175 0;
#X connect 177 0 182 0;
#X connect 178 0 180 0;
#X connect 179 0 184 0;
#X connect 180 0 181 0;
#X connect 182 0 183 0;
#X connect 184 0 185 0;
#X connect 200 0 240 0;
#X connect 201 0 241 0;
#X connect 202 0 242 0;
#X connect 203 0 243 0;
#X connect 204 0 244 0;
#X connect 205 0 245 0;
#X connect 206 0 246 0;
#X connect 207 0 247 0;
#X connect 208 0 224 0;
#X connect 209 0 225 0;
#X connect 210 0 226 0;
#X connect 211 0 230 0;
#X connect 212 0 232 0;
#X connect 213 0 233 0;
#X connect 214 0 234 0;
#X connect 215 0 235 0;
#X connect 216 0 256 0;
#X connect 217 0 257 0;
#X connect 218 0 258 0;
#X connect 219 0 259 0;
#X connect 220 0 260 0;
#X connect 221 0 261 0;
#X connect 222 0 262 0;
#X connect 223 0 263 0;
#X connect 224 0 227 0;
#X connect 225 0 228 0;
#X connect 226 0 229 0;
#X connect 230 0 231 0;
#X connect 232 0 236 0;
#X connect 233 0 237 0;
#X connect 234 0 238 0;
#X connect 235 0 239 0;
#X connect 240 0 248 0;
#X connect 241 0 249 0;
#X connect 242 0 250 0;
#X connect 243 0 251 0;
#X connect 244 0 252 0;
#X connect 245 0 253 0;
#X connect 246 0 254 0;
#X connect 247 0 255 0;
#X connect 256 0 264 0;
#X connect 257 0 265 0;
#X connect 258 0 266 0;
#X connect 259 0 267 0;
#X connect 260 0 268 0;
#X connect 261 0 269 0;
#X connect 262 0 270 0;
#X connect 263 0 271 0;
#X connect 273 0 278 0;
#X connect 274 0 276 0;
#X connect 275 0 280 0;
#X connect 276 0 277 0;
#X connect 278 0 279 0;
#X connect 280 0 281 0;
#X connect 309 0 310 0;
#X connect 310 0 311 0;
#X connect 312 0 314 0;
#X connect 314 0 313 0;
#X connect 315 0 317 0;
#X connect 317 0 316 0;
#X connect 319 0 321 0;
#X connect 320 0 322 0;
#X connect 323 0 324 0;
#X connect 328 0 5 1;
#X connect 329 0 10 0;
#X connect 329 1 12 0;
#X connect 329 2 28 0;
#X connect 329 3 328 0;
#X connect 333 0 367 0;
#X connect 334 0 369 0;
#X connect 338 0 343 0;
#X connect 341 0 342 0;
#X connect 342 0 338 0;
#X connect 343 0 344 0;
#X connect 344 0 339 0;
#X connect 344 0 340 0;
#X connect 345 0 342 0;
#X connect 346 0 348 0;
#X connect 347 0 346 0;
#X connect 348 0 349 0;
#X connect 349 0 352 0;
#X connect 349 0 353 0;
#X connect 350 0 347 0;
#X connect 351 0 347 0;
#X connect 359 0 334 0;
#X connect 359 0 336 0;
#X connect 359 0 335 0;
#X connect 360 0 359 0;
#X connect 360 0 366 0;
#X connect 362 0 370 0;
#X connect 364 0 368 0;
#X connect 366 0 333 0;
#X coords 0 -1 1 1 700 492 1 0 0;
#X restore 132 394 pd \$0-params;
#X obj 432 102 hradio 15 1 0 6 empty empty empty 0 -8 0 10 #fcfcfc
#000000 #000000 0;
#X obj 428 46 loadbang;
#X msg 429 64 1;
#N canvas 656 23 784 825 \$0-saveloadsession 0;
#X obj 181 781 cnv 15 398 68 empty empty empty 20 12 0 14 #e4e8e4 #404040
0;
#X obj 964 403 inlet;
#X msg 971 516 0;
#X obj 844 421 hradio 15 1 0 7 empty empty empty 0 -8 0 10 #fcfcfc
#000000 #000000 0;
#X obj 1040 606 pack f f;
#X obj 964 447 t f f b;
#X obj 944 479 != 0;
#X text 811 552 get's messy without this ->;
#X text 1028 350 https://forum.pdpatchrepo.info/topic/9799/gui-tab-like-question/2
;
#X msg 1111 560 80;
#X obj 1111 516 sel 1 2 3 4 5 6;
#X obj 994 696 s pd-\$0-saveloadsession;
#X obj 181 81 cnv 15 398 68 empty empty empty 20 12 0 14 #e4e8e4 #404040
0;
#X floatatom 228 96 8 0 0 2 nSnapshots nSnapshots_r nSnapshots_s 0
;
#X floatatom 237 117 6 0 0 3 Current - - 0;
#X obj 310 116 bng 20 250 50 0 empty next_snapshot_r > 5 9 0 18 #00fc04
#000000 #9c00fc;
#X obj 189 117 bng 20 250 50 0 empty previous_snapshot_r < 5 9 0 18
#fcc4c4 #000000 #9c00fc;
#X obj 368 105 bng 30 250 50 0 empty take_snapshot_r SNAPSHOT -5 -7
0 8 #c4fcfc #000000 #000000;
#X floatatom 225 253 5 0 0 0 - - - 0;
#X floatatom 290 211 5 0 0 0 - - - 0;
#X obj 392 189 r reset;
#X msg 342 189 0;
#X obj 225 273 s nSnapshots_r;
#N canvas 0 23 976 557 snapshot_counter 0;
#X obj 174 183 f;
#X obj 212 183 + 1;
#X obj 174 136 bng 15 250 50 0 empty empty empty 17 7 0 10 #fcfcfc
#000000 #000000;
#X floatatom 176 252 5 0 0 0 - - - 0;
#X floatatom 177 339 5 0 0 0 - - - 0;
#X obj 161 54 inlet;
#X text 210 59 increase count;
#X obj 177 375 outlet;
#X obj 399 53 inlet;
#X floatatom 399 77 5 0 0 0 - - - 0;
#X text 453 55 start at shift;
#X obj 627 59 inlet;
#X obj 627 87 bng 15 250 50 0 empty empty empty 17 7 0 10 #fcfcfc #000000
#000000;
#X text 680 57 reset;
#X msg 365 221 0;
#X obj 177 288 + 1;
#X msg 214 297 \$1;
#X connect 0 0 3 0;
#X connect 1 0 0 1;
#X connect 2 0 0 0;
#X connect 3 0 1 0;
#X connect 3 0 15 0;
#X connect 4 0 7 0;
#X connect 5 0 2 0;
#X connect 8 0 9 0;
#X connect 9 0 15 1;
#X connect 9 0 16 0;
#X connect 11 0 12 0;
#X connect 12 0 14 0;
#X connect 14 0 4 0;
#X connect 14 0 3 0;
#X connect 15 0 4 0;
#X connect 16 0 4 0;
#X restore 225 232 pd snapshot_counter;
#N canvas 0 23 1245 819 move_to_snapshot 0;
#X obj 285 26 inlet;
#X obj 385 28 inlet;
#X obj 478 36 inlet;
#X text 374 -1 move right;
#X text 281 0 move left;
#X text 486 3 nSnapshots;
#X msg 287 64 -1;
#X msg 387 62 1;
#X floatatom 344 299 5 0 0 0 - - - 0;
#X floatatom 539 82 5 0 0 0 - - - 0;
#X obj 334 496 outlet;
#X text 381 463 current snapshot pos;
#X obj 244 188 f;
#X obj 827 33 inlet, f 6;
#X floatatom 827 81 5 0 0 0 - - - 0;
#X text 795 4 force position to;
#X obj 290 155 t f b;
#X floatatom 396 244 5 0 0 0 - - - 0;
#X obj 343 347 mod;
#X obj 347 391 + 1;
#X obj 322 216 expr if ($f3==0 \, 1 \, if($f1<0 \, $f2-1 \, $f2+1))
;
#X floatatom 355 431 5 0 0 0 - - - 0;
#X obj 357 122 spigot;
#X obj 417 100 tgl 15 0 empty empty empty 17 7 0 10 #fcfcfc #000000
#000000 0 1;
#X obj 456 94 != 0;
#X obj 463 294 - 1;
#X obj 624 300 - 1;
#X connect 0 0 6 0;
#X connect 1 0 7 0;
#X connect 2 0 9 0;
#X connect 6 0 22 0;
#X connect 7 0 22 0;
#X connect 8 0 12 1;
#X connect 8 0 18 0;
#X connect 9 0 18 1;
#X connect 9 0 20 2;
#X connect 9 0 24 0;
#X connect 9 0 25 0;
#X connect 12 0 20 1;
#X connect 13 0 14 0;
#X connect 14 0 26 0;
#X connect 16 0 20 0;
#X connect 16 1 12 0;
#X connect 17 0 8 0;
#X connect 18 0 19 0;
#X connect 19 0 21 0;
#X connect 20 0 17 0;
#X connect 21 0 10 0;
#X connect 22 0 16 0;
#X connect 23 0 22 1;
#X connect 24 0 23 0;
#X connect 25 0 8 0;
#X connect 26 0 8 0;
#X restore 49 234 pd move_to_snapshot;
#X floatatom 64 271 5 0 0 0 - - - 0;
#X obj 53 300 s currentSnapshots;
#X obj 126 195 change;
#X obj 299 160 r snapshot_init_from_load_session;
#X obj 218 804 bng 30 250 50 0 empty empty SAVE_TEMPLATE -18 -7 0 10
#fcfcfc #000000 #000000;
#X obj 318 804 bng 30 250 50 0 empty empty LOAD_TEMPLATE -18 -7 0 10
#fcfcfc #000000 #000000;
#X obj 229 869 res/save_preset;
#X msg 994 652 donecanvasdialog 1 -1 \$1 0 -1 1 1 400 70 180 \$2;
#X obj 460 110 bng 20 250 50 0 empty empty SAVE_SESSION -18 -7 0 10
#9c00fc #000000 #000000;
#X obj 520 110 bng 20 250 50 0 empty empty LOAD 0 -7 0 10 #9c00fc #f8fc00
#000000;
#X obj 602 187 r reset;
#X obj 476 231 res/save_session;
#X obj 619 232 r currentSnapshots;
#X obj 552 161 r nSnapshots_r;
#X obj 456 201 bng 15 250 50 0 empty empty empty 17 7 0 10 #fcfcfc
#000000 #000000;
#X msg 1165 553 480;
#X obj 181 481 cnv 15 398 68 empty empty empty 20 12 0 14 #fcfcfc #404040
0;
#X text 206 522 You can move back to a snapshot taken previously;
#X msg 1237 553 780;
#X msg 1199 553 600;
#X obj 181 601 cnv 15 398 68 empty empty empty 20 12 0 14 #fcfcfc #404040
0;
#X text 181 615 If you like a pattern \, take a snapshot of it;
#X text 181 598 Save the entirety of the session \, and reload it later
on;
#X text 205 505 Snapshots save the current state of the program;
#X text 204 488 This functionality requires the cyclone/coll external
;
#X text 180 633 You can navigate back to any of the snapshots during
the performance;
#X msg 1283 553 900;
#X obj 181 901 cnv 15 398 68 empty empty empty 20 12 0 14 #fcfcfc #404040
0;
#X text 181 923 You can save the parameters of the program as a template
;
#X obj 189 138 cnv 2 19 8 empty empty < 7 4 0 9 #fc8000 #fcfcfc 0;
#X obj 351 138 cnv 2 66 8 empty empty Shift+Enter 4 4 0 9 #fc8000 #fcfcfc
0;
#X obj 310 138 cnv 2 19 8 empty empty > 7 4 0 9 #fc8000 #fcfcfc 0;
#X connect 1 0 3 0;
#X connect 2 0 4 0;
#X connect 3 0 5 0;
#X connect 4 0 32 0;
#X connect 5 0 6 0;
#X connect 5 1 10 0;
#X connect 5 2 2 0;
#X connect 6 0 4 0;
#X connect 9 0 4 1;
#X connect 10 0 9 0;
#X connect 10 1 40 0;
#X connect 10 2 44 0;
#X connect 10 3 43 0;
#X connect 10 4 51 0;
#X connect 14 0 27 0;
#X connect 15 0 24 1;
#X connect 16 0 24 0;
#X connect 17 0 23 0;
#X connect 18 0 22 0;
#X connect 18 0 24 2;
#X connect 19 0 23 1;
#X connect 20 0 21 0;
#X connect 20 0 23 2;
#X connect 21 0 19 0;
#X connect 23 0 18 0;
#X connect 24 0 25 0;
#X connect 25 0 14 0;
#X connect 25 0 26 0;
#X connect 27 0 24 3;
#X connect 28 0 19 0;
#X connect 29 0 31 0;
#X connect 30 0 31 1;
#X connect 32 0 11 0;
#X connect 33 0 36 1;
#X connect 34 0 39 0;
#X connect 35 0 36 3;
#X connect 37 0 36 4;
#X connect 38 0 36 2;
#X connect 39 0 36 0;
#X connect 40 0 4 1;
#X connect 43 0 4 1;
#X connect 44 0 4 1;
#X connect 51 0 4 1;
#X coords 0 -1 1 1 400 70 1 180 80;
#X restore 432 117 pd \$0-saveloadsession;
#X obj 860 48 bng 15 250 50 0 empty empty empty 17 7 0 10 #fcfcfc #000000
#000000;
#X obj 860 67 s reset;
#X obj 852 139 bng 30 250 50 0 reset empty RESET_PROGRAM -17 -10 0
8 #fc0400 #000000 #000000;
#X obj 851 325 bng 30 250 50 0 clear_groove_request_gui clear_groove_r
Clear_Groove -17 -10 0 8 #fcc4c4 #000000 #000000;
#X obj 845 359 cnv 2 45 8 empty empty Shift+D 4 4 0 9 #fc8000 #fcfcfc
0;
#X obj 1014 144 res/main;
#X obj 112 271 vradio 20 1 0 3 empty empty empty 0 -8 0 10 #fcfcfc
#000000 #000000 0;
#X obj 112 190 vradio 20 1 0 4 empty empty empty 0 -8 0 10 #fcfcfc
#000000 #000000 0;
#X msg 48 467 4;
#X obj 390 979 print info;
#X text -21 957 click to open file -->;
#N canvas 1306 546 492 281 open 0;
#X obj 70 61 openpanel;
#X obj 70 31 bng 18 250 50 0 empty empty empty 17 7 0 10 #dcdcdc #000000
#000000;
#X text 96 33 load a different soundfont;
#X obj 70 215 outlet;
#X text 215 78 If no extension is given \, it searches for both ".sf2"
and ".sf3" extensions. This is the same for the argument., f 38;
#X msg 89 86 symbol sf/Theremin;
#X text 137 178 no symbol opens dialog window;
#X msg 70 117 open \$1;
#X msg 84 147 open sf/Waves.sf2;
#X msg 102 179 open;
#X obj 54 7 inlet;
#X connect 0 0 7 0;
#X connect 1 0 0 0;
#X connect 5 0 7 0;
#X connect 7 0 3 0;
#X connect 8 0 3 0;
#X connect 9 0 3 0;
#X connect 10 0 1 0;
#X restore 120 932 pd open;
#X text 29 927 load --> soundfonts, f 10;
#X obj 120 905 r drumNote;
#X obj 119 980 *~;
#X obj 636 993 *~;
#X obj 901 979 print info;
#N canvas 1306 546 492 281 open 0;
#X obj 70 61 openpanel;
#X obj 70 31 bng 18 250 50 0 empty empty empty 17 7 0 10 #dcdcdc #000000
#000000;
#X text 96 33 load a different soundfont;
#X obj 70 215 outlet;
#X text 215 78 If no extension is given \, it searches for both ".sf2"
and ".sf3" extensions. This is the same for the argument., f 38;
#X msg 89 86 symbol sf/Theremin;
#X text 137 178 no symbol opens dialog window;
#X msg 70 117 open \$1;
#X msg 84 147 open sf/Waves.sf2;
#X msg 102 179 open;
#X obj 54 7 inlet;
#X connect 0 0 7 0;
#X connect 1 0 0 0;
#X connect 5 0 7 0;
#X connect 7 0 3 0;
#X connect 8 0 3 0;
#X connect 9 0 3 0;
#X connect 10 0 1 0;
#X restore 826 902 pd open;
#X obj 661 903 notein, f 16;
#X obj 661 932 pack f f;
#X obj 227 1011 loadbang;
#N canvas 448 497 907 600 compressor 0;
#X obj 104 51 inlet~;
#N canvas 667 241 314 331 set 0;
#X obj 80 40 inlet;
#X obj 102 206 s \$0-ratio;
#X obj 134 185 s \$0-attack;
#X obj 166 164 s \$0-release;
#X obj 71 227 s \$0-thresh;
#X obj 176 134 s \$0-gain;
#X obj 78 78 route thresh ratio attack release gain, f 12;
#X connect 0 0 6 0;
#X connect 6 0 4 0;
#X connect 6 1 1 0;
#X connect 6 2 2 0;
#X connect 6 3 3 0;
#X connect 6 4 5 0;
#X restore 178 82 pd set;
#X obj 178 51 inlet;
#X text 102 29 in;
#X obj 207 571 outlet~;
#X obj 104 491 *~;
#X obj 122 400 min~ 1;
#X obj 140 293 /~;
#X obj 122 248 -~;
#X obj 122 325 -~;
#X obj 158 235 max 1;
#X obj 156 169 r \$0-thresh;
#X obj 158 209 r \$0-ratio;
#X obj 207 530 *~;
#X obj 225 471 r \$0-gain;
#X obj 140 138 cyclone/average~ 512 rms;
#X obj 122 363 cyclone/dbtoa~;
#X obj 225 496 cyclone/dbtoa;
#X obj 122 438 cyclone/rampsmooth~;
#X obj 258 359 r \$0-release;
#X obj 322 384 r \$0-attack;
#X obj 322 410 * 44.1;
#X obj 258 392 * 44.1;
#X connect 0 0 5 0;
#X connect 0 0 15 0;
#X connect 2 0 1 0;
#X connect 5 0 13 0;
#X connect 6 0 18 0;
#X connect 7 0 9 1;
#X connect 8 0 7 0;
#X connect 8 0 9 0;
#X connect 9 0 16 0;
#X connect 10 0 7 1;
#X connect 11 0 8 0;
#X connect 12 0 10 0;
#X connect 13 0 4 0;
#X connect 14 0 17 0;
#X connect 15 0 8 1;
#X connect 16 0 6 0;
#X connect 17 0 13 1;
#X connect 18 0 5 1;
#X connect 19 0 22 0;
#X connect 20 0 21 0;
#X connect 21 0 18 2;
#X connect 22 0 18 1;
#X restore 120 1068 pd compressor;
#X obj 120 1106 dac~;
#X msg 227 1037 tresh -20 \, ratio 5 \, attack 10 \, release 10 \,
gain 10, f 30;
#X obj 120 957 else/sfont~ ./../soundfonts/DrumsKit.sf2;
#X obj 660 959 else/sfont~ ./../soundfonts/rhodes.sf2;
#X connect 3 0 4 0;
#X connect 5 0 6 0;
#X connect 6 0 3 0;
#X connect 8 0 13 0;
#X connect 9 0 10 0;
#X connect 9 0 26 0;
#X connect 10 0 24 0;
#X connect 10 0 25 0;
#X connect 13 0 32 1;
#X connect 13 1 29 0;
#X connect 13 2 33 1;
#X connect 13 3 35 0;
#X connect 14 0 17 0;
#X connect 15 0 16 0;
#X connect 16 0 14 0;
#X connect 18 0 19 0;
#X connect 24 0 11 0;
#X connect 25 0 12 0;
#X connect 26 0 8 0;
#X connect 29 0 42 0;
#X connect 31 0 42 0;
#X connect 32 0 39 0;
#X connect 33 0 39 0;
#X connect 35 0 43 0;
#X connect 36 0 37 0;
#X connect 36 1 37 1;
#X connect 37 0 43 0;
#X connect 38 0 41 0;
#X connect 39 0 40 0;
#X connect 39 0 40 1;
#X connect 41 0 39 1;
#X connect 42 0 32 0;
#X connect 42 2 27 0;
#X connect 43 0 33 0;
#X connect 43 2 34 0;
#X coords 0 0 1 1 800 800 2 100 100;
