#N canvas 0 23 481 441 12;
#X obj 160 43 key;
#X msg 159 179 1;
#X msg 179 212 2;
#X msg 204 178 3;
#X msg 224 211 4;
#X msg 240 178 5;
#X msg 260 211 6;
#X msg 285 177 7;
#X msg 305 210 8;
#X obj 159 145 sel 49 50 51 52 53 54 55 56 57;
#X msg 330 178 9;
#X obj 190 260 expr $f1/9*127;
#X obj 205 292 s realtime_velocity;
#X connect 0 0 9 0;
#X connect 1 0 11 0;
#X connect 2 0 11 0;
#X connect 3 0 11 0;
#X connect 4 0 11 0;
#X connect 5 0 11 0;
#X connect 6 0 11 0;
#X connect 7 0 11 0;
#X connect 8 0 11 0;
#X connect 9 0 1 0;
#X connect 9 1 2 0;
#X connect 9 2 3 0;
#X connect 9 3 4 0;
#X connect 9 4 5 0;
#X connect 9 5 6 0;
#X connect 9 6 7 0;
#X connect 9 7 8 0;
#X connect 9 8 10 0;
#X connect 10 0 11 0;
#X connect 11 0 12 0;
