#N canvas 0 23 1248 776 12;
#X obj 139 41 notein;
#X floatatom 152 70 5 0 0 0 - - -;
#X obj 153 179 moses 1;
#X obj 203 210 s realtime_velocity;
#X connect 0 1 1 0;
#X connect 1 0 2 0;
#X connect 2 1 3 0;
