#N canvas 0 23 1440 808 12;
#X msg 284 89 bang;
#X obj 325 164 until;
#X text 324 100 start;
#X obj 325 192 f;
#X obj 363 192 + 1;
#X obj 408 191 sel 0;
#X obj 305 260 + 0;
#X obj 370 271 t b f;
#X text 271 63 reset table first;
#X obj 156 71 t b f b;
#X obj 55 141 f;
#X obj 62 100 t b f b;
#X obj 347 321 i 0;
#X obj 363 218 mod 96;
#X floatatom 183 113 5 0 0 0 - - -;
#X obj 490 77 inlet;
#X text 538 73 step_ix;
#X obj 187 383 outlet;
#X obj 36 380 outlet;
#X text 241 379 indx;
#X text 85 378 vel;
#X obj 70 47 inlet;
#X obj 154 41 inlet;
#X obj 426 383 outlet;
#X obj 334 385 outlet;
#X text 480 379 indx;
#X text 383 383 vel;
#X floatatom 173 223 5 0 0 0 - - -;
#X obj 494 185 expr ($f1-1)*96;
#X obj 86 258 pack f f;
#X obj 84 294 unpack f f;
#X obj 141 184 expr $f1*96 + 48 + $f2;
#X floatatom 491 314 5 0 0 0 - - -;
#X floatatom 530 244 5 0 0 0 - - -;
#X obj 183 153 i;
#X obj 253 136 t b f;
#X obj 622 77 inlet;
#X obj 622 132 * 384;
#X obj 478 341 + 0;
#X obj 210 336 + 0;
#X obj 623 107 - 1;
#X text 667 77 beat idx starting from 1;
#X obj 622 154 * 1;
#X connect 0 0 1 0;
#X connect 1 0 3 0;
#X connect 3 0 4 0;
#X connect 3 0 6 0;
#X connect 4 0 13 0;
#X connect 5 0 1 1;
#X connect 6 0 7 0;
#X connect 7 0 12 0;
#X connect 7 1 32 0;
#X connect 9 0 10 0;
#X connect 9 1 14 0;
#X connect 9 2 0 0;
#X connect 10 0 29 0;
#X connect 11 0 10 0;
#X connect 11 1 10 1;
#X connect 11 2 0 0;
#X connect 12 0 24 0;
#X connect 13 0 3 1;
#X connect 13 0 5 0;
#X connect 14 0 31 0;
#X connect 14 0 34 1;
#X connect 15 0 28 0;
#X connect 21 0 11 0;
#X connect 22 0 9 0;
#X connect 28 0 6 1;
#X connect 28 0 33 0;
#X connect 29 0 30 0;
#X connect 30 0 18 0;
#X connect 30 1 39 0;
#X connect 31 0 27 0;
#X connect 31 0 29 1;
#X connect 32 0 38 0;
#X connect 33 0 35 0;
#X connect 34 0 31 0;
#X connect 35 0 34 0;
#X connect 35 1 31 1;
#X connect 36 0 40 0;
#X connect 37 0 42 0;
#X connect 38 0 23 0;
#X connect 39 0 17 0;
#X connect 40 0 37 0;
#X connect 42 0 39 1;
#X connect 42 0 38 1;
