#N canvas 0 23 1356 806 12;
#X obj 74 148 oscparse;
#X obj 74 177 list trim;
#X obj 74 123 netreceive -u -b 5000;
#X msg 165 102 listen 0;
#X msg 73 101 listen \$1;
#X floatatom 117 551 5 0 0 0 - - -;
#X floatatom 212 527 5 0 0 0 - - -;
#X floatatom 147 631 5 0 0 0 - - -;
#X text 203 616 find location for hit;
#X obj 89 884 tabwrite, f 18;
#X obj 218 495 r ix;
#X obj 127 517 r offset;
#X obj 73 732 r vel;
#X msg 9 255 \; KICK const 0 \; SNARE const 0 \; HH_CLOSED const 0
\; HH_OPEN const 0 \; TOM_3_LO const 0 \; TOM_2_MID const 0 \; TOM_1_HI
const 0 \; CRASH const 0 \; RIDE const 0 \;;
#X obj 272 246 unpack s s f f f;
#X obj 381 282 s ix;
#X obj 353 302 s offset;
#X obj 326 323 s vel;
#X obj 300 347 s voice;
#X msg 14 679 set \$1;
#X obj 12 640 r voice;
#X obj 84 793 f;
#X obj 213 395 s update_now;
#X obj 74 666 r update_now;
#X obj 250 363 t b b;
#X floatatom 501 641 5 0 0 0 - - -;
#X obj 506 767 +;
#X obj 503 575 until;
#X obj 503 603 f;
#X obj 541 603 + 1;
#X msg 511 544 96;
#X obj 541 629 mod 96;
#X obj 430 745 * 96;
#X msg 245 829 0;
#X floatatom 335 785 5 0 0 0 - - -;
#X obj 280 804 t b f;
#X text 581 769 reset range;
#X obj 504 487 r reset_range;
#X obj 322 390 s reset_range;
#X obj 156 797 f;
#X obj 56 710 t b b, f 11;
#X obj 77 207 route reset_table;
#X text 254 450 comment;
#X text 55 235 RESETS TABLES;
#X text 231 257 comment;
#X text 222 212 OTHER MESSAGE WHICH IS FOR GENERATED NOTES;
#X floatatom 586 595 5 0 0 0 - - -;
#X obj 586 571 r step_ticks;
#X floatatom 455 718 5 0 0 0 - - -;
#X obj 455 694 r step_ticks;
#X floatatom 282 540 5 0 0 0 - - -;
#X obj 282 516 r step_ticks;
#X obj 374 515 r half_step_ticks;
#X obj 374 539 + 1;
#X floatatom 374 563 5 0 0 0 - - -;
#X obj 138 585 expr ($f2+$f1) * $f3 + $f4;
#X obj 73 77 r py2pd_port;
#X obj 184 38 r disconnect_py2pd_connection;
#X connect 0 0 1 0;
#X connect 1 0 41 0;
#X connect 2 0 0 0;
#X connect 3 0 2 0;
#X connect 4 0 2 0;
#X connect 5 0 55 0;
#X connect 6 0 32 0;
#X connect 6 0 55 1;
#X connect 7 0 39 1;
#X connect 10 0 6 0;
#X connect 11 0 5 0;
#X connect 12 0 21 1;
#X connect 14 0 24 0;
#X connect 14 1 18 0;
#X connect 14 2 17 0;
#X connect 14 3 16 0;
#X connect 14 4 15 0;
#X connect 19 0 9 0;
#X connect 20 0 19 0;
#X connect 21 0 9 0;
#X connect 23 0 40 0;
#X connect 24 0 22 0;
#X connect 24 1 38 0;
#X connect 25 0 26 0;
#X connect 26 0 34 0;
#X connect 27 0 28 0;
#X connect 28 0 29 0;
#X connect 28 0 25 0;
#X connect 29 0 31 0;
#X connect 30 0 27 0;
#X connect 31 0 28 1;
#X connect 32 0 26 1;
#X connect 33 0 9 0;
#X connect 34 0 35 0;
#X connect 35 0 33 0;
#X connect 35 1 9 1;
#X connect 37 0 30 0;
#X connect 39 0 9 1;
#X connect 40 0 21 0;
#X connect 40 1 39 0;
#X connect 41 0 13 0;
#X connect 41 1 14 0;
#X connect 46 0 31 1;
#X connect 47 0 46 0;
#X connect 48 0 32 1;
#X connect 49 0 48 0;
#X connect 50 0 55 2;
#X connect 51 0 50 0;
#X connect 52 0 53 0;
#X connect 53 0 54 0;
#X connect 54 0 55 3;
#X connect 55 0 7 0;
#X connect 56 0 4 0;
#X connect 57 0 3 0;
