#N canvas 480 343 1440 806 12;
#X floatatom 160 130 5 0 0 0 - - -;
#X obj 160 159 moses 50;
#X obj 198 230 +;
#X obj 234 231 i;
#X msg 160 193 1;
#X msg 204 192 -1;
#X floatatom 236 275 5 0 0 0 - - -;
#X obj 164 41 inlet;
#X obj 162 363 outlet;
#X text 352 20 Push encoders generate hi (127) when moved left and
low (1) when moved right. THis patch increases the output when rotary
is moved to the right and decreases vice versa;
#X obj 459 369 outlet;
#X obj 430 286 + 0;
#X obj 438 197 t b f;
#X floatatom 470 227 5 0 0 0 - - -;
#X obj 431 100 inlet;
#X text 475 127 initial offset;
#X text 77 390 the actual value of rotary encoder relative to 0;
#X text 442 400 the actual value of rotary encoder relative to initial
offset;
#X obj 642 101 inlet;
#X text 691 101 increment/decrement amount ratio;
#X obj 985 148 loadbang;
#X obj 976 103 inlet;
#X floatatom 977 303 5 0 0 0 - - -;
#X obj 977 270 unpack f f;
#X floatatom 1055 313 5 0 0 0 - - -;
#X text 1025 103 min/max range;
#X obj 544 319 expr if ($f1<$f2 \, $f2 \, if($f1 >$f3 \, $f3 \, $f1))
;
#X msg 984 174 -127 127;
#X obj 485 250 * 1;
#X floatatom 641 137 5 0 0 0 - - -;
#X obj 733 126 loadbang;
#X msg 734 155 1;
#X floatatom 568 365 5 0 0 0 - - -;
#X connect 0 0 1 0;
#X connect 1 0 4 0;
#X connect 1 1 5 0;
#X connect 2 0 3 0;
#X connect 3 0 2 1;
#X connect 3 0 6 0;
#X connect 4 0 2 0;
#X connect 5 0 2 0;
#X connect 6 0 8 0;
#X connect 6 0 12 0;
#X connect 7 0 0 0;
#X connect 11 0 26 0;
#X connect 12 0 11 0;
#X connect 12 1 13 0;
#X connect 13 0 28 0;
#X connect 14 0 11 0;
#X connect 18 0 29 0;
#X connect 20 0 27 0;
#X connect 21 0 23 0;
#X connect 22 0 26 1;
#X connect 23 0 22 0;
#X connect 23 1 24 0;
#X connect 24 0 26 2;
#X connect 26 0 10 0;
#X connect 26 0 32 0;
#X connect 27 0 23 0;
#X connect 28 0 11 1;
#X connect 29 0 28 1;
#X connect 30 0 31 0;
#X connect 31 0 29 0;
