#N canvas 38 183 1440 806 12;
#X obj 89 166 expr $f1/$f2*$f3;
#X obj 91 201 t b f;
#X floatatom 144 140 5 0 0 0 - - -;
#X floatatom 242 160 5 0 0 0 - - -;
#X floatatom 71 59 5 0 0 0 - - -;
#X floatatom 124 228 5 0 0 0 - - -;
#X obj 102 110 f;
#X floatatom 102 134 5 0 0 0 - - -;
#X obj 70 84 t f f b;
#X obj 55 22 inlet;
#X obj 287 21 inlet;
#X text 95 24 scale factor;
#X text 335 21 velocity;
#X obj 124 248 outlet;
#X text 179 251 new velocity;
#X connect 0 0 1 0;
#X connect 1 1 5 0;
#X connect 2 0 0 1;
#X connect 3 0 0 2;
#X connect 4 0 8 0;
#X connect 5 0 13 0;
#X connect 6 0 7 0;
#X connect 7 0 2 0;
#X connect 8 0 6 0;
#X connect 8 1 0 0;
#X connect 8 2 6 0;
#X connect 9 0 4 0;
#X connect 10 0 3 0;
